<svg width="142" height="45" viewBox="0 0 142 45" fill="none" xmlns="http://www.w3.org/2000/svg">
<rect y="0.718506" width="141.239" height="43.5628" rx="8" fill="#2E3A59"/>
<path d="M29.1039 21.6605C29.1164 20.7277 29.3726 19.8131 29.8489 19.0018C30.3251 18.1905 31.0059 17.5088 31.8278 17.0203C31.3057 16.2992 30.6168 15.7059 29.816 15.2873C29.0152 14.8687 28.1244 14.6364 27.2145 14.6089C25.2735 14.4119 23.3918 15.7319 22.4027 15.7319C21.3945 15.7319 19.8716 14.6284 18.2317 14.6611C17.171 14.6942 16.1372 14.9924 15.2312 15.5267C14.3251 16.061 13.5776 16.813 13.0616 17.7097C10.8261 21.4518 12.4935 26.9514 14.6349 29.9763C15.7063 31.4575 16.9585 33.112 18.5969 33.0533C20.2001 32.989 20.7989 32.0648 22.7342 32.0648C24.6516 32.0648 25.2133 33.0533 26.885 33.016C28.6054 32.989 29.6893 31.5282 30.7231 30.033C31.4929 28.9776 32.0852 27.8112 32.4782 26.5769C31.4787 26.1682 30.6258 25.484 30.0257 24.6097C29.4257 23.7355 29.1051 22.7098 29.1039 21.6605Z" fill="white"/>
<path d="M25.9465 12.6195C26.8845 11.5308 27.3466 10.1314 27.2347 8.71851C25.8016 8.86404 24.4779 9.52627 23.5272 10.5732C23.0623 11.0847 22.7063 11.6798 22.4795 12.3243C22.2527 12.9689 22.1594 13.6504 22.2052 14.3299C22.922 14.337 23.6311 14.1868 24.2792 13.8905C24.9272 13.5943 25.4973 13.1597 25.9465 12.6195Z" fill="white"/>
<path d="M48.3882 9.04736C48.8386 9.01612 49.2905 9.0819 49.7113 9.23996C50.1322 9.39802 50.5115 9.64442 50.822 9.9614C51.1324 10.2784 51.3663 10.658 51.5066 11.0729C51.6469 11.4879 51.6903 11.9277 51.6335 12.3608C51.6335 14.4912 50.4426 15.7158 48.3882 15.7158H45.897V9.04736H48.3882ZM46.9682 14.7727H48.2686C48.5904 14.7913 48.9124 14.7403 49.2112 14.6234C49.5101 14.5065 49.7782 14.3266 49.9961 14.0969C50.2139 13.8671 50.3761 13.5933 50.4707 13.2953C50.5653 12.9974 50.5901 12.6828 50.5431 12.3744C50.5866 12.0672 50.5594 11.7546 50.4633 11.4588C50.3673 11.163 50.2047 10.8914 49.9873 10.6635C49.77 10.4356 49.5031 10.257 49.206 10.1405C48.9088 10.024 48.5887 9.97253 48.2686 9.98971H46.9682V14.7727Z" fill="white"/>
<path d="M52.8436 13.1968C52.8109 12.8661 52.8501 12.5324 52.9585 12.2172C53.067 11.9019 53.2424 11.6121 53.4735 11.3662C53.7046 11.1204 53.9863 10.924 54.3005 10.7895C54.6148 10.6551 54.9546 10.5857 55.2982 10.5857C55.6418 10.5857 55.9816 10.6551 56.2958 10.7895C56.6101 10.924 56.8918 11.1204 57.1229 11.3662C57.354 11.6121 57.5294 11.9019 57.6379 12.2172C57.7463 12.5324 57.7855 12.8661 57.7527 13.1968C57.7861 13.5278 57.7474 13.862 57.6392 14.1777C57.5311 14.4934 57.3558 14.7838 57.1246 15.0301C56.8934 15.2765 56.6115 15.4733 56.297 15.608C55.9824 15.7427 55.6422 15.8123 55.2982 15.8123C54.9542 15.8123 54.614 15.7427 54.2994 15.608C53.9849 15.4733 53.703 15.2765 53.4718 15.0301C53.2406 14.7838 53.0653 14.4934 52.9571 14.1777C52.849 13.862 52.8103 13.5278 52.8436 13.1968ZM56.6962 13.1968C56.6962 12.1059 56.1894 11.468 55.2999 11.468C54.407 11.468 53.9047 12.1059 53.9047 13.1968C53.9047 14.2964 54.4071 14.9294 55.2999 14.9294C56.1894 14.9293 56.6962 14.292 56.6962 13.1968H56.6962Z" fill="white"/>
<path d="M64.2781 15.7152H63.2125L62.1368 12.0089H62.0555L60.9843 15.7152H59.9288L58.4941 10.6829H59.536L60.4684 14.5229H60.5452L61.6153 10.6829H62.6007L63.6708 14.5229H63.7521L64.6799 10.6829H65.7071L64.2781 15.7152Z" fill="white"/>
<path d="M66.9136 10.6829H67.9024V11.4823H67.9792C68.1094 11.1952 68.329 10.9545 68.6074 10.7938C68.8858 10.6331 69.2092 10.5604 69.5324 10.5858C69.7856 10.5674 70.0399 10.6043 70.2764 10.6938C70.5129 10.7833 70.7255 10.9231 70.8985 11.1029C71.0716 11.2826 71.2005 11.4977 71.2759 11.7322C71.3513 11.9667 71.3711 12.2146 71.3339 12.4575V15.7152H70.3067V12.7069C70.3067 11.8982 69.9433 11.496 69.1836 11.496C69.0116 11.4882 68.84 11.5165 68.6804 11.5789C68.5208 11.6413 68.3771 11.7363 68.259 11.8575C68.141 11.9786 68.0514 12.123 67.9965 12.2807C67.9416 12.4384 67.9226 12.6058 67.9408 12.7713V15.7153H66.9136L66.9136 10.6829Z" fill="white"/>
<path d="M72.9712 8.71851H73.9984V15.7154H72.9712V8.71851Z" fill="white"/>
<path d="M75.4261 13.1969C75.3934 12.8661 75.4326 12.5324 75.5411 12.2172C75.6496 11.902 75.825 11.6121 76.0562 11.3663C76.2873 11.1204 76.569 10.924 76.8833 10.7895C77.1975 10.6551 77.5373 10.5857 77.881 10.5857C78.2246 10.5857 78.5644 10.6551 78.8787 10.7895C79.1929 10.924 79.4747 11.1204 79.7058 11.3663C79.9369 11.6121 80.1124 11.902 80.2208 12.2172C80.3293 12.5324 80.3685 12.8661 80.3358 13.1969C80.3691 13.5279 80.3304 13.8621 80.2222 14.1778C80.114 14.4936 79.9386 14.7839 79.7074 15.0302C79.4763 15.2766 79.1943 15.4734 78.8798 15.6081C78.5652 15.7428 78.225 15.8124 77.881 15.8124C77.5369 15.8124 77.1967 15.7428 76.8822 15.6081C76.5676 15.4734 76.2857 15.2766 76.0545 15.0302C75.8233 14.7839 75.648 14.4936 75.5397 14.1778C75.4315 13.8621 75.3928 13.5279 75.4261 13.1969ZM79.2787 13.1969C79.2787 12.106 78.7718 11.4681 77.8824 11.4681C76.9895 11.4681 76.4872 12.106 76.4872 13.1969C76.4872 14.2965 76.9895 14.9294 77.8824 14.9294C78.7719 14.9294 79.2787 14.2921 79.2787 13.1969H79.2787Z" fill="white"/>
<path d="M81.417 14.292C81.417 13.3862 82.1146 12.864 83.3529 12.7897L84.7627 12.7112V12.2768C84.7627 11.7453 84.3993 11.4452 83.6971 11.4452C83.1237 11.4452 82.7264 11.6487 82.6124 12.0045H81.6179C81.7229 11.1401 82.5638 10.5857 83.7446 10.5857C85.0494 10.5857 85.7854 11.2138 85.7854 12.2768V15.7152H84.7966V15.008H84.7153C84.5504 15.2617 84.3187 15.4685 84.044 15.6073C83.7694 15.7461 83.4615 15.8119 83.1519 15.7981C82.9334 15.8201 82.7126 15.7975 82.5037 15.7319C82.2947 15.6663 82.1023 15.5591 81.9389 15.4172C81.7754 15.2753 81.6445 15.1019 81.5546 14.9081C81.4647 14.7143 81.4179 14.5044 81.417 14.292ZM84.7627 13.862V13.4413L83.4917 13.5199C82.7749 13.5662 82.4498 13.802 82.4498 14.2456C82.4498 14.6986 82.8562 14.9621 83.415 14.9621C83.5787 14.9781 83.7441 14.9622 83.9013 14.9151C84.0585 14.8681 84.2043 14.791 84.3301 14.6883C84.4558 14.5857 84.5589 14.4596 84.6332 14.3177C84.7076 14.1757 84.7516 14.0208 84.7627 13.862Z" fill="white"/>
<path d="M87.1357 13.197C87.1357 11.6069 87.9812 10.5995 89.2962 10.5995C89.6215 10.585 89.9444 10.6604 90.227 10.8167C90.5097 10.973 90.7404 11.2039 90.8924 11.4824H90.9691V8.71851H91.9963V15.7154H91.012V14.9203H90.9307C90.7671 15.1969 90.5282 15.4249 90.2401 15.5797C89.952 15.7344 89.6256 15.81 89.2963 15.7983C87.9722 15.7984 87.1357 14.791 87.1357 13.197ZM88.1968 13.197C88.1968 14.2644 88.7172 14.9067 89.5875 14.9067C90.4533 14.9067 90.9883 14.2551 90.9883 13.2014C90.9883 12.1526 90.4477 11.4917 89.5875 11.4917C88.7228 11.4917 88.1968 12.1384 88.1968 13.197H88.1968Z" fill="white"/>
<path d="M96.246 13.1968C96.2133 12.8661 96.2524 12.5324 96.3609 12.2172C96.4693 11.9019 96.6447 11.6121 96.8759 11.3662C97.107 11.1204 97.3887 10.924 97.7029 10.7895C98.0171 10.6551 98.3569 10.5857 98.7005 10.5857C99.0442 10.5857 99.384 10.6551 99.6982 10.7895C100.012 10.924 100.294 11.1204 100.525 11.3662C100.756 11.6121 100.932 11.9019 101.04 12.2172C101.149 12.5324 101.188 12.8661 101.155 13.1968C101.188 13.5278 101.15 13.862 101.042 14.1777C100.933 14.4934 100.758 14.7838 100.527 15.0301C100.296 15.2765 100.014 15.4733 99.6993 15.608C99.3848 15.7427 99.0446 15.8123 98.7005 15.8123C98.3565 15.8123 98.0163 15.7427 97.7018 15.608C97.3872 15.4733 97.1053 15.2765 96.8741 15.0301C96.643 14.7838 96.4677 14.4934 96.3595 14.1777C96.2513 13.862 96.2126 13.5278 96.246 13.1968ZM100.099 13.1968C100.099 12.1059 99.5917 11.468 98.7022 11.468C97.8094 11.468 97.3071 12.1059 97.3071 13.1968C97.3071 14.2964 97.8094 14.9294 98.7022 14.9294C99.5917 14.9293 100.099 14.292 100.099 13.1968Z" fill="white"/>
<path d="M102.534 10.6829H103.523V11.4823H103.599C103.729 11.1952 103.949 10.9545 104.228 10.7938C104.506 10.6331 104.829 10.5604 105.152 10.5858C105.406 10.5674 105.66 10.6043 105.897 10.6938C106.133 10.7833 106.346 10.9231 106.519 11.1029C106.692 11.2826 106.821 11.4977 106.896 11.7322C106.971 11.9667 106.991 12.2146 106.954 12.4575V15.7152H105.927V12.7069C105.927 11.8982 105.563 11.496 104.804 11.496C104.632 11.4882 104.46 11.5165 104.301 11.5789C104.141 11.6413 103.997 11.7363 103.879 11.8575C103.761 11.9786 103.672 12.123 103.617 12.2807C103.562 12.4384 103.543 12.6058 103.561 12.7713V15.7153H102.534V10.6829Z" fill="white"/>
<path d="M112.757 9.42993V10.7058H113.885V11.5423H112.757V14.13C112.757 14.6571 112.982 14.8879 113.493 14.8879C113.624 14.8875 113.755 14.8799 113.885 14.865V15.6923C113.701 15.7242 113.514 15.7412 113.326 15.743C112.184 15.743 111.729 15.3545 111.729 14.3843V11.5423H110.903V10.7057H111.729V9.42993H112.757Z" fill="white"/>
<path d="M115.289 8.71851H116.307V11.4917H116.388C116.525 11.2019 116.751 10.9598 117.035 10.7985C117.319 10.6372 117.647 10.5645 117.976 10.5902C118.227 10.577 118.479 10.6176 118.713 10.7093C118.947 10.801 119.157 10.9415 119.328 11.1207C119.499 11.2999 119.628 11.5134 119.704 11.746C119.78 11.9786 119.802 12.2245 119.768 12.4663V15.7154H118.74V12.7113C118.74 11.9075 118.353 11.5004 117.627 11.5004C117.45 11.4864 117.273 11.5099 117.107 11.5692C116.94 11.6285 116.79 11.7222 116.665 11.8437C116.54 11.9652 116.444 12.1116 116.384 12.2727C116.324 12.4338 116.301 12.6057 116.316 12.7763V15.7154H115.289L115.289 8.71851Z" fill="white"/>
<path d="M125.758 14.3565C125.618 14.8164 125.316 15.2143 124.903 15.4804C124.491 15.7466 123.995 15.8641 123.502 15.8124C123.159 15.8212 122.819 15.7577 122.504 15.6263C122.189 15.495 121.907 15.2989 121.678 15.0518C121.449 14.8046 121.279 14.5123 121.179 14.1951C121.079 13.8779 121.051 13.5435 121.098 13.2149C121.052 12.8854 121.08 12.5502 121.18 12.232C121.28 11.9139 121.45 11.6202 121.677 11.3709C121.905 11.1216 122.185 10.9225 122.499 10.787C122.813 10.6516 123.154 10.5829 123.498 10.5858C124.946 10.5858 125.82 11.5424 125.82 13.1227V13.4692H122.144V13.5249C122.128 13.7096 122.152 13.8954 122.215 14.0706C122.277 14.2458 122.377 14.4064 122.508 14.5421C122.638 14.6779 122.796 14.7857 122.973 14.8588C123.149 14.9319 123.339 14.9686 123.53 14.9666C123.776 14.9951 124.025 14.9523 124.246 14.8437C124.466 14.735 124.648 14.5654 124.769 14.3565L125.758 14.3565ZM122.144 12.7347H124.773C124.786 12.5658 124.762 12.3962 124.703 12.2367C124.645 12.0772 124.552 11.9313 124.431 11.8086C124.311 11.6858 124.165 11.5888 124.003 11.5238C123.841 11.4588 123.667 11.4272 123.492 11.4311C123.314 11.4289 123.138 11.4611 122.973 11.5259C122.809 11.5907 122.659 11.6866 122.534 11.8081C122.408 11.9296 122.309 12.0742 122.242 12.2333C122.175 12.3925 122.142 12.5629 122.144 12.7347H122.144Z" fill="white"/>
<path d="M51.5806 29.1826H46.1093L44.7954 32.9337H42.478L47.6603 19.0557H50.068L55.2503 32.9337H52.8934L51.5806 29.1826ZM46.676 27.4517H51.0129L48.8749 21.364H48.8151L46.676 27.4517Z" fill="white"/>
<path d="M66.4422 27.8754C66.4422 31.0197 64.7016 33.0398 62.0749 33.0398C61.4096 33.0735 60.7478 32.9253 60.1655 32.6122C59.5832 32.2991 59.1038 31.8338 58.7823 31.2696H58.7326V36.2812H56.5845V22.8157H58.6637V24.4987H58.7032C59.0396 23.9371 59.527 23.4742 60.1138 23.1592C60.7005 22.8443 61.3647 22.689 62.0354 22.7099C64.6914 22.7099 66.4422 24.7399 66.4422 27.8754ZM64.2343 27.8754C64.2343 25.8269 63.1394 24.4801 61.4688 24.4801C59.8275 24.4801 58.7236 25.8552 58.7236 27.8754C58.7236 29.9141 59.8275 31.2794 61.4688 31.2794C63.1394 31.2794 64.2343 29.9425 64.2343 27.8754Z" fill="white"/>
<path d="M77.9608 27.8754C77.9608 31.0197 76.2202 33.0398 73.5935 33.0398C72.9281 33.0735 72.2664 32.9253 71.684 32.6122C71.1017 32.2991 70.6223 31.8338 70.3008 31.2696H70.2511V36.2812H68.103V22.8157H70.1822V24.4986H70.2218C70.5581 23.9371 71.0455 23.4742 71.6323 23.1592C72.2191 22.8442 72.8832 22.689 73.5539 22.7099C76.21 22.7099 77.9608 24.7398 77.9608 27.8754ZM75.7529 27.8754C75.7529 25.8269 74.6579 24.4801 72.9873 24.4801C71.3461 24.4801 70.2421 25.8552 70.2421 27.8754C70.2421 29.9141 71.3461 31.2794 72.9873 31.2794C74.6579 31.2794 75.7529 29.9425 75.7529 27.8754H75.7529Z" fill="white"/>
<path d="M85.5729 29.0669C85.7321 30.4431 87.1149 31.3468 89.0045 31.3468C90.815 31.3468 92.1177 30.4431 92.1177 29.2022C92.1177 28.125 91.332 27.48 89.4718 27.038L87.6115 26.6047C84.9758 25.9892 83.7522 24.7974 83.7522 22.8634C83.7522 20.4689 85.9105 18.8242 88.9751 18.8242C92.0081 18.8242 94.0874 20.4689 94.1574 22.8634H91.989C91.8591 21.4785 90.675 20.6425 88.9446 20.6425C87.2142 20.6425 86.0301 21.4883 86.0301 22.7194C86.0301 23.7005 86.7864 24.2779 88.6364 24.7198L90.2179 25.0953C93.1629 25.7687 94.3865 26.9125 94.3865 28.9424C94.3865 31.5388 92.2474 33.165 88.8453 33.165C85.6621 33.165 83.5129 31.577 83.374 29.0668L85.5729 29.0669Z" fill="white"/>
<path d="M99.0226 20.4209V22.8154H101.013V24.4601H99.0226V30.0382C99.0226 30.9047 99.4211 31.3085 100.296 31.3085C100.532 31.3046 100.768 31.2885 101.003 31.2605V32.8954C100.609 32.9664 100.209 32.9986 99.8094 32.9914C97.6907 32.9914 96.8644 32.222 96.8644 30.2597V24.4601H95.3428V22.8154H96.8643V20.4209H99.0226Z" fill="white"/>
<path d="M102.166 27.875C102.166 24.6914 104.105 22.6909 107.129 22.6909C110.163 22.6909 112.093 24.6914 112.093 27.875C112.093 31.0673 110.173 33.0591 107.129 33.0591C104.086 33.0591 102.166 31.0673 102.166 27.875ZM109.904 27.875C109.904 25.6911 108.869 24.4022 107.129 24.4022C105.388 24.4022 104.354 25.701 104.354 27.875C104.354 30.0676 105.388 31.3467 107.129 31.3467C108.869 31.3467 109.904 30.0676 109.904 27.875H109.904Z" fill="white"/>
<path d="M113.863 22.8156H115.912V24.5378H115.962C116.1 24 116.426 23.5246 116.885 23.1917C117.343 22.8588 117.906 22.6886 118.479 22.7098C118.726 22.7089 118.973 22.7349 119.215 22.7873V24.7299C118.902 24.6376 118.576 24.5952 118.25 24.6044C117.938 24.5922 117.627 24.6454 117.338 24.7604C117.049 24.8753 116.789 25.0494 116.577 25.2705C116.364 25.4917 116.203 25.7547 116.106 26.0416C116.008 26.3284 115.976 26.6323 116.011 26.9323V32.9338H113.863L113.863 22.8156Z" fill="white"/>
<path d="M129.119 29.9617C128.83 31.7985 126.98 33.0591 124.613 33.0591C121.569 33.0591 119.679 31.0869 119.679 27.923C119.679 24.7493 121.579 22.6909 124.523 22.6909C127.418 22.6909 129.239 24.6139 129.239 27.6818V28.3934H121.848V28.5189C121.814 28.8913 121.862 29.2664 121.989 29.6194C122.116 29.9724 122.32 30.2951 122.586 30.5662C122.853 30.8372 123.175 31.0504 123.533 31.1916C123.891 31.3327 124.276 31.3986 124.663 31.3849C125.17 31.4309 125.68 31.3172 126.115 31.0608C126.551 30.8043 126.889 30.4189 127.08 29.9617L129.119 29.9617ZM121.858 26.9419H127.09C127.109 26.607 127.056 26.272 126.935 25.9577C126.815 25.6434 126.628 25.3567 126.387 25.1156C126.146 24.8745 125.856 24.6841 125.535 24.5564C125.214 24.4288 124.87 24.3666 124.523 24.3738C124.173 24.3718 123.826 24.4368 123.503 24.565C123.179 24.6933 122.885 24.8822 122.637 25.121C122.389 25.3597 122.193 25.6435 122.059 25.9561C121.925 26.2686 121.857 26.6036 121.858 26.9419V26.9419Z" fill="white"/>
</svg>
