<svg width="11" height="17" viewBox="0 0 11 17" fill="none" xmlns="http://www.w3.org/2000/svg">
<path d="M0.727539 8.36964C0.727539 8.53277 0.757009 8.68334 0.815948 8.82137C0.881436 8.95939 0.979667 9.09114 1.11064 9.21662L8.7629 16.3877C8.98556 16.601 9.25406 16.7077 9.5684 16.7077C9.78451 16.7077 9.9777 16.6575 10.148 16.5571C10.3248 16.463 10.4656 16.3312 10.5704 16.1618C10.6751 15.9987 10.7275 15.8168 10.7275 15.616C10.7275 15.3149 10.6064 15.0482 10.3641 14.8161L3.46821 8.36964L10.3641 1.92319C10.6064 1.69106 10.7275 1.42755 10.7275 1.13268C10.7275 0.925638 10.6751 0.740558 10.5704 0.577436C10.4656 0.414314 10.3248 0.285698 10.148 0.19159C9.9777 0.091207 9.78451 0.0410156 9.5684 0.0410156C9.25406 0.0410156 8.98556 0.144535 8.7629 0.351575L1.11064 7.52266C0.979667 7.64814 0.881436 7.77989 0.815948 7.91792C0.757009 8.05595 0.727539 8.20652 0.727539 8.36964Z" fill="#1F74D5"/>
</svg>
