<?xml version="1.0" standalone="no"?>
<!DOCTYPE svg PUBLIC "-//W3C//DTD SVG 20010904//EN"
 "http://www.w3.org/TR/2001/REC-SVG-20010904/DTD/svg10.dtd">
<svg version="1.0" xmlns="http://www.w3.org/2000/svg"
 width="93.000000pt" height="30.000000pt" viewBox="0 0 93.000000 30.000000"
 preserveAspectRatio="xMidYMid meet">

<g transform="translate(0.000000,30.000000) scale(0.100000,-0.100000)"
fill="#000000" stroke="none">
<path d="M40 150 l0 -80 60 0 60 0 0 54 c0 58 -8 66 -72 66 -21 0 -28 5 -28
20 0 11 -4 20 -10 20 -6 0 -10 -33 -10 -80z m100 -25 c0 -34 -1 -35 -40 -35
-39 0 -40 1 -40 35 0 34 1 35 40 35 39 0 40 -1 40 -35z"/>
<path d="M486 223 c-3 -3 -6 -39 -6 -80 0 -58 3 -73 15 -73 8 0 15 9 15 20 0
11 6 20 13 20 8 0 22 -9 32 -20 10 -11 25 -20 33 -20 11 0 8 8 -11 28 l-27 28
27 27 c35 35 21 48 -15 14 -39 -38 -52 -34 -52 12 0 38 -10 57 -24 44z"/>
<path d="M190 175 c0 -11 12 -15 50 -15 28 0 50 -4 50 -10 0 -5 -23 -10 -51
-10 l-50 0 3 -32 c3 -33 4 -33 61 -36 l57 -3 0 50 c0 58 -14 71 -79 71 -30 0
-41 -4 -41 -15z m100 -70 c0 -11 -11 -15 -40 -15 -29 0 -40 4 -40 15 0 11 11
15 40 15 29 0 40 -4 40 -15z"/>
<path d="M340 130 c0 -33 4 -60 10 -60 6 0 10 21 10 46 l0 45 38 -3 c36 -3 37
-4 40 -45 4 -60 22 -54 22 7 0 57 -14 70 -79 70 l-41 0 0 -60z"/>
</g>
</svg>
