<svg width="151" height="150" viewBox="0 0 151 150" fill="none" xmlns="http://www.w3.org/2000/svg">
<mask id="path-1-inside-1_1555_3274" fill="white">
<path d="M75.5 23.4375C73.0136 23.4375 70.629 24.4252 68.8709 26.1834C67.1127 27.9415 66.125 30.3261 66.125 32.8125C66.125 35.2989 67.1127 37.6835 68.8709 39.4416C70.629 41.1998 73.0136 42.1875 75.5 42.1875C77.9864 42.1875 80.371 41.1998 82.1291 39.4416C83.8873 37.6835 84.875 35.2989 84.875 32.8125C84.875 30.3261 83.8873 27.9415 82.1291 26.1834C80.371 24.4252 77.9864 23.4375 75.5 23.4375ZM56.75 32.8125C56.75 27.8397 58.7254 23.0706 62.2417 19.5542C65.7581 16.0379 70.5272 14.0625 75.5 14.0625C80.4728 14.0625 85.2419 16.0379 88.7582 19.5542C92.2746 23.0706 94.25 27.8397 94.25 32.8125C94.25 37.7853 92.2746 42.5544 88.7582 46.0708C85.2419 49.5871 80.4728 51.5625 75.5 51.5625C70.5272 51.5625 65.7581 49.5871 62.2417 46.0708C58.7254 42.5544 56.75 37.7853 56.75 32.8125ZM120.031 28.125C118.166 28.125 116.378 28.8658 115.059 30.1844C113.741 31.503 113 33.2914 113 35.1562C113 37.0211 113.741 38.8095 115.059 40.1281C116.378 41.4467 118.166 42.1875 120.031 42.1875C121.896 42.1875 123.684 41.4467 125.003 40.1281C126.322 38.8095 127.062 37.0211 127.062 35.1562C127.062 33.2914 126.322 31.503 125.003 30.1844C123.684 28.8658 121.896 28.125 120.031 28.125ZM103.625 35.1562C103.625 33.0018 104.049 30.8683 104.874 28.8778C105.698 26.8874 106.907 25.0787 108.43 23.5553C109.954 22.0318 111.762 20.8233 113.753 19.9988C115.743 19.1744 117.877 18.75 120.031 18.75C122.186 18.75 124.319 19.1744 126.31 19.9988C128.3 20.8233 130.109 22.0318 131.632 23.5553C133.156 25.0787 134.364 26.8874 135.189 28.8778C136.013 30.8683 136.438 33.0018 136.438 35.1562C136.438 39.5075 134.709 43.6805 131.632 46.7572C128.555 49.834 124.382 51.5625 120.031 51.5625C115.68 51.5625 111.507 49.834 108.43 46.7572C105.354 43.6805 103.625 39.5075 103.625 35.1562ZM23.9375 35.1562C23.9375 33.2914 24.6783 31.503 25.9969 30.1844C27.3155 28.8658 29.1039 28.125 30.9688 28.125C32.8336 28.125 34.622 28.8658 35.9406 30.1844C37.2592 31.503 38 33.2914 38 35.1562C38 37.0211 37.2592 38.8095 35.9406 40.1281C34.622 41.4467 32.8336 42.1875 30.9688 42.1875C29.1039 42.1875 27.3155 41.4467 25.9969 40.1281C24.6783 38.8095 23.9375 37.0211 23.9375 35.1562ZM30.9688 18.75C26.6175 18.75 22.4446 20.4785 19.3678 23.5553C16.291 26.632 14.5625 30.805 14.5625 35.1562C14.5625 39.5075 16.291 43.6805 19.3678 46.7572C22.4446 49.834 26.6175 51.5625 30.9688 51.5625C35.32 51.5625 39.493 49.834 42.5697 46.7572C45.6465 43.6805 47.375 39.5075 47.375 35.1562C47.375 30.805 45.6465 26.632 42.5697 23.5553C39.493 20.4785 35.32 18.75 30.9688 18.75ZM41.0516 114.867C38.9315 116.265 36.4727 117.062 33.9361 117.174C31.3995 117.287 28.8797 116.711 26.6442 115.507C24.4087 114.303 22.5409 112.516 21.2391 110.336C19.9372 108.156 19.2499 105.664 19.25 103.125V72.6562C19.25 72.0346 19.4969 71.4385 19.9365 70.999C20.376 70.5594 20.9721 70.3125 21.5938 70.3125H40.4891C40.9211 66.8816 42.2936 63.637 44.4547 60.9375H21.5938C18.4857 60.9375 15.505 62.1721 13.3073 64.3698C11.1097 66.5675 9.875 69.5482 9.875 72.6562V103.125C9.87379 107.161 10.915 111.129 12.8977 114.645C14.8804 118.161 17.7374 121.105 21.1921 123.192C24.6467 125.28 28.5818 126.439 32.6163 126.559C36.6508 126.679 40.6478 125.755 44.2203 123.877C42.7592 121.032 41.6931 118 41.0516 114.867ZM106.78 123.877C110.352 125.755 114.349 126.679 118.384 126.559C122.418 126.439 126.353 125.28 129.808 123.192C133.263 121.105 136.12 118.161 138.102 114.645C140.085 111.129 141.126 107.161 141.125 103.125V72.6562C141.125 69.5482 139.89 66.5675 137.693 64.3698C135.495 62.1721 132.514 60.9375 129.406 60.9375H106.545C108.706 63.637 110.079 66.8816 110.511 70.3125H129.406C130.028 70.3125 130.624 70.5594 131.064 70.999C131.503 71.4385 131.75 72.0346 131.75 72.6562V103.125C131.75 105.664 131.063 108.156 129.761 110.336C128.459 112.516 126.591 114.303 124.356 115.507C122.12 116.711 119.601 117.287 117.064 117.174C114.527 117.062 112.068 116.265 109.948 114.867C109.307 118 108.241 121.032 106.78 123.877ZM59.0938 60.9375C55.9857 60.9375 53.005 62.1721 50.8073 64.3698C48.6096 66.5675 47.375 69.5482 47.375 72.6562V107.812C47.375 115.272 50.3382 122.425 55.6126 127.7C60.8871 132.974 68.0408 135.938 75.5 135.938C82.9592 135.938 90.1129 132.974 95.3874 127.7C100.662 122.425 103.625 115.272 103.625 107.812V72.6562C103.625 69.5482 102.39 66.5675 100.193 64.3698C97.995 62.1721 95.0143 60.9375 91.9062 60.9375H59.0938ZM56.75 72.6562C56.75 72.0346 56.9969 71.4385 57.4365 70.999C57.876 70.5594 58.4721 70.3125 59.0938 70.3125H91.9062C92.5279 70.3125 93.124 70.5594 93.5635 70.999C94.0031 71.4385 94.25 72.0346 94.25 72.6562V107.812C94.25 112.785 92.2746 117.554 88.7582 121.071C85.2419 124.587 80.4728 126.562 75.5 126.562C70.5272 126.562 65.7581 124.587 62.2417 121.071C58.7254 117.554 56.75 112.785 56.75 107.812V72.6562Z"/>
</mask>
<path d="M75.5 23.4375C73.0136 23.4375 70.629 24.4252 68.8709 26.1834C67.1127 27.9415 66.125 30.3261 66.125 32.8125C66.125 35.2989 67.1127 37.6835 68.8709 39.4416C70.629 41.1998 73.0136 42.1875 75.5 42.1875C77.9864 42.1875 80.371 41.1998 82.1291 39.4416C83.8873 37.6835 84.875 35.2989 84.875 32.8125C84.875 30.3261 83.8873 27.9415 82.1291 26.1834C80.371 24.4252 77.9864 23.4375 75.5 23.4375ZM56.75 32.8125C56.75 27.8397 58.7254 23.0706 62.2417 19.5542C65.7581 16.0379 70.5272 14.0625 75.5 14.0625C80.4728 14.0625 85.2419 16.0379 88.7582 19.5542C92.2746 23.0706 94.25 27.8397 94.25 32.8125C94.25 37.7853 92.2746 42.5544 88.7582 46.0708C85.2419 49.5871 80.4728 51.5625 75.5 51.5625C70.5272 51.5625 65.7581 49.5871 62.2417 46.0708C58.7254 42.5544 56.75 37.7853 56.75 32.8125ZM120.031 28.125C118.166 28.125 116.378 28.8658 115.059 30.1844C113.741 31.503 113 33.2914 113 35.1562C113 37.0211 113.741 38.8095 115.059 40.1281C116.378 41.4467 118.166 42.1875 120.031 42.1875C121.896 42.1875 123.684 41.4467 125.003 40.1281C126.322 38.8095 127.062 37.0211 127.062 35.1562C127.062 33.2914 126.322 31.503 125.003 30.1844C123.684 28.8658 121.896 28.125 120.031 28.125ZM103.625 35.1562C103.625 33.0018 104.049 30.8683 104.874 28.8778C105.698 26.8874 106.907 25.0787 108.43 23.5553C109.954 22.0318 111.762 20.8233 113.753 19.9988C115.743 19.1744 117.877 18.75 120.031 18.75C122.186 18.75 124.319 19.1744 126.31 19.9988C128.3 20.8233 130.109 22.0318 131.632 23.5553C133.156 25.0787 134.364 26.8874 135.189 28.8778C136.013 30.8683 136.438 33.0018 136.438 35.1562C136.438 39.5075 134.709 43.6805 131.632 46.7572C128.555 49.834 124.382 51.5625 120.031 51.5625C115.68 51.5625 111.507 49.834 108.43 46.7572C105.354 43.6805 103.625 39.5075 103.625 35.1562ZM23.9375 35.1562C23.9375 33.2914 24.6783 31.503 25.9969 30.1844C27.3155 28.8658 29.1039 28.125 30.9688 28.125C32.8336 28.125 34.622 28.8658 35.9406 30.1844C37.2592 31.503 38 33.2914 38 35.1562C38 37.0211 37.2592 38.8095 35.9406 40.1281C34.622 41.4467 32.8336 42.1875 30.9688 42.1875C29.1039 42.1875 27.3155 41.4467 25.9969 40.1281C24.6783 38.8095 23.9375 37.0211 23.9375 35.1562ZM30.9688 18.75C26.6175 18.75 22.4446 20.4785 19.3678 23.5553C16.291 26.632 14.5625 30.805 14.5625 35.1562C14.5625 39.5075 16.291 43.6805 19.3678 46.7572C22.4446 49.834 26.6175 51.5625 30.9688 51.5625C35.32 51.5625 39.493 49.834 42.5697 46.7572C45.6465 43.6805 47.375 39.5075 47.375 35.1562C47.375 30.805 45.6465 26.632 42.5697 23.5553C39.493 20.4785 35.32 18.75 30.9688 18.75ZM41.0516 114.867C38.9315 116.265 36.4727 117.062 33.9361 117.174C31.3995 117.287 28.8797 116.711 26.6442 115.507C24.4087 114.303 22.5409 112.516 21.2391 110.336C19.9372 108.156 19.2499 105.664 19.25 103.125V72.6562C19.25 72.0346 19.4969 71.4385 19.9365 70.999C20.376 70.5594 20.9721 70.3125 21.5938 70.3125H40.4891C40.9211 66.8816 42.2936 63.637 44.4547 60.9375H21.5938C18.4857 60.9375 15.505 62.1721 13.3073 64.3698C11.1097 66.5675 9.875 69.5482 9.875 72.6562V103.125C9.87379 107.161 10.915 111.129 12.8977 114.645C14.8804 118.161 17.7374 121.105 21.1921 123.192C24.6467 125.28 28.5818 126.439 32.6163 126.559C36.6508 126.679 40.6478 125.755 44.2203 123.877C42.7592 121.032 41.6931 118 41.0516 114.867ZM106.78 123.877C110.352 125.755 114.349 126.679 118.384 126.559C122.418 126.439 126.353 125.28 129.808 123.192C133.263 121.105 136.12 118.161 138.102 114.645C140.085 111.129 141.126 107.161 141.125 103.125V72.6562C141.125 69.5482 139.89 66.5675 137.693 64.3698C135.495 62.1721 132.514 60.9375 129.406 60.9375H106.545C108.706 63.637 110.079 66.8816 110.511 70.3125H129.406C130.028 70.3125 130.624 70.5594 131.064 70.999C131.503 71.4385 131.75 72.0346 131.75 72.6562V103.125C131.75 105.664 131.063 108.156 129.761 110.336C128.459 112.516 126.591 114.303 124.356 115.507C122.12 116.711 119.601 117.287 117.064 117.174C114.527 117.062 112.068 116.265 109.948 114.867C109.307 118 108.241 121.032 106.78 123.877ZM59.0938 60.9375C55.9857 60.9375 53.005 62.1721 50.8073 64.3698C48.6096 66.5675 47.375 69.5482 47.375 72.6562V107.812C47.375 115.272 50.3382 122.425 55.6126 127.7C60.8871 132.974 68.0408 135.938 75.5 135.938C82.9592 135.938 90.1129 132.974 95.3874 127.7C100.662 122.425 103.625 115.272 103.625 107.812V72.6562C103.625 69.5482 102.39 66.5675 100.193 64.3698C97.995 62.1721 95.0143 60.9375 91.9062 60.9375H59.0938ZM56.75 72.6562C56.75 72.0346 56.9969 71.4385 57.4365 70.999C57.876 70.5594 58.4721 70.3125 59.0938 70.3125H91.9062C92.5279 70.3125 93.124 70.5594 93.5635 70.999C94.0031 71.4385 94.25 72.0346 94.25 72.6562V107.812C94.25 112.785 92.2746 117.554 88.7582 121.071C85.2419 124.587 80.4728 126.562 75.5 126.562C70.5272 126.562 65.7581 124.587 62.2417 121.071C58.7254 117.554 56.75 112.785 56.75 107.812V72.6562Z" fill="white" stroke="#1F74D5" stroke-width="4" mask="url(#path-1-inside-1_1555_3274)"/>
</svg>
