<svg width="66" height="66" viewBox="0 0 66 66" fill="none" xmlns="http://www.w3.org/2000/svg">
<path fill-rule="evenodd" clip-rule="evenodd" d="M32.9999 0.5C39.0531 0.569075 44.5216 2.05677 49.4054 4.9631C54.2309 7.8114 58.245 11.8501 61.0638 16.6928C63.9524 21.606 65.4312 27.1076 65.5 33.1977C65.3285 41.5304 62.7003 48.6473 57.6154 54.5485C52.5306 60.4497 46.0181 64.1005 39.2765 65.5V42.1378H45.6502L47.0916 32.957H37.4403V26.9438C37.3868 25.6972 37.781 24.4726 38.5517 23.4914C39.3236 22.5075 40.6827 21.9903 42.6292 21.94H48.4573V13.8978C48.3737 13.8709 47.5802 13.7645 46.0768 13.5786C44.3719 13.3791 42.6574 13.2726 40.9408 13.2594C37.0558 13.2774 33.9833 14.3733 31.7232 16.5471C29.4631 18.7204 28.3085 21.8647 28.2596 25.9799V32.957H20.915V42.1378H28.2596V65.5C19.9818 64.1005 13.4693 60.4497 8.38449 54.5485C3.29964 48.6473 0.671576 41.5304 0.5 33.1977C0.568646 27.1074 2.04735 21.6057 4.93611 16.6928C7.75497 11.8501 11.7691 7.8114 16.5946 4.9631C21.4782 2.05733 26.9467 0.569634 32.9999 0.5Z" fill="white"/>
</svg>
