<svg width="630" height="343" viewBox="0 0 630 343" fill="none" xmlns="http://www.w3.org/2000/svg">
<rect width="630" height="343" rx="24" fill="#1F74D5"/>
<g clip-path="url(#clip0_75_13)">
<path d="M349.71 153.089C348.867 149.905 346.385 147.397 343.234 146.546C337.523 145 314.62 145 314.62 145C314.62 145 291.717 145 286.006 146.546C282.855 147.398 280.373 149.905 279.53 153.089C278 158.86 278 170.902 278 170.902C278 170.902 278 182.943 279.53 188.714C280.373 191.898 282.855 194.301 286.006 195.152C291.717 196.699 314.62 196.699 314.62 196.699C314.62 196.699 337.523 196.699 343.234 195.152C346.385 194.301 348.867 191.898 349.71 188.714C351.24 182.943 351.24 170.902 351.24 170.902C351.24 170.902 351.24 158.86 349.71 153.089ZM307.129 181.834V159.969L326.272 170.902L307.129 181.834Z" fill="#212121" fill-opacity="0.8"/>
</g>
<defs>
<clipPath id="clip0_75_13">
<rect width="73.2399" height="51.6988" fill="white" transform="translate(278 145)"/>
</clipPath>
</defs>
</svg>
