<svg width="136" height="45" viewBox="0 0 136 45" fill="none" xmlns="http://www.w3.org/2000/svg">
<rect x="0.239258" y="0.516846" width="135.379" height="43.9662" rx="8" fill="#2E3A59"/>
<path d="M12.6809 9.67799C12.4083 9.99699 12.2485 10.4909 12.2485 11.1186V33.8809C12.2485 34.5189 12.4083 35.0128 12.6809 35.3216L12.7466 35.3936L24.3911 22.6541V22.4998V22.3454L12.7466 9.60596L12.6809 9.67799Z" fill="url(#paint0_linear_75_50)"/>
<path d="M28.2726 26.9042L24.3911 22.6543V22.5V22.3456L28.2726 18.0957L28.3572 18.1472L32.9529 21.0079C34.2687 21.8208 34.2687 23.1586 32.9529 23.9818L28.3572 26.8425L28.2726 26.9042Z" fill="url(#paint1_linear_75_50)"/>
<path d="M28.3574 26.8425L24.3914 22.5L12.6812 35.3218C13.1135 35.826 13.8277 35.8878 14.636 35.3835L28.3574 26.8425Z" fill="url(#paint2_linear_75_50)"/>
<path d="M28.3575 18.1573L14.6267 9.61629C13.8185 9.11206 13.1042 9.17381 12.6719 9.67803L24.3915 22.4998L28.3575 18.1573Z" fill="url(#paint3_linear_75_50)"/>
<path opacity="0.2" d="M28.2733 26.75L14.6271 35.2395C13.8658 35.7129 13.1797 35.682 12.7474 35.2498L12.6816 35.3219L12.7474 35.3939C13.1891 35.8261 13.8658 35.857 14.6271 35.3836L28.3579 26.8426L28.2733 26.75Z" fill="#2E3A59"/>
<path opacity="0.12" d="M12.6813 35.178C12.4088 34.859 12.249 34.365 12.249 33.7373V33.8917C12.249 34.5297 12.4088 35.0236 12.6813 35.3323L12.7471 35.2603L12.6813 35.178Z" fill="#2E3A59"/>
<path opacity="0.12" d="M32.9529 23.8377L28.2632 26.7499L28.3478 26.8425L32.9435 23.9818C33.6014 23.5702 33.9303 23.0351 33.9303 22.5C33.8833 22.9836 33.5544 23.4673 32.9529 23.8377Z" fill="#2E3A59"/>
<path opacity="0.25" d="M14.6264 9.76065L32.953 21.1624C33.5451 21.5328 33.8834 22.0062 33.9398 22.5001C33.9398 21.965 33.6109 21.4196 32.953 21.0183L14.6264 9.61659C13.3107 8.80365 12.2393 9.48281 12.2393 11.1293V11.2836C12.2393 9.62688 13.3201 8.94771 14.6264 9.76065Z" fill="white"/>
<path d="M49.6447 11.9847C49.6447 12.8491 49.4097 13.5385 48.9398 14.0428C48.4135 14.6499 47.718 14.9586 46.8722 14.9586C46.0545 14.9586 45.3685 14.6499 44.7952 14.0325C44.2219 13.4151 43.9399 12.6433 43.9399 11.7377C43.9399 10.8219 44.2219 10.0604 44.7952 9.44298C45.3685 8.82556 46.0545 8.51685 46.8722 8.51685C47.2763 8.51685 47.6616 8.59917 48.0282 8.7741C48.3947 8.94904 48.6861 9.17543 48.9116 9.46356L48.4135 10.0089C48.0376 9.5253 47.5301 9.27833 46.8722 9.27833C46.2801 9.27833 45.7632 9.50472 45.3309 9.96779C44.8986 10.4206 44.6824 11.0174 44.6824 11.748C44.6824 12.4786 44.8986 13.0755 45.3309 13.5282C45.7632 13.981 46.2801 14.2177 46.8722 14.2177C47.5019 14.2177 48.0282 13.9913 48.4511 13.5282C48.7237 13.2298 48.8834 12.8079 48.921 12.2728H46.8722V11.5319H49.6071C49.6259 11.6863 49.6447 11.8406 49.6447 11.9847Z" fill="white" stroke="white" stroke-width="0.2" stroke-miterlimit="10"/>
<path d="M53.9774 9.41212H51.4117V11.3673H53.7236V12.1082H51.4117V14.0634H53.9774V14.8248H50.688V8.65063H53.9774V9.41212Z" fill="white" stroke="white" stroke-width="0.2" stroke-miterlimit="10"/>
<path d="M57.0316 14.8248H56.3079V9.41212H54.729V8.65063H58.6011V9.41212H57.0222V14.8248H57.0316Z" fill="white" stroke="white" stroke-width="0.2" stroke-miterlimit="10"/>
<path d="M61.4111 14.8248V8.65063H62.1348V14.8248H61.4111Z" fill="white" stroke="white" stroke-width="0.2" stroke-miterlimit="10"/>
<path d="M65.349 14.8248H64.6253V9.41212H63.0464V8.65063H66.9185V9.41212H65.3396V14.8248H65.349Z" fill="white" stroke="white" stroke-width="0.2" stroke-miterlimit="10"/>
<path d="M74.2587 14.0222C73.7042 14.6499 73.0181 14.9586 72.191 14.9586C71.364 14.9586 70.6779 14.6499 70.1234 14.0222C69.5689 13.3945 69.2964 12.633 69.2964 11.7377C69.2964 10.8425 69.5689 10.0707 70.1234 9.45327C70.6779 8.82556 71.364 8.51685 72.191 8.51685C73.0087 8.51685 73.6948 8.82556 74.2587 9.45327C74.8132 10.081 75.0951 10.8425 75.0951 11.7377C75.0857 12.6433 74.8132 13.4048 74.2587 14.0222ZM70.6591 13.5077C71.0727 13.9707 71.5896 14.1971 72.191 14.1971C72.7925 14.1971 73.3094 13.9707 73.723 13.5077C74.1365 13.0446 74.3526 12.4581 74.3526 11.7377C74.3526 11.0174 74.1459 10.4309 73.723 9.96779C73.3094 9.50472 72.7925 9.27833 72.191 9.27833C71.5896 9.27833 71.0727 9.50472 70.6591 9.96779C70.2456 10.4309 70.0294 11.0174 70.0294 11.7377C70.0294 12.4581 70.2456 13.0446 70.6591 13.5077Z" fill="white" stroke="white" stroke-width="0.2" stroke-miterlimit="10"/>
<path d="M76.1099 14.8248V8.65063H76.9933L79.7376 13.4562H79.7658L79.7376 12.2625V8.65063H80.4613V14.8248H79.7094L76.8429 9.79286H76.8147L76.8429 10.9865V14.8248H76.1099Z" fill="white" stroke="white" stroke-width="0.2" stroke-miterlimit="10"/>
<path d="M69.4092 23.795C67.2006 23.795 65.3961 25.6369 65.3961 28.1684C65.3961 30.6895 67.2006 32.5418 69.4092 32.5418C71.6178 32.5418 73.4222 30.6895 73.4222 28.1684C73.4222 25.6369 71.6178 23.795 69.4092 23.795ZM69.4092 30.8233C68.1968 30.8233 67.1536 29.7325 67.1536 28.1684C67.1536 26.5939 68.1968 25.5135 69.4092 25.5135C70.6216 25.5135 71.6648 26.5939 71.6648 28.1684C71.6648 29.7325 70.6122 30.8233 69.4092 30.8233ZM60.65 23.795C58.4414 23.795 56.637 25.6369 56.637 28.1684C56.637 30.6895 58.4414 32.5418 60.65 32.5418C62.8586 32.5418 64.6631 30.6895 64.6631 28.1684C64.6631 25.6369 62.8586 23.795 60.65 23.795ZM60.65 30.8233C59.4376 30.8233 58.3944 29.7325 58.3944 28.1684C58.3944 26.5939 59.4376 25.5135 60.65 25.5135C61.8624 25.5135 62.9056 26.5939 62.9056 28.1684C62.9056 29.7325 61.8624 30.8233 60.65 30.8233ZM50.2368 25.143V26.9953H54.2968C54.1746 28.0346 53.8551 28.8064 53.3758 29.3312C52.7837 29.9795 51.8627 30.6895 50.2462 30.6895C47.7462 30.6895 45.7914 28.4874 45.7914 25.7501C45.7914 23.0129 47.7462 20.8108 50.2462 20.8108C51.5901 20.8108 52.5769 21.387 53.3006 22.1382L54.4942 20.8313C53.4792 19.7714 52.1352 18.9585 50.2368 18.9585C46.8158 18.9585 43.9399 22.0044 43.9399 25.7604C43.9399 29.5061 46.8158 32.5623 50.2368 32.5623C52.0882 32.5623 53.4792 31.9038 54.5694 30.6586C55.6877 29.4341 56.0355 27.7053 56.0355 26.3161C56.0355 25.8839 56.0073 25.4826 55.9415 25.1533H50.2368V25.143ZM92.8202 26.5836C92.4913 25.6061 91.4763 23.795 89.3993 23.795C87.341 23.795 85.6306 25.5649 85.6306 28.1684C85.6306 30.6175 87.3223 32.5418 89.5966 32.5418C91.4293 32.5418 92.4913 31.3172 92.9236 30.6072L91.5609 29.609C91.1097 30.3396 90.4895 30.8233 89.5966 30.8233C88.7038 30.8233 88.0647 30.3705 87.6606 29.4958L93.0082 27.0776L92.8202 26.5836ZM87.3692 28.0449C87.3223 26.3573 88.5628 25.4929 89.4557 25.4929C90.1511 25.4929 90.7432 25.8736 90.9406 26.419L87.3692 28.0449ZM83.0272 32.2845H84.7847V19.4216H83.0272V32.2845ZM80.1514 24.7725H80.0856C79.6909 24.258 78.939 23.795 77.9804 23.795C75.9786 23.795 74.1459 25.7193 74.1459 28.1889C74.1459 30.6381 75.9786 32.5521 77.9804 32.5521C78.9296 32.5521 79.6909 32.089 80.0856 31.5539H80.142V32.1816C80.142 33.8589 79.3243 34.7542 78.0086 34.7542C76.9372 34.7542 76.2699 33.9104 75.9974 33.2003L74.4654 33.9001C74.9072 35.0629 76.0725 36.483 78.0086 36.483C80.0668 36.483 81.8055 35.1555 81.8055 31.9243V24.0625H80.142V24.7725H80.1514ZM78.1308 30.8233C76.9184 30.8233 75.9034 29.7119 75.9034 28.1889C75.9034 26.6454 76.9184 25.5237 78.1308 25.5237C79.3243 25.5237 80.2642 26.6557 80.2642 28.1889C80.2736 29.7119 79.3337 30.8233 78.1308 30.8233ZM101.053 19.4216H96.8521V32.2845H98.6095V27.4069H101.062C103.008 27.4069 104.916 25.8633 104.916 23.4142C104.916 20.9651 102.989 19.4216 101.053 19.4216ZM101.091 25.6164H98.6001V21.2018H101.091C102.406 21.2018 103.149 22.3955 103.149 23.4039C103.149 24.4124 102.406 25.6164 101.091 25.6164ZM111.936 23.7744C110.667 23.7744 109.352 24.3918 108.807 25.7398L110.367 26.4499C110.696 25.7398 111.316 25.5032 111.964 25.5032C112.867 25.5032 113.797 26.1 113.807 27.1599V27.2937C113.487 27.0982 112.81 26.7997 111.974 26.7997C110.292 26.7997 108.59 27.8082 108.59 29.6913C108.59 31.4098 109.963 32.5212 111.504 32.5212C112.679 32.5212 113.337 31.9449 113.741 31.2658H113.797V32.2639H115.489V27.3348C115.498 25.0504 113.938 23.7744 111.936 23.7744ZM111.72 30.8233C111.147 30.8233 110.348 30.5043 110.348 29.7325C110.348 28.7446 111.344 28.3639 112.209 28.3639C112.979 28.3639 113.346 28.5491 113.807 28.7961C113.675 29.9795 112.735 30.8233 111.72 30.8233ZM121.663 24.0522L119.652 29.6296H119.596L117.509 24.0522H115.62L118.75 31.8523L116.964 36.1846H118.797L123.618 24.0522H121.663ZM105.874 32.2845H107.632V19.4216H105.874V32.2845Z" fill="white"/>
<defs>
<linearGradient id="paint0_linear_75_50" x1="23.357" y1="10.8817" x2="6.15806" y2="26.5895" gradientUnits="userSpaceOnUse">
<stop stop-color="#00A0FF"/>
<stop offset="0.00657445" stop-color="#00A1FF"/>
<stop offset="0.2601" stop-color="#00BEFF"/>
<stop offset="0.5122" stop-color="#00D2FF"/>
<stop offset="0.7604" stop-color="#00DFFF"/>
<stop offset="1" stop-color="#00E3FF"/>
</linearGradient>
<linearGradient id="paint1_linear_75_50" x1="34.6675" y1="22.5014" x2="11.9267" y2="22.5014" gradientUnits="userSpaceOnUse">
<stop stop-color="#FFE000"/>
<stop offset="0.4087" stop-color="#FFBD00"/>
<stop offset="0.7754" stop-color="#FFA500"/>
<stop offset="1" stop-color="#FF9C00"/>
</linearGradient>
<linearGradient id="paint2_linear_75_50" x1="26.2024" y1="24.8628" x2="2.87928" y2="46.1639" gradientUnits="userSpaceOnUse">
<stop stop-color="#FF3A44"/>
<stop offset="1" stop-color="#C31162"/>
</linearGradient>
<linearGradient id="paint3_linear_75_50" x1="9.72769" y1="2.10042" x2="20.1425" y2="11.6122" gradientUnits="userSpaceOnUse">
<stop stop-color="#32A071"/>
<stop offset="0.0685" stop-color="#2DA771"/>
<stop offset="0.4762" stop-color="#15CF74"/>
<stop offset="0.8009" stop-color="#06E775"/>
<stop offset="1" stop-color="#00F076"/>
</linearGradient>
</defs>
</svg>
