<svg width="151" height="150" viewBox="0 0 151 150" fill="none" xmlns="http://www.w3.org/2000/svg">
<path d="M134.118 58.5556H135.806V75.3056C135.806 81.2049 132.481 89.3036 123.993 91.4941L122.899 91.7766L122.576 92.8601C121.159 97.6233 117.705 102.345 111.48 103.998L110.397 104.285L110.076 105.359C109.195 108.316 107.55 111.235 104.989 113.405C102.456 115.551 98.9211 117.056 94.0556 117.056H71.6181H70.7876L70.2013 117.644L53.3289 134.579C53.3288 134.579 53.3286 134.579 53.3284 134.579C51.1945 136.713 47.6193 138.618 43.8056 138.618C40.9073 138.618 37.7885 137.585 34.7824 134.579L16.0481 115.845C14.1709 113.879 12.4658 110.898 12.0812 107.612C11.7067 104.413 12.5606 100.786 16.0303 97.2844L20.4598 92.9174L21.0556 92.3299V91.4931V67.3216L48.2199 40.1574L48.457 39.9202L48.6038 39.6188C51.8192 33.0157 58.0545 27.3056 69.0556 27.3056H85.2431H86.075L86.6615 26.7157L97.2687 16.0462C99.2348 14.1697 102.214 12.4656 105.499 12.0812C108.7 11.7065 112.329 12.5614 115.832 16.0352C115.833 16.0361 115.834 16.0371 115.835 16.038L134.563 34.7666C136.438 36.7303 138.145 39.7255 138.53 43.022C138.905 46.2303 138.05 49.8518 134.59 53.3174L132.728 55.1177L129.172 58.5556H134.118ZM102.306 100.306V96.0556H106.556C109.586 96.0556 111.789 94.9966 113.165 93.2033C114.468 91.5063 114.806 89.4417 114.806 87.8056V83.5556H119.056C122.086 83.5556 124.289 82.4966 125.665 80.7033C126.968 79.0063 127.306 76.9417 127.306 75.3056V69.0556V67.0556H125.306H81.5556H79.5556V69.0556C79.5556 72.4507 78.4204 76.6828 75.7701 80.0236C73.1768 83.2925 69.0639 85.8056 62.8056 85.8056C56.5474 85.8056 52.4345 83.2925 49.8412 80.0236C47.1909 76.6828 46.0556 72.4507 46.0556 69.0556V59.1181V54.2897L42.6414 57.7039L30.1414 70.2039L29.5556 70.7897V71.6181V95.7942L22.0789 103.329C22.0781 103.33 22.0772 103.331 22.0764 103.331C22.0656 103.342 22.0541 103.354 22.042 103.366C21.7084 103.698 20.8789 104.523 20.6277 105.747C20.3273 107.212 20.925 108.609 22.0951 109.859L22.119 109.885L22.1438 109.91L40.8289 128.532C40.8292 128.533 40.8294 128.533 40.8296 128.533C40.8409 128.544 40.853 128.556 40.8657 128.569C41.1977 128.903 42.0229 129.732 43.2475 129.984C44.7119 130.284 46.1087 129.686 47.3595 128.516L47.3838 128.493L47.4074 128.47L67.3216 108.556H94.0556C97.0865 108.556 99.2887 107.497 100.665 105.703C101.968 104.006 102.306 101.942 102.306 100.306ZM116.493 58.5556H117.325L117.911 57.9657L128.532 47.2824C128.533 47.2816 128.534 47.2809 128.535 47.2802C128.545 47.2693 128.557 47.2578 128.569 47.2455C128.903 46.9136 129.732 46.0884 129.984 44.8638C130.284 43.3994 129.686 42.0026 128.516 40.7518L128.492 40.7263L128.467 40.7016L109.782 22.0789C109.782 22.0787 109.782 22.0785 109.782 22.0783C109.77 22.067 109.758 22.0548 109.746 22.042C109.414 21.7083 108.588 20.8789 107.364 20.6277C105.899 20.3273 104.503 20.925 103.252 22.0951L103.228 22.1179L103.204 22.1414L89.5397 35.8056H69.0556C62.6536 35.8056 58.8769 38.5629 56.8115 41.9323C54.84 45.1484 54.5556 48.7002 54.5556 50.3056V69.0556C54.5556 70.6917 54.893 72.7563 56.1958 74.4533C57.5726 76.2466 59.7748 77.3056 62.8056 77.3056C65.8365 77.3056 68.0387 76.2466 69.4155 74.4533C70.7183 72.7563 71.0556 70.6917 71.0556 69.0556V58.5556H116.493Z" fill="white" stroke="#1F74D5" stroke-width="4"/>
</svg>
