<svg width="67" height="66" viewBox="0 0 67 66" fill="none" xmlns="http://www.w3.org/2000/svg">
<path d="M8.19535 60.9088L8.03737 61.1026C11.1327 63.6265 15.0151 65.0945 19.2612 65.3528C23.8451 65.6318 28.5579 65.7614 33.6573 65.749C33.8745 65.75 34.0901 65.75 34.305 65.75C39.1677 65.75 43.6768 65.6199 48.0669 65.3528C52.313 65.0945 56.1954 63.6265 59.2907 61.1026C62.2812 58.6646 64.3188 55.3698 65.352 51.3217C66.2485 47.8093 66.2954 44.3653 66.3405 41.0662L66.3406 41.0535C66.3734 38.6803 66.4076 35.8673 66.4141 33.0064V33.0059V32.994V32.9934C66.4076 30.1325 66.3734 27.3195 66.3406 24.9464L66.3406 24.9393C66.2955 21.6385 66.2485 18.192 65.352 14.6781L65.1097 14.7399L65.352 14.6781C64.3188 10.63 62.2812 7.33523 59.2908 4.89722C56.1954 2.37334 52.313 0.905356 48.0669 0.647009L48.0517 0.896547L48.0669 0.647008C43.4828 0.368458 38.7714 0.2399 33.6703 0.250809C28.5597 0.238411 23.8458 0.36846 19.2617 0.647008L19.2617 0.647009C15.0152 0.905355 11.1327 2.37334 8.03737 4.89722L8.03737 4.89722C5.0474 7.33523 3.00931 10.63 1.97617 14.6781L1.97617 14.6781C1.07966 18.1925 1.03263 21.6385 0.987579 24.9394L0.987484 24.9463C0.987484 24.9463 0.987484 24.9463 0.987483 24.9464C0.954748 27.3196 0.92101 30.1325 0.91406 33.0053L0.914063 33.0065C0.92101 35.8673 0.954748 38.6803 0.987483 41.0535C0.987484 41.0535 0.987484 41.0535 0.987484 41.0535L0.987578 41.0604C1.03263 44.3618 1.07965 47.8078 1.97617 51.3217L2.21841 51.2599L1.97617 51.3217C3.00931 55.3698 5.0474 58.6646 8.03737 61.1026L8.19535 60.9088ZM33.6585 60.1709L33.6572 60.1709C28.6635 60.1833 24.0651 60.0564 19.6001 59.7845C16.4733 59.5945 13.7726 58.5812 11.5625 56.7795C9.52511 55.118 8.1161 52.8221 7.38126 49.9424C6.64994 47.0766 6.6065 43.9937 6.56526 40.9772C6.53303 38.6185 6.49932 35.8259 6.49238 33.0058C6.49932 30.1734 6.53303 27.3813 6.56526 25.0226C6.6065 22.0057 6.64994 18.9233 7.38126 16.0569C8.1161 13.1772 9.52511 10.8813 11.5625 9.21977C13.7726 7.41811 16.4733 6.40485 19.6 6.2148L19.6001 6.2148C24.065 5.9429 28.6625 5.81656 33.6692 5.82845L33.6703 5.82845C38.6662 5.81755 43.2631 5.9429 47.7281 6.2148L47.7281 6.2148C50.8549 6.40485 53.5555 7.41813 55.7657 9.21981C57.803 10.8814 59.212 13.1772 59.9469 16.0569C60.6782 18.9232 60.7216 22.0062 60.7629 25.0226C60.7951 27.3793 60.8288 30.1694 60.8357 32.9999C60.8288 35.8299 60.7951 38.6205 60.7629 40.9772C60.7216 43.9937 60.6782 47.0766 59.9469 49.9424C59.212 52.8221 57.803 55.118 55.7656 56.7795C53.5555 58.5817 50.8549 59.595 47.7281 59.785C43.2631 60.0564 38.6662 60.1828 33.6585 60.1709ZM17.4171 32.9999C17.4171 41.8884 24.6486 49.1191 33.5369 49.1191C42.4256 49.1191 49.6566 41.8884 49.6566 32.9999C49.6566 24.1115 42.4256 16.8807 33.5369 16.8807C24.6486 16.8807 17.4171 24.1115 17.4171 32.9999ZM22.9954 32.9999C22.9954 27.188 27.7248 22.4589 33.5369 22.4589C39.3494 22.4589 44.0783 27.188 44.0783 32.9999C44.0783 38.8118 39.3494 43.541 33.5369 43.541C27.7248 43.541 22.9954 38.8118 22.9954 32.9999ZM51.184 11.8026C48.9427 11.8026 47.1253 13.6194 47.1253 15.8612C47.1253 18.1029 48.9427 19.9198 51.184 19.9198C53.4258 19.9198 55.2428 18.1029 55.2428 15.8612C55.2428 13.6195 53.4258 11.8026 51.184 11.8026Z" fill="white" stroke="white" stroke-width="0.5"/>
</svg>
