<svg width="100" height="100" viewBox="0 0 100 100" fill="none" xmlns="http://www.w3.org/2000/svg">
<mask id="path-1-inside-1_1755_3287" fill="white">
<path d="M81.095 9.71476C84.36 12.2748 86.61 16.4098 87.53 20.7398L87.855 20.8698L98.08 25.5998C98.6512 25.8627 99.1353 26.2833 99.4755 26.8122C99.8156 27.341 99.9976 27.956 100 28.5848V90.4198C99.9963 90.9334 99.8737 91.4392 99.6418 91.8975C99.4098 92.3559 99.0748 92.7542 98.6631 93.0613C98.2513 93.3684 97.774 93.576 97.2686 93.6676C96.7632 93.7593 96.2434 93.7327 95.75 93.5898L67.405 85.5898L33.705 94.8798C33.0971 95.0478 32.4541 95.0409 31.85 94.8598L2.37 86.0848C1.6886 85.8846 1.08995 85.47 0.662977 84.9025C0.236005 84.335 0.0034983 83.6449 0 82.9348L0 19.9898C0 17.7898 2.14 16.2098 4.275 16.8298L32.785 25.1348L47.275 20.6998C47.475 20.6398 47.6783 20.5981 47.885 20.5748C48.445 17.2948 50.01 14.1448 52.635 11.0748C55.75 7.42475 61.215 5.28476 66.54 5.02976C72.065 4.76476 76.285 5.94476 81.09 9.70976M6.665 24.4048V80.4798L31.015 87.7248V31.4898L6.665 24.4048ZM47.71 27.4748L37.68 30.5398V86.9348L63.005 79.9648V63.4898C63.005 61.6698 64.5 60.1948 66.34 60.1948C68.18 60.1948 69.67 61.6698 69.67 63.4948V79.3798L93.335 86.0548V30.6798L87.735 28.0798C87.6417 28.6298 87.52 29.1681 87.37 29.6948C86.2868 33.5301 84.4624 37.1161 82 40.2498L69.615 55.7148C69.2889 56.1214 68.8724 56.4463 68.3987 56.6637C67.925 56.8811 67.4071 56.9849 66.8861 56.9669C66.3652 56.949 65.8557 56.8097 65.398 56.5602C64.9404 56.3107 64.5473 55.9579 64.25 55.5298L52.675 38.7648C50.7617 36.1014 49.4267 33.7081 48.67 31.5848C48.1943 30.2559 47.8722 28.8769 47.71 27.4748ZM66.86 11.6198C63.23 11.7948 59.5 13.2548 57.725 15.3298C55.59 17.8298 54.54 20.1698 54.33 22.5398C54.08 25.3948 54.25 27.4098 54.96 29.4048C55.485 30.8798 56.53 32.7498 58.145 35.0048L67.2 48.1148L76.75 36.1898C78.6779 33.7284 80.1064 30.914 80.955 27.9048C82.155 23.7048 80.345 17.5348 76.955 14.8848C73.48 12.1598 70.855 11.4248 66.865 11.6198M67.555 15.1048C73.075 15.1048 77.555 19.5298 77.555 24.9898C77.5378 27.6261 76.4751 30.1478 74.6001 32.0012C72.7252 33.8545 70.1913 34.8881 67.555 34.8748C62.035 34.8748 57.555 30.4498 57.555 24.9898C57.555 19.5298 62.035 15.1048 67.555 15.1048ZM67.555 21.6948C67.1197 21.6921 66.6881 21.7753 66.2849 21.9394C65.8817 22.1036 65.5147 22.3456 65.2051 22.6515C64.8954 22.9575 64.649 23.3215 64.48 23.7227C64.311 24.1239 64.2226 24.5544 64.22 24.9898C64.22 26.8098 65.715 28.2848 67.555 28.2848C67.9903 28.2867 68.4218 28.2029 68.8247 28.0382C69.2277 27.8734 69.5942 27.6309 69.9035 27.3244C70.2127 27.018 70.4585 26.6537 70.6269 26.2522C70.7953 25.8508 70.883 25.4201 70.885 24.9848C70.8784 24.1073 70.5242 23.2683 69.8999 22.6515C69.2757 22.0348 68.4325 21.6908 67.555 21.6948Z"/>
</mask>
<path d="M81.095 9.71476C84.36 12.2748 86.61 16.4098 87.53 20.7398L87.855 20.8698L98.08 25.5998C98.6512 25.8627 99.1353 26.2833 99.4755 26.8122C99.8156 27.341 99.9976 27.956 100 28.5848V90.4198C99.9963 90.9334 99.8737 91.4392 99.6418 91.8975C99.4098 92.3559 99.0748 92.7542 98.6631 93.0613C98.2513 93.3684 97.774 93.576 97.2686 93.6676C96.7632 93.7593 96.2434 93.7327 95.75 93.5898L67.405 85.5898L33.705 94.8798C33.0971 95.0478 32.4541 95.0409 31.85 94.8598L2.37 86.0848C1.6886 85.8846 1.08995 85.47 0.662977 84.9025C0.236005 84.335 0.0034983 83.6449 0 82.9348L0 19.9898C0 17.7898 2.14 16.2098 4.275 16.8298L32.785 25.1348L47.275 20.6998C47.475 20.6398 47.6783 20.5981 47.885 20.5748C48.445 17.2948 50.01 14.1448 52.635 11.0748C55.75 7.42475 61.215 5.28476 66.54 5.02976C72.065 4.76476 76.285 5.94476 81.09 9.70976M6.665 24.4048V80.4798L31.015 87.7248V31.4898L6.665 24.4048ZM47.71 27.4748L37.68 30.5398V86.9348L63.005 79.9648V63.4898C63.005 61.6698 64.5 60.1948 66.34 60.1948C68.18 60.1948 69.67 61.6698 69.67 63.4948V79.3798L93.335 86.0548V30.6798L87.735 28.0798C87.6417 28.6298 87.52 29.1681 87.37 29.6948C86.2868 33.5301 84.4624 37.1161 82 40.2498L69.615 55.7148C69.2889 56.1214 68.8724 56.4463 68.3987 56.6637C67.925 56.8811 67.4071 56.9849 66.8861 56.9669C66.3652 56.949 65.8557 56.8097 65.398 56.5602C64.9404 56.3107 64.5473 55.9579 64.25 55.5298L52.675 38.7648C50.7617 36.1014 49.4267 33.7081 48.67 31.5848C48.1943 30.2559 47.8722 28.8769 47.71 27.4748ZM66.86 11.6198C63.23 11.7948 59.5 13.2548 57.725 15.3298C55.59 17.8298 54.54 20.1698 54.33 22.5398C54.08 25.3948 54.25 27.4098 54.96 29.4048C55.485 30.8798 56.53 32.7498 58.145 35.0048L67.2 48.1148L76.75 36.1898C78.6779 33.7284 80.1064 30.914 80.955 27.9048C82.155 23.7048 80.345 17.5348 76.955 14.8848C73.48 12.1598 70.855 11.4248 66.865 11.6198M67.555 15.1048C73.075 15.1048 77.555 19.5298 77.555 24.9898C77.5378 27.6261 76.4751 30.1478 74.6001 32.0012C72.7252 33.8545 70.1913 34.8881 67.555 34.8748C62.035 34.8748 57.555 30.4498 57.555 24.9898C57.555 19.5298 62.035 15.1048 67.555 15.1048ZM67.555 21.6948C67.1197 21.6921 66.6881 21.7753 66.2849 21.9394C65.8817 22.1036 65.5147 22.3456 65.2051 22.6515C64.8954 22.9575 64.649 23.3215 64.48 23.7227C64.311 24.1239 64.2226 24.5544 64.22 24.9898C64.22 26.8098 65.715 28.2848 67.555 28.2848C67.9903 28.2867 68.4218 28.2029 68.8247 28.0382C69.2277 27.8734 69.5942 27.6309 69.9035 27.3244C70.2127 27.018 70.4585 26.6537 70.6269 26.2522C70.7953 25.8508 70.883 25.4201 70.885 24.9848C70.8784 24.1073 70.5242 23.2683 69.8999 22.6515C69.2757 22.0348 68.4325 21.6908 67.555 21.6948Z" fill="#1F74D5"/>
<path d="M87.53 20.7398L86.5518 20.9476L86.6628 21.4699L87.1586 21.6682L87.53 20.7398ZM87.855 20.8698L88.2748 19.9622L88.2509 19.9511L88.2264 19.9413L87.855 20.8698ZM98.08 25.5998L97.6601 26.5074L97.6618 26.5081L98.08 25.5998ZM100 28.5848H101L101 28.5809L100 28.5848ZM100 90.4198L101 90.4269V90.4198H100ZM95.75 93.5898L96.0282 92.6292L96.0216 92.6274L95.75 93.5898ZM67.405 85.5898L67.6766 84.6274L67.4082 84.5516L67.1392 84.6257L67.405 85.5898ZM33.705 94.8798L33.4392 93.9157L33.4385 93.9159L33.705 94.8798ZM31.85 94.8598L32.1372 93.9019L32.1353 93.9013L31.85 94.8598ZM2.37 86.0848L2.65529 85.1263L2.65181 85.1253L2.37 86.0848ZM0 82.9348H-1.00001L-0.999988 82.9397L0 82.9348ZM4.275 16.8298L4.55468 15.8697L4.55388 15.8694L4.275 16.8298ZM32.785 25.1348L32.5053 26.0948L32.7921 26.1784L33.0777 26.091L32.785 25.1348ZM47.275 20.6998L46.9876 19.7419L46.9823 19.7435L47.275 20.6998ZM47.885 20.5748L47.9972 21.5684L48.7442 21.4841L48.8707 20.7431L47.885 20.5748ZM52.635 11.0748L53.395 11.7246L53.3957 11.7239L52.635 11.0748ZM66.54 5.02976L66.5878 6.02861L66.5879 6.02861L66.54 5.02976ZM6.665 24.4048L6.94438 23.4446L5.665 23.0723V24.4048H6.665ZM6.665 80.4798H5.665V81.2255L6.37982 81.4382L6.665 80.4798ZM31.015 87.7248L30.7298 88.6832L32.015 89.0656V87.7248H31.015ZM31.015 31.4898H32.015V30.7393L31.2944 30.5296L31.015 31.4898ZM47.71 27.4748L48.7034 27.3599L48.5655 26.1677L47.4178 26.5184L47.71 27.4748ZM37.68 30.5398L37.3878 29.5834L36.68 29.7997V30.5398H37.68ZM37.68 86.9348H36.68V88.2472L37.9454 87.8989L37.68 86.9348ZM63.005 79.9648L63.2704 80.9289L64.005 80.7267V79.9648H63.005ZM69.67 79.3798H68.67V80.1367L69.3985 80.3422L69.67 79.3798ZM93.335 86.0548L93.0635 87.0172L94.335 87.3758V86.0548H93.335ZM93.335 30.6798H94.335V30.0415L93.7561 29.7727L93.335 30.6798ZM87.735 28.0798L88.1561 27.1727L86.9682 26.6212L86.7491 27.9125L87.735 28.0798ZM87.37 29.6948L86.4082 29.4208L86.4076 29.423L87.37 29.6948ZM82 40.2498L82.7806 40.8749L82.7863 40.8676L82 40.2498ZM69.615 55.7148L70.3951 56.3404L70.3956 56.3398L69.615 55.7148ZM64.25 55.5298L63.4271 56.0979L63.4286 56.1002L64.25 55.5298ZM52.675 38.7648L53.4979 38.1966L53.4926 38.1889L53.4871 38.1813L52.675 38.7648ZM48.67 31.5848L49.612 31.2491L49.6115 31.2477L48.67 31.5848ZM57.725 15.3298L56.9651 14.6797L56.9646 14.6803L57.725 15.3298ZM54.33 22.5398L53.3339 22.4515L53.3338 22.4525L54.33 22.5398ZM54.96 29.4048L54.0179 29.74L54.0179 29.7401L54.96 29.4048ZM58.145 35.0048L58.9678 34.4364L58.963 34.4294L58.958 34.4225L58.145 35.0048ZM67.2 48.1148L66.3772 48.6831L67.1407 49.7885L67.9805 48.7398L67.2 48.1148ZM76.75 36.1898L77.5306 36.8149L77.5373 36.8064L76.75 36.1898ZM80.955 27.9048L79.9935 27.63L79.9925 27.6333L80.955 27.9048ZM76.955 14.8848L76.3379 15.6717L76.3391 15.6726L76.955 14.8848ZM77.555 24.9898L78.555 24.9963V24.9898H77.555ZM67.555 34.8748L67.56 33.8748H67.555V34.8748ZM67.555 21.6948L67.549 22.6948L67.5596 22.6947L67.555 21.6948ZM64.22 24.9898L63.22 24.9837V24.9898H64.22ZM67.555 28.2848L67.5595 27.2848H67.555V28.2848ZM70.885 24.9848L71.8851 24.9893L71.885 24.9772L70.885 24.9848ZM80.478 10.5017C83.5189 12.886 85.669 16.7925 86.5518 20.9476L88.5082 20.5319C87.551 16.027 85.2011 11.6635 81.712 8.92781L80.478 10.5017ZM87.1586 21.6682L87.4836 21.7982L88.2264 19.9413L87.9014 19.8113L87.1586 21.6682ZM87.4352 21.7773L97.6601 26.5074L98.4998 24.6922L88.2748 19.9622L87.4352 21.7773ZM97.6618 26.5081C98.0599 26.6914 98.3973 26.9846 98.6344 27.3531L100.316 26.2712C99.8733 25.5821 99.2424 25.034 98.4982 24.6914L97.6618 26.5081ZM98.6344 27.3531C98.8715 27.7217 98.9983 28.1503 99 28.5886L101 28.5809C100.997 27.7616 100.76 26.9603 100.316 26.2712L98.6344 27.3531ZM99 28.5848V90.4198H101V28.5848H99ZM99 90.4126C98.9975 90.7718 98.9117 91.1255 98.7495 91.446L100.534 92.3491C100.836 91.753 100.995 91.095 101 90.4269L99 90.4126ZM98.7495 91.446C98.5873 91.7664 98.3531 92.045 98.0652 92.2597L99.2609 93.8629C99.7965 93.4634 100.232 92.9453 100.534 92.3491L98.7495 91.446ZM98.0652 92.2597C97.7773 92.4745 97.4435 92.6196 97.0901 92.6837L97.4471 94.6516C98.1045 94.5323 98.7254 94.2624 99.2609 93.8629L98.0652 92.2597ZM97.0901 92.6837C96.7367 92.7478 96.3732 92.7292 96.0282 92.6292L95.4718 94.5503C96.1136 94.7362 96.7897 94.7708 97.4471 94.6516L97.0901 92.6837ZM96.0216 92.6274L67.6766 84.6274L67.1334 86.5522L95.4784 94.5522L96.0216 92.6274ZM67.1392 84.6257L33.4392 93.9157L33.9708 95.8438L67.6708 86.5538L67.1392 84.6257ZM33.4385 93.9159C33.0121 94.0338 32.561 94.029 32.1372 93.9019L31.5628 95.8176C32.3472 96.0528 33.1822 96.0619 33.9715 95.8436L33.4385 93.9159ZM32.1353 93.9013L2.65529 85.1263L2.08471 87.0432L31.5647 95.8182L32.1353 93.9013ZM2.65181 85.1253C2.17689 84.9858 1.75965 84.6968 1.46206 84.3013L-0.136109 85.5037C0.42025 86.2432 1.20032 86.7834 2.08819 87.0442L2.65181 85.1253ZM1.46206 84.3013C1.16448 83.9058 1.00243 83.4248 0.999988 82.9298L-0.999988 82.9397C-0.995429 83.8651 -0.692467 84.7643 -0.136109 85.5037L1.46206 84.3013ZM1 82.9348V19.9898H-1V82.9348H1ZM1 19.9898C1 18.4731 2.48434 17.3511 3.99612 17.7901L4.55388 15.8694C1.79566 15.0684 -1 17.1065 -1 19.9898H1ZM3.99532 17.7898L32.5053 26.0948L33.0647 24.1747L4.55468 15.8697L3.99532 17.7898ZM33.0777 26.091L47.5677 21.656L46.9823 19.7435L32.4923 24.1785L33.0777 26.091ZM47.5623 21.6576C47.7054 21.6147 47.8501 21.585 47.9972 21.5684L47.7728 19.5811C47.5066 19.6111 47.2446 19.6648 46.9877 19.7419L47.5623 21.6576ZM48.8707 20.7431C49.3948 17.6732 50.8641 14.6846 53.395 11.7246L51.875 10.4249C49.1559 13.6049 47.4951 16.9163 46.8993 20.4065L48.8707 20.7431ZM53.3957 11.7239C56.2819 8.34197 61.4516 6.27457 66.5878 6.02861L66.4922 4.0309C60.9784 4.29494 55.2181 6.50754 51.8744 10.4256L53.3957 11.7239ZM66.5879 6.02861C71.8813 5.77471 75.8636 6.88496 80.4732 10.4969L81.7068 8.92261C76.7064 5.00455 72.2487 3.7548 66.4921 4.0309L66.5879 6.02861ZM5.665 24.4048V80.4798H7.665V24.4048H5.665ZM6.37982 81.4382L30.7298 88.6832L31.3002 86.7663L6.95018 79.5213L6.37982 81.4382ZM32.015 87.7248V31.4898H30.015V87.7248H32.015ZM31.2944 30.5296L6.94438 23.4446L6.38562 25.3649L30.7356 32.4499L31.2944 30.5296ZM47.4178 26.5184L37.3878 29.5834L37.9722 31.4961L48.0022 28.4311L47.4178 26.5184ZM36.68 30.5398V86.9348H38.68V30.5398H36.68ZM37.9454 87.8989L63.2704 80.9289L62.7396 79.0006L37.4146 85.9706L37.9454 87.8989ZM64.005 79.9648V63.4898H62.005V79.9648H64.005ZM64.005 63.4898C64.005 62.2338 65.0405 61.1948 66.34 61.1948V59.1948C63.9595 59.1948 62.005 61.1057 62.005 63.4898H64.005ZM66.34 61.1948C67.6366 61.1948 68.67 62.2309 68.67 63.4948H70.67C70.67 61.1086 68.7234 59.1948 66.34 59.1948V61.1948ZM68.67 63.4948V79.3798H70.67V63.4948H68.67ZM69.3985 80.3422L93.0635 87.0172L93.6065 85.0923L69.9415 78.4173L69.3985 80.3422ZM94.335 86.0548V30.6798H92.335V86.0548H94.335ZM93.7561 29.7727L88.1561 27.1727L87.3139 28.9868L92.9139 31.5868L93.7561 29.7727ZM86.7491 27.9125C86.6618 28.4272 86.5481 28.9299 86.4082 29.4208L88.3318 29.9687C88.4919 29.4063 88.6216 28.8323 88.7209 28.2471L86.7491 27.9125ZM86.4076 29.423C85.36 33.1326 83.5954 36.6009 81.2137 39.6319L82.7863 40.8676C85.3294 37.6312 87.2136 33.9277 88.3324 29.9665L86.4076 29.423ZM81.2195 39.6247L68.8344 55.0897L70.3956 56.3398L82.7805 40.8749L81.2195 39.6247ZM68.8349 55.0891C68.6061 55.3744 68.314 55.6023 67.9817 55.7548L68.8158 57.5726C69.4309 57.2903 69.9717 56.8684 70.3951 56.3404L68.8349 55.0891ZM67.9817 55.7548C67.6493 55.9073 67.286 55.9801 66.9206 55.9675L66.8517 57.9663C67.5281 57.9897 68.2006 57.8548 68.8158 57.5726L67.9817 55.7548ZM66.9206 55.9675C66.5552 55.9549 66.1977 55.8572 65.8767 55.6822L64.9194 57.4382C65.5136 57.7622 66.1753 57.943 66.8517 57.9663L66.9206 55.9675ZM65.8767 55.6822C65.5557 55.5072 65.2799 55.2597 65.0714 54.9594L63.4286 56.1002C63.8147 56.6561 64.3251 57.1142 64.9194 57.4382L65.8767 55.6822ZM65.0729 54.9616L53.4979 38.1966L51.8521 39.3329L63.4271 56.0979L65.0729 54.9616ZM53.4871 38.1813C51.606 35.5628 50.3265 33.254 49.612 31.2491L47.728 31.9204C48.5269 34.1621 49.9173 36.64 51.8629 39.3482L53.4871 38.1813ZM49.6115 31.2477C49.1615 29.9906 48.8568 28.6862 48.7034 27.3599L46.7166 27.5896C46.8876 29.0676 47.2271 30.5211 47.7285 31.9218L49.6115 31.2477ZM66.8118 10.6209C64.8856 10.7138 62.9358 11.1465 61.224 11.8344C59.5228 12.518 57.9908 13.4807 56.9651 14.6797L58.4849 15.9798C59.2342 15.1039 60.4547 14.299 61.9698 13.6901C63.4742 13.0856 65.2044 12.7007 66.9081 12.6186L66.8118 10.6209ZM56.9646 14.6803C54.7312 17.2955 53.5667 19.8246 53.3339 22.4515L55.3261 22.628C55.5133 20.5149 56.4488 18.364 58.4854 15.9792L56.9646 14.6803ZM53.3338 22.4525C53.0761 25.3954 53.2441 27.5657 54.0179 29.74L55.9021 29.0695C55.2559 27.2538 55.0839 25.3941 55.3262 22.627L53.3338 22.4525ZM54.0179 29.7401C54.5875 31.3405 55.6921 33.2972 57.332 35.587L58.958 34.4225C57.3679 32.2023 56.3825 30.4191 55.9021 29.0694L54.0179 29.7401ZM57.3222 35.5731L66.3772 48.6831L68.0228 47.5464L58.9678 34.4364L57.3222 35.5731ZM67.9805 48.7398L77.5305 36.8148L75.9695 35.5647L66.4194 47.4897L67.9805 48.7398ZM77.5373 36.8064C79.5455 34.2424 81.0335 31.3108 81.9175 28.1762L79.9925 27.6333C79.1793 30.5172 77.8104 33.2143 75.9628 35.5731L77.5373 36.8064ZM81.9165 28.1795C82.5824 25.8489 82.3996 23.0545 81.6333 20.5237C80.8681 17.9962 79.4767 15.5867 77.5709 14.0969L76.3391 15.6726C77.8233 16.8328 79.0319 18.8333 79.7192 21.1033C80.4054 23.37 80.5276 25.7606 79.9935 27.63L81.9165 28.1795ZM77.5721 14.0978C75.7722 12.6864 74.141 11.75 72.4032 11.2033C70.6648 10.6565 68.8841 10.5199 66.8162 10.6209L66.9138 12.6186C68.8359 12.5246 70.3627 12.658 71.803 13.1112C73.244 13.5645 74.6628 14.3581 76.3379 15.6717L77.5721 14.0978ZM67.555 16.1048C72.5339 16.1048 76.555 20.0931 76.555 24.9898H78.555C78.555 18.9664 73.6161 14.1048 67.555 14.1048V16.1048ZM76.555 24.9832C76.5396 27.3546 75.5836 29.6229 73.8971 31.29L75.3031 32.7123C77.3665 30.6727 78.5361 27.8975 78.555 24.9963L76.555 24.9832ZM73.8971 31.29C72.2106 32.9571 69.9314 33.8867 67.56 33.8748L67.5499 35.8747C70.4512 35.8894 73.2397 34.752 75.3031 32.7123L73.8971 31.29ZM67.555 33.8748C62.5761 33.8748 58.555 29.8864 58.555 24.9898H56.555C56.555 31.0131 61.4939 35.8748 67.555 35.8748V33.8748ZM58.555 24.9898C58.555 20.0931 62.5761 16.1048 67.555 16.1048V14.1048C61.4939 14.1048 56.555 18.9664 56.555 24.9898H58.555ZM67.5611 20.6948C66.9944 20.6913 66.4326 20.7996 65.9078 21.0132L66.662 22.8656C66.9435 22.751 67.2449 22.6929 67.549 22.6947L67.5611 20.6948ZM65.9078 21.0132C65.3829 21.2269 64.9053 21.5419 64.5022 21.9402L65.9079 23.3629C66.1242 23.1492 66.3804 22.9802 66.662 22.8656L65.9078 21.0132ZM64.5022 21.9402C64.0991 22.3384 63.7784 22.8122 63.5584 23.3344L65.4015 24.1109C65.5196 23.8307 65.6916 23.5766 65.9079 23.3629L64.5022 21.9402ZM63.5584 23.3344C63.3384 23.8566 63.2234 24.4171 63.22 24.9837L65.22 24.9958C65.2218 24.6918 65.2835 24.3911 65.4015 24.1109L63.5584 23.3344ZM63.22 24.9898C63.22 27.3738 65.1745 29.2848 67.555 29.2848V27.2848C66.2555 27.2848 65.22 26.2457 65.22 24.9898H63.22ZM67.5505 29.2847C68.1171 29.2873 68.6787 29.1782 69.2032 28.9638L68.4463 27.1126C68.1649 27.2276 67.8635 27.2861 67.5595 27.2848L67.5505 29.2847ZM69.2032 28.9638C69.7277 28.7493 70.2049 28.4336 70.6074 28.0347L69.1996 26.6141C68.9836 26.8281 68.7276 26.9975 68.4463 27.1126L69.2032 28.9638ZM70.6074 28.0347C71.0099 27.6359 71.3299 27.1616 71.5491 26.6391L69.7048 25.8654C69.5872 26.1457 69.4155 26.4001 69.1996 26.6141L70.6074 28.0347ZM71.5491 26.6391C71.7683 26.1165 71.8824 25.5559 71.885 24.9893L69.885 24.9802C69.8836 25.2843 69.8224 25.585 69.7048 25.8654L71.5491 26.6391ZM71.885 24.9772C71.8764 23.8351 71.4153 22.7429 70.6028 21.9402L69.1971 23.3629C69.633 23.7936 69.8804 24.3795 69.885 24.9923L71.885 24.9772ZM70.6028 21.9402C69.7903 21.1374 68.6926 20.6896 67.5504 20.6948L67.5596 22.6947C68.1723 22.692 68.7612 22.9322 69.1971 23.3629L70.6028 21.9402Z" fill="white" mask="url(#path-1-inside-1_1755_3287)"/>
</svg>
