<?xml version="1.0" encoding="UTF-8"?>
<svg xmlns="http://www.w3.org/2000/svg" xmlns:xlink="http://www.w3.org/1999/xlink" viewBox="0 0 2000 2000">
  <defs>
    <style>
      .cls-1 {
        fill: url(#linear-gradient-2);
      }

      .cls-2, .cls-3 {
        fill: #b8c9e0;
      }

      .cls-4 {
        fill: #efeed9;
      }

      .cls-5 {
        fill: #c6bdb3;
      }

      .cls-5, .cls-6, .cls-7 {
        mix-blend-mode: overlay;
      }

      .cls-8 {
        mix-blend-mode: darken;
      }

      .cls-8, .cls-9 {
        fill: #c0c5ce;
      }

      .cls-10 {
        fill: url(#linear-gradient-6);
      }

      .cls-11 {
        isolation: isolate;
      }

      .cls-3 {
        mix-blend-mode: lighten;
      }

      .cls-12 {
        fill: url(#linear-gradient-11);
      }

      .cls-13 {
        fill: #22284c;
      }

      .cls-14 {
        fill: url(#linear-gradient-10);
      }

      .cls-9 {
        mix-blend-mode: multiply;
      }

      .cls-6, .cls-15 {
        fill: #a4aab8;
      }

      .cls-16 {
        fill: url(#linear-gradient-5);
      }

      .cls-17 {
        clip-path: url(#clippath);
      }

      .cls-18 {
        fill: none;
      }

      .cls-19 {
        fill: #faa206;
      }

      .cls-20 {
        fill: #2c305d;
      }

      .cls-21 {
        fill: #fff;
        stroke: #000;
        stroke-miterlimit: 10;
      }

      .cls-22 {
        fill: url(#linear-gradient-7);
      }

      .cls-23 {
        fill: url(#linear-gradient-9);
      }

      .cls-24 {
        fill: url(#linear-gradient-3);
      }

      .cls-25 {
        fill: url(#linear-gradient);
      }

      .cls-26 {
        fill: #dd431f;
      }

      .cls-27 {
        fill: url(#linear-gradient-4);
      }

      .cls-28 {
        fill: url(#linear-gradient-8);
      }
    </style>
    <linearGradient id="linear-gradient" x1="110.27" y1="1027.72" x2="681.16" y2="1027.72" gradientUnits="userSpaceOnUse">
      <stop offset="0" stop-color="#2e5290"/>
      <stop offset="1" stop-color="#1b7bd1"/>
    </linearGradient>
    <linearGradient id="linear-gradient-2" x1="28.07" y1="931.43" x2="468.79" y2="931.43" gradientUnits="userSpaceOnUse">
      <stop offset="0" stop-color="#202d5a"/>
      <stop offset="1" stop-color="#2e5290"/>
    </linearGradient>
    <linearGradient id="linear-gradient-3" x1="370.08" y1="979.1" x2="465.08" y2="979.1" xlink:href="#linear-gradient-2"/>
    <linearGradient id="linear-gradient-4" x1="358.42" y1="1330.37" x2="448.81" y2="1330.37" xlink:href="#linear-gradient-2"/>
    <linearGradient id="linear-gradient-5" x1="770.78" y1="1013.93" x2="1290.96" y2="1013.93" xlink:href="#linear-gradient"/>
    <linearGradient id="linear-gradient-6" x1="992.42" y1="1015.85" x2="1191.71" y2="1015.85" xlink:href="#linear-gradient-2"/>
    <linearGradient id="linear-gradient-7" x1="701.41" y1="1014.73" x2="1043.39" y2="1014.73" xlink:href="#linear-gradient-2"/>
    <linearGradient id="linear-gradient-8" x1="1409.62" y1="1025.82" x2="1989.26" y2="1025.82" xlink:href="#linear-gradient"/>
    <linearGradient id="linear-gradient-9" x1="1676.45" y1="1342.85" x2="1774.98" y2="1342.85" xlink:href="#linear-gradient-2"/>
    <linearGradient id="linear-gradient-10" x1="1649.48" y1="991.38" x2="1749.58" y2="991.38" xlink:href="#linear-gradient-2"/>
    <linearGradient id="linear-gradient-11" x1="1331.69" y1="965.97" x2="1691.63" y2="965.97" xlink:href="#linear-gradient-2"/>
    <clipPath id="clippath">
      <path class="cls-18" d="m1355.94,356.95h-541.2v818.57l100.54-4.38c11.36,103.77,45.63,144.5,133.53,144.5s121.41-60.14,135.12-141l172.01.89V356.95Z"/>
    </clipPath>
  </defs>
  <g class="cls-11">
    <g id="_Слой_1" data-name="Слой 1">
      <path class="cls-25" d="m585.25,1143.23l18.27-508.09-134.73-1.52L110.27,1152.37v81.07l338.54,12.56-9.13,171.84,133.59,4,6.28-173.55,101.62,5.71v-105.04l-95.91-5.71Zm-130.45-4l-212.37-7.71,222.65-312.56-10.28,320.27Z"/>
      <polygon class="cls-1" points="110.27 1233.43 28.07 1226.58 28.07 1143.23 387.73 629.43 468.79 633.62 110.27 1152.37 110.27 1233.43"/>
      <polygon class="cls-24" points="377.62 941.75 370.08 1136.16 454.8 1139.24 465.08 818.97 377.62 941.75"/>
      <polygon class="cls-27" points="365.68 1242.91 358.42 1415.36 439.68 1417.83 448.81 1245.99 365.68 1242.91"/>
      <path class="cls-16" d="m1288.59,999.23c-15.98-369.79-165.56-389.2-274.03-389.2-188.39,15.98-238.63,157.57-243.2,369.08-9.13,334.26,90.2,439.3,266.44,438.73,293.89-16.56,251.17-255.19,250.79-418.6Zm-239.77,316.42c-17.41.68-32.62-.85-45.92-4.42-96.35-25.8-92.29-158.31-96.81-332.12-3.96-152.45,9.4-237.06,86.33-258.21,8.5-2.33,17.75-3.89,27.85-4.68,129.02-6.85,166.7,102.75,171.26,296.12,1.99,178.29-10.56,298.17-142.72,303.31Z"/>
      <path class="cls-10" d="m1048.81,1315.64c-17.41.68-32.62-.85-45.92-4.42,100.31-23.7,110.45-137.31,108.65-298.89-3.89-164.32-31.67-268.16-119.12-291.44,8.5-2.33,17.75-3.89,27.85-4.68,129.02-6.85,166.7,102.75,171.26,296.12,1.99,178.29-10.56,298.17-142.72,303.31Z"/>
      <path class="cls-22" d="m771.36,979.1c4.33-200.73,77.54-341.9,243.2-369.08-14.29-1.21-54.9,1.24-69.37,1.93-188.39,15.98-238.63,157.57-243.2,369.08-9.13,334.26,90.2,439.3,266.44,438.73,13.59,0,63.77-.81,74.96-2.27-154.87-13.07-280.55-126.32-272.02-438.38Z"/>
      <path class="cls-28" d="m1989.26,1231.91l-8.75-104.66-102.76,10.28-52.52-510.37-133.59,14.84-282.02,564.04,13.7,74.22,335.3-28.54,16.37,172.79,131.3-11.42-15.22-174.31,98.19-6.85Zm-453.76-62.7l179.83-339.96,34.25,314.27-214.08,25.69Z"/>
      <polygon class="cls-23" points="1774.98 1424.49 1692.4 1434 1676.45 1258.7 1758.62 1251.7 1774.98 1424.49"/>
      <polygon class="cls-14" points="1666.32 1153.51 1649.48 953.72 1715.33 829.24 1749.58 1143.52 1666.32 1153.51"/>
      <polygon class="cls-12" points="1423.32 1280.25 1338.54 1289.95 1331.69 1212.02 1612.57 647.7 1691.63 641.99 1409.62 1206.03 1423.32 1280.25"/>
      <g>
        <path class="cls-21" d="m1514.66,375.7c-63.37,0-114.75,51.37-114.75,114.75,0,23.01,6.78,44.44,18.44,62.4l-26.62,40.8,51.4-13.49c19.62,15.66,44.48,25.03,71.53,25.03,63.37,0,114.75-51.37,114.75-114.75s-51.37-114.75-114.75-114.75Z"/>
        <path class="cls-26" d="m1509.75,521.3c-3.2,0-6.04-2.3-6.6-5.57-.47-2.74-.22-13.79-.19-14.48.02-.44.03-.88.05-1.32.11-3.44.25-8.14,3.58-12.26,2.94-3.62,6.6-5.63,9.55-7.25,1.97-1.08,3.68-2.02,4.84-3.19,2.46-2.49,3.61-6.53,3.4-12.01-.07-1.83-1.4-4.8-3.28-6.32-2.27-1.84-4.58-2.8-7.71-3.22-2.14-.28-5.86-.1-8.38.71-1.89.61-4,2.13-5.25,3.79-1.05,1.39-1.89,4-1.91,5.93-.05,3.67-3.04,6.61-6.7,6.61-.03,0-.07,0-.1,0-3.7-.05-6.66-3.1-6.61-6.8.05-3.78,1.29-9.38,4.6-13.79,2.91-3.88,7.35-7.06,11.88-8.52,4.78-1.53,10.6-1.72,14.26-1.23,5.6.75,10.16,2.68,14.37,6.09,4.71,3.81,8.03,10.35,8.25,16.26.34,9.19-2.17,16.78-7.27,21.93-2.53,2.56-5.4,4.14-7.93,5.52-2.3,1.26-4.3,2.36-5.57,3.93-.49.6-.54,2.44-.6,4.22-.02.5-.03,1.01-.05,1.51-.11,2.34-.13,10.17.03,11.71.55,3.6-1.88,7-5.49,7.63-.39.07-.77.1-1.15.1Z"/>
        <circle class="cls-26" cx="1511.12" cy="532.29" r="9.32"/>
      </g>
      <g>
        <path class="cls-13" d="m1535.52,793.96c1.88,6.32,1.08,12.37-4.76,16.38-1.75,1.23-3.53,1.76-5.4,1.83-5.88.35-12.13-3.97-17.65-7.73-8.82-5.87-20.35-12.5-29.42-16.04,17.78,24.79,37.97,48.02,49.58,76.2,3.95,9.63,5.18,17.09,4.31,22.87-.93,6.18-4.31,10.51-9.35,13.6-2.77,1.67-5.63,2.35-8.48,2.28-6.66-.03-13.31-4.24-18.64-9.62-7.55-7.7-32.01-37.18-39.47-44.97,11.25,18.97,27.14,56.2,29.63,84.82.78,8.8.26,16.75-2.04,23.14-9.23-20-15.95-35.88-42.48-64.73-6.58-7.12-48.52-44.25-56.34-38.58,25.6,29.97,46.08,68.36,61.38,104.67,15.31,36.33,18.57,79.88-1.1,114.07-11.17-45.79-29.32-89.82-53.63-130.16,10.83,36.05,21.63,72.1,32.44,108.12,2.96,9.98,6,20.22,5.3,30.59-.67,10.39-5.86,21.15-15.3,25.57-7.18-36.73-20.8-72.19-40.03-104.24,6.34,25.31,12.62,50.61,18.9,75.94,3.37,13.43,6.72,27.59,3.39,41.06-3.76,15.62-16.12,28.09-30.31,35.67-14.16,7.66-30.12,11.2-45.77,14.6,7.12-44.26-2.32-91-26.03-129.12,1.8,23.01,3.62,46.34-.22,69.05-3.76,22.77-13.79,45.29-31.79,59.76-18.07,14.41-44.91,18.9-64.62,6.97,23.54-36.6,24.83-86.42,3.23-124.15.72,12.44,1.38,25.45-3.97,36.65-5.43,11.26-23.01,16.13-34.43,11.32,20.18-15.88,29.18-56.26,13.13-76.27,2.85,8.42-2.34,23.46-6.05,31.46-3.77,8.09-15.65,17.98-19.29,9.83-1.84-4.16,9.24-19.15,11.06-25.97,5.35-19.91,1.37-30.03-3.87-49.93-2.62-9.95-6.58-19.6-11.8-28.47-3.18-5.39-13.91-11.16-17.64-14.65-1.19-1.11-4.93-8.94-4.38-10.58,2.47-6.93,14.39-17.53,21.24-21.58,8.52-5.03,23.56-13.87,28.87-23.2,3.67.13,7.33.26,11,.31,14.52.28,28.84-.36,41.61-5.68,31.38-13.05,53.5-49.95,52.17-83.9-.47-11.79-1.68-23.52-3.87-35.09-3.77-20.47-7.84-42.54-18.18-61.59-2.03-3.71-6.61-10.71-10.96-18.61-.02-.05-1.58-3.05-1.58-3.05,6.47-10.62,14.21-14.54,25.93-17.9,16.1-4.65,32.93,2.66,48.11,9.72,57.65,26.99,115.24,53.91,172.92,80.89,12.29,5.77,25.38,10.89,34.73,21.63,4.3,4.89,8.17,10.92,9.89,16.77Z"/>
        <path class="cls-20" d="m1538.42,787.84c1.88,6.32,1.08,12.37-4.76,16.38-1.75,1.23-3.53,1.76-5.4,1.83-5.88.35-12.13-3.97-17.65-7.73-8.82-5.87-20.35-12.5-29.42-16.04,17.78,24.79,37.97,48.02,49.58,76.2,3.95,9.63,5.18,17.09,4.31,22.87-.93,6.18-4.31,10.51-9.35,13.6-2.77,1.67-5.63,2.35-8.48,2.28-6.66-.03-13.31-4.24-18.64-9.62-7.55-7.7-32.01-37.18-39.47-44.97,11.25,18.97,27.14,56.2,29.63,84.82.78,8.8.26,16.75-2.04,23.14-9.23-20-15.95-35.88-42.48-64.73-6.58-7.12-48.52-44.25-56.34-38.58,25.6,29.97,46.08,68.36,61.38,104.67,15.31,36.33,18.57,79.88-1.1,114.07-11.17-45.79-29.32-89.82-53.63-130.16,10.83,36.05,21.63,72.1,32.44,108.12,2.96,9.98,6,20.22,5.3,30.59-.67,10.39-5.86,21.15-15.3,25.57-7.18-36.73-20.8-72.19-40.03-104.24,6.34,25.31,12.62,50.61,18.9,75.94,3.37,13.43,6.72,27.59,3.39,41.06-3.76,15.62-16.12,28.09-30.31,35.67-14.16,7.66-30.12,11.2-45.77,14.6,7.12-44.26-2.32-91-26.03-129.12,1.8,23.01,3.62,46.34-.22,69.05-3.76,22.77-13.79,45.29-31.79,59.76-18.07,14.41-44.91,18.9-64.62,6.97,23.54-36.6,24.83-86.42,3.23-124.15.72,12.44,1.38,25.45-3.97,36.65-5.43,11.26-23.01,16.13-34.43,11.32,20.18-15.88,29.18-56.26,13.13-76.27,2.85,8.42-2.34,23.46-6.05,31.46-3.77,8.09-15.65,17.98-19.29,9.83-1.84-4.16,9.24-19.15,11.06-25.97,5.35-19.91,1.37-30.03-3.87-49.93-2.62-9.95-11.64-18.47-16.86-27.33-3.18-5.39-16.8-9.27-18.08-15.15-.35-1.59,2.79-12.65,4.1-13.77,5.8-4.92,24.13-9.31,29.16-15.49,6.74-8.36,12.67-17.41,17.98-26.74,3.67.13,7.33.26,11,.31,14.52.28,28.84-.36,41.61-5.68,31.38-13.05,53.5-49.95,52.17-83.9-.47-11.79-1.68-23.52-3.87-35.09-3.77-20.47-10.42-40.46-20.76-59.51-2.03-3.71-6.43-10.91-10.78-18.81l-.02-.05c6.47-10.62,15.06-19.42,26.78-22.78,16.1-4.65,32.93,2.66,48.11,9.72,57.65,26.99,115.24,53.91,172.92,80.89,12.29,5.77,25.38,10.89,34.73,21.63,4.3,4.89,8.17,10.92,9.89,16.77Z"/>
        <path class="cls-6" d="m1219.09,952.13c2.75,7.57,10.92,21.62,15.4,28.32,3.67,5.48,11.7,11.14,15.65,11.82,7.42,1.27,16.77-7.28,20.16-14,3.4-6.72,2.48-20.06,2.81-27.58.04,7.16.19,14.73,3.94,20.83,3.75,6.1,12.47,9.74,18.31,5.6,4.01-2.84,5.31-8.15,5.91-13.03,1.67-13.46-.99-36.29-5.36-49.13,1.83,0,5.29,12.47,6.72,16.38,5.06,16.57,8.25,24.98,20.75,36.97,4.05,3.89,12.13,6.8,14.96,6.8,3.43,0,12.1-1.05,14.59-3.41,5.65-5.35.66-24.6-.35-28.44-6.41-24.26-14.26-34.36-23.25-57.19,4.15,5.93,7.79,13.19,13.55,18.16,1.44,1.24,3.16,2.47,5.05,2.27,3.87-.42,4.53-5.76,3.93-9.6-2.58-16.32-8.79-32.05-18.05-45.73,6.57,1.84,14.95,18.58,20.34,15.63,3.23-13.05-9.36-34.32-23.03-45.11,4.51,1.46,10.82,2.19,12.73-2.15,1.08-2.46-.05-5.32-1.51-7.57-5.07-7.77-14.1-12.26-23.24-13.88-9.14-1.62-18.51-.73-27.75.17-12.71,18.13-11.15,42.41-18.04,63.46-5.52,16.88-45.52,33.8-58,46.26-12.01,11.98-2.16,27.83,3.78,44.17Z"/>
        <path class="cls-9" d="m1601.85,937.59c28.22,70.06,54.15,161.37,37.33,230.33-27.7-90.9-59.16-186.31-105.91-270.55-16.42-29.49-34.62-57.53-55.23-83.58-27.56-34.81-57.46-68.21-97.05-88.18,60.01,54.74,105.13,116.96,134,187.13,19.39,47.11,31.38,97.81,35.75,152.17,1.66,21.49-8.22,65.77-22.99,81.42.24-70.23-16.15-138.94-42.09-204.18-1.11-2.85-2.26-5.73-3.42-8.57-19-46.25-38.93-92.4-66.27-134.31-27.37-41.84-58.53-80-102.46-103.84-7.73-4.22-26.64-13-32.4-6.36-3.15,3.68,5.63,22.68,7.04,27.3,10.84,35.8,12.64,46.98,13.81,77.58,1.03,27.11-.51,57.98-9.38,83.6-8.88,25.65-17.41,42.7-40.85,51.78-19.29,7.49-65.34-4.5-85.97-2.97-13.37,1.07-25.53,6.47-31.4,15.71-3.15,5.05-4.48,11.13-3.1,18.33,1.02,5.22,3.66,10.88,1.09,15.55-3,5.33-10.71,5.3-16.49,3.43-23.13-7.47-37.81-36.05-32.07-59.5,6.04-24.69,45.76-29.98,66.3-30.59,7.99-.26,16.33.3,24.78.82,3.66.24,7.32.47,10.99.62,14.51.7,28.84.47,41.76-4.48,31.74-12.15,54.9-48.4,54.55-82.37-.13-11.8-1.01-23.56-2.86-35.19-3.18-20.57-9.26-40.74-19.05-60.08-1.92-3.76-6.12-11.09-10.24-19.11l-.02-.05c-6.43-12.63-12.55-27.04-8.56-32.3,5.62-7.38,49.35,1.62,58.28,3.92,70.82,18.71,132.4,37.07,196.13,76.81,63.75,39.79,107.72,92.52,132.36,163.51-30.39-42.89-59.4-72.93-88.94-97.37-24.64-20.49-49.66-37.12-76.18-54.04,23.63,25.1,45.73,48.52,65.5,71.95,30.76,36.54,56.04,73.09,73.24,115.68Z"/>
        <path class="cls-8" d="m1217.38,947.22c2.75,7.57,10.92,21.62,15.4,28.32,3.67,5.48,11.7,11.14,15.65,11.82,7.42,1.27,16.77-7.28,20.16-14,3.4-6.72,2.48-20.06,2.81-27.58.04,7.16.19,14.73,3.94,20.83,3.75,6.1,12.47,9.74,18.31,5.6,4.01-2.84,5.31-8.15,5.91-13.03,1.67-13.46-.99-36.29-5.36-49.13,1.83,0,5.29,12.47,6.72,16.38,5.06,16.57,8.25,24.98,20.75,36.97,4.05,3.89,12.13,6.8,14.96,6.8,3.43,0,12.1-1.05,14.59-3.41,5.65-5.35.66-24.6-.35-28.44-6.41-24.26-14.26-34.36-23.25-57.19,4.15,5.93,7.79,13.19,13.55,18.16,1.44,1.24,3.16,2.47,5.05,2.27,3.87-.42,4.53-5.76,3.93-9.6-2.58-16.32-8.79-32.05-18.05-45.73,6.57,1.84,14.95,18.58,20.34,15.63,3.23-13.05-9.36-34.32-23.03-45.11,4.51,1.46,10.82,2.19,12.73-2.15,1.08-2.46-.05-5.32-1.51-7.57-5.07-7.77-14.1-12.26-23.24-13.88-9.14-1.62-18.51-.73-27.75.17-12.71,18.13-11.15,42.41-18.04,63.46-5.52,16.88-45.52,33.8-58,46.26-12.01,11.98-2.16,27.83,3.78,44.17Z"/>
        <path class="cls-2" d="m1597.71,916.56c30.22,69.22,58.75,159.75,43.91,229.17-30.29-90.07-64.47-184.54-113.61-267.41-17.26-29-36.26-56.51-57.6-81.97-28.54-34.01-59.39-66.53-99.53-85.37,61.55,53,108.44,113.9,139.31,183.22,20.73,46.54,34.16,96.87,40.09,151.08,2.28,21.43-6.33,65.97-20.65,82.04-1.77-70.21-20.12-138.42-47.92-202.9-1.19-2.82-2.42-5.66-3.66-8.46-20.32-45.68-41.56-91.25-70.08-132.36-28.56-41.04-60.79-78.29-105.39-100.87-7.84-4-27-12.23-32.57-5.43-3.04,3.77,6.27,22.51,7.82,27.09,11.86,35.48,13.98,46.6,16.03,77.15,1.8,27.07,1.15,57.97-6.98,83.83-8.15,25.9-16.18,43.18-39.35,52.93-19.06,8.04-65.45-2.63-86.02-.51-13.33,1.45-25.33,7.2-30.94,16.61-3,5.14-4.16,11.26-2.57,18.42,1.16,5.19,3.97,10.77,1.53,15.51-2.85,5.41-10.55,5.6-16.39,3.9-23.34-6.8-38.82-34.95-33.76-58.56,5.33-24.85,44.89-31.28,65.4-32.47,7.98-.49,16.34-.17,24.8.11,3.67.13,7.33.26,11,.31,14.52.28,28.84-.36,41.61-5.68,31.38-13.05,53.5-49.95,52.17-83.9-.47-11.79-1.68-23.52-3.87-35.09-3.77-20.47-10.42-40.46-20.76-59.51-2.03-3.71-6.43-10.91-10.78-18.81l-.02-.05c-6.79-12.44-13.32-26.67-9.49-32.04,5.4-7.54,49.38.21,58.37,2.25,71.33,16.68,133.4,33.26,198.25,71.16,64.86,37.95,110.33,89.39,136.99,159.65-31.6-42.01-61.46-71.2-91.69-94.79-25.22-19.77-50.71-35.69-77.69-51.84,24.34,24.41,47.1,47.19,67.54,70.05,31.79,35.64,58.11,71.46,76.52,113.54Z"/>
        <path class="cls-6" d="m1536.05,1100.47c.29-35.31-1.82-70.63-6.28-105.66-3.4-26.62-8.21-53.24-17.59-78.38-3.46-9.28-7.56-18.33-12.38-26.99-3.1-5.58-10.94-23.04-17.26-25.16-7.45-2.5-7.7,6.78-6.3,11.45,2.9,9.64,9.45,19.22,13.41,28.58,16.7,39.47,27.39,81.21,35.21,123.27,4.49,24.17,8.03,48.51,11.2,72.89Z"/>
        <path class="cls-6" d="m1283.33,829.48c-2.52,13.36-8.73,31.99-21.1,43.43-7.9,7.29-21.62,16.47-34.13,17.58-10.34.9-20.11.75-30.25-1.32-5.2-1.07-12.88-4.27-17.29-7.53,14.52.28,28.84-.36,41.61-5.68,31.38-13.05,53.5-49.95,52.17-83.9-.47-11.79-1.68-23.52-3.87-35.09,8.94,17.57,16.18,54.84,12.85,72.52Z"/>
        <path class="cls-6" d="m1478.76,726.01c35.81,16.72,64.25,41.19,92.71,72.4,8.57,9.39,23.4,35.11,25.64,43.84-10.21-11.47-22.63-26.05-29.75-33.83-6.38-6.98-20.04-19.37-27.98-26.3-26.32-23-44.99-32.54-73.43-51.89-3.74-2.54-18.7-15.27-11.2-14.13,4.77.73,19.66,7.88,24,9.9Z"/>
        <path class="cls-6" d="m1432.74,981.74c-8.98-22.74-19.78-44.69-27.47-67.94-.61-1.85-1.21-3.77-1.16-5.66.05-1.89.93-3.73,2.44-4.03,2.01-.4,6.86,3.46,8.28,5.57,21.07,31.22,36.59,66.3,39.83,104.14.52,6.1-1.87,25.26-6.05,28.9-1.97-10.06-2.76-20.05-5.47-30.15-2.8-10.48-6.42-20.75-10.4-30.83Z"/>
        <path class="cls-6" d="m1409.66,1046.72c2.96,9.72,5.71,18.59,8.03,28.46,1.49,6.33,2.9,14.08.74,19.74,3.26-4.16,5.95-9.6,7.14-15.16,1.2-5.65-.04-12.07-1.38-17.87-2.89-12.49-7.57-25.52-11.36-38.28-2.37-7.99-7.19-20.47-11.9-27.42-2.93-4.32-10.19-11.7-15.14-12.81,1.79,5.04,4.93,9.96,7.09,14.92,2.26,5.2,4.33,10.5,6.26,15.85,3.87,10.73,7.2,21.65,10.52,32.56Z"/>
      </g>
      <g>
        <path class="cls-13" d="m654.3,789.99c-1.88,6.32-1.08,12.37,4.76,16.38,1.75,1.23,3.53,1.76,5.4,1.83,5.88.35,12.13-3.97,17.65-7.73,8.82-5.87,20.35-12.5,29.42-16.04-17.78,24.79-37.97,48.02-49.58,76.2-3.95,9.63-5.18,17.09-4.31,22.87.93,6.18,4.31,10.51,9.35,13.6,2.77,1.67,5.63,2.35,8.48,2.28,6.66-.03,13.31-4.24,18.64-9.62,7.55-7.7,32.01-37.18,39.47-44.97-11.25,18.97-27.14,56.2-29.63,84.82-.78,8.8-.26,16.75,2.04,23.14,9.23-20,15.95-35.88,42.48-64.73,6.58-7.12,48.52-44.25,56.34-38.58-25.6,29.97-46.08,68.36-61.38,104.67-15.31,36.33-18.57,79.88,1.1,114.07,11.17-45.79,29.32-89.82,53.63-130.16-10.83,36.05-21.63,72.1-32.44,108.12-2.96,9.98-6,20.22-5.3,30.59.67,10.39,5.86,21.15,15.3,25.57,7.18-36.73,20.8-72.19,40.03-104.24-6.34,25.31-12.62,50.61-18.9,75.94-3.37,13.43-6.72,27.59-3.39,41.06,3.76,15.62,16.12,28.09,30.31,35.67,14.16,7.66,30.12,11.2,45.77,14.6-7.12-44.26,2.32-91,26.03-129.12-1.8,23.01-3.62,46.34.22,69.05,3.76,22.77,13.79,45.29,31.79,59.76,18.07,14.41,44.91,18.9,64.62,6.97-23.54-36.6-24.83-86.42-3.23-124.15-.72,12.44-1.38,25.45,3.97,36.65,5.43,11.26,23.01,16.13,34.43,11.32-20.18-15.88-29.18-56.26-13.13-76.27-2.85,8.42,2.34,23.46,6.05,31.46,3.77,8.09,15.65,17.98,19.29,9.83,1.84-4.16-9.24-19.15-11.06-25.97-5.35-19.91-1.37-30.03,3.87-49.93,2.62-9.95,6.58-19.6,11.8-28.47,3.18-5.39,13.91-11.16,17.64-14.65,1.19-1.11,4.93-8.94,4.38-10.58-2.47-6.93-14.39-17.53-21.24-21.58-8.52-5.03-23.56-13.87-28.87-23.2-3.67.13-7.33.26-11,.31-14.52.28-28.84-.36-41.61-5.68-31.38-13.05-53.5-49.95-52.17-83.9.47-11.79,1.68-23.52,3.87-35.09,3.77-20.47,7.84-42.54,18.18-61.59,2.03-3.71,6.61-10.71,10.96-18.61.02-.05,1.58-3.05,1.58-3.05-6.47-10.62-14.21-14.54-25.93-17.9-16.1-4.65-32.93,2.66-48.11,9.72-57.65,26.99-115.24,53.91-172.92,80.89-12.29,5.77-25.38,10.89-34.73,21.63-4.3,4.89-8.17,10.92-9.89,16.77Z"/>
        <path class="cls-20" d="m651.4,783.87c-1.88,6.32-1.08,12.37,4.76,16.38,1.75,1.23,3.53,1.76,5.4,1.83,5.88.35,12.13-3.97,17.65-7.73,8.82-5.87,20.35-12.5,29.42-16.04-17.78,24.79-37.97,48.02-49.58,76.2-3.95,9.63-5.18,17.09-4.31,22.87.93,6.18,4.31,10.51,9.35,13.6,2.77,1.67,5.63,2.35,8.48,2.28,6.66-.03,13.31-4.24,18.64-9.62,7.55-7.7,32.01-37.18,39.47-44.97-11.25,18.97-27.14,56.2-29.63,84.82-.78,8.8-.26,16.75,2.04,23.14,9.23-20,15.95-35.88,42.48-64.73,6.58-7.12,48.52-44.25,56.34-38.58-25.6,29.97-46.08,68.36-61.38,104.67-15.31,36.33-18.57,79.88,1.1,114.07,11.17-45.79,29.32-89.82,53.63-130.16-10.83,36.05-21.63,72.1-32.44,108.12-2.96,9.98-6,20.22-5.3,30.59.67,10.39,5.86,21.15,15.3,25.57,7.18-36.73,20.8-72.19,40.03-104.24-6.34,25.31-12.62,50.61-18.9,75.94-3.37,13.43-6.72,27.59-3.39,41.06,3.76,15.62,16.12,28.09,30.31,35.67,14.16,7.66,30.12,11.2,45.77,14.6-7.12-44.26,2.32-91,26.03-129.12-1.8,23.01-3.62,46.34.22,69.05,3.76,22.77,13.79,45.29,31.79,59.76,18.07,14.41,44.91,18.9,64.62,6.97-23.54-36.6-24.83-86.42-3.23-124.15-.72,12.44-1.38,25.45,3.97,36.65,5.43,11.26,23.01,16.13,34.43,11.32-20.18-15.88-29.18-56.26-13.13-76.27-2.85,8.42,2.34,23.46,6.05,31.46,3.77,8.09,15.65,17.98,19.29,9.83,1.84-4.16-9.24-19.15-11.06-25.97-5.35-19.91-1.37-30.03,3.87-49.93,2.62-9.95,11.64-18.47,16.86-27.33,3.18-5.39,16.8-9.27,18.08-15.15.35-1.59-2.79-12.65-4.1-13.77-5.8-4.92-24.13-9.31-29.16-15.49-6.74-8.36-12.67-17.41-17.98-26.74-3.67.13-7.33.26-11,.31-14.52.28-28.84-.36-41.61-5.68-31.38-13.05-53.5-49.95-52.17-83.9.47-11.79,1.68-23.52,3.87-35.09,3.77-20.47,10.42-40.46,20.76-59.51,2.03-3.71,6.43-10.91,10.78-18.81l.02-.05c-6.47-10.62-15.06-19.42-26.78-22.78-16.1-4.65-32.93,2.66-48.11,9.72-57.65,26.99-115.24,53.91-172.92,80.89-12.29,5.77-25.38,10.89-34.73,21.63-4.3,4.89-8.17,10.92-9.89,16.77Z"/>
        <path class="cls-6" d="m970.72,948.17c-2.75,7.57-10.92,21.62-15.4,28.32-3.67,5.48-11.7,11.14-15.65,11.82-7.42,1.27-16.77-7.28-20.16-14-3.4-6.72-2.48-20.06-2.81-27.58-.04,7.16-.19,14.73-3.94,20.83-3.75,6.1-12.47,9.74-18.31,5.6-4.01-2.84-5.31-8.15-5.91-13.03-1.67-13.46.99-36.29,5.36-49.13-1.83,0-5.29,12.47-6.72,16.38-5.06,16.57-8.25,24.98-20.75,36.97-4.05,3.89-12.13,6.8-14.96,6.8-3.43,0-12.1-1.05-14.59-3.41-5.65-5.35-.66-24.6.35-28.44,6.41-24.26,14.26-34.36,23.25-57.19-4.15,5.93-7.79,13.19-13.55,18.16-1.44,1.24-3.16,2.47-5.05,2.27-3.87-.42-4.53-5.76-3.93-9.6,2.58-16.32,8.79-32.05,18.05-45.73-6.57,1.84-14.95,18.58-20.34,15.63-3.23-13.05,9.36-34.32,23.03-45.11-4.51,1.46-10.82,2.19-12.73-2.15-1.08-2.46.05-5.32,1.51-7.57,5.07-7.77,14.1-12.26,23.24-13.88,9.14-1.62,18.51-.73,27.75.17,12.71,18.13,11.15,42.41,18.04,63.46,5.52,16.88,45.52,33.8,58,46.26,12.01,11.98,2.16,27.83-3.78,44.17Z"/>
        <path class="cls-9" d="m587.97,933.62c-28.22,70.06-54.15,161.37-37.33,230.33,27.7-90.9,59.16-186.31,105.91-270.55,16.42-29.49,34.62-57.53,55.23-83.58,27.56-34.81,57.46-68.21,97.05-88.18-60.01,54.74-105.13,116.96-134,187.13-19.39,47.11-31.38,97.81-35.75,152.17-1.66,21.49,8.22,65.77,22.99,81.42-.24-70.23,16.15-138.94,42.09-204.18,1.11-2.85,2.26-5.73,3.42-8.57,19-46.25,38.93-92.4,66.27-134.31,27.37-41.84,58.53-80,102.46-103.84,7.73-4.22,26.64-13,32.4-6.36,3.15,3.68-5.63,22.68-7.04,27.3-10.84,35.8-12.64,46.98-13.81,77.58-1.03,27.11.51,57.98,9.38,83.6,8.88,25.65,17.41,42.7,40.85,51.78,19.29,7.49,65.34-4.5,85.97-2.97,13.37,1.07,25.53,6.47,31.4,15.71,3.15,5.05,4.48,11.13,3.1,18.33-1.02,5.22-3.66,10.88-1.09,15.55,3,5.33,10.71,5.3,16.49,3.43,23.13-7.47,37.81-36.05,32.07-59.5-6.04-24.69-45.76-29.98-66.3-30.59-7.99-.26-16.33.3-24.78.82-3.66.24-7.32.47-10.99.62-14.51.7-28.84.47-41.76-4.48-31.74-12.15-54.9-48.4-54.55-82.37.13-11.8,1.01-23.56,2.86-35.19,3.18-20.57,9.26-40.74,19.05-60.08,1.92-3.76,6.12-11.09,10.24-19.11l.02-.05c6.43-12.63,12.55-27.04,8.56-32.3-5.62-7.38-49.35,1.62-58.28,3.92-70.82,18.71-132.4,37.07-196.13,76.81-63.75,39.79-107.72,92.52-132.36,163.51,30.39-42.89,59.4-72.93,88.94-97.37,24.64-20.49,49.66-37.12,76.18-54.04-23.63,25.1-45.73,48.52-65.5,71.95-30.76,36.54-56.04,73.09-73.24,115.68Z"/>
        <path class="cls-8" d="m972.44,943.25c-2.75,7.57-10.92,21.62-15.4,28.32-3.67,5.48-11.7,11.14-15.65,11.82-7.42,1.27-16.77-7.28-20.16-14-3.4-6.72-2.48-20.06-2.81-27.58-.04,7.16-.19,14.73-3.94,20.83-3.75,6.1-12.47,9.74-18.31,5.6-4.01-2.84-5.31-8.15-5.91-13.03-1.67-13.46.99-36.29,5.36-49.13-1.83,0-5.29,12.47-6.72,16.38-5.06,16.57-8.25,24.98-20.75,36.97-4.05,3.89-12.13,6.8-14.96,6.8-3.43,0-12.1-1.05-14.59-3.41-5.65-5.35-.66-24.6.35-28.44,6.41-24.26,14.26-34.36,23.25-57.19-4.15,5.93-7.79,13.19-13.55,18.16-1.44,1.24-3.16,2.47-5.05,2.27-3.87-.42-4.53-5.76-3.93-9.6,2.58-16.32,8.79-32.05,18.05-45.73-6.57,1.84-14.95,18.58-20.34,15.63-3.23-13.05,9.36-34.32,23.03-45.11-4.51,1.46-10.82,2.19-12.73-2.15-1.08-2.46.05-5.32,1.51-7.57,5.07-7.77,14.1-12.26,23.24-13.88,9.14-1.62,18.51-.73,27.75.17,12.71,18.13,11.15,42.41,18.04,63.46,5.52,16.88,45.52,33.8,58,46.26s2.16,27.83-3.78,44.17Z"/>
        <path class="cls-2" d="m592.1,912.59c-30.22,69.22-58.75,159.75-43.91,229.17,30.29-90.07,64.47-184.54,113.61-267.41,17.26-29,36.26-56.51,57.6-81.97,28.54-34.01,59.39-66.53,99.53-85.37-61.55,53-108.44,113.9-139.31,183.22-20.73,46.54-34.16,96.87-40.09,151.08-2.28,21.43,6.33,65.97,20.65,82.04,1.77-70.21,20.12-138.42,47.92-202.9,1.19-2.82,2.42-5.66,3.66-8.46,20.32-45.68,41.56-91.25,70.08-132.36,28.56-41.04,60.79-78.29,105.39-100.87,7.84-4,27-12.23,32.57-5.43,3.04,3.77-6.27,22.51-7.82,27.09-11.86,35.48-13.98,46.6-16.03,77.15-1.8,27.07-1.15,57.97,6.98,83.83,8.15,25.9,16.18,43.18,39.35,52.93,19.06,8.04,65.45-2.63,86.02-.51,13.33,1.45,25.33,7.2,30.94,16.61,3,5.14,4.16,11.26,2.57,18.42-1.16,5.19-3.97,10.77-1.53,15.51,2.85,5.41,10.55,5.6,16.39,3.9,23.34-6.8,38.82-34.95,33.76-58.56-5.33-24.85-44.89-31.28-65.4-32.47-7.98-.49-16.34-.17-24.8.11-3.67.13-7.33.26-11,.31-14.52.28-28.84-.36-41.61-5.68-31.38-13.05-53.5-49.95-52.17-83.9.47-11.79,1.68-23.52,3.87-35.09,3.77-20.47,10.42-40.46,20.76-59.51,2.03-3.71,6.43-10.91,10.78-18.81l.02-.05c6.79-12.44,13.32-26.67,9.49-32.04-5.4-7.54-49.38.21-58.37,2.25-71.33,16.68-133.4,33.26-198.25,71.16-64.86,37.95-110.33,89.39-136.99,159.65,31.6-42.01,61.46-71.2,91.69-94.79,25.22-19.77,50.71-35.69,77.69-51.84-24.34,24.41-47.1,47.19-67.54,70.05-31.79,35.64-58.11,71.46-76.52,113.54Z"/>
        <path class="cls-6" d="m653.77,1096.51c-.29-35.31,1.82-70.63,6.28-105.66,3.4-26.62,8.21-53.24,17.59-78.38,3.46-9.28,7.56-18.33,12.38-26.99,3.1-5.58,10.94-23.04,17.26-25.16,7.45-2.5,7.7,6.78,6.3,11.45-2.9,9.64-9.45,19.22-13.41,28.58-16.7,39.47-27.39,81.21-35.21,123.27-4.49,24.17-8.03,48.51-11.2,72.89Z"/>
        <path class="cls-6" d="m906.48,825.51c2.52,13.36,8.73,31.99,21.1,43.43,7.9,7.29,21.62,16.47,34.13,17.58,10.34.9,20.11.75,30.25-1.32,5.2-1.07,12.88-4.27,17.29-7.53-14.52.28-28.84-.36-41.61-5.68-31.38-13.05-53.5-49.95-52.17-83.9.47-11.79,1.68-23.52,3.87-35.09-8.94,17.57-16.18,54.84-12.85,72.52Z"/>
        <path class="cls-6" d="m711.06,722.04c-35.81,16.72-64.25,41.19-92.71,72.4-8.57,9.39-23.4,35.11-25.64,43.84,10.21-11.47,22.63-26.05,29.75-33.83,6.38-6.98,20.04-19.37,27.98-26.3,26.32-23,44.99-32.54,73.43-51.89,3.74-2.54,18.7-15.27,11.2-14.13-4.77.73-19.66,7.88-24,9.9Z"/>
        <path class="cls-6" d="m757.07,977.77c8.98-22.74,19.78-44.69,27.47-67.94.61-1.85,1.21-3.77,1.16-5.66-.05-1.89-.93-3.73-2.44-4.03-2.01-.4-6.86,3.46-8.28,5.57-21.07,31.22-36.59,66.3-39.83,104.14-.52,6.1,1.87,25.26,6.05,28.9,1.97-10.06,2.76-20.05,5.47-30.15,2.8-10.48,6.42-20.75,10.4-30.83Z"/>
        <path class="cls-6" d="m780.16,1042.75c-2.96,9.72-5.71,18.59-8.03,28.46-1.49,6.33-2.9,14.08-.74,19.74-3.26-4.16-5.95-9.6-7.14-15.16-1.2-5.65.04-12.07,1.38-17.87,2.89-12.49,7.57-25.52,11.36-38.28,2.37-7.99,7.19-20.47,11.9-27.42,2.93-4.32,10.19-11.7,15.14-12.81-1.79,5.04-4.93,9.96-7.09,14.92-2.26,5.2-4.33,10.5-6.26,15.85-3.87,10.73-7.2,21.65-10.52,32.56Z"/>
      </g>
      <g class="cls-17">
        <g id="_тіло" data-name="тіло">
          <g id="paw">
            <path class="cls-3" d="m922.38,1383.18s-61.95,57.52-72.74,63.21c-10.79,5.69-16.17,1.78-14.61-12.18,1.56-13.96,42.65-80.18,42.65-80.18l44.7,29.15Z"/>
            <path class="cls-9" d="m922.38,1383.18s-61.95,57.52-72.74,63.21c-10.79,5.69-16.17,1.78-14.61-12.18,1.56-13.96,42.65-80.18,42.65-80.18l44.7,29.15Z"/>
          </g>
          <g id="left_paw" data-name="left paw">
            <g>
              <path class="cls-2" d="m1116.72,1301.89s-27.37,176.74-29.63,186.36c-2.27,9.63-3.04-19.51-9.08-15.19-6.04,4.32-15.01,16.12-15.41,4.85-.4-11.27-10.91-2.15-11.09,6.03-.18,8.18-4.23,1.64-7.85-14.05-3.62-15.69-21.14-101.4-21.14-101.4l94.21-66.62Z"/>
              <polygon class="cls-9" points="1116.72 1301.89 1032.99 1419.45 1022.51 1368.5 1116.72 1301.89"/>
            </g>
          </g>
          <g id="body">
            <path class="cls-2" d="m1151.67,681.55c3.86-11.66,15.18-27.95,17.65-33.67,6.63-15.34,15.43-30.29,17.39-61.64,2.53-40.32-48.08-66.28-48.08-66.28-6.82-9.07-26.76-14.12-26.76-14.12,0,0,1.38.3,16.06,15.47-22.47-9.46-77.86-2.47-89.13,13.14,13.09-4.96,17.51.15,17.51.15,0,0-14.83,9.91-23.55,15.74-8.72,5.83-41.31,6.16-41.31,6.16,0,0,2.86,3.9,27.64,1.71-14.25,7-29.64,31.16-29.64,31.16,0,0,7.9-8.56,36.52-21.63-22.44,20.8-33.73,62.42-33.73,62.42,0,0,12.88-29.05,46.55-47.01-7.92,16.35-1.9,74.62,19.71,111.47,20.15,34.38,24.2,67.57,25.55,82.42,3.94,43.42-4.19,86.3-57.74,161.5-63.5,89.15-90.86,218.35-127.81,267.87-36.95,49.52-58.66,85.41-78.96,95.26-20.3,9.85-30.75,34.83,7.9,9.17-48.21,34.53-42.52,50.5-6.71,29.81-42.98,34.99-48.76,38.82-40.35,38.05,8.41-.76,35.8-10.32,50.42-25.78-10.96,24.55-27.95,34.57-30.67,40.94-2.72,6.37,22.68.77,42.47-30.24-18.1,39.33-25.53,50.84-17.8,47.78,7.73-3.06,50.88-36.18,50.88-36.18,0,0,110.6,29.99,180.34-16.38,69.74-46.38,112.13-134.54,119.48-162.53,7.35-27.99,22.52-120.28,11.82-165.47-10.7-45.19-22.09-123.61-31.99-178.21-10.33-57-13.09-144.31-3.66-171.1Z"/>
            <g>
              <path class="cls-9" d="m1077.13,1290.53c26.54,27.74,75.93-99.15,84.44-123.08,12.01-33.75,19.08-64.83,19.08-64.83,0,0,12.35,78.93-53.64,185.79-18.8,25.82-42.64,51.59-71,70.45-69.74,46.38-180.34,16.38-180.34,16.38l168.86-159.63s6.05,47.18,32.59,74.91Z"/>
              <path class="cls-9" d="m1044.89,1329.71c2.01,25.96,62.4-16.6,62.43-16.62-14.91,17.01-32.06,32.98-51.3,45.77-69.74,46.38-180.34,16.38-180.34,16.38l76.6-71.96s84.33-80.2,92.61,26.43Z"/>
            </g>
            <path class="cls-6" d="m1140.12,941.72s11.41,90.98-5.67,68.97c-17.07-22-21.57-30.07-21.83-15.6-.26,14.47-5.81,46.69-9.49,26.93-3.68-19.76-3.23-35.51-7.98-15.29-4.76,20.22-8.07,52.86-12.63,19.99-4.56-32.87-4.1-41.71-11.98-17.75-7.87,23.95-18.83,48.5-16.4,30.38,2.44-18.12,12.24-51.99,2.18-34.74-10.05,17.24-20.39,41.73-19.28,22.79,1.11-18.94,5.07-34.06-.14-25.74-5.21,8.32-11.19,39.33-3.83,44.31,7.36,4.98-.97,37.77,9.74,24.24,10.7-13.53-7.05,39.89,2.01,32.48,9.06-7.42,13.05-11.86,13.62,4.73.57,16.59,1.98,25.26,13.02,1.64,4.96-7.67,6.93,34.86,9.62,43.72,2.69,8.86,7.93,4.3,13.96-15.71,6.03-20.02,10.93-31.77,15.06-13.93,4.13,17.84,15.17,56.4,25.79,35.03,10.62-21.38,14.79-67.92,19.58-50.14,4.8,17.78,16.24,15.8,19.01,1.41,2.78-14.38,22.01-35.16,15.03-66.68-6.98-31.52-26.71-105.37-26.71-105.37,0,0,13.16,67.35-2.02,45.49-15.18-21.86-19.08-61.39-20.7-41.14Z"/>
            <path class="cls-6" d="m1093.05,529.66c-14.67-5.08-18.7-4.58-18.7-4.58,0,0,36.87-7.49,56.17,1.74.73-4.94-.64-10.21-2.75-15.01-7.68-3.88-15.89-5.97-15.89-5.97,0,0,1.38.3,16.06,15.47-22.47-9.46-77.86-2.47-89.13,13.14,13.09-4.96,17.51.15,17.51.15,0,0-14.83,9.91-23.55,15.74-8.72,5.83-41.31,6.16-41.31,6.16,0,0,2.86,3.9,27.64,1.71-14.25,7-29.64,31.16-29.64,31.16,0,0,7.9-8.56,36.52-21.63-22.44,20.8-33.73,62.42-33.73,62.42,0,0,12.88-29.05,46.55-47.01-6.83,14.1-2.93,55.13,8.83,87.62.71-33.28,3.02-99.18,16.94-110.73-34.78,16.68-41.13,23.79-41.13,23.79,0,0,7.38-21.42,27.19-34.32-21.87,8.95-27.04,11.29-28.17,11.9,3.44-2.79,43-34.29,70.59-31.75Z"/>
            <path class="cls-6" d="m873.44,1240.79c7.54-10.48,15.83-22,25.06-34.37,36.95-49.52,64.31-178.72,127.81-267.87,23.87-33.51,46.13-69.07,54.22-105.44,2.28,8.65-6.71,34.33-10.19,47.79-10.82,41.85-25.91,64.25-53.09,113-27.18,48.75-45.31,77.25-59.1,122.54-12.48,41.01-45.18,97.49-84.72,124.34Z"/>
          </g>
          <g id="tail">
            <path class="cls-2" d="m875.68,1375.25s-51.27,99.34-73.61,91.95c3.1-22.89,19.38-44.06,19.38-44.06,0,0-40.65,27.62-44.9,22.36-4.25-5.27,26.17-43.83,26.17-43.83,0,0-49,25.79-56.38,17.2-7.37-8.59,22.14-31.05,22.14-31.05,0,0-24.78,6.49-25.91-.47-1.14-6.96,32.82-27.95,32.82-27.95,0,0-31.82,2.42-35.88-5.69-4.06-8.11,47.12-25.48,47.12-25.48,0,0-34.11,8.28-38.31,3.48-4.2-4.8,94.2-55.78,104.46-62.78,10.26-7,22.91,106.32,22.91,106.32Z"/>
            <g class="cls-7">
              <path class="cls-15" d="m834.67,1425.01s-12.97,16.89-17.96,36.8c-5.52,4.51-10.57,6.73-14.64,5.38,1.37-10.09,5.29-19.84,9.26-27.6,11.55-6.57,23.34-14.59,23.34-14.59Z"/>
              <path class="cls-15" d="m761.52,1332.79c-6.29.67-11.7.64-13.21-1.09-4.2-4.8,94.2-55.78,104.46-62.78,1.83-1.25-88.24,56.92-91.25,63.86Z"/>
              <path class="cls-15" d="m815.94,1403.54s-20.64,26.17-25.54,38.33c-6.8,3.41-12.42,5.4-13.86,3.62-2.65-3.28,8.18-19.52,16.71-31.27,12.08-5.1,22.68-10.68,22.68-10.68Z"/>
              <path class="cls-15" d="m768.34,1335.07c11.21-.05,31.51-4.97,31.51-4.97,0,0-51.18,17.37-47.12,25.48.91,1.82,3.23,3.11,6.27,4.01-8.47-.41-17.46-1.83-19.49-5.89-2.41-4.81,14.59-12.86,28.83-18.63Z"/>
              <path class="cls-15" d="m762.85,1392.42c7.68.19,18.86-2.74,18.86-2.74,0,0-27.24,20.73-22.84,29.97-5.92,1.34-10.62,1.43-12.53-.8-5.28-6.15,8.35-19.4,16.52-26.44Z"/>
              <path class="cls-15" d="m772.13,1361.46c8.49.42,16.48-.19,16.48-.19,0,0-33.96,20.99-32.82,27.95.06.35.19.66.36.95-6.4.78-13.01.7-13.59-2.82-.92-5.63,21.09-20.42,29.56-25.88Z"/>
            </g>
          </g>
          <g id="right_paw" data-name="right paw">
            <g>
              <path class="cls-2" d="m1043.71,1218.2s-37.81,133.44-44.82,201.44c-6.76,50.07-13.3,35.12-14.61,10.28-4.93,28.71-9.01,30.49-13.68,15.37-6.16,25.53-15.42,22.13-14.74,8.88-18.05,34.61-29.56,32.36-22.89,22.81,6.67-9.56,4.67-26.33,3.1-22.89-1.57,3.44-16.57,30.24-14.02,16.82,2.55-13.42,6.76-39.71,4.29-61.63-2.46-21.92-10.02-58.44-14.05-71.74-4.03-13.29-6.28-43.24-2.25-35.12,4.03,8.11,9.13,12.36,11.85-4.37,2.72-16.73,13.04-22.38,12.78-9.64-.26,12.74,10.45,32.02,10.45,11.3,0-20.73,8.67-49.78,10.49-34.87,1.83,14.91,7.47,14.87,8.79,3.44,1.32-11.42,6.57-35.93,9.02-24.84,2.45,11.08,4.45,22.68,9.54,6.2,5.1-16.48,20.22-31.51,19.92-24.42-.3,7.09,10.53,12.23,11.85-4.37,1.32-16.61,7.52-41.66,12.45-28.92,4.93,12.74,6.41,13.55,11.59,3.19,5.18-10.36,15.93-11.34,13-2.12-2.93,9.22-8.07,25.23-8.07,25.23Z"/>
              <g class="cls-7">
                <path class="cls-15" d="m941.15,1308.16c-1.53,7.19-2.66,15.75-2.66,23.23,0,20.73-10.7,1.44-10.45-11.3.26-12.74-10.07-7.09-12.78,9.64-.72,4.4-1.6,7.34-2.58,9.15-.14-.47-.27-.92-.4-1.34-4.03-13.29-6.28-43.24-2.25-35.12,4.03,8.11,9.13,12.36,11.85-4.37,2.72-16.73,13.04-22.38,12.78-9.64-.15,7.46,3.46,17.17,6.48,19.76Z"/>
                <path class="cls-15" d="m1008.11,1252.52c-1.32,16.61-12.15,11.47-11.85,4.37.3-7.09-14.82,7.94-19.92,24.42-5.1,16.48-7.09,4.88-9.54-6.2-2.45-11.08-7.7,13.42-9.02,24.84-1.32,11.42-6.97,11.47-8.79-3.44-.63-5.16-2.08-5.05-3.71-1.85,1.17-20,8.66-43.58,10.34-29.84,1.83,14.91,7.47,14.87,8.79,3.44,1.32-11.42,6.57-35.93,9.02-24.84,2.45,11.08,4.45,22.68,9.54,6.2,5.1-16.48,20.22-31.51,19.92-24.42-.22,5.25,5.64,9.41,9.25,4.51-1.93,6.63-3.45,15.53-4.03,22.8Z"/>
                <path class="cls-15" d="m1043.61,1218.53c-2.91-.98-8.25,1.84-11.46,8.26-5.18,10.36-6.67,9.56-11.59-3.19-1.98-5.11-4.16-4.14-6.15-.07.14-.83.25-1.72.33-2.7,1.32-16.61,7.52-41.66,12.45-28.92,4.93,12.74,6.41,13.55,11.59,3.19,5.18-10.36,15.93-11.34,13-2.12-2.93,9.22-8.07,25.23-8.07,25.23,0,0-.03.12-.09.33Z"/>
              </g>
            </g>
          </g>
        </g>
      </g>
      <g id="_клюв" data-name="клюв">
        <g>
          <path class="cls-20" d="m1139.37,619.59c-2.17,12.18-13.95,13.56-27.84,11.09-13.89-2.47-24.64-7.86-22.47-20.04,2.17-12.18,15.19-20.04,29.08-17.57,13.89,2.47,23.4,14.35,21.23,26.52Z"/>
          <ellipse class="cls-4" cx="1102.45" cy="615.33" rx="6.99" ry="7.98" transform="translate(145.32 1438.7) rotate(-69.87)"/>
        </g>
        <g id="eye_and_beak" data-name="eye and beak">
          <g>
            <g>
              <path class="cls-26" d="m1124.47,655.01s114.74-21.27,166.09-3.59c51.35,17.67,300.57,103.3,300.57,103.3,0,0-345.63-79.07-438.46-94.31-15.41-4.27-28.2-5.4-28.2-5.4Z"/>
              <path class="cls-9" d="m1132.94,654.75s84.17,8.43,113.61,11.77c58.39,6.63,344.58,88.2,344.58,88.2,0,0-321.55-102.06-362.99-105.59-41.45-3.52-95.2,5.61-95.2,5.61Z"/>
            </g>
            <g>
              <path class="cls-19" d="m1124.47,655.01s38.96-6.05,37.24-19.93c-1.72-13.88-20.03-32.16-8.79-33.62,11.24-1.46,36.03-10.93,33.17-26.1,7.18,8.3,7.4,15.39,25,19.64,17.6,4.24,267.74,92.74,380.05,159.73-192.68-64.79-377.62-119.5-466.67-99.71Z"/>
              <g class="cls-7">
                <path class="cls-5" d="m1150.68,602.27c-3.69,3.5,1.25,9.52,2.92,13.49,12.22-2.89,31.36-11.85,28.83-25.28,7.18,8.3,7.4,15.39,25,19.64,32.81,4.99,321.29,113.76,383.71,144.61-108.98-63.43-303.27-134.53-378.41-159.28-13.3-2.11-19.72-9.81-26.64-20.09,2,17.64-23.36,23.88-35.41,26.91Z"/>
              </g>
              <path class="cls-9" d="m1202.63,624.28s-10.87-6.42-5.77-8.01,9.15.8,15.25,2.94c6.1,2.14,7.34,7.88,1.37,7.1-5.98-.79-10.85-2.02-10.85-2.02Z"/>
            </g>
          </g>
        </g>
      </g>
    </g>
  </g>
</svg>