<svg width="100" height="100" viewBox="0 0 100 100" fill="none" xmlns="http://www.w3.org/2000/svg">
<mask id="path-1-inside-1_1755_3279" fill="white">
<path d="M55.062 97.3285L55.0092 97.3381L54.6681 97.5062L54.572 97.5254L54.5047 97.5062L54.1636 97.3381C54.1124 97.3221 54.0739 97.3301 54.0483 97.3621L54.0291 97.4101L53.9474 99.4664L53.9714 99.5625L54.0195 99.625L54.5191 99.9805L54.5912 99.9997L54.6489 99.9805L55.1485 99.625L55.2062 99.5481L55.2254 99.4664L55.1437 97.4149C55.1309 97.3637 55.1037 97.3349 55.062 97.3285ZM56.3352 96.7856L56.2728 96.7952L55.3839 97.242L55.3359 97.29L55.3215 97.3429L55.408 99.4088L55.432 99.4664L55.4704 99.5001L56.4361 99.9469C56.497 99.9629 56.5434 99.9501 56.5754 99.9085L56.5947 99.8412L56.4313 96.8913C56.4153 96.8336 56.3833 96.7984 56.3352 96.7856ZM52.9 96.7952C52.8788 96.7823 52.8535 96.7782 52.8294 96.7835C52.8052 96.7889 52.784 96.8034 52.7703 96.824L52.7415 96.8913L52.5781 99.8412C52.5813 99.8989 52.6086 99.9373 52.6598 99.9565L52.7319 99.9469L53.6976 99.5001L53.7456 99.4616L53.7648 99.4088L53.8465 97.3429L53.8321 97.2852L53.784 97.2372L52.9 96.7952Z"/>
</mask>
<path d="M55.062 97.3285L55.3662 95.3517L55.0344 95.3007L54.7041 95.3607L55.062 97.3285ZM55.0092 97.3381L54.6513 95.3704L54.3759 95.4204L54.1249 95.5442L55.0092 97.3381ZM54.6681 97.5062L55.0603 99.4674L55.3173 99.416L55.5524 99.3001L54.6681 97.5062ZM54.572 97.5254L54.0226 99.4485L54.4888 99.5817L54.9642 99.4866L54.572 97.5254ZM54.5047 97.5062L53.6204 99.3001L53.782 99.3798L53.9553 99.4293L54.5047 97.5062ZM54.1636 97.3381L55.0479 95.5442L54.9085 95.4755L54.7602 95.4291L54.1636 97.3381ZM54.0483 97.3621L52.4866 96.1127L52.3014 96.3442L52.1913 96.6194L54.0483 97.3621ZM54.0291 97.4101L52.1721 96.6674L52.0443 96.9869L52.0307 97.3308L54.0291 97.4101ZM53.9474 99.4664L51.949 99.3871L51.9376 99.6735L52.0071 99.9515L53.9474 99.4664ZM53.9714 99.5625L52.0311 100.048L52.1322 100.452L52.3862 100.782L53.9714 99.5625ZM54.0195 99.625L52.4342 100.844L52.6164 101.081L52.86 101.255L54.0195 99.625ZM54.5191 99.9805L53.3596 101.61L53.6543 101.82L54.0038 101.913L54.5191 99.9805ZM54.5912 99.9997L54.0759 101.932L54.655 102.087L55.2236 101.897L54.5912 99.9997ZM54.6489 99.9805L55.2813 101.878L55.5648 101.783L55.8084 101.61L54.6489 99.9805ZM55.1485 99.625L56.308 101.255L56.5617 101.074L56.7485 100.825L55.1485 99.625ZM55.2062 99.5481L56.8062 100.748L57.0572 100.413L57.153 100.006L55.2062 99.5481ZM55.2254 99.4664L57.1722 99.9245L57.2346 99.6592L57.2238 99.3869L55.2254 99.4664ZM55.1437 97.4149L57.1421 97.3354L57.1339 97.1296L57.084 96.9299L55.1437 97.4149ZM56.3352 96.7856L56.8505 94.8531L56.4455 94.7451L56.0313 94.8088L56.3352 96.7856ZM56.2728 96.7952L55.9688 94.8184L55.6566 94.8664L55.3745 95.0082L56.2728 96.7952ZM55.3839 97.242L54.4856 95.4551L54.1976 95.5998L53.9697 95.8278L55.3839 97.242ZM55.3359 97.29L53.9217 95.8758L53.5461 96.2514L53.4063 96.7639L55.3359 97.29ZM55.3215 97.3429L53.3919 96.8167L53.3102 97.1163L53.3232 97.4265L55.3215 97.3429ZM55.408 99.4088L53.4097 99.4924L53.4246 99.8488L53.5618 100.178L55.408 99.4088ZM55.432 99.4664L53.5859 100.236L53.7648 100.665L54.115 100.972L55.432 99.4664ZM55.4704 99.5001L54.1534 101.005L54.3697 101.195L54.6306 101.315L55.4704 99.5001ZM56.4361 99.9469L55.5963 101.762L55.7564 101.836L55.9271 101.881L56.4361 99.9469ZM56.5754 99.9085L58.1607 101.128L58.3936 100.825L58.4985 100.458L56.5754 99.9085ZM56.5947 99.8412L58.5177 100.391L58.6102 100.067L58.5916 99.7306L56.5947 99.8412ZM56.4313 96.8913L58.4283 96.7807L58.4163 96.5645L58.3583 96.356L56.4313 96.8913ZM52.9 96.7952L51.8634 98.5056L51.9329 98.5477L52.0056 98.584L52.9 96.7952ZM52.7703 96.824L51.1069 95.7136L51.0046 95.8668L50.932 96.0361L52.7703 96.824ZM52.7415 96.8913L50.9032 96.1034L50.7641 96.428L50.7445 96.7807L52.7415 96.8913ZM52.5781 99.8412L50.5812 99.7306L50.5751 99.8414L50.5812 99.9521L52.5781 99.8412ZM52.6598 99.9565L51.9576 101.829L52.4271 102.005L52.9242 101.939L52.6598 99.9565ZM52.7319 99.9469L52.9963 101.929L53.2967 101.889L53.5717 101.762L52.7319 99.9469ZM53.6976 99.5001L54.5374 101.315L54.7575 101.213L54.9469 101.062L53.6976 99.5001ZM53.7456 99.4616L54.9949 101.023L55.4334 100.673L55.6252 100.145L53.7456 99.4616ZM53.7648 99.4088L55.6444 100.092L55.751 99.7993L55.7633 99.4878L53.7648 99.4088ZM53.8465 97.3429L55.8449 97.4219L55.8563 97.1356L55.7868 96.8577L53.8465 97.3429ZM53.8321 97.2852L55.7724 96.8001L55.638 96.2627L55.2463 95.871L53.8321 97.2852ZM53.784 97.2372L55.1983 95.823L54.9688 95.5935L54.6785 95.4483L53.784 97.2372ZM54.7041 95.3607L54.6513 95.3704L55.3671 99.3058L55.4199 99.2962L54.7041 95.3607ZM54.1249 95.5442L53.7838 95.7123L55.5524 99.3001L55.8935 99.1319L54.1249 95.5442ZM54.2759 95.5451L54.1798 95.5643L54.9642 99.4866L55.0603 99.4674L54.2759 95.5451ZM55.1214 95.6024L55.0541 95.5832L53.9553 99.4293L54.0226 99.4485L55.1214 95.6024ZM55.389 95.7123L55.0479 95.5442L53.2793 99.1319L53.6204 99.3001L55.389 95.7123ZM54.7602 95.4291C54.5236 95.3552 54.1415 95.2797 53.6885 95.3741C53.1924 95.4774 52.7758 95.7511 52.4866 96.1127L55.61 98.6115C55.3464 98.9411 54.9618 99.1947 54.5041 99.29C54.0896 99.3764 53.7524 99.3049 53.5671 99.247L54.7602 95.4291ZM52.1913 96.6194L52.1721 96.6674L55.8861 98.1529L55.9053 98.1048L52.1913 96.6194ZM52.0307 97.3308L51.949 99.3871L55.9458 99.5458L56.0275 97.4895L52.0307 97.3308ZM52.0071 99.9515L52.0311 100.048L55.9117 99.0775L55.8877 98.9814L52.0071 99.9515ZM52.3862 100.782L52.4342 100.844L55.6047 98.4056L55.5567 98.3431L52.3862 100.782ZM52.86 101.255L53.3596 101.61L55.6786 98.3509L55.179 97.9954L52.86 101.255ZM54.0038 101.913L54.0759 101.932L55.1065 98.0673L55.0344 98.048L54.0038 101.913ZM55.2236 101.897L55.2813 101.878L54.0164 98.0831L53.9588 98.1024L55.2236 101.897ZM55.8084 101.61L56.308 101.255L53.989 97.9954L53.4893 98.3509L55.8084 101.61ZM56.7485 100.825L56.8062 100.748L53.6061 98.3482L53.5485 98.425L56.7485 100.825ZM57.153 100.006L57.1722 99.9245L53.2785 99.0084L53.2593 99.0901L57.153 100.006ZM57.2238 99.3869L57.1421 97.3354L53.1453 97.4945L53.227 99.546L57.2238 99.3869ZM57.084 96.9299C57.0211 96.6781 56.8824 96.3149 56.5677 95.9817C56.2288 95.6227 55.7973 95.418 55.3662 95.3517L54.7579 99.3052C54.3684 99.2453 53.9714 99.0582 53.6596 98.7281C53.3722 98.4237 53.2535 98.1005 53.2034 97.9L57.084 96.9299ZM56.0313 94.8088L55.9688 94.8184L56.5767 98.7719L56.6392 98.7623L56.0313 94.8088ZM55.3745 95.0082L54.4856 95.4551L56.2822 99.0289L57.1711 98.5821L55.3745 95.0082ZM53.9697 95.8278L53.9217 95.8758L56.7501 98.7042L56.7981 98.6562L53.9697 95.8278ZM53.4063 96.7639L53.3919 96.8167L57.251 97.869L57.2654 97.8162L53.4063 96.7639ZM53.3232 97.4265L53.4097 99.4924L57.4062 99.3251L57.3197 97.2592L53.3232 97.4265ZM53.5618 100.178L53.5859 100.236L57.2781 98.6972L57.2541 98.6395L53.5618 100.178ZM54.115 100.972L54.1534 101.005L56.7874 97.9949L56.749 97.9613L54.115 100.972ZM54.6306 101.315L55.5963 101.762L57.276 98.1318L56.3103 97.685L54.6306 101.315ZM55.9271 101.881C56.1971 101.952 56.596 102.002 57.0484 101.877C57.5288 101.745 57.9051 101.46 58.1607 101.128L54.9902 98.689C55.2137 98.3985 55.5509 98.141 55.9848 98.0213C56.3908 97.9093 56.736 97.9577 56.9451 98.0127L55.9271 101.881ZM58.4985 100.458L58.5177 100.391L54.6716 99.2918L54.6524 99.3591L58.4985 100.458ZM58.5916 99.7306L58.4283 96.7807L54.4344 97.0018L54.5977 99.9518L58.5916 99.7306ZM58.3583 96.356C58.1979 95.7785 57.7327 95.0883 56.8505 94.8531L55.8199 98.718C55.49 98.6301 55.1697 98.4466 54.9154 98.167C54.6741 97.9015 54.559 97.6236 54.5043 97.4265L58.3583 96.356ZM53.9366 95.0847C53.4745 94.8047 52.9224 94.7141 52.3955 94.8312L53.2632 98.7359C52.7847 98.8423 52.2832 98.76 51.8634 98.5056L53.9366 95.0847ZM52.3955 94.8312C51.8685 94.9483 51.4068 95.2643 51.1069 95.7136L54.4337 97.9344C54.1613 98.3425 53.7419 98.6295 53.2632 98.7359L52.3955 94.8312ZM50.932 96.0361L50.9032 96.1034L54.5797 97.6791L54.6086 97.6119L50.932 96.0361ZM50.7445 96.7807L50.5812 99.7306L54.5751 99.9518L54.7384 97.0018L50.7445 96.7807ZM50.5812 99.9521C50.599 100.272 50.6933 100.68 50.9689 101.069C51.2495 101.465 51.6196 101.702 51.9576 101.829L53.362 98.0838C53.6487 98.1914 53.9796 98.3996 54.233 98.7572C54.4814 99.1079 54.5605 99.4684 54.575 99.7303L50.5812 99.9521ZM52.9242 101.939L52.9963 101.929L52.4674 97.9645L52.3954 97.9741L52.9242 101.939ZM53.5717 101.762L54.5374 101.315L52.8577 97.685L51.892 98.1318L53.5717 101.762ZM54.9469 101.062L54.9949 101.023L52.4963 97.8998L52.4482 97.9383L54.9469 101.062ZM55.6252 100.145L55.6444 100.092L51.8852 98.7253L51.866 98.7782L55.6252 100.145ZM55.7633 99.4878L55.8449 97.4219L51.8481 97.2639L51.7664 99.3298L55.7633 99.4878ZM55.7868 96.8577L55.7724 96.8001L51.8918 97.7704L51.9062 97.828L55.7868 96.8577ZM55.2463 95.871L55.1983 95.823L52.3698 98.6514L52.4179 98.6994L55.2463 95.871ZM54.6785 95.4483L53.7945 95.0063L52.0056 98.584L52.8896 99.026L54.6785 95.4483Z" fill="#F8F8F8" mask="url(#path-1-inside-1_1755_3279)"/>
<path d="M89.4435 63.4581C92.0253 63.4581 94.1547 65.4155 94.4226 67.924L94.449 68.4871V76.8716C94.4492 80.293 93.142 83.5851 90.7949 86.0744C88.4511 88.5601 85.2473 90.0576 81.8374 90.2618L81.0215 90.285H32.9909C29.5695 90.2852 26.2774 88.978 23.7881 86.6308C21.3024 84.287 19.8048 81.0833 19.6007 77.6733L19.5775 76.8574V28.8268V27.8268H18.5775H10.1697H10.1692C8.92998 27.8274 7.73461 27.3683 6.81439 26.5383L6.16063 27.2631L6.81439 26.5383C5.90076 25.7143 5.32285 24.5829 5.19043 23.3603L5.16406 22.7978V14.4134V14.4134C5.16387 10.992 6.47109 7.69988 8.81825 5.21059C11.162 2.72491 14.3658 1.22737 17.7757 1.02318L18.5917 1H71.4267C74.8481 0.999809 78.1402 2.30703 80.6295 4.65419C83.1152 6.99794 84.6127 10.2017 84.8169 13.6116L84.8401 14.4276V62.4581V63.4581H85.8401H89.4435ZM28.1864 8.60894H27.1864V9.60894V76.8716C27.1864 78.411 27.798 79.8874 28.8865 80.9759C29.9751 82.0645 31.4515 82.676 32.9909 82.676C34.5303 82.676 36.0067 82.0645 37.0953 80.9759C38.1838 79.8874 38.7954 78.411 38.7954 76.8716V68.4637C38.7954 65.7009 41.0382 63.4581 43.801 63.4581H76.2311H77.2311V62.4581V14.4134C77.2311 12.874 76.6196 11.3976 75.5311 10.309C74.4425 9.22049 72.9661 8.60894 71.4267 8.60894H28.1864ZM86.8401 72.0671V71.0671H85.8401H47.4043H46.4043V72.0671V76.8716C46.4043 78.4383 46.1358 79.9454 45.6441 81.3445L45.1762 82.676H46.5876H81.0356C82.5751 82.676 84.0515 82.0645 85.14 80.9759C86.2286 79.8874 86.8401 78.411 86.8401 76.8716V72.0671ZM19.5775 9.60894V8.60881L18.5773 8.60894C17.1556 8.60913 15.7834 9.13109 14.721 10.0758C13.6586 11.0206 12.9798 12.3223 12.8135 13.7343L12.8101 13.7629L12.8084 13.7916L12.7748 14.3537L12.773 14.3835V14.4134V19.2179V20.2179H13.773H18.5775H19.5775V19.2179V9.60894ZM52.2088 44.2403C53.2178 44.2403 54.1855 44.6411 54.899 45.3546C55.6124 46.068 56.0133 47.0357 56.0133 48.0447C56.0133 49.0537 55.6124 50.0214 54.899 50.7349C54.1855 51.4484 53.2178 51.8492 52.2088 51.8492H42.5998C41.5908 51.8492 40.6232 51.4484 39.9097 50.7349C39.1962 50.0214 38.7954 49.0537 38.7954 48.0447C38.7954 47.0357 39.1962 46.068 39.9097 45.3546C40.6231 44.6411 41.5908 44.2403 42.5998 44.2403H52.2088ZM61.8177 25.0224C62.8267 25.0224 63.7944 25.4232 64.5079 26.1367C65.2214 26.8501 65.6222 27.8178 65.6222 28.8268C65.6222 29.8358 65.2214 30.8035 64.5079 31.517C63.7944 32.2305 62.8267 32.6313 61.8177 32.6313H42.5998C41.5908 32.6313 40.6231 32.2305 39.9097 31.517C39.1962 30.8035 38.7954 29.8358 38.7954 28.8268C38.7954 27.8178 39.1962 26.8501 39.9097 26.1367C40.6231 25.4232 41.5908 25.0224 42.5998 25.0224H61.8177Z" fill="#1F74D5" stroke="#F8F8F8" stroke-width="2"/>
</svg>
