<svg width="150" height="150" viewBox="0 0 150 150" fill="none" xmlns="http://www.w3.org/2000/svg">
<path d="M134.865 82.7759L134.862 82.774C133.103 81.4261 131.054 80.5058 128.878 80.0859L124.592 79.2589L127.474 75.9805C136.257 65.991 140.469 56.2592 140.469 46.8753C140.469 31.4326 128.034 18.9066 112.816 18.9066H112.804C105.459 18.8713 98.3973 21.7412 93.1588 26.8906L91.4062 28.6134L89.6537 26.8906C84.4152 21.7412 77.3536 18.8713 70.0081 18.9066L69.9961 18.9066C54.7782 18.9066 42.3438 31.4326 42.3438 46.8753C42.3438 52.3542 43.8072 57.9032 46.8701 63.6949L48.1556 66.1256L45.6138 67.1746C43.3472 68.11 41.2888 69.4858 39.5577 71.2224L39.5536 71.2264L26.9618 83.8006L26.2298 84.5316H25.1953H11.7188C9.27379 84.5316 6.92896 85.5029 5.20011 87.2317C3.47126 88.9606 2.5 91.3054 2.5 93.7504V117.188C2.5 119.633 3.47126 121.978 5.20011 123.706C6.92896 125.435 9.27379 126.407 11.7188 126.407H70.311C70.6814 126.406 71.0505 126.361 71.4098 126.271L71.4112 126.27L108.911 116.895L108.922 116.893C109.146 116.838 109.366 116.764 109.578 116.673L109.586 116.669L132.333 106.978L132.367 106.963L132.402 106.95C132.454 106.929 132.513 106.903 132.587 106.866L134.865 82.7759ZM134.865 82.7759C136.788 84.2453 138.306 86.1799 139.275 88.3977C140.244 90.6154 140.633 93.0432 140.405 95.4527C140.177 97.8622 139.34 100.174 137.972 102.171C136.605 104.167 134.751 105.783 132.587 106.866L134.865 82.7759ZM131.395 94.0997C131.393 93.3023 131.207 92.516 130.853 91.8015C130.498 91.086 129.983 90.4619 129.348 89.9775L127.832 91.9651L129.348 89.9775C128.713 89.4931 127.975 89.1614 127.191 89.0081C126.415 88.8563 125.614 88.8837 124.85 89.088L124.62 89.1468L85.4002 98.1673C85.3988 98.1676 85.3974 98.1679 85.396 98.1682C85.061 98.2436 84.7186 98.2816 84.3752 98.2816H84.375H65.625C64.4232 98.2816 63.2707 97.8042 62.4209 96.9544C61.5711 96.1046 61.0938 94.9521 61.0938 93.7504C61.0938 92.5486 61.5711 91.396 62.4209 90.5463C63.2707 89.6965 64.4232 89.2191 65.625 89.2191H82.0312C83.9375 89.2191 85.7657 88.4619 87.1136 87.1139C88.4615 85.766 89.2188 83.9378 89.2188 82.0316C89.2188 80.1254 88.4615 78.2972 87.1136 76.9493C85.7657 75.6013 83.9375 74.8441 82.0312 74.8441H52.6992H52.6989C51.4442 74.8442 50.2019 75.0932 49.044 75.5766L50.0071 77.8836L49.044 75.5766C47.8884 76.059 46.8398 76.7653 45.9585 77.6548C45.9567 77.6566 45.9549 77.6584 45.9532 77.6601L33.3885 90.2248L32.6562 90.957V91.9925V114.844V117.344H35.1562H69.4453H69.7526L70.0508 117.27L106.174 108.252L106.367 108.204L106.549 108.126L128.528 98.7511L128.663 98.6932L128.791 98.6198C129.587 98.163 130.247 97.5033 130.705 96.7079C131.161 95.9146 131.399 95.0147 131.395 94.0997ZM131.395 94.0997C131.395 94.0973 131.394 94.095 131.394 94.0926L128.895 94.1078L131.395 94.1032C131.395 94.102 131.395 94.1008 131.395 94.0997ZM87.2149 39.2223L87.2094 39.209L87.2037 39.1957C85.7719 35.8212 83.366 32.9505 80.2938 30.9507C77.227 28.9544 73.6354 27.9165 69.9768 27.9691C59.8407 27.9801 51.4062 36.6523 51.4062 46.8753C51.4062 52.7111 53.6946 58.4801 58.145 64.7315L58.8926 65.7816H60.1816H82.0312C86.341 65.7816 90.4743 67.4936 93.5217 70.5411C96.5692 73.5886 98.2812 77.7218 98.2812 82.0316V82.7699V85.915L101.345 85.2054L104.052 84.5785L104.568 84.459L104.991 84.1407C113.432 77.791 119.992 71.4468 124.461 65.2483C128.924 59.0583 131.406 52.8644 131.406 46.8753C131.406 36.6523 122.972 27.9801 112.836 27.9691C109.177 27.9165 105.585 28.9544 102.519 30.9507C99.4465 32.9505 97.0406 35.8212 95.6088 39.1957L95.6031 39.209L95.5976 39.2223C95.2563 40.0534 94.6755 40.7642 93.9292 41.2645C93.1829 41.7647 92.3047 42.0318 91.4062 42.0318C90.5078 42.0318 89.6296 41.7647 88.8833 41.2645C88.137 40.7642 87.5562 40.0534 87.2149 39.2223ZM14.0625 93.5941H11.5625V96.0941V114.844V117.344H14.0625H21.0938H23.5938V114.844V96.0941V93.5941H21.0938H14.0625Z" fill="white" stroke="#1F74D5" stroke-width="5"/>
</svg>
