<svg width="66" height="66" viewBox="0 0 66 66" fill="none" xmlns="http://www.w3.org/2000/svg">
<path d="M33 0.5C15.06 0.5 0.5 15.06 0.5 33C0.5 50.94 15.06 65.5 33 65.5C50.94 65.5 65.5 50.94 65.5 33C65.5 15.06 50.94 0.5 33 0.5ZM48.08 22.6C47.5925 27.735 45.48 40.215 44.4075 45.9675C43.9525 48.405 43.0425 49.2175 42.1975 49.315C40.3125 49.4775 38.8825 48.08 37.0625 46.8775C34.2025 44.9925 32.5775 43.8225 29.815 42.0025C26.5975 39.89 28.6775 38.72 30.53 36.835C31.0175 36.3475 39.3375 28.775 39.5 28.0925C39.5226 27.9891 39.5196 27.8818 39.4912 27.7799C39.4629 27.6779 39.4102 27.5844 39.3375 27.5075C39.1425 27.345 38.8825 27.41 38.655 27.4425C38.3625 27.5075 33.8125 30.53 24.94 36.51C23.64 37.3875 22.47 37.8425 21.43 37.81C20.26 37.7775 18.05 37.16 16.3925 36.6075C14.345 35.9575 12.7525 35.6 12.8825 34.4625C12.9475 33.8775 13.76 33.2925 15.2875 32.675C24.7775 28.5475 31.0825 25.8175 34.235 24.5175C43.27 20.7475 45.1225 20.0975 46.3575 20.0975C46.6175 20.0975 47.235 20.1625 47.625 20.4875C47.95 20.7475 48.0475 21.105 48.08 21.365C48.0475 21.56 48.1125 22.145 48.08 22.6Z" fill="white"/>
</svg>
