<svg width="23" height="23" viewBox="0 0 23 23" fill="none" xmlns="http://www.w3.org/2000/svg">
<path d="M9.92086 14.0792C8.92694 15.2333 7.9482 16.3662 6.97352 17.5022C5.46038 19.2643 3.95129 21.0295 2.43005 22.7845C2.33592 22.8937 2.15373 22.9777 2.009 22.9838C1.47156 23.007 0.931076 22.9929 0.280273 22.9929C0.816705 22.3627 1.29342 21.7952 1.77722 21.2338C3.35716 19.3958 4.93812 17.5589 6.52008 15.7229C7.24477 14.8813 7.96035 14.0316 8.70528 13.2072C8.95933 12.925 9.00993 12.7399 8.77107 12.3949C6.00997 8.40946 3.27214 4.41185 0.528246 0.417266C0.462458 0.32117 0.40679 0.219004 0.318735 0.0753652C0.448288 0.058169 0.552538 0.0318689 0.656788 0.0318689C2.61324 0.0298458 4.5697 0.0389497 6.52616 0.0227651C6.85611 0.0197304 7.04133 0.139092 7.22048 0.401082C8.97856 2.97748 10.7478 5.54578 12.515 8.11611C12.5807 8.21221 12.6546 8.30325 12.766 8.45194C13.3621 7.76713 13.9421 7.10558 14.5159 6.43898C16.0979 4.60303 17.7244 2.80248 19.2335 0.908876C19.8286 0.161346 20.4612 -0.0885046 21.3377 0.0268112C21.5138 0.0500767 21.697 0.0298458 22.0027 0.0298458C19.1708 3.32241 16.4127 6.529 13.6405 9.75279C16.6627 14.151 19.6687 18.5269 22.7193 22.9666C22.528 22.9777 22.4035 22.9908 22.279 22.9908C20.356 22.9918 18.4339 22.9827 16.5109 22.9999C16.1657 23.003 15.9653 22.8897 15.773 22.6085C13.8368 19.7701 11.8874 16.9408 9.92086 14.0781V14.0792ZM3.00089 1.54817C3.13247 1.74542 3.21951 1.88097 3.31162 2.01348C4.22153 3.3214 5.12941 4.63135 6.04236 5.93624C9.61823 11.0486 13.1951 16.1609 16.7771 21.2682C16.8651 21.3926 17.0149 21.5565 17.1394 21.5595C18.0716 21.5838 19.0048 21.5727 19.9865 21.5727C19.9015 21.4189 19.862 21.3279 19.8064 21.2479C15.2811 14.7751 10.7569 8.30122 6.22555 1.8314C6.13952 1.70901 5.97657 1.56435 5.84701 1.56132C4.92597 1.53805 4.00392 1.54918 3.0019 1.54918L3.00089 1.54817Z" fill="white"/>
</svg>
