<svg width="66" height="68" viewBox="0 0 66 68" fill="none" xmlns="http://www.w3.org/2000/svg">
<path d="M28.7622 41.6253C25.8831 45.0376 23.0479 48.3872 20.2245 51.7457C15.8413 56.9554 11.4699 62.174 7.06327 67.3628C6.79061 67.6858 6.26287 67.934 5.84361 67.952C4.28677 68.0208 2.72114 67.9789 0.835938 67.9789C2.38984 66.1157 3.77076 64.438 5.1722 62.7782C9.74888 57.3442 14.3285 51.9131 18.911 46.4851C21.0103 43.9969 23.0831 41.4848 25.241 39.0474C25.9769 38.213 26.1235 37.6657 25.4316 36.6459C17.4334 24.8627 9.5026 13.0437 1.55425 1.23366C1.36368 0.949546 1.20242 0.647491 0.947349 0.222819C1.32263 0.171978 1.62462 0.0942212 1.9266 0.0942212C7.59394 0.0882399 13.2613 0.115156 18.9286 0.0673054C19.8844 0.0583334 20.421 0.41123 20.9399 1.18581C26.0326 8.80298 31.1575 16.3962 36.2766 23.9955C36.4672 24.2796 36.6812 24.5487 37.0037 24.9884C38.7306 22.9637 40.4106 21.0078 42.073 19.037C46.6555 13.609 51.3671 8.2856 55.7385 2.68711C57.4625 0.477024 59.2949 -0.261666 61.8339 0.079268C62.3441 0.148053 62.8747 0.0882399 63.7602 0.0882399C55.5567 9.82279 47.5673 19.3031 39.5369 28.8343C48.2915 41.8377 56.9992 54.7752 65.8359 67.9011C65.2818 67.934 64.9212 67.9729 64.5606 67.9729C58.99 67.9759 53.4223 67.949 47.8517 67.9998C46.8519 68.0088 46.2714 67.6738 45.7144 66.8424C40.1057 58.4507 34.4589 50.0859 28.7622 41.6223V41.6253ZM8.71686 4.5772C9.098 5.16038 9.35015 5.56112 9.61695 5.9529C12.2527 9.8198 14.8826 13.6927 17.5272 17.5506C27.8856 32.6653 38.2469 47.7801 48.6228 62.8798C48.8779 63.2477 49.3118 63.7322 49.6724 63.7411C52.3727 63.8129 55.0759 63.78 57.9198 63.78C57.6736 63.3254 57.5592 63.0563 57.398 62.82C44.2895 43.6829 31.1839 24.5427 18.0579 5.41458C17.8086 5.05271 17.3366 4.62505 16.9613 4.61608C14.2933 4.54729 11.6224 4.58019 8.71979 4.58019L8.71686 4.5772Z" fill="white"/>
</svg>
