<svg width="66" height="52" viewBox="0 0 66 52" fill="none" xmlns="http://www.w3.org/2000/svg">
<path d="M65.8359 6.15054C63.3984 7.18894 60.8797 7.90783 58.1984 8.22734C60.9609 6.6298 63.0734 4.07373 64.0484 0.958526C61.4484 2.47619 58.6047 3.51459 55.5984 4.15361C53.1609 1.59754 49.6672 0 45.8484 0C38.4547 0 32.5234 5.91091 32.5234 13.0998C32.5234 14.1383 32.6047 15.0968 32.8484 16.0553C21.7984 15.576 12.0484 10.3041 5.46719 2.39631C0.754688 10.7035 6.03594 17.573 9.52969 19.8894C7.41719 19.8894 5.30469 19.2504 3.51719 18.2919C3.51719 24.7619 8.14844 30.1137 14.1609 31.3118C12.8609 31.7112 9.93594 31.9508 8.14844 31.5515C9.85469 36.7435 14.8109 40.5776 20.5797 40.6575C16.0297 44.172 9.36719 46.9677 0.835938 46.0891C6.76719 49.8433 13.7547 52 21.3109 52C45.8484 52 59.1734 32.0307 59.1734 14.7773C59.1734 14.2181 59.1734 13.659 59.0922 13.0998C61.8547 11.1029 64.1297 8.78648 65.8359 6.15054Z" fill="white"/>
</svg>
