<svg width="279" height="264" viewBox="0 0 279 264" fill="none" xmlns="http://www.w3.org/2000/svg">
<path fill-rule="evenodd" clip-rule="evenodd" d="M53.4123 252.167C30.8633 238.301 19.4334 212.003 10.4923 186.54C1.76857 161.697 -1.5325 135.139 2.9428 108.442C7.51233 81.1833 20.1529 42.7785 42.4999 26.3124C64.6486 9.9924 88.2739 33.0551 114.405 26.3124C139.292 19.8908 159.066 -1.88734 184.093 1.00011C209.546 3.93667 226.755 21.3552 242.749 41.1198C258.908 61.0879 272.874 83.3063 276.415 109.445C280.062 136.373 281.716 168.952 262.847 189.481C243.651 210.366 208.81 196.647 184.093 209.888C162.244 221.593 151.859 249.943 128.5 257.5C102.808 265.812 75.613 265.819 53.4123 252.167Z" fill="#1F74D5"/>
</svg>
