<svg width="381" height="325" viewBox="0 0 381 325" fill="none" xmlns="http://www.w3.org/2000/svg">
<path fill-rule="evenodd" clip-rule="evenodd" d="M19.7134 246.243C33.4393 274.244 50.1318 302.845 77.8691 315.521C105.178 328.001 139.072 327.03 167.381 313.726C181.227 307.218 189.159 293.466 197.183 279.555C199.73 275.137 202.287 270.704 205.046 266.482C213.283 262.383 221.713 259.116 230.622 258.446C244.796 257.38 258.556 262.654 272.081 267.839C289.507 274.518 306.543 281.049 323.573 273.679C353.306 260.812 367.104 225.633 376.099 195.49C384.829 166.232 380.674 136.244 373.128 107.608C372.713 106.033 372.298 104.445 371.882 102.848C364.803 75.7149 357.056 46.0165 332.979 31.8594C318.424 23.3011 300.867 26.3687 282.954 29.4986C273.034 31.2319 263.005 32.9842 253.316 32.7919C235.698 16.131 216.269 0.692587 192.536 0.952954C187.826 1.00463 183.383 1.95179 179.126 3.54977C172.499 1.89934 165.664 1.47925 158.451 3.07279C133.024 8.68966 114.086 29.3644 98.3433 51.1566C91.7931 51.9366 85.1006 52.1485 78.4586 52.3589C59.9159 52.9461 41.7669 53.5209 28.2054 66.4088C4.84385 88.6099 1.90365 125.432 0.390925 157.467C-1.0906 188.841 6.32118 218.924 19.7134 246.243Z" fill="#5797DF"/>
</svg>
