<svg width="337" height="278" viewBox="0 0 337 278" fill="none" xmlns="http://www.w3.org/2000/svg">
<path fill-rule="evenodd" clip-rule="evenodd" d="M107.162 12.7275C138.335 -6.65725 176.887 1.32173 210.938 5.41571C243.586 9.3411 275.422 16.5343 297.854 35.6547C320.686 55.1165 337.951 81.6236 336.016 112.031C334.168 141.055 305.405 165.161 287.893 192.13C270.165 219.43 263.849 254.931 232.953 270.743C201.977 286.595 169.082 270.315 135.972 269.878C99.1772 269.392 55.3741 286.637 28.3728 268.04C1.03611 249.211 -3.56565 211.421 2.70048 178.084C8.32965 148.136 42.5331 127.026 60.1069 99.208C78.316 70.3842 76.2954 31.9216 107.162 12.7275Z" fill="#1F74D5"/>
</svg>
