<svg width="450" height="343" viewBox="0 0 450 343" fill="none" xmlns="http://www.w3.org/2000/svg">
<path fill-rule="evenodd" clip-rule="evenodd" d="M443.393 112.87C423.656 67.1493 383.237 18.7901 327.887 3.54992C293.697 -5.86405 266.904 8.42004 239.318 23.1263C237.673 24.0035 236.025 24.8821 234.372 25.7573C229.257 28.0905 224.17 30.6941 219.126 33.5044C210.522 37.6061 201.664 41.2331 192.327 43.7412C174.952 48.4085 154.647 49.3844 134.66 50.3449C97.6518 52.1235 61.7336 53.8497 47.5204 78.8614C37.6915 96.1579 38.4547 116.709 45.7146 137.643C23.1398 148.486 5.05221 161.3 1.50713 181.62C-6.23366 225.99 42.7603 267.751 92.5128 291.566C117.167 303.367 144.891 299.362 173.431 295.24C192.499 292.486 211.933 289.679 231.057 291.499C253.193 293.606 274.445 302.28 294.877 310.619C295.066 310.696 295.254 310.773 295.443 310.85C318.913 330.163 342.309 345.638 369.341 341.326C406.67 335.371 411.952 300.343 417.176 265.696C419.154 252.576 421.124 239.511 424.823 228.1C427.565 219.639 430.879 211.287 434.182 202.963C445.769 173.761 457.22 144.901 443.393 112.87Z" fill="#5797DF"/>
</svg>
