<svg width="380" height="368" viewBox="0 0 380 368" fill="none" xmlns="http://www.w3.org/2000/svg">
<path fill-rule="evenodd" clip-rule="evenodd" d="M282.973 38.4475C256.302 18.7029 227.47 -2.64214 194.311 1.18707C171.179 3.85834 156.509 20.7774 141.497 38.0906C132.541 48.4193 123.464 58.8883 112.396 66.5561C101.431 74.1519 88.6627 79.5054 76.0388 84.7983C55.748 93.3057 35.831 101.656 24.3807 118.91C3.70475 150.064 -8.98615 191.25 7.68474 224.332C13.3982 235.67 22.9005 243.583 34.2766 249.874C30.2017 286.098 37.3228 326.759 65.8927 348.495C85.3052 363.264 111.748 360.542 138.621 357.775C152.06 356.391 165.606 354.996 178.434 355.772C189.965 356.47 201.557 359.137 213.057 361.782C236.087 367.08 258.751 372.294 279.83 361.444C301.553 350.263 310.623 328.035 319.793 305.562C323.93 295.424 328.087 285.236 333.435 275.99C338.62 267.028 344.911 258.415 351.166 249.851C365.417 230.341 379.481 211.087 379.844 188.54C380.16 169.022 373.92 150.638 363.852 134.181C362.47 129.523 360.885 124.926 359.132 120.42C347.095 89.4982 321.084 66.1296 292.865 45.7156C289.599 43.3526 286.303 40.9125 282.973 38.4475Z" fill="#5797DF"/>
</svg>
