<svg width="435" height="368" viewBox="0 0 435 368" fill="none" xmlns="http://www.w3.org/2000/svg">
<path fill-rule="evenodd" clip-rule="evenodd" d="M363.889 272.452C348.143 301.053 326.269 326.397 297.735 344.434C268.046 363.202 234.984 362.868 201.611 362.531C194.426 362.459 187.227 362.386 180.044 362.504C168.725 362.69 156.812 363.868 144.872 365.049C108.77 368.619 72.4217 372.213 51.5308 348.471C30.3639 324.414 38.7533 288.949 47.0895 253.709C47.4652 252.121 47.8408 250.533 48.2136 248.947C23.9091 233.8 3.12565 216.93 0.74989 191.656C-2.24888 159.753 25.3735 135.98 52.8206 112.358C61.8232 104.61 70.807 96.8782 78.6852 88.881C87.4483 79.9855 95.6185 69.7892 103.812 59.5633C127.165 30.4189 150.71 1.03492 188.721 0.845547C221.098 0.68424 239.981 24.3466 259.525 48.837C268.162 59.6604 276.928 70.6455 287.045 79.8074C289.27 79.1852 291.492 78.5577 293.71 77.9313C331.405 67.2858 367.812 57.0041 391.338 79.8449C406.945 94.9968 410.699 115.802 408.417 138.776C421.483 147.546 430.879 158.543 433.546 173.872C440.477 213.7 402.807 245.281 363.889 272.452Z" fill="#5797DF"/>
</svg>
