<svg width="23" height="20" viewBox="0 0 23 20" fill="none" xmlns="http://www.w3.org/2000/svg">
<path d="M20.934 17.6968L2.66988 1L1.48438 2.07475L5.85592 6.06911C5.35513 6.923 5.09118 7.87609 5.08719 8.84485V13.9224L3.23484 15.615V16.4612H17.2293L19.7578 18.7715L20.934 17.6968ZM6.93954 14.7687V8.84485C6.93954 8.32863 7.04142 7.82087 7.25444 7.34697L15.377 14.7687H6.93954ZM9.71807 17.3075H13.4228C13.4228 17.7564 13.2276 18.1869 12.8802 18.5043C12.5328 18.8217 12.0617 19 11.5704 19C11.0791 19 10.608 18.8217 10.2606 18.5043C9.91323 18.1869 9.71807 17.7564 9.71807 17.3075ZM8.13431 3.84344C8.62518 3.55571 9.16236 3.34415 9.71807 3.16643V2.92102C9.71807 2.47213 9.91323 2.04163 10.2606 1.72422C10.608 1.40681 11.0791 1.22849 11.5704 1.22849C12.0617 1.22849 12.5328 1.40681 12.8802 1.72422C13.2276 2.04163 13.4228 2.47213 13.4228 2.92102V3.16643C16.1735 3.91114 18.0536 6.22144 18.0536 8.84485V12.9069L16.2013 11.2144V8.84485C16.2013 7.72264 15.7134 6.64639 14.8449 5.85286C13.9765 5.05934 12.7986 4.61354 11.5704 4.61354C10.848 4.61354 10.1348 4.78279 9.49578 5.08745L8.13431 3.84344Z" fill="#B63232"/>
</svg>
