<svg width="25" height="24" viewBox="0 0 25 24" fill="none" xmlns="http://www.w3.org/2000/svg">
<path d="M18 13.5H11V12.5H18V13.5ZM18 10.5H7V9.5H18V10.5ZM18 7.5H7V6.5H18V7.5ZM21.5 20.077V4.616C21.5 4.15533 21.3457 3.771 21.037 3.463C20.7283 3.155 20.3443 3.00067 19.885 3H5.115C4.655 3 4.271 3.15433 3.963 3.463C3.655 3.77167 3.50067 4.156 3.5 4.616V15.385C3.5 15.845 3.65433 16.2293 3.963 16.538C4.27167 16.8467 4.65567 17.0007 5.115 17H18.423L21.5 20.077ZM18.85 16H5.115C4.96167 16 4.82067 15.936 4.692 15.808C4.56333 15.68 4.49933 15.539 4.5 15.385V4.615C4.5 4.46167 4.564 4.32067 4.692 4.192C4.82 4.06333 4.961 3.99933 5.115 4H19.885C20.0383 4 20.1793 4.064 20.308 4.192C20.4367 4.32 20.5007 4.461 20.5 4.615V17.645L18.85 16Z" fill="black"/>
</svg>
