<svg width="20" height="20" viewBox="0 0 20 20" fill="none" xmlns="http://www.w3.org/2000/svg">
<path d="M11.325 14.9H11.2836L11.2543 14.9293L8.03817 18.1454C8.03813 18.1454 8.03809 18.1455 8.03805 18.1455C7.79712 18.3855 7.49055 18.5488 7.15698 18.6148C6.82335 18.6809 6.47763 18.6467 6.16341 18.5165C5.84918 18.3864 5.58052 18.1661 5.39127 17.8835C5.20203 17.6009 5.10068 17.2687 5.1 16.9285V15V14.9H5H3.4375C2.88386 14.9 2.3529 14.6801 1.96141 14.2886C1.56993 13.8971 1.35 13.3661 1.35 12.8125V3.4375C1.35 2.28523 2.28523 1.35 3.4375 1.35H16.5625C17.7148 1.35 18.65 2.28523 18.65 3.4375V12.8125C18.65 13.3661 18.4301 13.8971 18.0386 14.2886C17.6471 14.6801 17.1161 14.9 16.5625 14.9H11.325ZM6.775 16.8V17.0414L6.94571 16.8707L10.3457 13.4707L10.3458 13.4707C10.5027 13.3136 10.7155 13.2252 10.9376 13.225H16.5625C16.6719 13.225 16.7768 13.1815 16.8542 13.1042C16.9315 13.0268 16.975 12.9219 16.975 12.8125V3.4375C16.975 3.3281 16.9315 3.22318 16.8542 3.14582C16.7768 3.06846 16.6719 3.025 16.5625 3.025H3.4375C3.3281 3.025 3.22318 3.06846 3.14582 3.14582C3.06846 3.22318 3.025 3.3281 3.025 3.4375V12.8125C3.025 13.0402 3.20977 13.225 3.4375 13.225H5.9375C6.15962 13.225 6.37264 13.3132 6.5297 13.4703C6.68676 13.6274 6.775 13.8404 6.775 14.0625V16.8Z" fill="black" stroke="white" stroke-width="0.2"/>
</svg>
