<svg width="18" height="11" viewBox="0 0 18 11" fill="none" xmlns="http://www.w3.org/2000/svg">
<path d="M6.22656 6.83318L9.57866 9.51454C9.74168 9.64476 9.94946 9.70547 10.1569 9.68351C10.3644 9.66154 10.5549 9.55867 10.687 9.3972L17.3262 1.28336" stroke="#666666" stroke-width="1.3" stroke-linecap="round"/>
<path d="M4.47754 8.95444L4.51589 8.9832L4.54624 8.94611L5.03202 8.35246L6.17375 9.30328L5.69617 9.88649L5.69615 9.88651C5.44539 10.1931 5.08587 10.391 4.69268 10.4388C4.29949 10.4866 3.90304 10.3806 3.58614 10.143L1.02292 8.22036L0.992918 8.26035L1.02292 8.22035C0.865308 8.10215 0.761112 7.92617 0.73325 7.73114C0.705389 7.53611 0.756144 7.338 0.874351 7.18039C0.992558 7.02278 1.16853 6.91858 1.36356 6.89072C1.5586 6.86286 1.75671 6.91361 1.91431 7.03182L4.47754 8.95444ZM12.3501 1.75393C12.3501 1.75403 12.35 1.75413 12.3499 1.75423L8.74798 6.15762L7.60625 5.20679L11.2 0.813807C11.2001 0.81371 11.2002 0.813613 11.2002 0.813516C11.326 0.664618 11.5053 0.571107 11.6993 0.553158C11.8936 0.535198 12.087 0.594341 12.238 0.717815C12.389 0.841289 12.4854 1.01919 12.5063 1.2131C12.5272 1.40689 12.4711 1.60112 12.3501 1.75393Z" fill="#666666" stroke="#EDBC64" stroke-width="0.1"/>
</svg>
