<svg width="20" height="13" viewBox="0 0 20 13" fill="none" xmlns="http://www.w3.org/2000/svg">
<path d="M18.9503 2.68928L18.9485 2.69133L10.7753 11.872C10.775 11.8723 10.7747 11.8727 10.7744 11.873C10.6498 12.0098 10.5253 12.1058 10.4025 12.168C10.281 12.2218 10.1461 12.25 9.99464 12.25C9.84315 12.25 9.70828 12.2218 9.58681 12.168C9.46393 12.1058 9.3395 12.0097 9.21486 11.873L1.0414 2.69205C1.0413 2.69194 1.0412 2.69183 1.0411 2.69171C0.84812 2.47309 0.75 2.2109 0.75 1.89096C0.75 1.66971 0.798422 1.48075 0.889774 1.31765L0.88997 1.31776L0.894757 1.30829C0.984008 1.13177 1.10296 0.996179 1.25155 0.895707C1.39397 0.79941 1.55567 0.750001 1.74449 0.750001C1.9978 0.750001 2.23404 0.855731 2.4598 1.10333L9.80771 9.37721L9.99464 9.58769L10.1816 9.37721L17.5285 1.10442C17.5288 1.10409 17.5291 1.10376 17.5294 1.10342C17.754 0.857088 17.9935 0.750001 18.2555 0.750001C18.4355 0.750001 18.594 0.798505 18.7377 0.895707L18.7377 0.895739L18.7413 0.898109C18.8963 0.999027 19.0172 1.13411 19.1052 1.30829L19.105 1.30839L19.1102 1.31765C19.2016 1.48075 19.25 1.66971 19.25 1.89096C19.25 2.20895 19.1496 2.47031 18.9503 2.68928Z" fill="black" stroke="#FAA206" stroke-width="0.5"/>
</svg>
