<svg width="12" height="19" viewBox="0 0 12 19" fill="none" xmlns="http://www.w3.org/2000/svg">
<path d="M1.66009e-06 9.49464C1.69261e-06 9.68059 0.0353652 9.85225 0.106092 10.0096C0.184678 10.1669 0.302556 10.3171 0.459727 10.4602L9.64244 18.6352C9.90963 18.8784 10.2318 19 10.609 19C10.8684 19 11.1002 18.9428 11.3045 18.8283C11.5167 18.7211 11.6857 18.5709 11.8114 18.3778C11.9371 18.1918 12 17.9844 12 17.7555C12 17.4122 11.8546 17.1082 11.5639 16.8436L3.2888 9.49464L11.5639 2.14568C11.8546 1.88104 12 1.58065 12 1.24449C12 1.00847 11.9371 0.797476 11.8114 0.611517C11.6857 0.425558 11.5167 0.278936 11.3045 0.171652C11.1002 0.0572162 10.8684 -1.90029e-06 10.609 -1.85494e-06C10.2318 -1.78899e-06 9.90963 0.118011 9.64244 0.354036L0.459726 8.52908C0.302556 8.67212 0.184677 8.82232 0.106092 8.97967C0.0353651 9.13702 1.62758e-06 9.30868 1.66009e-06 9.49464Z" fill="black"/>
</svg>
