<svg width="22" height="21" viewBox="0 0 22 21" fill="none" xmlns="http://www.w3.org/2000/svg">
<path d="M20.3077 1H1.69231C1.24348 1 0.813035 1.18198 0.495665 1.50591C0.178296 1.82983 0 2.26917 0 2.72727V18.2727C0 18.7308 0.178296 19.1702 0.495665 19.4941C0.813035 19.818 1.24348 20 1.69231 20H20.3077C20.7565 20 21.187 19.818 21.5043 19.4941C21.8217 19.1702 22 18.7308 22 18.2727V2.72727C22 2.26917 21.8217 1.82983 21.5043 1.50591C21.187 1.18198 20.7565 1 20.3077 1ZM20.3077 2.72727V13.8196L17.5503 11.0063C17.3931 10.8459 17.2066 10.7186 17.0012 10.6318C16.7959 10.545 16.5758 10.5003 16.3535 10.5003C16.1312 10.5003 15.9111 10.545 15.7058 10.6318C15.5005 10.7186 15.3139 10.8459 15.1567 11.0063L13.0413 13.1654L8.3875 8.4154C8.07016 8.09172 7.63989 7.90989 7.19125 7.90989C6.74261 7.90989 6.31234 8.09172 5.995 8.4154L1.69231 12.807V2.72727H20.3077ZM1.69231 15.25L7.19231 9.63636L15.6538 18.2727H1.69231V15.25ZM20.3077 18.2727H18.0474L14.2397 14.3864L16.3551 12.2273L20.3077 16.2626V18.2727ZM12.6923 7.47727C12.6923 7.22106 12.7667 6.97059 12.9062 6.75756C13.0457 6.54452 13.2439 6.37848 13.4758 6.28043C13.7077 6.18238 13.9629 6.15672 14.2092 6.20671C14.4554 6.2567 14.6815 6.38008 14.859 6.56125C15.0365 6.74242 15.1574 6.97325 15.2064 7.22454C15.2554 7.47584 15.2302 7.73631 15.1342 7.97302C15.0381 8.20974 14.8754 8.41206 14.6667 8.5544C14.458 8.69675 14.2126 8.77273 13.9615 8.77273C13.6249 8.77273 13.3021 8.63624 13.0641 8.3933C12.826 8.15035 12.6923 7.82085 12.6923 7.47727Z" fill="#1F74D5"/>
</svg>
