<svg width="28" height="28" viewBox="0 0 28 28" fill="none" xmlns="http://www.w3.org/2000/svg">
<path d="M14 0C6.272 0 0 6.272 0 14C0 21.728 6.272 28 14 28C21.728 28 28 21.728 28 14C28 6.272 21.728 0 14 0ZM15.4 19.6C15.4 20.3732 14.7732 21 14 21C13.2268 21 12.6 20.3732 12.6 19.6V14C12.6 13.2268 13.2268 12.6 14 12.6C14.7732 12.6 15.4 13.2268 15.4 14V19.6ZM15.4 8.4C15.4 9.1732 14.7732 9.8 14 9.8C13.2268 9.8 12.6 9.1732 12.6 8.4C12.6 7.6268 13.2268 7 14 7C14.7732 7 15.4 7.6268 15.4 8.4Z" fill="#1F74D5"/>
</svg>
