<svg width="23" height="20" viewBox="0 0 23 20" fill="none" xmlns="http://www.w3.org/2000/svg">
<path d="M15.0577 7.95V6.25C15.0577 5.12283 14.5952 4.04183 13.772 3.2448C12.9488 2.44777 11.8322 2 10.668 2C9.50381 2 8.38727 2.44777 7.56405 3.2448C6.74082 4.04183 6.27834 5.12283 6.27834 6.25V7.95C5.57981 7.95 4.90989 8.21866 4.41596 8.69688C3.92202 9.1751 3.64453 9.8237 3.64453 10.5V16.45C3.64453 17.1263 3.92202 17.7749 4.41596 18.2531C4.90989 18.7313 5.57981 19 6.27834 19H15.0577C15.7562 19 16.4262 18.7313 16.9201 18.2531C17.414 17.7749 17.6915 17.1263 17.6915 16.45V10.5C17.6915 9.8237 17.414 9.1751 16.9201 8.69688C16.4262 8.21866 15.7562 7.95 15.0577 7.95ZM8.03421 6.25C8.03421 5.5737 8.3117 4.9251 8.80564 4.44688C9.29957 3.96866 9.96949 3.7 10.668 3.7C11.3666 3.7 12.0365 3.96866 12.5304 4.44688C13.0243 4.9251 13.3018 5.5737 13.3018 6.25V7.95H8.03421V6.25ZM15.9356 16.45C15.9356 16.6754 15.8431 16.8916 15.6785 17.051C15.5139 17.2104 15.2905 17.3 15.0577 17.3H6.27834C6.0455 17.3 5.82219 17.2104 5.65755 17.051C5.4929 16.8916 5.4004 16.6754 5.4004 16.45V10.5C5.4004 10.2746 5.4929 10.0584 5.65755 9.89896C5.82219 9.73955 6.0455 9.65 6.27834 9.65H15.0577C15.2905 9.65 15.5139 9.73955 15.6785 9.89896C15.8431 10.0584 15.9356 10.2746 15.9356 10.5V16.45Z" fill="#B63232"/>
</svg>
