<svg width="20" height="23" viewBox="0 0 20 23" fill="none" xmlns="http://www.w3.org/2000/svg">
<path d="M19.2266 10.0588L3.26648 0.2101C2.99745 0.0469425 2.68887 -0.0238602 2.38173 0.00709661C2.0746 0.0380534 1.78344 0.169305 1.54694 0.383415C1.31045 0.597525 1.1398 0.884359 1.05768 1.20582C0.97555 1.52727 0.985832 1.86813 1.08716 2.18312L4.03219 11.4751C4.03181 11.4785 4.03181 11.482 4.03219 11.4854C4.03165 11.4888 4.03165 11.4923 4.03219 11.4957L1.08716 20.8082C1.00601 21.056 0.981028 21.3212 1.0143 21.5816C1.04758 21.842 1.13814 22.0899 1.27839 22.3046C1.41864 22.5193 1.60448 22.6945 1.82032 22.8155C2.03616 22.9365 2.27569 22.9998 2.51882 23C2.78261 22.9993 3.04176 22.925 3.27123 22.7843L19.2228 12.9192C19.4581 12.7767 19.6541 12.5691 19.7907 12.3176C19.9273 12.0662 19.9995 11.78 20 11.4884C20.0005 11.1969 19.9292 10.9104 19.7935 10.6584C19.6577 10.4065 19.4624 10.1981 19.2276 10.0547L19.2266 10.0588ZM2.51882 21.3567V21.3474L5.38215 12.3184H10.8789C11.0805 12.3184 11.2738 12.2318 11.4163 12.0777C11.5588 11.9236 11.6389 11.7146 11.6389 11.4967C11.6389 11.2788 11.5588 11.0698 11.4163 10.9157C11.2738 10.7616 11.0805 10.675 10.8789 10.675H5.38975L2.52452 1.64904L2.51882 1.63671L18.479 11.4792L2.51882 21.3567Z" fill="#1F74D5"/>
</svg>
