<svg width="28" height="26" viewBox="0 0 28 26" fill="none" xmlns="http://www.w3.org/2000/svg">
<path d="M5.63111 11.2522C7.87111 15.34 11.48 18.6767 15.8822 20.7711L19.3044 17.5933C19.7244 17.2033 20.3467 17.0733 20.8911 17.2467C22.6333 17.7811 24.5156 18.07 26.4444 18.07C27.3 18.07 28 18.72 28 19.5144V24.5556C28 25.35 27.3 26 26.4444 26C11.8378 26 0 15.0078 0 1.44444C0 0.65 0.7 0 1.55556 0H7C7.85556 0 8.55556 0.65 8.55556 1.44444C8.55556 3.25 8.86667 4.98333 9.44222 6.60111C9.61333 7.10667 9.48889 7.67 9.05333 8.07444L5.63111 11.2522Z" fill="#1F74D5"/>
</svg>
