<svg width="23" height="20" viewBox="0 0 23 20" fill="none" xmlns="http://www.w3.org/2000/svg">
<path d="M3.64453 14.3333C3.64453 13.4493 4.01452 12.6014 4.6731 11.9763C5.33168 11.3512 6.2249 11 7.15628 11H14.1798C15.1111 11 16.0044 11.3512 16.6629 11.9763C17.3215 12.6014 17.6915 13.4493 17.6915 14.3333C17.6915 14.7754 17.5065 15.1993 17.1772 15.5118C16.8479 15.8244 16.4013 16 15.9356 16H5.4004C4.93472 16 4.4881 15.8244 4.15881 15.5118C3.82952 15.1993 3.64453 14.7754 3.64453 14.3333Z" stroke="black" stroke-width="1.5" stroke-linejoin="round"/>
<path d="M10.6662 8C12.1581 8 13.3675 6.88071 13.3675 5.5C13.3675 4.11929 12.1581 3 10.6662 3C9.17428 3 7.96484 4.11929 7.96484 5.5C7.96484 6.88071 9.17428 8 10.6662 8Z" stroke="black" stroke-width="1.5"/>
</svg>
