<svg width="24" height="23" viewBox="0 0 24 23" fill="none" xmlns="http://www.w3.org/2000/svg">
<path d="M8.57143 10.6786C9.02609 10.6786 9.46212 10.5055 9.78361 10.1974C10.1051 9.88929 10.2857 9.47143 10.2857 9.03571C10.2857 8.6 10.1051 8.18213 9.78361 7.87404C9.46212 7.56594 9.02609 7.39286 8.57143 7.39286C8.11677 7.39286 7.68074 7.56594 7.35925 7.87404C7.03776 8.18213 6.85714 8.6 6.85714 9.03571C6.85714 9.47143 7.03776 9.88929 7.35925 10.1974C7.68074 10.5055 8.11677 10.6786 8.57143 10.6786ZM17.1429 9.03571C17.1429 9.47143 16.9622 9.88929 16.6408 10.1974C16.3193 10.5055 15.8832 10.6786 15.4286 10.6786C14.9739 10.6786 14.5379 10.5055 14.2164 10.1974C13.8949 9.88929 13.7143 9.47143 13.7143 9.03571C13.7143 8.6 13.8949 8.18213 14.2164 7.87404C14.5379 7.56594 14.9739 7.39286 15.4286 7.39286C15.8832 7.39286 16.3193 7.56594 16.6408 7.87404C16.9622 8.18213 17.1429 8.6 17.1429 9.03571ZM6.474 14.0514C6.67626 13.9544 6.91028 13.938 7.12509 14.0057C7.3399 14.0734 7.5181 14.2197 7.62086 14.4128L7.62343 14.4177L7.65257 14.4654C7.68257 14.5122 7.73229 14.5853 7.80429 14.6781C7.94914 14.8629 8.18143 15.1184 8.51743 15.3763C9.18 15.884 10.2797 16.4286 12 16.4286C13.7203 16.4286 14.82 15.884 15.4826 15.3771C15.8194 15.1184 16.0517 14.8629 16.1957 14.6781C16.2617 14.5951 16.3221 14.5081 16.3766 14.4177L16.38 14.412C16.4834 14.219 16.6623 14.0731 16.8775 14.006C17.0928 13.939 17.327 13.9562 17.5291 14.0541C17.7311 14.1519 17.8845 14.3224 17.9559 14.5282C18.0273 14.7341 18.0108 14.9586 17.91 15.1529L17.9083 15.1554V15.157L17.9049 15.1619L17.898 15.1742C17.8711 15.2231 17.8425 15.271 17.8123 15.318C17.737 15.4369 17.6555 15.552 17.568 15.663C17.2744 16.0344 16.9335 16.3691 16.5531 16.6594C15.6086 17.3839 14.1369 18.0714 12 18.0714C9.86314 18.0714 8.39143 17.3839 7.44686 16.6586C7.06694 16.3688 6.7263 16.0346 6.43286 15.6638C6.3106 15.5084 6.20004 15.3447 6.102 15.1742L6.09514 15.1619L6.09257 15.157L6.09171 15.1545L6.09086 15.1529C5.98935 14.9581 5.97269 14.7327 6.04453 14.5261C6.11638 14.3196 6.27085 14.1488 6.474 14.0514ZM12 0C5.37257 0 0 5.14871 0 11.5C0 17.8513 5.37257 23 12 23C18.6274 23 24 17.8513 24 11.5C24 5.14871 18.6274 0 12 0ZM1.71429 11.5C1.71429 6.05639 6.31971 1.64286 12 1.64286C17.6803 1.64286 22.2857 6.05639 22.2857 11.5C22.2857 16.9436 17.6803 21.3571 12 21.3571C6.31971 21.3571 1.71429 16.9436 1.71429 11.5Z" fill="#1F74D5"/>
</svg>
