<svg width="25" height="25" viewBox="0 0 25 25" fill="none" xmlns="http://www.w3.org/2000/svg">
<path d="M23.8062 22.2776L18.357 16.8284C19.7025 15.149 20.5107 13.015 20.5107 10.6929C20.5107 5.2728 16.1129 0.875 10.6929 0.875C5.26807 0.875 0.875 5.27284 0.875 10.6929C0.875 16.1129 5.26807 20.5107 10.6929 20.5107C13.0149 20.5107 15.1445 19.7071 16.8237 18.3617L22.2734 23.8068C22.2735 23.8068 22.2735 23.8068 22.2735 23.8068C22.6977 24.231 23.3821 24.2311 23.8065 23.807C24.2312 23.3874 24.2312 22.6976 23.8065 22.2779C23.8064 22.2778 23.8063 22.2777 23.8062 22.2776ZM10.6929 18.3315C6.47633 18.3315 3.04949 14.9046 3.04949 10.6929C3.04949 6.48103 6.47643 3.04949 10.6929 3.04949C14.9046 3.04949 18.3362 6.48108 18.3362 10.6929C18.3362 14.9045 14.9047 18.3315 10.6929 18.3315Z" fill="black" stroke="#20C0BE" stroke-width="0.25"/>
</svg>
