<svg width="19" height="12" viewBox="0 0 19 12" fill="none" xmlns="http://www.w3.org/2000/svg">
<path d="M18.4503 2.18928L18.4485 2.19133L10.2753 11.372C10.275 11.3723 10.2747 11.3727 10.2744 11.373C10.1498 11.5098 10.0253 11.6058 9.90246 11.668C9.78099 11.7218 9.64612 11.75 9.49464 11.75C9.34315 11.75 9.20828 11.7218 9.08681 11.668C8.96393 11.6058 8.8395 11.5097 8.71486 11.373L0.541403 2.19205C0.541303 2.19194 0.541203 2.19183 0.541103 2.19171C0.34812 1.97309 0.25 1.7109 0.25 1.39096C0.25 1.16971 0.298422 0.98075 0.389774 0.817646L0.38997 0.817756L0.394757 0.808289C0.484008 0.631773 0.602958 0.496179 0.751551 0.395707C0.893971 0.29941 1.05567 0.250001 1.24449 0.250001C1.4978 0.250001 1.73404 0.355731 1.9598 0.603332L9.30771 8.87721L9.49464 9.08769L9.68156 8.87721L17.0285 0.604423C17.0288 0.604089 17.0291 0.603756 17.0294 0.603423C17.254 0.357088 17.4935 0.250001 17.7555 0.250001C17.9355 0.250001 18.094 0.298505 18.2377 0.395707L18.2377 0.395739L18.2413 0.398109C18.3963 0.499027 18.5172 0.634109 18.6052 0.808289L18.605 0.808391L18.6102 0.817645C18.7016 0.98075 18.75 1.16971 18.75 1.39096C18.75 1.70895 18.6496 1.97031 18.4503 2.18928Z" fill="#1F74D5" stroke="white" stroke-width="0.5"/>
</svg>
