<svg width="40" height="40" viewBox="0 0 40 40" fill="none" xmlns="http://www.w3.org/2000/svg">
<path d="M20.324 38.7887L20.4141 38.8337L20.39 39.4093L20.287 39.457L20.324 38.7887ZM20.8228 39.5152L20.7536 39.466L20.7731 38.9747L20.7774 38.9759L20.8124 38.9859L20.848 38.9787L20.874 38.9735L20.8936 39.4649L20.8228 39.5152ZM21.3603 39.4586L21.2556 39.4107L21.2315 38.835L21.3232 38.7887L21.3603 39.4586Z" stroke="white" stroke-width="0.3"/>
<path d="M31.5171 21.2733V21.3087L31.533 21.3403L34.5696 27.4137L34.7038 27.3466L34.5696 27.4137C34.698 27.6703 34.7586 27.9555 34.7457 28.2422C34.7328 28.5289 34.6468 28.8075 34.496 29.0516C34.3451 29.2957 34.1343 29.4972 33.8836 29.6369C33.633 29.7766 33.3508 29.85 33.0638 29.8499H26.4571H26.341L26.3119 29.9623C25.9495 31.3605 25.1331 32.5988 23.9908 33.4828C22.8484 34.3668 21.4449 34.8465 20.0005 34.8465C18.556 34.8465 17.1525 34.3668 16.0101 33.4828C14.8678 32.5988 14.0514 31.3605 13.689 29.9623L13.6599 29.8499H13.5438H6.93712C6.65013 29.85 6.36792 29.7766 6.11726 29.6369C5.86661 29.4972 5.65583 29.2957 5.50496 29.0516C5.35408 28.8075 5.26811 28.5289 5.25522 28.2422C5.24232 27.9555 5.30293 27.6703 5.43128 27.4137L5.29712 27.3466L5.43128 27.4137L8.46795 21.3403L8.48379 21.3087V21.2733V14.9999C8.48379 11.9455 9.69715 9.0162 11.8569 6.85641C14.0167 4.69661 16.946 3.48325 20.0005 3.48325C23.0549 3.48325 25.9842 4.69661 28.144 6.85641C30.3038 9.0162 31.5171 11.9455 31.5171 14.9999V21.2733ZM17.1138 29.8499H16.854L16.9839 30.0749C17.2896 30.6044 17.7293 31.0441 18.2589 31.3498C18.7884 31.6555 19.389 31.8164 20.0005 31.8164C20.6119 31.8164 21.2125 31.6555 21.742 31.3498C22.2716 31.0441 22.7113 30.6044 23.017 30.0749L23.1469 29.8499H22.8871H17.1138ZM11.1813 22.6962L11.1813 22.6962L9.23127 26.5995L9.12284 26.8166H9.36545H30.6371H30.8797L30.7713 26.5995L28.8213 22.6962L28.8212 22.696C28.5998 22.2543 28.4843 21.7672 28.4838 21.2731V14.9999C28.4838 12.75 27.59 10.5922 25.9991 9.0013C24.4081 7.41036 22.2504 6.51659 20.0005 6.51659C17.7505 6.51659 15.5928 7.41036 14.0018 9.0013C12.4109 10.5922 11.5171 12.75 11.5171 14.9999V21.2733C11.5171 21.7672 11.4021 22.2544 11.1813 22.6962Z" fill="black" stroke="white" stroke-width="0.3"/>
</svg>
