<svg width="40" height="40" viewBox="0 0 40 40" fill="none" xmlns="http://www.w3.org/2000/svg">
<circle cx="20" cy="20" r="20" fill="white"/>
<path d="M28.9941 27.6923L24.4726 23.1708C25.5882 21.772 26.2578 19.9971 26.2578 18.0664C26.2578 13.5442 22.5886 9.875 18.0664 9.875C13.5403 9.875 9.875 13.5443 9.875 18.0664C9.875 22.5885 13.5403 26.2578 18.0664 26.2578C19.997 26.2578 21.7682 25.592 23.167 24.4765L27.689 28.9946C27.689 28.9947 27.689 28.9947 27.689 28.9947C28.0502 29.3559 28.633 29.3559 28.9944 28.9949C29.356 28.6375 29.356 28.0501 28.9944 27.6926C28.9943 27.6925 28.9942 27.6924 28.9941 27.6923ZM18.0664 24.4023C14.569 24.4023 11.7266 21.5598 11.7266 18.0664C11.7266 14.5729 14.5691 11.7266 18.0664 11.7266C21.5599 11.7266 24.4062 14.5729 24.4062 18.0664C24.4062 21.5598 21.56 24.4023 18.0664 24.4023Z" fill="#1F74D5" stroke="#20C0BE" stroke-width="0.25"/>
</svg>
