<svg width="19" height="13" viewBox="0 0 19 13" fill="none" xmlns="http://www.w3.org/2000/svg">
<path d="M0.549665 10.3107L0.551491 10.3087L8.7247 1.128C8.725 1.12766 8.72531 1.12733 8.72561 1.127C8.85025 0.990248 8.97467 0.894224 9.09754 0.83204C9.21901 0.77825 9.35388 0.75 9.50536 0.75C9.65685 0.75 9.79172 0.77825 9.91319 0.83204C10.0361 0.894228 10.1605 0.99026 10.2851 1.12702L18.4586 10.3079C18.4587 10.3081 18.4588 10.3082 18.4589 10.3083C18.6519 10.5269 18.75 10.7891 18.75 11.109C18.75 11.3303 18.7016 11.5192 18.6102 11.6824L18.61 11.6822L18.6052 11.6917C18.516 11.8682 18.397 12.0038 18.2484 12.1043C18.106 12.2006 17.9443 12.25 17.7555 12.25C17.5022 12.25 17.266 12.1443 17.0402 11.8967L9.69229 3.62279L9.50536 3.41231L9.31844 3.62279L1.97152 11.8956C1.97121 11.8959 1.97091 11.8962 1.97061 11.8966C1.74603 12.1429 1.50653 12.25 1.24449 12.25C1.0645 12.25 0.906036 12.2015 0.76228 12.1043L0.7623 12.1043L0.758659 12.1019C0.603664 12.001 0.482826 11.8659 0.394756 11.6917L0.394957 11.6916L0.389774 11.6824C0.298422 11.5192 0.25 11.3303 0.25 11.109C0.25 10.7911 0.350357 10.5297 0.549665 10.3107Z" fill="black" stroke="white" stroke-width="0.5"/>
</svg>
