<svg width="21" height="21" viewBox="0 0 21 21" fill="none" xmlns="http://www.w3.org/2000/svg">
<path d="M10.5 0.34375C8.49129 0.34375 6.52768 0.939404 4.85749 2.05539C3.18731 3.17137 1.88556 4.75756 1.11685 6.61337C0.348151 8.46918 0.147023 10.5113 0.538904 12.4814C0.930785 14.4515 1.89807 16.2612 3.31845 17.6816C4.73883 19.1019 6.5485 20.0692 8.51862 20.4611C10.4887 20.853 12.5308 20.6519 14.3866 19.8832C16.2424 19.1144 17.8286 17.8127 18.9446 16.1425C20.0606 14.4723 20.6563 12.5087 20.6563 10.5C20.6532 7.80735 19.5821 5.22587 17.6781 3.32187C15.7741 1.41788 13.1927 0.346852 10.5 0.34375ZM19.0938 10.5C19.0944 11.2925 18.985 12.0813 18.7686 12.8438H15.0078C15.2475 11.2904 15.2475 9.70956 15.0078 8.15625H18.7686C18.985 8.91866 19.0944 9.70746 19.0938 10.5ZM7.96094 14.4062H13.0391C12.5388 16.0455 11.6703 17.5487 10.5 18.8008C9.33024 17.5483 8.46183 16.0452 7.96094 14.4062ZM7.58008 12.8438C7.31178 11.2928 7.31178 9.70723 7.58008 8.15625H13.4277C13.696 9.70723 13.696 11.2928 13.4277 12.8438H7.58008ZM1.90625 10.5C1.90556 9.70746 2.01501 8.91866 2.23145 8.15625H5.99219C5.75254 9.70956 5.75254 11.2904 5.99219 12.8438H2.23145C2.01501 12.0813 1.90556 11.2925 1.90625 10.5ZM13.0391 6.59375H7.96094C8.46119 4.95449 9.32968 3.45133 10.5 2.19922C11.6698 3.45174 12.5382 4.95476 13.0391 6.59375ZM18.1494 6.59375H14.6709C14.2324 4.98528 13.4935 3.47432 12.4932 2.14063C13.7019 2.43099 14.8335 2.97927 15.8105 3.74791C16.7874 4.51654 17.5867 5.48734 18.1533 6.59375H18.1494ZM8.50684 2.14063C7.50649 3.47432 6.76758 4.98528 6.32911 6.59375H2.84668C3.41336 5.48734 4.21257 4.51654 5.18954 3.74791C6.16651 2.97927 7.29814 2.43099 8.50684 2.14063ZM2.84668 14.4062H6.32911C6.76758 16.0147 7.50649 17.5257 8.50684 18.8594C7.29814 18.569 6.16651 18.0207 5.18954 17.2521C4.21257 16.4835 3.41336 15.5127 2.84668 14.4062ZM12.4932 18.8594C13.4935 17.5257 14.2324 16.0147 14.6709 14.4062H18.1533C17.5867 15.5127 16.7874 16.4835 15.8105 17.2521C14.8335 18.0207 13.7019 18.569 12.4932 18.8594Z" fill="#1F74D5"/>
</svg>
