<svg width="24" height="22" viewBox="0 0 24 22" fill="none" xmlns="http://www.w3.org/2000/svg">
<path d="M11.5381 21.0774L11.5381 21.0774C11.67 21.1798 11.8322 21.2356 11.9992 21.2361L11.9995 21.2361C12.1665 21.2356 12.3286 21.1798 12.4606 21.0774L12.4606 21.0774C16.3872 18.0264 19.0947 15.3973 20.9903 12.8015L20.9903 12.8014C23.4109 9.48201 23.9705 6.40551 22.6325 3.66538C21.6757 1.70184 18.9259 0.117392 15.7338 1.03452L15.7337 1.03454C14.2307 1.46867 12.9166 2.39236 11.9993 3.65796C11.0821 2.39238 9.76795 1.46868 8.26501 1.03455C5.0655 0.103165 2.32283 1.70204 1.36615 3.66538C0.0281315 6.40551 0.587772 9.48201 3.00834 12.8014L3.00836 12.8015C4.90394 15.3973 7.61143 18.0264 11.5381 21.0774ZM6.44209 2.28315L6.44378 2.28316C6.91695 2.28559 7.38748 2.35382 7.84185 2.48588C8.59238 2.7045 9.28824 3.07927 9.88381 3.58562C10.479 4.09169 10.9607 4.71778 11.2971 5.42288C11.3542 5.56095 11.4508 5.67905 11.5749 5.76224C11.6994 5.84569 11.8459 5.89025 11.9958 5.89025C12.1457 5.89025 12.2922 5.84569 12.4167 5.76224C12.5407 5.67907 12.6374 5.561 12.6944 5.42297C13.0335 4.71961 13.5159 4.09496 14.1108 3.58919C14.706 3.08318 15.4005 2.70736 16.1497 2.48591C18.4863 1.82845 20.578 2.94254 21.2722 4.33064C22.3546 6.54464 21.878 9.02291 19.7664 11.909C17.5343 14.7867 14.9213 17.3477 11.9993 19.5214C9.07689 17.3455 6.4639 14.7822 4.23223 11.9019C2.12813 9.0235 1.64425 6.54565 2.72583 4.32495C3.10142 3.67961 3.64555 3.14863 4.2999 2.78892C4.95478 2.42892 5.69535 2.25406 6.44209 2.28315Z" fill="#1F74D5" stroke="#1F74D5" stroke-width="0.1"/>
</svg>
