<svg width="22" height="22" viewBox="0 0 22 22" fill="none" xmlns="http://www.w3.org/2000/svg">
<path d="M20.4671 15.19C21.1077 15.19 21.636 15.6759 21.702 16.2987L21.7084 16.436V18.4492C21.7084 19.2805 21.3908 20.0804 20.8205 20.6853C20.2509 21.2894 19.4721 21.6533 18.6433 21.7028L18.4464 21.7084H6.91844C6.0871 21.7084 5.28717 21.3908 4.68232 20.8205C4.07819 20.2509 3.71428 19.4721 3.66482 18.6434L3.65922 18.4463V6.91844V6.71844H3.45922H1.44134H1.44125C1.13394 6.71858 0.837494 6.60472 0.609288 6.3989C0.38241 6.19427 0.239013 5.91321 0.206428 5.60955L0.2 5.47241V3.45922V3.45921C0.199954 2.62788 0.517584 1.82795 1.0879 1.2231C1.65754 0.618972 2.43625 0.255064 3.26503 0.205598L3.46206 0.2H16.143C16.9744 0.199954 17.7743 0.517584 18.3791 1.0879C18.9833 1.65754 19.3472 2.43626 19.3967 3.26505L19.4022 3.46201V14.99V15.19H19.6022H20.4671ZM5.76537 2.10615H5.56537V2.30615V18.4492C5.56537 18.808 5.70792 19.1522 5.96167 19.4059L6.10309 19.2645L5.96167 19.4059C6.21542 19.6597 6.55958 19.8022 6.91844 19.8022C7.2773 19.8022 7.62146 19.6597 7.87521 19.4059L7.73379 19.2645L7.87521 19.4059C8.12896 19.1522 8.27151 18.808 8.27151 18.4492V16.4313C8.27151 15.7461 8.82769 15.19 9.51286 15.19H17.2961H17.4961V14.99V3.45922C17.4961 3.10036 17.3535 2.7562 17.0998 2.50245C16.846 2.2487 16.5019 2.10615 16.143 2.10615H5.76537ZM19.8022 17.2961V17.0961H19.6022H10.3777H10.1777V17.2961V18.4492C10.1777 18.8298 10.1124 19.196 9.99295 19.5359L9.89936 19.8022H10.1816H18.4492C18.808 19.8022 19.1522 19.6597 19.4059 19.4059C19.6597 19.1522 19.8022 18.808 19.8022 18.4492V17.2961ZM3.65922 2.30615V2.10612L3.45919 2.10615C3.12778 2.10619 2.80791 2.22786 2.56025 2.44809C2.31259 2.66831 2.15437 2.97177 2.11559 3.30091L2.11526 3.30087L2.11458 3.31237L2.1065 3.44728L2.10615 3.44725V3.45922V4.61229V4.81229H2.30615H3.45922H3.65922V4.61229V2.30615ZM11.5307 10.5777C11.7835 10.5777 12.0259 10.6781 12.2047 10.8568C12.3834 11.0355 12.4838 11.278 12.4838 11.5307C12.4838 11.7835 12.3834 12.0259 12.2047 12.2047C12.0259 12.3834 11.7835 12.4838 11.5307 12.4838H9.22459C8.97182 12.4838 8.7294 12.3834 8.55066 12.2047C8.37193 12.0259 8.27151 11.7835 8.27151 11.5307C8.27151 11.278 8.37193 11.0355 8.55066 10.8568C8.7294 10.6781 8.97182 10.5777 9.22459 10.5777H11.5307ZM13.8369 5.96537C14.0897 5.96537 14.3321 6.06578 14.5108 6.24452C14.6895 6.42325 14.79 6.66567 14.79 6.91844C14.79 7.17121 14.6895 7.41363 14.5108 7.59237C14.3321 7.7711 14.0897 7.87151 13.8369 7.87151H9.22459C8.97182 7.87151 8.7294 7.7711 8.55066 7.59237C8.37193 7.41363 8.27151 7.17121 8.27151 6.91844C8.27151 6.66567 8.37193 6.42325 8.55066 6.24452C8.7294 6.06578 8.97182 5.96537 9.22459 5.96537H13.8369Z" fill="#1F74D5" stroke="#F8F8F8" stroke-width="0.4"/>
</svg>
