<svg xmlns="http://www.w3.org/2000/svg" width="191" height="104" fill="none" viewBox="0 0 191 104"><path fill="#E1E3E2" stroke="#121F41" stroke-linecap="round" stroke-linejoin="round" stroke-width="1.18976" d="m53.29 1.225 6.037 1.186L61 5.588l1.568-3.24 1.143-1.314.826-.021 1.377.805 3.643 4.914-.318 2.69 1.78-.276 2.372 1.398 1.864-.53 2.901-3.198 3.283 1.25.742-3.495 1.398-.508.656.741.445 3.686-1.567 2.414 3.6 5.02 2.31-1.61-.128-1.567-2.118-3.474.36-1.546 1.165-.699 1.927 2.203.233 5.55 1.504 2.16 2.076.339 5.104-1.589 2.394 3.347 1.715-.826 1.97.953L108 16.199l3.685-.296 3.071-.741 4.787 9.277 3.41.699 1.907-1.102-1.314-3.473.233-1.377 1.652.106 1.695 2.245 2.88-.064 1.187-.868-.424-1.44-2.097-1.907-.381-1.673-3.495.53-.678-.89.297-1.123 1.059-.804 1.673.02 3.22 3.114 1.757.064.869-.741.233-1.504-.318-1.568-1.334-1.313.635-.932 1.44.953.742 3.347 1.44.212 1.207-2.182-1.27-3.156 1.821-1.567 1.546.593-.423 2.415 1.419 2.584 2.817 1.885 1.631-.742 1.842-2.86 2.839-.147 1.63-1.356.678 1.906 6.121 1.462 2.33-.106 1.61-1.906 1.716-.72 5.845 1.885 1.356-1.928-1.927-2.647.571-1.631 2.521-.043 2.817 2.542 1.673-.784.636-2.414 1.44-.127 5.697 3.304 2.118 6.375-.211 3.537 1.419 2.69 2.457 1.356-2.203 1.61-2.203.296-1.927 4.427-4.109.021-.742-1.101.149-1.568-.89-.741-1.165-.72v.91l-.741-.825-.233.847-1.229-.233-2.605 7.667-1.419-1.038-2.054.763-1.504-1.652-1.483-.445-1.927 1.61-2.012.508-3.305-3.834-.699-2.69-1.334 1.462-3.452-.19 1.715 1.334.636 3.177-.233.53-1.25-.785-1.822.36-.656 2.33-4.596-1.398-.191.763-2.16-2.012.106-1.631-1.483-2.288-1.864.636-5.126-.53-1.779 2.118-1.991-1.186-.911.657 3.622 5.316 2.034 1.144 1.059-.826.995.784.487 3.325-1.016 2.054-1.314.212-1.525-.91-1.164-2.14-1.229.784-3.304-4.681-.72.17.911 2.922-1.377.297-.085.847-1.885 1.377v.805l-2.224 2.435.805 1.822-.106 1.038-.995-.318.317 1.165-1.652.085-.784-.784-.931.55-.128 2.31-1.44-.615-.296 1.038-1.61.763-3.982-1.208-.974 1.525-1.547.403.233.826-1.101-.7-2.499 1.526-.89-1.144-1.059 1.27-.826-.592-.127.762-.974-.02-.424.74.53 1.907-2.606 2.71-1.673 5.487-4.384 3.283-1.08 4.786-.996 1.335-5.507 1.715-3.177-1.016-8.006 1.864-2.627-.678-.72 1.419-1.08.36-2.16-.995-2.5.698-1.08 1.356-2.563 1.207-6.544-.317-2.584-.827-4.215 1.271-19.72 2.479-3.092 2.287-2.774.085-.742 3.516-3.834 5.295-.105 1.885-1.335.19-1.059 1.08-1.165 2.648-3.473 1.398-.953-.55-1.102 2.287-2.266-.953-.741.953-5.444-.169 1.8-7.096 2.584-3.643.996-2.923-1.08-.402.19-.784-2.605-2.393-.233-1.06 1.038-.423-.233-1.61-2.711-2.986.593-.72-.678-.34.36-.846-1.038-3.39.89-1.482-.508-1.927 5.824-6.376-.995-2.33.381-.762 1.165-.487 2.393.953.276-1.822 1.948-.487.064-2.796 1.822-.444-.53-1.97 1.123-.509 1.906.763.699-.36.17-1.42-1.695-1.397.19-1.144-.805-.55 2.648-2.33 2.796-.53 5.634-8.112 5.231-5.359 4.618-1.948 2.732.042 2.288-.89 3.855.636 1.715 1.588h4.83l.74-1.8-1.546-5.295.106-13.217-1.038-2.012.106-3.707-.53-.72z"/></svg>