<svg xmlns="http://www.w3.org/2000/svg" width="219" height="235" fill="none" viewBox="0 0 219 235"><path fill="#E1E3E2" stroke="#121F41" stroke-linecap="round" stroke-linejoin="round" stroke-width="1.18976" d="m196.021 1.794.805-.233 6.841 2.923.974-.487 1.377.445 2.584-2.372 1.334.084 1.61 1.398-.212 1.038 1.081.53-.996 2.647-1.694.635.826 1.928-1.102.402.636.763-.89 1.017.085 1.546-.742 1.165-.931.127.593 1.737-1.314 2.372-2.435.953 1.207 1.44-1.44 1.462.233 1.567 1.567 2.309-.763.233-.381 2.012 1.462.212-1.059-.509.974-.593 5.189 2.394-.169 1.186 1.737.614.635 1.483-.424 1.059 1.377-.382 2.372.826.636-.593-.043 5.74-2.266.064-2.965 1.313-1.695-2.711-1.016-.042-2.394 2.287-2.774-.085-.869 1.885 2.182.932 2.859 3.495-1.652 5.55-1.758.042-1.017-.869-1.334.424-.445 1.42-2.224-.552-.805 1.144-1.948.127.127.932-3.156.254-.063 2.267-3.877 2.457.382 3.41.783.339.572 1.63-1.652.742-1.525 3.325-.953-.106-.593.89.826.254.89 3.092 2.266 2.563.572 6.714-1.08 2.267 1.715.508.191 3.664 2.563 2.944 2.245.403-1.123 1.207-3.325-.106-.254.89.932 2.266 1.143.635.509 3.601-3.071 1.652-.848-.381-.508 1.377.318 1.8-.953 1.207-.509 3.389 1.356 1.271-1.144 1.525 1.271.699-.318 1.906-.974-.063-.424-1.08-1.694-.149.487.996 1.059.085.148 1.503-1.758.276-1.821-.403.042-1.292-1.694-.91 1.355-1.525-.656-.551-2.034 1.482 1.419 3.072-.148 2.605 1.991-.043 1.017 2.585-.869 1.885-1.482.466.932.762-1.313.297 2.351.529-1.038 2.732.677 1.356-2.626 2.944.593 2.584-.953.657-2.648.106-1.016 1.143.593.551-1.61 2.478 2.139 2.076-3.389 5.824.827.742.296-.551 5.571 1.017.105 1.059 2.267.445-.72 2.202 1.652 1.398-1.801 1.335-1.165 3.727 2.542 1.081.021-1.081 2.817-1.652 1.568 5.613.741.403.868-.678 2.796-.148-.296 4.215.762 3.388-1.758-.021-.868.847.656 2.224-.783 1.716 1.08.466-2.055 2.457.89 3.071-1.038.89 2.521 4.935h1.313l.508 1.165 1.271-.149.487.593-1.8 1.208-5.401 1.249.974 1.907-.212 4.257-2.266 1.186.339 1.017-1.271 3.939 1.313.826-1.504.403-.233 1.355-3.473 4.3 1.313 2.309-1.779 1.927-1.377.148-.762 3.283-2.881-.106.402 1.377-.783.318-.445 1.8-1.038-.169-.995.911.55.762-2.012.657.254 1.715-5.697 3.898-3.368.338-.254 1.017.974.614-.678.953-1.503-.72-.445.53-1.017-1.123-.466.763-.254-.593h-4.85l.106-1.462-2.796.381-.233 1.271-4.956-.36-2.648 1.61-2.817-2.775.445-3.304-3.432.064-3.007-1.441-.551.509-1.652-.826-.318-1.483-3.113.297-.53.889.53 1.356-2.097.953-.254 1.821-2.648.742.742 1.228-.784 1.716-1.123-.847-.72.614-.741-.869-5.189 1.165-.17-.762 1.229-1.61-.255-.911-2.668-.487-2.415.699-.572-2.054 1.589-2.478-3.559 1.652-1.821-6.46-4.067-1.42.742-1.249-1.017-.551 1.398.17.169-1.292 1.08-.106.53 1.143 2.584-.826 1.313-1.906-.72-1.334.72-2.034-2.054-.127-4.745.17-1.101-.403-2.203-5.655-2.796-1.377-1.758-2.668-3.41.932-.021 1.673-1.843.36.34 2.69-.806.445.191 1.927-6.714-.36-1.398 1.44-1.44-.445-.022 2.224-1.122 1.292-4.321-.571-1.101.974-2.373-1.207-.36.847-1.842-.043-3.77 2.415-1.59-.169-.296-1.674-3.113-1.906-2.965 3.749-.742-2.902-4.405-1.652.042-1.864-.593.064-.275-1.271-4.11-.741-.02-1.504-1.42-.043.043-2.245 3.558.255.635-.699-.571-.784.487-.784-1.864-1.842 1.588-3.05-.296-2.733-.805-.275-.042-.953-1.123.381-.085-2.499-1.673-.149.064-1.037-3.114-1.928.148-2.69-3.473-.572-.72 1.78-7.816.084-.508.699-3.559-.995-.783-.826-.954.614-.254 2.372-1.588.297-1.186-.085-.297-1.229.953.17.064-1.186 2.076-1.652-2.86 2.16-4.194-1.991-2.647.678-.17-1.398.911-1.758-1.122-1.8.974-.36 1.101.847.276-1.525.995-.869-.868-4.935-2.097-1.207-.381-.995-3.305-.89-1.673-4.999-1.334-1.842-.043-4.088-2.795-1.144-.276-1.843-7.116.445-.466-3.389.995-2.457-1.694-2.372 1.99-.953.318-.868-1.715-2.521-.233-4.003.762-1.08 1.864.275.89-.593-1.674-.847 1.038-1.97-1.885-2.52.636-.699 2.499.254.657-.53-.106-1.715-1.229-1.419 5.359-2.69.635-2.288-1.419.614.657-.783-1.335-.763 2.14-2.076 1.948-.826-.974-2.478 1.27-2.118-2.583-5.38-1.716.445-.635-.656-.318-2.542 2.86-1.08.084-.742-2.287-1.292-.509-2.838-1.016-.974.953-4.13-.848-.509-1.63 1.123-1.335-2.5.043-.974 1.779-.89-1.864-.529-1.335-1.504.72-.868 1.95.487.677-.657-1.589-1.059.085-.804-1.927-.509.19-1.313 1.716-2.118-1.292-1.461.932-.7 1.461 1.42 1.462.148.423-1.822-.89-3.261 4.3-.911.34-2.52 1.46-2.796-.55-.551-1.758.508-.233-.868 1.313-.805 1.737.106-.19-1.038 1.122-1.504-1.27-3.304 3.113-1.377.762-3.43 2.309-2.034.636-2.16 3.897.486 1.61-2.69-1.06-3.176.932-.805 1.525.953.657-.826-1.06-.043.022-.805 1.737-1.143.656.572 1.208-.318-.276-1.631 1.758-.402-1.228-1.038.657-1.017 1.058 1.44 1.102-.275-.021-1.165-1.25-.466.487-.805-.466-.72 1.165-.233-.53-1.123.89.128-.868-.826 1.122-.636-1.08-1.567.614-.276.403 1.187.72.063-1.059-2.69 1.334-.19-.127-1.695.911-.17-.085.89 1.8.636 5.72-1.504 2.266.063 3.113-1.398 1.377 2.627 3.77.89-.106 1.164 1.038 1.271 2.012.996 3.071-1.186 1.589-3.347-.508-.635.868-2.14 4.384-1.842-.55-1.42 1.906-.974 3.368.043 1.27 2.541 1.504.297 2.16-1.06 6.143 1.335 4.808-.042 2.986.89.572 1.334 4.258-2.012 2.52 1.715 3.622-1.376 2.499.89 4.025 2.9-.212 1.187-1.017 1.144-1.525.339.572.783-.89.34 4.004-.996 8.832 2.202.318-1.27 2.457.148 1.059-3.071 3.473-.127 2.012-1.589 2.097-.381 2.732-1.78.191-1.948 1.673-.297.191-1.27 3.368-1.483-.212-1.144-2.69.487 1.504-4.448-1.652-3.6 1.525-2.563 2.541.254 1.144-.805-.784-1.25.488-2.223H136.8l-1.25-4.152.106-1.779.805-.847 2.648-.085 2.372 1.652 1.821-.508 1.758 1.546 1.504-1.61 2.923.255 2.161 2.944 1.99-.572 5.423 4.088 1.292 2.393 3.918-2.097.678 1.017 2.309-.784 1.313.572 1.525-2.182 3.262.551.211 2.923 1.483.36 3.961-3.198 2.33.063.593-1.779 2.817-2.139 1.271-2.478.804.402.106 1.017-.783.445.466.953 3.304-2.69 1.377-2.182 2.456.551.149-3.728 1.271-.148.296-.678z"/></svg>