<svg xmlns="http://www.w3.org/2000/svg" width="238" height="197" fill="none" viewBox="0 0 238 197"><path fill="#E1E3E2" stroke="#121F41" stroke-linecap="round" stroke-linejoin="round" stroke-width="1.18976" d="m181.415 1.15.572.466-.889 1.313 3.579 2.838.974 2.33 8.811 2.563.403 2.71-3.728.89 1.44 1.525-1.101 1.716 3.94 4.914.762-.106.72-2.033 1.271 1.016-.233 1.462 1.44.233 1.038 5.824 3.347 2.182-.615 2.753.848.763-.72.296-.339 2.457 1.461 1.695-2.33 1.44-.826-1.038-1.207 1.123 4.448 5.719.995 2.922 3.792-.995.932 3.452 2.838.403 1.228 2.097.085 5.486 6.333 2.266 1.483 2.054 1.8.424-.763 1.377 1.081 3.537-1.123 1.186 4.194 3.029-.551.572.106 5.125-2.817 2.817-2.436.085-.19 5.507-1.525 1.25 2.097 1.398-.276 2.69.974 1.715 1.61-.064 1.631 1.271.191 2.31-6.143-.192-4.172-2.372-4.003-.466-2.288-2.86-2.181 5.487-1.187 1.101.17.635 1.038.064-.847 1.398 2.859 2.393 2.923.953 1.144 1.483 1.948.763 1.462 2.668 1.334-.868 1.822 1.44 4.426-1.016 1.928.804 1.334 2.013 3.813-1.949 2.88.296-.699 1.78-5.231 4.871-1.102 2.627 1.229 1.863 8.345 2.86-.021 2.393-5.507 2.394 1.08.868.911 4.257-.932 1.737 3.05 1.313.084.699-1.991.212-.021 1.059-7.921 1.695-.254-1.293-2.309.255-.212-.805-1.377-.212-.635 1.123.826 1.758-5.041.338-.191-.995-1.673 1.461-.572-.91-2.478-.848.593 2.902-1.885.085-1.652-8.176-1.758.805-.529-2.436.508-.55-1.525-.509-.657-1.419-1.482 2.478-2.966-.423-.868-.53.424-1.355-.657-2.33-.911.275-.233-1.207-3.706.805-1.017-1.271-.148.614-1.546.042-.085 2.076-1.949.106-1.08 7.837-2.266-1.25-.593 2.648-3.093.911-.084 1.397 1.482 1.123-.085 2.69-.571.529-2.817.128-.488.889-.804-.275.233-1.441-2.923.064-1.631-1.504-1.568 1.928-4.257.847-2.118 2.584.042-2.648-5.21-2.944-1.313-.085-1.462-1.567-.656 1.059-3.432 1.398-3.367-.466-1.08 3.728-4.681-.89-2.987 2.012 1.102-2.181-.848-.636-1.228 1.292.826.488-.614.593.889 1.885-1.546 1.334.551.72-1.102 1.97.636.657-2.309 1.461-.042 1.504-5.359 2.457-2.076 1.843.742.932-.403.614-1.143-.72v1.08l-1.42 1.165.149-1.419-1.038 2.075-1.779-1.122-.191 1.228-1.737.064-1.419-3.283-3.346.974-.742-1.864-2.478-.36-.784 1.398-2.435-.508-1.398 2.139-.826-.551-.742.975-.465-.403-.657 1.419-1.525-1.186-.424.741-1.292-.55-1.016-1.991-.699.317-1.674-1.08-1.525.403-.508-.742-2.266.339-.89-.91-.55.063.19 1.229-3.622-.318-.127 1.355-.805.318-3.537-.614-1.546-1.864-.593 1.398-3.516-1.335-.212.911-1.419.127-2.669-.868-4.151 1.779-.127 1.25-.805-.297-1.08 2.478-2.394-.127 2.457 2.605-.91 3.58-2.945 1.038-1.8 2.796 2.88 2.435-.825 1.017.614.53-.19 2.52-6.037.36-1.928-2.033-3.58.932-1.143 4.892-4.49.699-1.42 1.144-3.579.763.085 1.736-1.864.699-.805.128-4.045-2.542-.89.826-.36 2.351-2.393 2.542-1.504-.149-3.135-3.028-5.782.974-.043-1.928 2.542-.635.254-1.885-.995-.614 1.99.063-1.1-5.846-3.347-1.016-.763-1.313.233-1.547 2.542-.339.53-2.393-1.144-.063-.233-1.589-2.182-.699.148-1.716-1.864-.063-2.922-2.965-1.25-.064.381-.89-.868-.656.784-1.737 1.397-.254-1.63-2.521.338-.72-7.095-2.308-.7-6.651-1.778-1.144-.7-3.304-.762-.784 1.313-1.419-2.181-1.122-1.038.593-2.5-2.733.806-1.228-.826-.847 3.134-4.808-.72-.445-.063-1.991-3.03 1.271-2.477-4.575.635-.254v-1.081l.91 1.462 1.653-4.596 2.584.847-.424-2.732 3.728-1.102-.085-1.249h-.868l-.572-1.208.91-5.994-1.545-2.711 1.504.339.677-.911 1.504.339-.741 1.652-1.335.445 2.733 3.029 3.516-.699.55.868 2.415-1.08 2.054.212-.635-1.61 1.61-.551 2.436-4.765 1.736-.699-.084-3.029-.911-2.139.402-1.207.869.465 2.69-.762 1.165-1.589 1.1-.275 3.263.932.868 4.024 1.462 1.78 1.101-1.674-.974-2.054 1.504-.678 1.186-2.521.211 1.017 3.707-.36-.847 5.761 12.412 2.161.17 1.991.656.105 1.779-7.074 1.483-.402-.255-2.627 1.695-.508.063-2.054 2.372-1.462 3.262 4.088h1.398l2.351-2.86.932.36 1.674-2.054 2.202 1.483 2.563.02 4.088 2.648 1.398-1.419 2.372.022 1.334-1.06 4.681.234 1.229-1.06 1.737.276.91-2.415.763-.021.296-2.88-1.059-.975 5.359-.784.784-1.058-.127-1.716 1.736-2.372 1.123 1.567-.318-1.822 1.568-.571 2.224-2.16.529-5.084.847-1.313.763-.382 1.144 1.187.36-1.038.677.084-.931-1.927.72-.72-1.377-.212.36-2.436 4.935-7.519-.233-1.779.974.466.36-.89-1.503-.847.741-3.135.762-.487-.91-2.097.55-2.668-1.8-1.462 2.139-4.596-.72-2.309 2.457-1.588 1.165 1.059 2.266-2.965 6.079-1.928.17-.826-1.949-2.944-1.038-.318-.042-.847.889-.635-2.668-1.462-1.589.72 1.716-1.97-1.25-.148.635-1.525 5.867-.508 2.669.487 1.208 1.08.296.869-1.525 4.3.085 3.706 1.228 2.605 1.864.424.593 1.546 1.419-.233.445 1.97.868-.233.361-2.923 2.774-.424.763-2.16 1.122-.339.36-1.038 1.61.106.339 5.698 7.095.635 2.733-4.66 1.355-.127-.148-2.86 1.927-1.736 1.398-3.495 5.168.36.932 2.394 1.208-2.605-1.314-6.016 4.724-2.753 1.101.17.318-1.039-4.13-.995-1.547.381.255-5.02 4.447-2.478-1.016-1.694-.805.275-.784-2.266 2.055.593 2.393-4.745-.318-.783 1.462-.445 3.029 1.927 2.118-3.791 1.461.17z"/></svg>