<svg xmlns="http://www.w3.org/2000/svg" width="287" height="188" fill="none" viewBox="0 0 287 188"><path fill="#E1E3E2" stroke="#121F41" stroke-linecap="round" stroke-linejoin="round" stroke-width="1.18976" d="m67.795 32.295 2.648 2.5 3.876 1.588 2.499-.042 1.207 2.393 2.351 1.78 3.707.444.466.869-.403 2.372.72 1.186 1.737.72 1.44-.402 1.737 1.779 2.224.614 1.483 1.462 2.5.042.698.55-.106 1.632 1.525-2.5-.36-2.266 2.013-1.991-1.08-.805-1.865.741-.254-3.833 3.728-.318-1.652-.974.106-1.123 1.652-.17.042-1.143-.89-.127.064-1.716-1.927-1.398-.55-1.334.825-4.914 2.838-4.405-1.885-1.822 1.885-1.695.784-1.948 3.728-2.351-.996-4.363 4.342 3.134.848-.72 1.546 1.186 1.355-1.016 2.542 1.694 1.546-.805-.529-2.097.762-1.588 1.207.381-.105-2.054 1.397.105 1.229-1.397 1.652-.445.868 1.08.975-.19 1.101-1.526 1.123.297 2.393-1.525 1.737.296.042-3.24 1.44-.72 1.949.868.974-.805-.338-.805 2.689-.402.318.699 2.542.784-.657 1.016-1.546-.148-.212.784 2.33 1.27 1.356-.868.868-2.817L143.6.63l4.257 3.855.022 1.186.572-.275 1.758-.741.741-1.991 1.864 1.398.402 1.948.593-1.419 2.118-.974 1.419 1.694 1.504-1.228 2.118.17 1.186.868-1.101.36-.085.678 2.563 1.821-2.88.572.084 1.186 2.733.657.55-1.25 1.483.233 1.271 2.14 2.414.698.212 1.102-.72.805 3.177 1.546-.148.847 3.283 2.605.826-.487v1.377l4.024 2.203 1.483 1.61.741-.107-.233 1.123 1.44-.53.233-1.016.424.89 3.537.571 2.266-1.292 2.351.021.17 1.864 3.77-.254 1.885 2.182 1.059-1.61.953-.021.339 1.101 1.483-.445 1.779.466.551 2.33.72.445 1.44-2.309 1.589-.106.614-.974 1.652-.53.402-1.228 2.182.53 1.779-3.156 3.389 3.262-.784 1.016 4.83 4.723-2.119 3.114 1.907 1.588-1.419 2.118 3.918 1.991-.741 2.881h4.193l2.563 2.5 1.123-.318.805.614-.678 1.673-2.626.233 1.63 1.864-1.334 2.626 10.04 7.096-2.161 4.172 4.681 3.495-3.368 4.872 1.843 1.355 1.97-2.541 2.076 1.525.063.741 2.775-3.325-.89-.615 2.944-4.193 1.864-.636-1.144-.212.742-1.08-1.144-.423.297-.487 1.037.169 2.712-3.156 5.867 5.041.995.064.932 1.524 4.702-.762-.169-.741 1.482-.254-.042-.763 4.702-.212.487 3.199 2.351-.445 1.991.466.339 2.986 3.389.021.847 1.949 2.139.657.36 2.435-3.939.7.296 3.028-1.694.466.339 4.363.805.064.317 2.817-1.037-.297-1.017.636.699.487-.869.381.445 3.643-.974.805-.297 1.822.636 3.727 3.706-.423.212 1.122 2.711-.36 1.864 12.476-1.864-.043-.402.72-.869-.423-.529 1.525-.953-.678 1.631 11.099-1.419 2.859-1.25-.021-.36 2.118-3.029-.826-.529-1.271-2.118.614-.932-1.186-.975.635-.445-1.948-1.694-1.589-.445.678-2.541-1.165-.975.233-.656-1.25-1.038.784h.762l-1.969 1.059-1.441-.932.127.614-1.715.53.381 2.986-.911 1.271 1.229 2.139-1.483.932 1.673 1.314-1.038.296.572 4.046 3.093-.36.847 4.384-3.516-.042v.974l-3.474.678.509 2.901 1.991-.127.508 3.304-4.363 1.102-.148.889-4.427.551-5.825-.593-.212-.911-3.473-.275.063 2.076-3.685.529-.826-1.631-4.956-.021-.763-.678.551-2.202-2.838 1.228-5.677.021-.254-1.927h3.198l.911-4.046-1.377-2.181.763-.657-.784-1.186-1.737 1.144-.805-3.728-1.546.529-.106-.55 1.483-.784-.551-2.944-1.567-.402-.508-1.335 2.266-.868-.911-3.707-5.507 1.271.826-1.292-.508-.466-.572.445-.085-1.356.975-.614-.085-.826-1.25-.89-10.823 2.775-.593-3.368-4.575.36-2.753-4.617-13.048 6.693-.275-1.948-13.026-3.05-3.241-2.309-3.198 1.059-1.927-.932-3.516 1.419-5.02-.148-3.029 1.122-1.652 2.478-3.283.848-.381-.699-4.978.635.021-4.278-2.478.339-.148-.615-1.588.064 1.419 8.324-2.542.551.487 3.77.805.063.635 3.326 2.627-.191.762 5.359-2.541.593-.445-1.208-1.779.678.169 1.356-3.558.487 1.08 5.401 3.114-1.44.72 2.88 1.991-.085.275 2.288-1.631 1.186.932 6.312 4.575-.805.445 2.796-.614.233.148 2.817-1.779.212.529 3.558-2.351.678.699 3.833 1.123-.063.868 3.537-.572.996-.445-.594.106 1.102-.805.339 1.758.847-.826 1.017 1.674-.276.55 2.034-.593 1.8-2.753 1.313-3.368.148-9.997-2.329-4.914-1.928-4.533-.339-11.013 3.664-9.15.975-6.694 2.965-6.078 1.504-10.146 2.033-1.97-1.652-2.901-4.427-20.61 3.305-.613-3.029-3.22 1.08.043-5.634 1.08-.381.254-1.377-1.123-.254-1.1-2.648-7.245 1.462.657 4.532-11.374 2.161.148 1.313 1.525 1.906-2.69 1.144-.127-2.097-2.054-1.165.19-3.008-.53-.402-2.52 1.567-1.99-.148.254-1.546 1.292-1.334-.255-1.843-4.575 1.059-5.528-1.313.106-2.034-9.489.509 2.542-2.606-1.716-11.013 7.075-1.822-.297-2.393-.741-.127-.445-2.034 1.207-.55-.678-4.766 1.674-.487-.826-4.787 1.08-.445-.381-3.622-4.427.848-.932-.466-.868-1.843.995-.403-.932-4.193.741-1.356 1.208.466.148-2.584.974-.805.36-2.16 4.893-.572-.254-2.711.445.487 2.308-.318.636 2.372-.784-3.706 6.015-1.652-.169-1.292.89-.127-.106-.763-3.537.911-.255-1.461 3.283-.805-.995-4.893 2.118-.148.17 2.287 1.906-.169.296 5.274 1.038.233.91-1.885.933.021-1.716-3.22 1.588-.19.085-.784 8.26-1.292-.148-1.822 3.643-.677.043-.657 1.25-.487.254-2.732 3.177-.911-1.06-4.046-1.249-.19.148-5.55-2.923.149-.02-2.097-1.06-.635.784-1.399-.17-2.266 2.097-.593-1.8-16.394.784-.339-.064-.931 1.97-.064-.064-1.144 5.317-.699.402 1.589 2.372-.741-.783-3.368 2.774-.064.636 1.398 5.951-3.346 1.44-.996-.423-3.177 3.198-.614.318-2.88-3.918.656-.255-1.292-1.186.148-3.389-3.304-2.33.212-2.287-.826-.762-2.542-1.102.445-.487-.699-.212-4.617 1.42-.276 1.143 1.102 2.69-.403 1.885-2.584.636.763 1.927-.085.487 2.14.72.148 1.97-.932.741.635 1.589-.275-.085-.636 1.165-.275.466 3.092 2.372.276-.02-3.22 1.08-4.066.762-.382z"/></svg>