<svg xmlns="http://www.w3.org/2000/svg" width="185" height="255" fill="none" viewBox="0 0 185 255"><path fill="#E1E3E2" stroke="#121F41" stroke-linecap="round" stroke-linejoin="round" stroke-width="1.18976" d="m95.97.992 1.334 2.86 1.292-.276 1.991 2.372-3.008 1.928.7.91-.657.657 1.101 1.017 5.274 2.308 3.919.191.529-2.626 2.478.444-1.376 8.918-.615.677 3.389 6.905-3.304 1.101.021 2.203-1.737-.953-1.673 3.135 2.351.085.297.974 3.05-.064 1.906.975 1.483.063.783-.89 4.491.657 1.334-.508-.085 10.04 2.415-.255 1.165 1.991 2.838-.254.106 1.44-1.843.17-.762 1.059.36 2.923-1.462 2.457 1.673 1.736 2.33.255.53 1.525-1.504.572.762 1.101-.021 2.033-1.97.466-.148.953-1.779.593.996 13.28 3.028 3.601-1.249 1.928.318 1.758-.763.02 1.843 1.293-.445 1.08 2.245 1.8 2.054-.444.594 1.313 3.664-1.716 1.101 7.52 1.356-.403 1.906 1.758-4.215 2.648.297 2.308-.932 1.08-.127 2.33 3.007 1.589 6.439-.763 2.605 2.521-.042 2.901 1.631 2.563-.148 1.377-.911.89.699 1.334 2.139 1.144 4.088.085-.191 1.334 9.193 3.113-.805 3.093 1.504.847.063 1.694-1.144 1.907 1.652 3.389 14.467.995.042 5.105 1.229.974 1.164-.297 1.356 1.186-1.948 4.978.635 2.414-8.345.17-5.677-.741-.339.974-2.774.381-.763 2.69.254 2.393-2.753.106-.593 2.775 1.017 1.864-.424 3.495-1.419 1.249.212 4.448-2.627.466-.106-1.97-4.935.022.149 3.156-2.733.021.021 1.546-.868 1.101-11.247.085-.275 2.669-7.519.212-.021 4.151-3.008.042-.339 3.347-1.546.127.063 3.77.636.635-.403 2.563 1.102.53-.106 8.663-1.123.042.085 1.694-2.563.594-2.203 4.532.149 1.991 8.218.254-.699 2.648.296 1.737-.635.762-2.415.085-.148 1.588-3.918.932.889 1.843-.55 7.71-1.589 3.304-3.643 4.406-2.118.36-2.584-4.279-2.648-.847-2.308 2.372-2.669-.847-1.822.296-5.337-1.694-7.35 2.626-6.184.657-5.529-1.567-6.354 1.419-1.482 1.249.444 1.822-2.35.953-10.993 15.907-2.796 2.499h-.572l2.372-2.393-.402-2.182-2.309-2.393-3.622-1.716-3.473 2.012-1.716 1.843-2.817.678-4.279 2.478-3.007-4.766 5.104-4.13.445.487 2.965-1.737-3.6-2.796 2.457-3.473-1.737-1.97-1.42 1.144-6.862-3.241 1.907-1.165-.805-4.045-1.335.339-2.499-3.686-.572.233-.296-.847-.89.572-.233-1.25-.784.89-.656-1.081-.784.276-2.478-2.902 2.478-.148-.297-.572 5.613.508-2.626-12.306 1.27-.211.34.953 5.676-.36.741 1.419 3.072-1.377-.149-.805 2.987-1.906-.953-3.707 2.075-.529 1.822 4.088 2.838-1.441-.593-1.864 2.753-6.714.593-.042.191-3.347-3.77-.169.233-1.038-1.038-.466-1.694 3.135-5.105-4.533-.53.508-3.854-6.46-1.462 1.568-1.546-2.478-1.038.741-1.461-2.097-3.728 2.987-4.66-8.049-4.617 2.224-1.313-.614-.19-1.483 1.503-.318-.063-1.038-2.775.445-.466-2.944 2.436-.381.17-.72 1.397.381 1.228-2.097-5.57.593-.847-5.168-1.038-.063-1.101-6.948-5.931.826-.064-3.304.869-.19.572-2.457-.276-1.017-1.376.318-.509-3.304-1.97.127-.508-2.902 3.453-.678v-.974l3.516.021-.848-4.384-3.092.36-.572-4.046 1.038-.296-1.652-1.335 1.482-.91-1.228-2.14.91-1.27-.402-2.987 1.716-.529-.106-.593 1.42.931 1.969-1.059h-.741l1.038-.762.635 1.25.995-.233 2.542 1.165.445-.678 1.673 1.588.445 1.949.974-.636.932 1.187 2.097-.615.53 1.271 3.028.805.36-2.097 1.271.021 1.398-2.859-1.63-11.12.952.678.509-1.525.868.424.402-.699 1.864.042-1.863-12.475-2.69.36-.233-1.144-3.686.424-.656-3.728.317-1.822.975-.805-.424-3.643.847-.38-.699-.488 1.017-.614 1.038.296-.318-2.817-.826-.063-.339-4.364 1.695-.465-.297-3.03 3.96-.698-.36-2.436-2.138-.657-.848-1.948-3.389-.043-.338-2.986-1.991-.466-2.351.445-.466-3.199-1.208-2.816-.55-4.3.89-.17.613-1.207-1.567-4.066-.296-2.775-1.293.021-.232-.678 2.139-3.262 2.118.466.084 1.292 1.61.848 3.071.17.445.72 1.229-.15 1.186-2.985 8.027.804 4.575 4.787.847-1.737-1.398-.148-.084-.847-1.928-1.589.89-1.376.741.063.36-1.652 3.135.445.402-2.14.933.17.868-2.054 3.473.91-.317 1.038 3.537 2.034.085-7.011 1.482-1.017.996-2.054 2.796.063.169-1.737 4.215.148.339-1.927-1.589-.381.742-1.631-1.78-1.567.826-.975.636.403.487-.742-.805-.444 1.97-.89.297-.974 1.143 1.313.932-.127.212-3.474 1.08.106-.339-2.69 1.44-.254.827-1.101 2.308.275.106.635 1.038-.72 1.038.381-.212-.55 2.118-.953-.381-2.309-.995-.974.592-.572 3.538-.614 6.48-3.474-1.884-2.16-7.689-2.881 3.199-3.135.953-1.08 4.024-.572 12.92 3.347 2.118-.466.043.55 1.376.128.487-2.542z"/></svg>