<svg xmlns="http://www.w3.org/2000/svg" width="153" height="201" fill="none" viewBox="0 0 153 201"><path fill="#E1E3E2" stroke="#121F41" stroke-linecap="round" stroke-linejoin="round" stroke-width="1.18976" d="M1.222 92.294.798 90.77l2.563-4.532-1.737-4.385 1.356-2.478.106-2.118L5.5 76.133l-.296-.804-2.309-.826-.741-1.992 1.842-4.638-1.482-2.288 3.834-4.193.36-1.462.74-.593 1.06.678 1.398-1.06 1.504-6.67 1.44-.785.868.572 2.542-2.88 1.101.805.593-.318 1.229 1.419 2.86-.847 4.51 1.44.594-1.144 4.278-3.029 2.754 1.102.699 1.377 2.944-3.39 5.697.848.763 1.207 1.08.17.53-1.8 1.758.592.72-1.122 1.715.466 3.453-2.711 5.591-1.822 1.716-.275 2.394 2.075 1.292-.55-.043-2.034.953-1.758-.487-.762.826-1.631-4.66.318-2.668-.614-.7-1.187.954-.89.847-3.028-1.927-.868-2.436.444-.19-2.012.084-1.567 2.86.72 1.313-1.25 1.25 1.06 1.63-2.67-.508-2.033 3.029-2.71-3.347-1.568-1.292-4.046.847-1.27 2.034-.36.444-2.966-.974-2.393.763-1.144 2.393-.19-.72-3.326 2.181-1.377.064-.656.868.296-.296-.741 1.885.402 1.483 1.42-1.038.677.762 1.271 1.695.17 2.181-1.335 1.695 2.16 3.007 1.737 1.25-.826 3.156 1.398 1.63-.254 2.924 6.566 1.101 5.528 1.144.572 1.461-.72.89.635.72 2.5 1.63 1.122-2.308 3.431.19 3.39.89.931.233 1.843 6.079 3.029-5.168 6.079.043 1.821 3.155 3.643 4.152.424 1.588.847-.656 3.813 1.122.296.106 1.038-5.337-1.27-.847 3.07 4.49 4.596-.064 2.034 3.686-1.928 5.168 3.24 1.758-1.715-.403 3.474 2.648 2.14-2.033 2.117 1.546 6.121 1.292.445.805-.572-.212-2.795 2.118-1.928-.445-1.44 1.419.508 1.779-1.038-.381 5.359-1.461 3.749h1.27l1.398-2.203 2.457.593 1.038 1.949 1.673-.233.572.635-.805 1.483-3.77.042-1.44.974-.318 1.716 1.186 1.906 1.949.191.932-2.436 1.483-1.567.974.148 1.059 1.42.805-.213-.657-5.57 1.673-.064 4.385 1.716.635-.805-.783-1.927.529-.445 1.292.55 1.165 1.293-1.419 1.694.381.91 3.622 2.754 2.817.36 3.897 3.982 2.944 1.843-.296 1.017-1.906 1.461.254.953 2.796 1.102-.085 1.059-2.182 1.885.614.805-3.24 4.638.529.72-.106 3.707 1.038 2.012-.106 13.217 1.547 5.295-.742 1.8h-4.829l-1.716-1.588-3.854-.636-2.288.89-2.732-.043-4.618 1.949-5.231 5.359-5.634 8.112-2.796.529-2.648 2.33.805.551-.19 1.144 1.694 1.398-.169 1.419-.699.36-1.907-.763-1.122.509.529 1.969-1.821.445-.064 2.796-1.948.487-.276 1.822-2.393-.953-1.165.487-.381.762.995 2.33-5.824 6.375.508 1.928-.89 1.483 1.038 3.388-.36.848.678.339-.593.72 2.711 2.986.233 1.61-1.038.423.233 1.059 2.605 2.394-.19.784 1.08.402-.996 2.923-2.584 3.643-1.8 7.095-2.753.339-.509-3.092-2.944-2.902.043-1.355-1.06-1.335.466-1.504-3.177-.529-.38-1.25-.848-.275-1.017.974-1.186-1.419-2.16.254-.233-1.334-2.203-1.186-.402-1.271.53-2.054-1.568-2.521-1.06-.508-.656-2.711-1.334-.17-.678.593-1.186-2.097-1.271-.296.847-5.592 3.58-3.092-1.97-4.13-2.817-1.78-.466-1.567-1.61-.614-1.99-3.664 1.249-1.822-.635-1.144.974-.889-.233-.678 1.758-1.885-1.398-1.631-2.944-1.228.508-2.881-.55-1.08-3.072-2.351-1.948-2.944-3.559-1.864-1.038-1.271.36-1.758-1.228-1.08-3.77-.784.127 1.483-2.288 3.325-.89-.932-4.595-.953.042-.763-2.16-1.461.19-1.419-.89-.89.297-2.626-1.101-1.207-.19-2.034 1.143-1.673-1.08-1.228-.106-2.606.678-1.143-.932-.975-2.203.911-.974 1.462-.784-.509-2.203 1.631-2.732-.508-1.504 3.431.212.995-.763.615-3.473-.89-.974-1.821 1.228-6.439-1.377-1.864-4.003.805-3.855-3.94-.423-4.914-5.93-.317-4.83-4.745-.106-1.758-.91-.805-1.738-.042-.614-1.398z"/></svg>