<svg xmlns="http://www.w3.org/2000/svg" width="234" height="215" fill="none" viewBox="0 0 234 215"><path fill="#E1E3E2" stroke="#121F41" stroke-linecap="round" stroke-linejoin="round" stroke-width="1.18976" d="m188.842 1.436.699.297-.381 2.542-1.377.614.064 4.977 1.419 2.966 1.398.571 1.27 1.843 2.457.826 1.335 2.267 1.906-1.017 2.563.656-.741 2.16.021 5.889-.89 2.309 1.906 2.965.106 1.885 4.724 5.126 3.367 5.57 2.987-.572 3.939 2.88 2.733.657 2.372 1.61 3.071 6.609 2.16 1.546.615-.318 2.774 3.855-1.44.826-.127 1.588.784 1.165 4.236 5.846-1.292 1.229-3.749.02-.784 2.648 3.156 2.246-.021.826-1.335.211-2.647 3.326-1.567-1.568-1.695 3.919 1.631 2.478 1.123-.72 1.652.19.254.869-1.165.614.868.636.996 3.515 1.271.572-4.385 1.208.974 2.139-1.482.466-.212 1.228-2.097.149-.381 1.863.784 2.606-3.559-.297-1.059 2.394 3.008.444-.297.975-2.69 2.033-2.584-.191-.804 2.966.91.847-.423 4.469 2.33-.021-.043 3.071 1.398 1.567-1.377 8.303.403 1.949 4.575.995.72 1.991-4.173 1.589.869 1.143-3.283 1.525.36.996-1.335 1.483-.487 2.541-1.376-.127-.043-.551-2.118.466-12.92-3.346-4.024.572-.953 1.08-3.199 3.135 7.668 2.859 1.885 2.182-6.481 3.473-3.516.593-.615.593 1.017.975.36 2.308-2.097.953.191.53-1.038-.381-1.017.72-.106-.614-2.308-.297-.826 1.101-1.441.276.339 2.69-1.101-.106-.191 3.473-.953.106-1.144-1.292-.296.975-1.97.889.784.445-.487.741-.636-.381-.826.974 1.779 1.547-.741 1.631 1.589.381-.339 1.927-4.236-.148-.17 1.716-2.796-.064-.995 2.054-1.483 1.038-.085 6.99-3.516-2.012.297-1.038-3.452-.911-.89 2.055-.911-.191-.402 2.139-3.135-.445-.36 1.674-.741-.064-.89 1.377 1.928 1.589.084.847 1.398.148-.847 1.758-4.596-4.808-8.028-.805-1.186 3.008-1.228.127-.445-.72-3.071-.17-1.61-.847-.085-1.313-2.118-.466-2.139 3.283.233.656h1.271l.296 2.775 1.568 4.067-.614 1.207-.89.169.551 4.3 1.207 2.817-4.702.212.042.762-1.482.255.169.741-4.702.762-.932-1.525-.996-.063-5.867-5.041-2.711 3.156-1.037-.17-.297.488 1.144.423-.742 1.08 1.144.212-1.864.636-2.944 4.193.89.615-2.775 3.325-.063-.741-2.076-1.525-1.97 2.541-1.843-1.355 3.368-4.872-4.681-3.495 2.161-4.172-10.04-7.096 1.334-2.626-1.63-1.864 2.626-.233.678-1.673-.805-.614-1.123.317-2.563-2.499H87.43l.741-2.881-3.918-1.991 1.419-2.118-1.907-1.588 2.118-3.114-4.829-4.723.784-1.017-3.389-3.261-1.78 3.156-2.18-.53-.403 1.228-1.652.53-.614.974-1.589.106-1.44 2.309-.72-.445-.551-2.33-1.78-.466-1.482.445-.339-1.101-.953.021-1.059 1.61-1.885-2.182-3.77.254-.17-1.864-2.35-.021-2.267 1.292-3.537-.572-.424-.889-.233 1.016-1.44.53.233-1.123-.741.106-1.483-1.61-4.024-2.202v-1.377l-.826.487-3.283-2.605.148-.847-3.177-1.547.72-.804-.212-1.102-2.414-.699-1.271-2.139-1.483-.233-.55 1.25-2.733-.657-.084-1.186 2.88-.572-2.563-1.821.085-.678 1.101-.36-1.186-.869-2.118-.169-1.504 1.228-1.419-1.694-2.118.974-.593 1.419-.402-1.948-1.864-1.398-.741 1.991-1.758.741-2.648-10.781 3.113-8.303.848-.656 2.732 1.377 1.144 1.8 2.753-.17 1.991.784 5.994-.699.509.403-.826.656 2.965 1.801.868-1.97-.572-2.69 6.778-8.494-1.927-.804.932-4.724-3.326-1.143 1.44-5.063 10.464 2.013.233-3.262-4.003-1.419-.085-2.669-1.631-.36.466-.826 5.338-1.165-2.945-7.562-1.44-1.927.593-1.589-5.782.869-1.504-1.737-4.554-.508-1.821-1.017.932-1.694-.954-.466 1.06-.678-.212-1.61-1.949-.233-1.25-1.377.128-3.918-.7-1.716 1.462-.55-.36-2.838-5.274-3.093-1.377.593-3.96-.635-1.038-2.966-1.568-.042-1.673 1.568-1.567-1.78-1.25.254-2.033-1.673-1.928-3.876-1.482.403-.678-.657L.928 54.07l7.604-10.04-2.097-2.859-.212-3.24.72-2.31 2.203-.762L8.363 32l2.668.255.466.657.255-.72 1.482.423.085 1.335.932.211 2.033-2.795-.106-1.61 3.03-1.313 2.69-2.881 2.964 1.483.382-1.017 2.69 1.27.317-.91 1.377.042.614-3.304 2.605.127 1.907-1.292-2.33-1.588 2.372-3.304 3.643 2.647-.127-2.647 1.906-.043 1.335-1.503 1.165 1.906 1.313.127 2.584 2.372.677-.635 1.42.931.74-1.228-1.249-1.652 3.982-.275 1.483-1.123 2.541.614-.296.551 1.017.741h1.27l.297-1.228 1.06-.318.38-1.779-1.673-.424.381-.762 5.507-.403 4.575-4.765.233-1.335-.699-.699 2.669-1.8.381.91 1.06-.507 1.164.699 1.42-2.055 2.69.91 9.954-1.99 6.757 2.224 1.122 3.262 1.06-.488 3.303 5.063 3.114 2.457-.678 1.63 1.864 3.559 5.041.487.847-.53-.402-.762 2.33-1.102 1.906-2.181.741 2.012h2.966l1.08 1.483 1.927.36.085.974 1.546.466 2.669-.424.466 1.08-1.229.128.297 1.355-1.229 1.356 3.495 2.817 2.775.593 1.97-2.012.868-3.304.805.275 1.101-1.356 2.267-.487 1.567-2.33 4.533-1.334 2.075-2.055 4.999-1.758 6.545-.148 1.694.7 4.13-.7-.084-.868 2.266-.297 1.059.678 10.103-5.04 1.483-2.966 1.609-1.207 5.677.487z"/></svg>