<svg xmlns="http://www.w3.org/2000/svg" width="259" height="191" fill="none" viewBox="0 0 259 191"><path fill="#E1E3E2" stroke="#121F41" stroke-linecap="round" stroke-linejoin="round" stroke-width="1.18976" d="m231.185 168.71 3.093-.445-.488 2.669-2.414-.699-3.156-3.283 1.504.254zM76.25 161.381l7.159 1.271 7.328 2.372 3.58-.699 3.812-2.351 2.584 2.139 2.033.339.89-1.038 2.457 1.758 4.172.36 1.949 1.165-2.669.763-11.056-.826-23.108-5.126zm136.72-5.846-1.25.869-.423 1.482-2.457 1.314.296 2.88h-.529l-.847-3.728 2.795-2.711zm25.607-1.419 2.69 17.029 6.799 18.554-1.165.615-1.631-5.507-1.588-2.161-1.271.276-.657 2.308-1.419 1.377-1.652.233-.572-1.398 1.483-3.495.868-6.269-.932-1.123-.042-1.842 2.351 2.351-1.821-4.639-1.377-.572.36-2.202-.826.084-.657-3.473-1.313-1.377-1.334.191-1.144 4.257-1.567-3.114-2.076-1.101.741-1.758-.593-1.504-2.753-1.101-.022-1.017 3.622.635 2.839-1.059 1.143 3.135.784.318 1.313-1.885-.635-4.745 1.44-1.228zM9.319 143.039l3.431-.466.424.529-1.462.445-.211.741 21.37 5.274-18.447-4.109-7.16-2.69-3.77-3.113-1.99-3.474-.276-3.982.868-1.779.678.148-.106 5.317.763 2.711 1.8 2.351zM114.332 3.395l5.528 1.314 4.575-1.08.254 1.863-1.313 1.335-.254 1.546 1.991.148 2.542-1.546.529.381-.19 3.008 2.054 1.144.127 2.096 2.69-1.143-1.525-1.885-.148-1.314 11.374-2.16-.636-4.533 7.244-1.461 1.102 2.669 1.101.254-.233 1.377-1.08.38-.043 5.614 3.199-1.08.614 3.028 20.609-3.304 2.901 4.427 1.97 1.652 10.146-2.033 6.121 3.198 1.228 1.355 1.313 7.71.954-.042 1.419 8.514.953.784 1.631-1.673 2.054-.276 1.207.996 1.928-.403-.212-1.1 1.44-.297-.275-2.394 7.244-1.419-.318 1.737-2.309.699.721 3.516 2.033-.318.572 1.673.254 1.716-2.775.508 2.076 14.827 2.351-.212 1.017 8.832 1.609-.212.657 3.199 1.377.063.254 2.076 4.405-.55.276 2.202 3.495-.55 1.228 8.599 3.664-.318.869 5.655-4.321.657.572 4.49-1.059.042-.021 2.245-.996.064.021.932-5.655.784.127 1.376-2.351.34.572 3.854 3.389-.381.212 1.398 4.469-.572.677 5.952-3.05.868.657 3.749 1.885-.064.572 3.283 9.595-1.525.381 2.817-.974.276.656 3.177 3.813-.572 5.486 3.389 2.393-.318 1.292 18.936 2.055-.191-1.822 2.33-2.944 1.821-9.955 2.118-4.533 3.707-1.461 4.448-2.732.127-1.081-1.398-1.991.551-3.346-1.61-4.067 1.101-.423 2.5 1.546 5.528-2.648 6.629-1.376 2.288-3.05 2.796-.636-1.186-.974-.445-.699.508-1.144 1.038-1.08 2.944-.699-3.452.635-1.398-.995-.953-3.537-.89.127-1.271 1.122-1.652 3.262.508v-.656l-2.478-.445-.635-3.41 1.631-1.271 1.037-1.991-.338-.847.847.127.762 3.622.89-2.923 2.986-1.207 1.462 2.711-.085.572-.953-.17.106.932 1.207.445 1.334-3.029.149-5.104-1.695-1.059-1.588-2.267-.996.064-.762 1.08v1.525l1.186 2.309-1.97.508-.296.847-2.055-.445-1.694-1.567h-.954l-.55-1.461-.847-.022-2.902-3.007-2.097.529-1.229-1.906.149-2.033-1.208-2.605-1.143-.297 1.101 3.071-1.038 3.728.869 2.648 1.376-.509.551.826-1.377 2.351-.317 3.601-1.462.36-.233-5.57-2.457-2.796-1.673-4.872-1.589-1.313-.931-2.478-2.055-2.351-1.059.063-1.038 2.945-1.694-1.483-.911 1.059 3.135.911 2.16 6.587 2.033 1.843-.317 1.291-3.135 2.457-.741-.91 1.355-3.347-1.059-2.88-1.313-.403-.911 2.965-1.843.615.297.508 1.461-.699.996.89.657 1.249-.276 1.504 1.695 1.165-1.038 2.033-1.038-2.012-1.144-.699-1.377 1.779-1.016-.148-.127-2.181-1.546-1.441-1.483 2.288.063 1.948-4.977-9.022-2.097-1.653-1.694-.444-2.012.72-1.102-1.716-.805 1.102-2.118.36-4.49-3.58-.614 1.377-3.093.085-.444 1.461 1.588 2.859-1.419.276-1.927-.996-1.144-.953-.212-1.186-.762.36-1.78-1.737.318 1.25-2.076.36 1.547 8.959-1.483.53-.572-1.504-1.822-.953-1.376 2.287h-1.123l-.635 1.864-.974.254-.954-.72.36 2.478 3.283 2.394-3.177-.657-1.398.678-.36 2.245 1.737 2.457-1.885-.148-2.181-1.8-2.373.868-.254 1.101-6.269-8.451-.593-.233-1.017.953-.403 2.966-1.8-.297-.148-1.377h1.334l.614-2.986-1.673-1.25-2.139-.614-2.605.699-.636.402-.021 2.415-.678-.381.318-2.627 1.589-1.991-1.504-2.181 1.377-4.427-1.589 2.796-1.165-.36.593 1.504-.911 2.457-3.897 3.219-3.367-1.25-1.017-1.821-2.521-.254-.699.783.657 1.081-1.08 1.588.868 1.038-1.016.402-3.516-.19-2.097.656-5.656-1.143-1.948.614-4.363-1.292-1.78.614-.38.869-4.406.953-1.716-.784-3.537.805-4.194 2.012-.381.974.55.424-3.664-.847-20.947-6.545 1.61.296.868-1.313-.636-2.203.276-.508.318.72.635-.254-.593-1.546-2.288-.678-.995.911.847.656-.783-.084-2.754-2.881-1.864.021-2.775-2.075-.995-2.733-1.949-.847-.974.932-4.448-.762-1.44-1.419-.784-2.182-3.198-.699-1.377 2.881-6.333-.318-.762.805-.34-2.987-1.27-.254.424-1.186 1.927-1.525 3.008-1.186 6.396-.17 2.838-.868 3.03-1.461 1.08-1.949 1.884-.106 1.208-.995-2.245-5.359-1.187-1.271-.995-.233-1.864 1.483-1.44.063-10.548-4.109 1.144-1.948 1.694-.085.805-1.885 1.462.572 1.8-.72.402.804 5.55 2.013 4.384.233 2.266-.869 3.474-.085 5.4 1.97 4.385.233 5.867 1.504 4.236-.868 1.568-1.483.19-.89-1.673-.254-2.69.551-1.864 1.017-.17.783h-1.27L56.7 117.77l1.588-.487-.105-.741-2.224-.424 2.626-.169-1.27-.53-.36-1.334 1.1-1.059-1.164-.974.995-.191.085-2.076-.678-.847-3.516-1.8-7.752 3.473-2.542-5.697-3.516-.233-4.998-4.215.36-.996 3.007-.17-.826-1.164 4.808-.784-.677-4.638-.953.148-.382-1.716 3.495-.868.657.572 3.621-.614.403-1.144 3.431-.763-.445-3.643 2.627-1.334-1.758-3.05 8.832 5.613 1.927-.19-.53-3.644 6.948-1.144.487 2.584 4.427-.571-.445-2.648.932-.212-.572-3.325.784-.106.19 1.313 1.97-.318.869 1.928 7.561-.55.551 4.13 4.278-.678.763.699.296-1.102 2.86-.339.085-.783 9.721-1.758-.19-1.186-1.822.317-.339-1.821-4.426.762-.911-.402-.212-1.843 6.354-1.44-.254-1.695 4.13-.53-.317-1.63-1.949.212-1.334-4.3 1.44-1.292 5.147 2.838 3.262-5.104-9.722-5.952-1.78-4.914 2.945-4.066.614-2.67h3.219l.149-.677.804 1.673 1.547.254-.106-.953 2.097-1.334.042-2.055 2.309-.339 1.08 1.843 1.186.19.953-.635-.932-.826.106-1.63 3.495-.53-3.029-3.453-1.44-1.164-.953.042-.128-4.363 2.309-1.038-.889-5.867-5.973.953-.36-.805-.297-6.227 1.589-.508-.064-1.928 1.123-.445.296 6.397 4.723-.72-.932-9.214 1.61-.868-.339-2.393-.296-.636-3.22 1.949z"/></svg>