<svg xmlns="http://www.w3.org/2000/svg" width="129" height="238" fill="none" viewBox="0 0 129 238"><path fill="#E1E3E2" stroke="#121F41" stroke-linecap="round" stroke-linejoin="round" stroke-width="1.18976" d="m7.715 47.466.805.762 4.024-.805 1.186-1.821.106-1.991 1.377-1.652 2.627-2.351 1.397-.127 1.123-1.42 7.773.191-.805-.423-.084-1.525 1.546-.106-.466-.953 1.101-.869.276-1.461 1.313.296-.043-1.038 1.017-.02-.381-1.42 2.414-1.059 1.06-3.135 3.325.36.89-3.07 1.524.296.848-3.41 1.292.339.402-3.368 1.42.212-.679-1.504.572-2.203.72-.212-.296 2.012 3.24-.72.255-.89-1.949.615.275-2.14.657-.02.572-1.44 2.436-.064.53-1.97.677-.212 1.461 1.546 3.262-4.109 2.245 1.546 3.516.932.509-1.207 1.482-.614.657-2.245 3.728.826.19-2.669 3.114-1.949 1.059.72.02 3.008 4.555-.212 1.038 3.368 3.6 2.097.572 2.52 2.288-.169-.53 3.834-2.393 4.087-.593 3.093 4.914 2.965-.17 4.173 3.58.063 1.25.975 2.52 2.584-1.207.444.296.678-1.144-.127 2.309 2.076.042-.572 1.44.127.022 1.589 2.647.487.7 1.864 2.054 1.482.699-.042 1.016-2.14 3.898-1.291-.254 4.85 1.016-.212 1.144 4.999 1.334-.19-.423-1.653 1.948-.614.085 2.478 1.144 1.398-3.474 1.546-.466 2.415 1.165.91-1.228.149.296 1.143-.974 1.864 3.728 1.06.91 4.51-.932 1.208-1.885-1.25-2.202 3.601-2.457-1.61-.953-.063-.297.868-.784.106.064 2.16 1.779 4.808-1.144.403-.127 1.292-.699.127.043 3.198.953.212.762-.847 1.864 2.224 2.076-.275-.996 1.8.996 2.775-.276 1.313 2.606 4.68.72-1.291 4.278.74-1.821 3.56 2.118.423 4.088 4.257 1.419-.233.445-1.716 1.334-.275.148 1.949-2.181 2.245.338.868-3.367.466.233 3.537 3.156 2.33.063 2.14-.148 1.228-.847-.529-.593 1.927-1.229.572-1.038 2.033 2.606 2.457-.212 2.754-1.271 1.164-1.356-1.694-1.207.678-.021 3.685 3.325.932-.445 1.102-.974-.064-.572 1.589-.868 1.249.445 1.313 1.165-.508 1.906.89.889-.36 1.547 1.736 1.652-.635-1.208 3.918-1.546.636.127.889 1.123.191.021.911-1.144.212.106 1.228 2.012.763 1.208 2.435-.488 1.843.805 1.461-.084 1.991-.953 1.462 1.779 2.054-1.271 1.081.762 2.499 1.314-.148.466.593.444 2.499-1.059 1.08-2.054.593-1.525-1.08-.975.148-.317-.932-1.61 1.292-1.038-2.054.106 2.669-1.758 1.228.212.784-1.334 1.355-1.737-.762-1.25.847-4.109-3.05-.593.72-2.669.466.276 2.394-1.483 1.461-3.177-2.097.19 2.012-2.075-.91-1.017.868.593 1.843-1.546 1.864 1.398 1.927-4.385.191-4.13 6.608 1.335.847-.424 1.186 1.652 2.097-.063 1.779-1.568 1.525-.17 3.749 1.759 2.711.063 4.554v1.229l-.444 1.694 1.164 1.8-1.524 2.267.169.762-1.42.17.064 1.08 1.483 1.716-.847 1.44 1.165 3.283-1.822 2.436-1.207 4.808-1.44.127-.636 2.414-1.673.784-2.817-2.542-2.52.043-.572 1.631 1.927 2.647-1.356 1.928-5.845-1.886-1.716.721-1.61 1.906-2.33.106-6.12-1.462-.678-1.906-1.631 1.356-2.839.148-1.842 2.859-1.631.742-2.817-1.886-1.42-2.584.424-2.414-1.546-.593-1.821 1.567 1.27 3.156-1.207 2.182-1.44-.212-.741-3.347-1.44-.953-.636.932 1.334 1.313.318 1.568-.233 1.504-.869.741-1.758-.064-3.219-3.113-1.673-.021-1.06.804-.296 1.123.678.89 3.495-.53.381 1.673 2.097 1.907.424 1.44-1.186.868-2.881.064-1.694-2.245-1.653-.106-.233 1.377 1.314 3.473-1.907 1.101-3.41-.698-4.786-9.278-3.072.742-.55-.996-1.886.615-1.884-2.415-.784 2.245-.848.021.36-1.673-2.033-1.123 1.568-1.969-1.123.169-1.334-2.753-2.245-1.271 2.139-.763-.318-.699-2.076-.254 1.377-1.779-2.69.805.34-2.457-2.077.148-.084-1.673-1.314.212-.338-.657 1.27-1.144-.677-1.228.932-2.987-1.483-1.715 1.377.381.19-.508-1.08-.826.445-1.631-1.483-.381-.55-1.886.53-.487 1.44 1.271-.678-2.499 1.588.529.742-.932-1.695-.296-1.228-3.389-1.08-.572.804-2.563-.614-1.864 1.25-1.419-.805-.275-1.123.868-.826-1.546H6l-.212-1.8.995-2.055-2.16-2.033 2.52-1.207-2.033-.509-.424-.868.975-.741 1.25.423.423-.762-1.207-1.779.677-1.229-1.63-2.16 2.139-1.928-1.674-.423.827-2.521-.509-3.219.55-.572-1.016-2.881 1.525-.233-1.525-1.122.34-1.08-.721-1.631.741-1.631-.339-.911.869-.191.085-2.435 2.922.042-.063-1.123 1.038-.995-1.08-1.567.953.19-.424-1.122.763-.339-.89-.975.063-1.546-1.61-1.546.022-2.351 1.165.169-.741-1.397.762-1.102-1.61-.974.911-2.478-2.796-3.283-.19-5.571-3.516-3.367 2.393-4.279 1.483-.911.487 1.123 1.08-.381-.805-3.135.487-.89-1.016-2.351 1.885-1.652.466-1.398 1.779.127.063-1.694 1.102-.487-.233-1.335-2.182-2.478-3.537-2.287 1.61-2.605 2.224-1.292-.403-3.22-1.037-.656-.657-3.199-2.711-4.066 1.694-2.352-2.901-1.503-.128-.72-1.863-.932v-.869l2.223-1.8-1.376-3.982.233-2.16 1.419-1.102.085-.995 2.266.19.741-2.647-2.414-.911 1.503-1.25 1.356-.063.042-1.06h.657l-.339-1.567-1.44-.995-.064-3.283 5.21-.36v-1.229L8.733 52.91l.614-1.27-1.461.063-.975-1.207.657-.615-.466-1.779z"/></svg>