<svg xmlns="http://www.w3.org/2000/svg" width="299" height="163" fill="none" viewBox="0 0 299 163"><path fill="#E1E3E2" stroke="#121F41" stroke-linecap="round" stroke-linejoin="round" stroke-width="1.18976" d="m223.43.89 2.415 1.165 2.859.318 3.114-1.356 1.016.932-.275 2.457.72 1.123 1.61.19 1.334 1.759 5.465.233 3.05 4.786-.614 1.44.804 1.271.276 3.538 1.842-.34 1.123 1.145 3.198-.255-.042-7.116-.657-2.203.487-.085 1.398 1.716.212 1.673.657-.296 1.927 1.779-.911 2.33-1.715.593 1.186 1.08 1.779.36-.254.699 1.292 1.101-.339 1.568 1.08 2.372-2.266 2.457 2.118 4.617-1.08.402.402.805 2.309-.36 3.537 2.754.402-3.135 1.271-.021.043.678.487-.615 2.753.34.487.126-.211 3.94 4.511-1.63.784 1.969 1.737.085-.445-.678 1.991-.233 1.292-1.97-.847-.466 2.478-2.118.169-1.292 1.991-.53 1.377 2.394 2.139 1.8 3.325-.593 3.961.89 5.613 3.812-1.313 6.545-.763.381-1.08 4.067.021 3.22-2.372-.276-.466-3.092-1.165.275.085.635-1.589.276-.741-.636-1.97.932-.72-.148-.487-2.14-1.927.085-.636-.762-1.885 2.584-2.69.403-1.144-1.102-1.419.276.212 4.617.487.699 1.102-.445.762 2.542 2.288.826 2.329-.212 3.389 3.304 1.186-.148.255 1.292 3.918-.657-.318 2.88-3.198.615.424 3.177-1.441.995-5.951 3.347-.636-1.398-2.774.064.783 3.367-2.372.742-.402-1.589-5.317.7.064 1.143-1.97.063.064.932-.784.34 1.8 16.393-2.097.593.17 2.266-.784 1.398 1.059.636.021 2.097 2.923-.149-.148 5.55 1.25.19 1.059 4.046-3.177.911-.255 2.732-1.249.487-.043.657-3.643.677.149 1.822-8.261 1.292-.085.784-1.588.19 1.716 3.22-.932-.022-.911 1.885-1.038-.232-.296-5.274-1.907.169-.169-2.287-2.118.148.995 4.892-3.283.805.254 1.462 3.538-.911.105.763-.889.127.169 1.292-6.015 1.652.784 3.706-.636-2.372-2.308.318-.445-.487.254 2.711-4.893.572-.36 2.16-.974.805-.148 2.584-1.208-.466-.889-6.502-2.796 1.503-.741-.635-1.928.445.106.614h-3.368l1.144 1.334.424 3.643-6.354 1.102-.869-1.949-7.116 1.207.338 3.771 2.733-.551.678 2.076-6.566 1.207.254 1.525 1.461-.106.572 3.474-1.461.254.317 1.694.72.509-1.694 3.325-15.165 3.05-1.144.063-.487-1.334-4.003 1.292-4.575-3.664-4.491 1.122.022 2.14-1.25.317.508 3.304-4.787.975-.423-1.123-1.144 1.483-.678-1.017-1.037.148-.424-3.071-1.462.191-.953-2.415-1.101.085-.445-1.25-6.608.89.127 1.313-9.108 1.229-.635-3.474 2.944-.635-.996-2.034.128-2.181 1.927-.106-.487-5.74-1.737.36-.72-5.211-4.3.848-.466-.403-1.821 1.546-1.504-8.641.127-1.017 3.558-.889-.974-6.355-5.189.954-.72-2.754-3.156.424-.636-2.076-3.494.657-.106 2.499-1.123.572-.678-.953-1.101.169.551 4.173-2.881.148-.127.974-1.059.678-.254-1.525-1.208.085.509-1.949 1.44-.572-.911-4.342-4.871.911.042.911-1.779.402-.847-2.52-1.208 1.334-2.922.657-.403-2.373-6.036 1.97-1.144-5.761-1.44.212-1.419-1.186.868-1.483-1.991-2.69-1.61-.275-.169-.974-6.015.932-.276-1.038-5.147 1.038.742 3.77-4.046.275-.487 1.949-1.864.762-.953-.741-2.14.593-.635-2.394-1.355.106-.89-.889-.063 2.203-1.504.211-.657-2.478-4.596.403-.318-1.017-5.062 1.25.53 1.461-2.224.593-.34 1.123-4.701.063-2.076-2.351-1.673 2.097-.593-1.292-8.875-.784-4.723 3.368-2.732-.445-1.695.678-4.638-1.525-3.834-.042-1.27 1.207-3.686-.932-1.695-3.092-1.864-.064.318-2.563-1.419-2.393-1.144 1.44-3.07-1.652-2.987 5.083-3.05-3.028-3.665 1.461-.953-.995-.614-1.483.72-2.076-.805-1.482.149-1.716L.8 104.569l.043-.911.89.212.847-.889.656-2.627 1.398-.317.593-1.822-1.737-2.288 5.783-4.956-.424-.974 6.142-2.605 1.335-2.457 5.782-.975 3.135 3.03 1.504.148 2.393-2.542.36-2.351.89-.826 4.045 2.541.805-.127 1.864-.699-.085-1.736 3.58-.763 1.419-1.144 4.49-.699 1.144-4.892 3.58-.932L53.16 75l6.036-.36.19-2.52-.613-.53.826-1.017-2.88-2.435 1.8-2.796 2.944-1.038.91-3.58-2.457-2.605 2.394.127 1.08-2.478.805.297.127-1.25 4.151-1.78 2.669.87 1.42-.128.211-.91 3.516 1.334.593-1.398 1.546 1.864 3.537.614.805-.318.127-1.355 3.622.317-.19-1.228.55-.063.89.91 2.266-.339.508.742 1.525-.403 1.674 1.08.699-.317 1.016 1.99 1.292.551.424-.74 1.525 1.185.657-1.419.465.403.742-.975.826.55 1.398-2.138 2.435.508.784-1.398 2.478.36.742 1.864 3.346-.974 1.419 3.283 1.737-.064.191-1.228 1.779 1.122 1.038-2.075-.149 1.419 1.42-1.165v-1.08l1.143.72.403-.614-.742-.932 2.076-1.843 5.359-2.457.042-1.504 2.309-1.461-.636-.657 1.102-1.97-.551-.72 1.546-1.334-.889-1.885.614-.593-.826-.488 1.228-1.292.848.636-1.102 2.181 2.987-2.012 4.681.89 1.08-3.728 3.367.466 3.432-1.398.656-1.059 1.462 1.568 1.313.084 5.21 2.944-.042 2.648 2.118-2.584 4.257-.847 1.568-1.928 1.631 1.504 2.923-.064-.233 1.44.804.276.488-.89 2.817-.127.571-.53.085-2.689-1.482-1.123.084-1.398 3.093-.91.593-2.648 2.266 1.25 1.08-7.837 1.949-.106.085-2.076 1.546-.042.148-.614 1.017 1.27L187.19 19l.233 1.207.911-.275.657 2.33-.424 1.355.868.53 2.966.423 1.482-2.478.657 1.42 1.525.508-.508.55.529 2.436 1.758-.805 1.652 8.176 1.885-.085-.593-2.902 2.478.848.572.91 1.673-1.461.191.995 5.041-.339-.826-1.758.635-1.122 1.377.212.212.805 2.309-.255.254 1.292 7.921-1.694.021-1.059 1.991-.212-.084-.699-3.05-1.313.932-1.737-.911-4.257-1.08-.869 5.507-2.393.021-2.393-8.345-2.86-1.229-1.864 1.102-2.626 5.231-4.871z"/></svg>