<svg xmlns="http://www.w3.org/2000/svg" width="210" height="266" fill="none" viewBox="0 0 210 266"><path fill="#E1E3E2" stroke="#121F41" stroke-linecap="round" stroke-linejoin="round" stroke-width="1.18976" d="m90.003 29.157-3.834.869.635-3.813-4.236-.318-5.02-5.062-.55-.932 2.224-1.927-1.186-4.596.74-.466-1.228-.297L74.371 8.4l-3.05-2.52-3.198-1.102-2.012-1.927-.89 2.542-2.52-2.097-.466.233.487 1.673-.593.339-7.37-1.885-.34 1.673-1.504.953-.974-.317-.784 1.525-2.732-2.118-2.309.593-.847.804.466.636-.89 3.029-2.541-1.335-1.949.848-.783-1.144-.827.275v1.78l-3.473-1.822-1.27-3.6 1.312-.594-.127-2.393-.53-1.695-1.482.021-.508.975-2.563 1.143-.318.975-.847-.34-1.017.742-.699-.635-.783 1.313-.996.212-.042 1.885-1.737 1.398-3.113-2.012-1.589 3.812.19 2.669-1.334 2.86-6.46-1.547-2.054 1.059-1.631 2.012.02 1.06 2.5-.382.318 6.333-3.092 5.74-1.843.275.042-.699-4.49 1.44 1.949 9.659 1.694 6.015.614.17.36-3.453 1.186-.296 4.597 3.155 3.304 4.808 3.537 3.22-3.262 5.062.17 3.537.72.763-2.478-.975-2.013.127-.105 4.11 1.736.593 1.758 1.779 1.525 3.791 2.245 1.822.593 1.313-1.567 3.516 2.012 1.355.953-.445.53 1.716-2.944-.572-.932.509.212 1.588 1.546.953-.89.657.297 1.186-2.775.36 2.563.593 1.758-1.08 2.902.466.063 2.33 1.78 2.414-1.504 3.495-3.22 2.351-.063 1.525-1.695.996-1.228-.593-.614.402-.403.508.635.953-1.25 1.292.234.636-1.144-.212.254.635-.932.403 3.41 3.029.805 2.118-.254 2.69-.953 1.525-1.949-.17.53 1.229-.508 1.355 3.219 1.61.296 3.198-1.906 1.419-1.97-1.249-.487 1.991 3.347.402.275 1.144-2.14 2.69-1.927-.148 1.123 1.758 1.44-.339.742-1.123 5.316-.911 1.927 2.817.085 2.436 1.42.36.55.974 1.377-.677-1.568 3.283.72 1.249 3.283.932 1.568-.381-1.208 3.092.848 1.907-1.652.635 2.605 4.935-1.017.445-.826 2.499-2.181 2.436 3.41 3.241-2.373 2.901-.127.953 1.335.106-1.97 1.398 3.367 3.94-.169 3.156-1.228.974 1.503 3.008-.53.868 2.013 2.309-.339.678 1.568 2.817-.636 1.419-3.876 2.139 1.673.932-3.113 2.902.953.466-.974 1.059-.784-.466-1.461 1.948-1.229-.423-.424 1.249-3.558.911-.55 1.779-2.352-1.715-1.122.931.36 1.038-1.038 1.568-.868-1.271-1.462 1.271-.932-.254 1.78 4.765-1.695 3.791.635 1.716 3.368.042-.275 4.703 1.758.741-.742 1.504 2.034 1.419-1.737 1.673-.55 2.965 2.138 4.067.805 4.045 2.012 1.864 1.123-.254-.148 1.123-2.605 1.207.254 1.292 3.092 2.478-2.5 4.279-3.833 1.864-.339 2.287 1.313 1.08.34 3.156 1.143 1.567 2.372-.105 3.39 1.948-.573 1.695.297 1.609.805.085-1.038 1.229 2.076 1.842 1.652-.296 1.715 1.249.7-2.033.995-.508.614 3.007.995.572 1.525.339-.762 1.631-1.313.466 2.732 3.029 3.516-.699.572.868 2.414-1.08 2.034.191-.636-1.589 1.61-.551 2.436-4.765 1.737-.699-.085-3.029-.91-2.118.423-1.207.847.466 2.69-.742 1.144-1.609 1.101-.276 3.262.932.868 4.046 1.462 1.758 1.101-1.674-.974-2.054 1.504-.678 1.186-2.542.212 1.038 3.706-.381-.847 5.761 12.433 2.139.17 1.991.656.106 1.78-7.053 1.482-.423-.255-2.627 1.695-.508.064-2.034 2.372-1.461 3.262 4.067h1.397l2.352-2.838.931.36 1.674-2.055 2.202 1.462 2.563.021 4.067 2.647 1.419-1.419 2.372.021 1.335-1.037 4.659.211 1.25-1.059 1.737.276.932-2.415.741-.021.297-2.881-1.059-.974 5.379-.805.784-1.059-.127-1.694 1.758-2.394 1.123 1.589-.339-1.843 1.567-.551 2.224-2.16.53-5.083.847-1.314.762-.36 1.144 1.187.381-1.038.657.084-.911-1.927.699-.72-1.377-.212.382-2.436 4.935-7.519-.212-1.758.953.466.36-.889-1.504-.848.763-3.134.762-.488-.995-2.118.55-2.668-1.8-1.462 2.139-4.596-.699-2.309 2.457-1.567 1.165 1.038 2.267-2.944 6.078-1.928.17-.826-1.949-2.944-1.038-.318-.042-.847.89-.614-2.669-1.461-1.589.72 1.716-1.97-1.229-.148.615-1.525 5.867-.487 2.668.465 1.208 1.102.296.868-1.504 4.3.064 3.685 1.228 2.606 1.864.423.615 1.546 1.419-.254.423 1.97.869-.233.36-2.902 2.774-.423.763-2.161 1.122-.339.361-1.038 1.609.106.339 5.698 7.096.635 2.732-4.659 1.355-.106-.148-2.881 1.928-1.737 1.376-3.494 5.19.36.932 2.393 1.207-2.605-1.313-6.015 4.702-2.754 1.122.17.318-1.038-4.13-.996-1.546.381.275-5.019 4.448-2.478-1.017-1.674-.805.276-.783-2.267 2.054.593 2.394-4.744-.318-.784 1.44-.445 3.029 1.928 2.118-3.791 1.462.169.698-.932-1.927-2.139 1.101-3.749-.423-.508 3.007-2.013-.783-1.249 1.546-2.224-.508-1.292-.17-.763 1.229-1.609-.255-.89-2.668-.487-2.394.699-.572-2.055 1.589-2.478-3.558 1.652-1.822-6.481-4.088-1.398.763-1.25-1.017-.55 1.398.169.169-1.292 1.081-.127.529 1.165 2.584-.826 1.313-1.906-.72-1.335.72-2.033-7.9-.339-2.203-5.676-2.796-1.356-1.758-2.669-3.41.932-.042 1.674-1.843.339.339 2.689-.805.466.191 1.907-6.714-.36-1.398 1.44-1.462-.445-.021 2.224-1.101 1.292-4.321-.572-1.101.974-2.351-1.207-.382.847-1.821-.042-3.77 2.415-1.589-.149-.296-1.694-3.114-1.906-2.944 3.77-.763-2.902-4.405-1.673.042-1.864-.593.063-.275-1.27-4.109-.763-.021-1.504-1.419-.021.042-2.245 3.558.254.636-.72-.572-.784.487-.783-1.843-1.843 1.589-3.029-.297-2.732-.805-.275-.042-.954-1.123.382-.084-2.5-1.674-.127.064-1.038-3.135-1.927.149-2.69-3.474-.572-.741 1.78-7.816.084-.508.72-3.559-.995-.783-.848-.953.615-.255 2.372-1.588.296-1.186-.063-.297-1.229.932.149.064-1.186 2.075-1.653-2.88 2.16-4.194-1.99-2.648.678-.169-1.398.911-1.758-1.123-1.8.975-.36 1.101.868.275-1.525.996-.869-.869-4.935-2.118-1.207-.381-1.017-3.304-.89-1.673-4.998-1.335-1.843-.042-4.066-2.775-1.165-.296-1.843-7.117.445-.466-3.389.996-2.457-1.695-2.372 1.991-.953.318-.847-1.716-2.52-.254-4.004.784-1.08 1.864.254.89-.572-1.695-.847 1.038-1.97-1.886-2.542.615-.699 2.5.255.656-.53-.106-1.715-1.123-1.526zm22.578 85.125-1.356.847-1.503-.424-1.78.848-1.101 2.774 1.228 5.338 3.135 2.351.403 3.834-2.86 3.833-4.088 1.928-3.283-2.14-1.779.212-.677.847-.276 3.199.826.635.276 2.563-1.102 1.906v2.139l.826 3.411-1.906 2.118-2.182-.848-2.054-3.198-1.631-4.681-.678-5.337-2.181.211-1.907-1.715-1.228-.212-1.78-5.337h-2.18l-1.102-.848-.953-4.278-2.733-.424-2.732.847-1.356.848-.55 1.504-1.504.211-.55-1.927 2.33-5.782v-2.14l3.282-3.854 1.906.423.678-1.292-.55-1.292-2.86-1.927-.127-1.081.678-.423 5.74-.424 5.04.847 6.418 6.863 3.283-1.927h6.143l1.355-1.081 1.356-2.774 2.457-.848 3.96 1.292 1.229 1.292z"/></svg>