<svg xmlns="http://www.w3.org/2000/svg" width="172" height="248" fill="none" viewBox="0 0 172 248"><path fill="#E1E3E2" stroke="#121F41" stroke-linecap="round" stroke-linejoin="round" stroke-width="1.18976" d="m35.99 2.56 1.674 5.359-.212 2.033 4.596 2.584 1.165-1.885 2.605.508-.148 1.313.91.085.7 1.97 2.753.868 4.088-2.181 2.351.487 2.16 1.927 2.352-1.97-.085-2.901h.656l1.737 2.14-1.821 2.054.445 3.113 2.16.869 1.652 3.113 1.716.254 1.334 1.843 2.372-.021 2.076 1.63 3.58-.55 1.334 1.228-.89 1.123.572 1.949-.487.423 1.737 3.347 1.292.063 5.295-3.092 3.05.678 2.986-2.203 1.822-2.986 3.346-2.796 3.22 5.4.296 3.729 1.462 2.986 2.541 2.5 6.609 1.905 4.871-2.308 3.029.487 3.77 2.033 4.808.488-.741 2.753 4.278 10.378 6.503 1.991 4.109 4.321 6.142-.317 2.394-.869 2.308-3.113 6.651-.805 1.271.678 5.041-1.864.084 2.181 2.14 2.923-8.981 5.317-.699 6.205 3.368 6.016 4.406 3.113 3.537 3.813-1.038 5.867 2.923 3.007-.254 2.33-1.102.593-4.427-.021-4.32 5.74-3.262.868-6.418 10.358-.19 3.071-4.216-.741-5.104.232-2.753 2.224-5.507-1.249-1.441 1.186.805.635-1.355 3.855.868.996 1.419-1.102 1.673 1.292 2.203.17.424 2.16 2.287 3.008-1.059 1.588 1.356 1.462.572-.445 1.249.953.699 2.351 1.271-1.631.593 1.017 4.766-.572 2.414 2.457 2.754.551.847-3.622 2.16-1.716 1.674.953 1.398 4.152-7.181 8.43-12.687-5.232-.55.572.36 1.186-.805.063-.487 1.377.233 2.118-1.187 1.504.107 1.356-2.161.084.021 2.351-.911.382-.105 1.461-1.377.614.529.763-.593.826 1.038.296.254 2.034-1.419 1.588.657.339-.064 1.186-1.292.636.191 1.122-2.415 3.156 1.97 2.5 4.088-.466.508.847 2.86-1.102 1.122.89 1.186-.106-.19.72 1.948 1.017 1.229 6.439-1.441.868.064 3.135 3.58 2.647-.488 1.25 1.398 1.546-.275 1.822.826.656-.826.784 1.186 1.694 1.292-1.228-.445 1.8.805 2.055-4.024 1.864-2.838.042-.572 2.563 2.923.085.593 1.207.72-.297.974 1.271-.423 1.208.656.699 2.5-3.453 1.164.381-.466-.339.784-1.186.953-.317 2.457 6.777-.889 1.208.021 1.948-4.787-.423-.402 5.083-1.949.254-.657 3.94-2.033 2.669-.339 3.939-2.224 1.292 3.368 2.012.063.932-7.752.127 1.335 3.008 1.504 1.08-.53 1.483.762.635v3.05l-.91.254-.953 3.05.021 5.168-2.224.488.021 2.287-1.885 2.224-8.155-1.271-4.151.212-1.419 1.207-.953-.741-1.059.551-2.944-3.665-2.457.721-.763 1.842-1.271.699-2.012-4.342-10.378.424-.53 1.419-6.036.402-.233.89-4.363-1.038v-1.991l-.784-.021-.635-2.393 1.948-4.978-1.355-1.207-1.165.296-1.229-.974-.021-5.104-14.466-.996-1.652-3.389 1.144-1.906-.085-1.716-1.483-.847.805-3.092-9.192-3.093.19-1.334-4.088-.085-2.139-1.144-.699-1.334.932-.868.148-1.377-1.652-2.563.043-2.902-2.606-2.499-6.438.763-3.008-1.589.148-2.33.932-1.08-.296-2.309 4.215-2.647-1.907-1.758-1.355.402-1.102-7.519-3.643 1.716-.614-1.313-2.033.444-2.245-1.8.444-1.101-1.842-1.271.762-.021-.318-1.758 1.271-1.949-3.029-3.58-.995-13.28 1.78-.593.147-.953 1.991-.466v-2.033l-.741-1.08 1.504-.572-.53-1.525-2.33-.254-1.673-1.758 1.462-2.436-.36-2.923.762-1.059 1.843-.17-.106-1.419-2.86.233-1.165-1.991-2.414.255.085-10.04-1.335.508-4.49-.656-.784.889-1.482-.084-1.906-.954-3.05.064-.297-.974-2.351-.085 1.673-3.135 1.737.953-.021-2.202 3.304-1.102-3.389-6.905.614-.677 1.377-8.939-2.478-.444-.53 2.626-3.897-.191-5.274-2.308-1.101-1.017.656-.678-.699-.889 3.03-1.928-1.992-2.372-1.292.275-1.334-2.86-.36-.995 3.283-1.525-.868-1.143 4.172-1.589-.72-1.99-4.575-.996-.403-1.949 1.377-8.303-1.398-1.567.043-3.071-2.33.02.423-4.468-.91-.847.804-2.966 2.585.191 2.69-2.033.296-.975-3.008-.444 1.06-2.394 3.558.297-.784-2.605.381-1.864 2.097-.149.212-1.228 1.483-.466-.975-2.14 4.385-1.207-1.271-.572-.996-3.515-.868-.636 1.165-.614-.254-.868-1.652-.191-1.123.72-1.63-2.478 1.694-3.919 1.567 1.568 2.648-3.325 1.334-.212.021-.826-3.156-2.245.784-2.648 3.749-.021 1.292-1.229-4.236-5.846 1.694-2.541 4.808-1.97.233 2.224 3.177-2.203-.508-1.228 2.203-1.06.042-.847 1.589-1.037-2.182-4.745-.593-6.545 6.63.869L34.677.908l1.186.381z"/></svg>