<svg xmlns="http://www.w3.org/2000/svg" width="202" height="217" fill="none" viewBox="0 0 202 217"><path fill="#E1E3E2" stroke="#121F41" stroke-linecap="round" stroke-linejoin="round" stroke-width="1.18976" d="m104.855 1.477 3.707-.233 2.669 4.914 1.334.38.741 1.95 2.775 1.948 5.02.91.995-2.562 2.732.021.996-1.165 2.118 2.266-.72 1.377.466 1.674 2.965 2.075 1.356.043 3.092-1.716 1.228.424 1.97 3.664-.127 2.944.699.635 1.462-.36.233-1.038.741.403-.53.635.699 2.88-.762.552.656.465-.19 4.978 4.151.36v.762l4.851 2.923-.594 3.622 4.554.593 1.038-.805 4.956-.572.636-.868 1.377.127-.043 1.483 3.58.021-.424-3.643.826-1.207 5.528 5.147 2.351.084.657 1.589-.233 2.838 3.939 1.61.911.445 3.008-.911 2.796 1.313-.106 3.643h-1.038l-1.017 1.504.339 1.165-.932.593.17 1.864 3.261 2.372-.974 1.461-.402 4.152 8.239 11.84 2.648 2.097 3.664 2.181.699 1.78-.53 2.075 1.568 1.017-2.733.91-.783 2.288 1.101 1.673-1.334 3.41-5.253 1.377-.763 2.923-2.033-1.123-.89.233v1.144l-1.186.19-3.643-1.63-.593.678-1.61-.106-.974 1.885-3.791-1.186.572 4.426-1.08 1.801 2.944 3.029-3.538 3.621-1.609-2.224-1.716-.614-1.546 4.258-.826 6.248-1.567.508-1.038 2.182-1.25-.149.297.848-1.991-.657-.763.699.424 1.101-2.351-1.186-.784 1.144-1.737.021.17 1.906-.848-1.249-2.202.826-.382 1.419-5.443.254.805 2.563-.36 5.655-1.631.254-3.156-1.398-1.25.826-3.007-1.736-1.695-2.161-2.181 1.335-1.695-.17-.762-1.271 1.038-.677-1.483-1.42-1.885-.402.296.741-.868-.296-.064.656-2.181 1.377.72 3.326-2.393.19-.763 1.144.974 2.393-.444 2.966-2.034.36-.847 1.27 1.292 4.046 3.347 1.567-3.029 2.711.508 2.034-1.631 2.669-1.249-1.06-1.314 1.25-2.859-.72-.085 1.567.191 2.013 2.436-.445 1.927.868-.847 3.029-.953.89.699 1.186 2.668.614 4.66-.318-.826 1.631.487.763-.953 1.758.042 2.033-1.292.551-2.393-2.076-1.716.275-5.591 1.822-3.453 2.711-1.715-.466-.72 1.122-1.758-.593-.53 1.801-1.08-.17-.763-1.207-5.697-.847-2.944 3.389-.7-1.377-2.753-1.101-4.278 3.028-.593 1.144-4.512-1.44-2.859.847-1.229-1.419-.593.318-1.101-.805-2.542 2.88-.868-.571-1.44.783-1.504 6.672-1.398 1.059-1.06-.678-.74.593-.36 1.462-3.834 4.194 1.483 2.287-1.843 4.639.741 1.991 2.309.826.296.804-2.414 1.123-.106 2.118-1.356 2.478 1.737 4.385-2.563 4.532.424 1.525-2.965-.614-2.648 1.504-3.41-1.038-3.283-1.546-1.08-2.881-2.627 1.716-2.88-2.33-1.504 1.377-4.49.169-3.643-7.815-1.229-.255-.106-1.715-2.457-1.377-2.817 1.737-1.27-.445-1.589.593-1.25 1.631-.91-.339-1.06-1.334-.571-3.368-2.415-.974-2.732-2.309-1.483-3.558.064-1.801 1.715-1.313 1.44-.021-1.164-3.495 2.563-1.779-4.067-2.287-1.038-.064.572-1.356-.678-1.609 1.758-3.262-2.245-.635-.466-1.314-1.589.276-1.08-1.991-1.525-.932-.275-2.097-2.669.508-.932-.614 1.186-2.605-1.504.021-1.122 1.949-.826-1.144 1.885-3.855.932-.551-1.949-.572-.339-1.101.466-1.207 1.314-.657.804-7.54-.339-4.956-3.494-14.488-2.52-.847-1.568-3.156 1.652-1.017 2.372-4.871 6.143-8.006.338-2.288 1.102-1.61 1.482-.423 1.525-1.589 1.864-3.156 1.652-1.313 1.716-3.516 3.029-2.5.656-3.706 1.95-.55 8.45-12.433 7.074-8.388.34-2.076 1.736-.72 2.711-3.367-.063-1.928 1.059.085 1.567-1.208L60.672 51.4l7.859-5.422 3.918-5.867 3.452-1.398 1.06-4.639 1.842-1.63 5.761-1.928 9.616-1.08 4.173.254.508-2.605 2.076-1.207 3.622-10.845 1.08-7.095-.551-1.525.403-2.012-.784-.022-.487-.974z"/></svg>