<svg xmlns="http://www.w3.org/2000/svg" width="100" height="100" fill="none" viewBox="0 0 100 100"><mask id="a" fill="#fff"><path d="M81.095 9.715c3.265 2.56 5.515 6.695 6.435 11.025l.325.13L98.08 25.6a3.3 3.3 0 0 1 1.92 2.985V90.42a3.326 3.326 0 0 1-4.25 3.17l-28.345-8-33.7 9.29a3.35 3.35 0 0 1-1.855-.02L2.37 86.085A3.3 3.3 0 0 1 0 82.935V19.99c0-2.2 2.14-3.78 4.275-3.16l28.51 8.305 14.49-4.435q.3-.09.61-.125c.56-3.28 2.125-6.43 4.75-9.5 3.115-3.65 8.58-5.79 13.905-6.045 5.525-.265 9.745.915 14.55 4.68M6.665 24.405V80.48l24.35 7.245V31.49zm41.045 3.07L37.68 30.54v56.395l25.325-6.97V63.49c0-1.82 1.495-3.295 3.335-3.295s3.33 1.475 3.33 3.3V79.38l23.665 6.675V30.68l-5.6-2.6a15 15 0 0 1-.365 1.615A30.5 30.5 0 0 1 82 40.25L69.615 55.715a3.35 3.35 0 0 1-5.365-.185L52.675 38.765q-2.87-3.996-4.005-7.18a18.5 18.5 0 0 1-.96-4.11M66.86 11.62c-3.63.175-7.36 1.635-9.135 3.71-2.135 2.5-3.185 4.84-3.395 7.21-.25 2.855-.08 4.87.63 6.865.525 1.475 1.57 3.345 3.185 5.6l9.055 13.11 9.55-11.925a24 24 0 0 0 4.205-8.285c1.2-4.2-.61-10.37-4-13.02-3.475-2.725-6.1-3.46-10.09-3.265m.69 3.485c5.52 0 10 4.425 10 9.885a9.95 9.95 0 0 1-10 9.885c-5.52 0-10-4.425-10-9.885s4.48-9.885 10-9.885m0 6.59a3.315 3.315 0 0 0-3.335 3.295c0 1.82 1.495 3.295 3.335 3.295a3.32 3.32 0 0 0 3.33-3.3 3.315 3.315 0 0 0-3.33-3.29"/></mask><path fill="#1F74D5" d="M81.095 9.715c3.265 2.56 5.515 6.695 6.435 11.025l.325.13L98.08 25.6a3.3 3.3 0 0 1 1.92 2.985V90.42a3.326 3.326 0 0 1-4.25 3.17l-28.345-8-33.7 9.29a3.35 3.35 0 0 1-1.855-.02L2.37 86.085A3.3 3.3 0 0 1 0 82.935V19.99c0-2.2 2.14-3.78 4.275-3.16l28.51 8.305 14.49-4.435q.3-.09.61-.125c.56-3.28 2.125-6.43 4.75-9.5 3.115-3.65 8.58-5.79 13.905-6.045 5.525-.265 9.745.915 14.55 4.68M6.665 24.405V80.48l24.35 7.245V31.49zm41.045 3.07L37.68 30.54v56.395l25.325-6.97V63.49c0-1.82 1.495-3.295 3.335-3.295s3.33 1.475 3.33 3.3V79.38l23.665 6.675V30.68l-5.6-2.6a15 15 0 0 1-.365 1.615A30.5 30.5 0 0 1 82 40.25L69.615 55.715a3.35 3.35 0 0 1-5.365-.185L52.675 38.765q-2.87-3.996-4.005-7.18a18.5 18.5 0 0 1-.96-4.11M66.86 11.62c-3.63.175-7.36 1.635-9.135 3.71-2.135 2.5-3.185 4.84-3.395 7.21-.25 2.855-.08 4.87.63 6.865.525 1.475 1.57 3.345 3.185 5.6l9.055 13.11 9.55-11.925a24 24 0 0 0 4.205-8.285c1.2-4.2-.61-10.37-4-13.02-3.475-2.725-6.1-3.46-10.09-3.265m.69 3.485c5.52 0 10 4.425 10 9.885a9.95 9.95 0 0 1-10 9.885c-5.52 0-10-4.425-10-9.885s4.48-9.885 10-9.885m0 6.59a3.315 3.315 0 0 0-3.335 3.295c0 1.82 1.495 3.295 3.335 3.295a3.32 3.32 0 0 0 3.33-3.3 3.315 3.315 0 0 0-3.33-3.29"/><path fill="#fff" d="m87.53 20.74-.978.208.11.522.497.198zm.325.13.42-.908-.024-.01-.025-.01zM98.08 25.6l-.42.907.002.001zm1.92 2.985h1v-.004zm0 61.835 1 .007v-.007zm-4.25 3.17.278-.96-.006-.003zm-28.345-8 .272-.963-.269-.075-.269.074zm-33.7 9.29-.266-.964zm-1.855-.02.287-.958h-.002zM2.37 86.085l.285-.959h-.003zM0 82.935h-1v.005zM4.275 16.83l.28-.96h-.001zm28.51 8.305-.28.96.287.083.286-.087zm14.49-4.435-.287-.958-.006.002zm.61-.125.112.993.747-.084.127-.74zm4.75-9.5.76.65v-.001zM66.54 5.03l.048.999zM6.665 24.405l.28-.96-1.28-.373v1.333zm0 56.075h-1v.745l.715.213zm24.35 7.245-.285.958 1.285.383v-1.341zm0-56.235h1v-.75l-.72-.21zm16.695-4.015.993-.115-.138-1.192-1.147.35zM37.68 30.54l-.292-.957-.708.217v.74zm0 56.395h-1v1.312l1.265-.348zm25.325-6.97.265.964.735-.202v-.762zm6.665-.585h-1v.757l.728.205zm23.665 6.675-.271.962 1.271.359v-1.321zm0-55.375h1v-.639l-.579-.268zm-5.6-2.6.421-.907-1.188-.552-.219 1.292zm-.365 1.615-.962-.274v.002zM82 40.25l.78.625.006-.007zM69.615 55.715l.78.625zm-5.365-.185-.823.568.002.002zM52.675 38.765l.823-.568-.005-.008-.006-.008zm-4.005-7.18.942-.336v-.001zm9.055-16.255-.76-.65zm-3.395 7.21-.996-.088zm.63 6.865-.942.335zm3.185 5.6.823-.569-.005-.007-.005-.007zm9.055 13.11-.823.568.764 1.105.84-1.048zm9.55-11.925.78.625.007-.009zm4.205-8.285-.962-.275v.003zm-4-13.02-.617.787h.001zm.6 10.105 1 .006v-.006zm-10 9.885.005-1h-.005zm0-13.18-.006 1h.01zM64.22 24.99l-1-.006v.006zm3.335 3.295.004-1h-.004zm3.33-3.3 1 .004v-.012zm9.593-14.483c3.04 2.384 5.191 6.29 6.074 10.446l1.956-.416c-.957-4.505-3.307-8.868-6.796-11.604zm6.68 11.166.326.13.742-1.857-.325-.13zm.277.11 10.225 4.73.84-1.816-10.225-4.73zm10.227 4.73a2.3 2.3 0 0 1 .972.845l1.682-1.082a4.3 4.3 0 0 0-1.818-1.58zm.972.845A2.3 2.3 0 0 1 99 28.59l2-.008a4.3 4.3 0 0 0-.684-2.31zM99 28.585V90.42h2V28.585zm0 61.828a2.3 2.3 0 0 1-.25 1.033l1.784.903a4.3 4.3 0 0 0 .466-1.922zm-.25 1.033c-.163.32-.397.599-.685.814l1.196 1.603a4.34 4.34 0 0 0 1.273-1.514zm-.685.814c-.288.215-.621.36-.975.424l.357 1.968a4.3 4.3 0 0 0 1.814-.79zm-.975.424a2.3 2.3 0 0 1-1.062-.055l-.556 1.921a4.34 4.34 0 0 0 1.975.102zm-1.068-.057-28.345-8-.544 1.925 28.345 8zm-28.883-8.001-33.7 9.29.532 1.928 33.7-9.29zm-33.7 9.29a2.35 2.35 0 0 1-1.302-.014l-.574 1.916a4.35 4.35 0 0 0 2.409.026zm-1.304-.015-29.48-8.775-.57 1.917 29.48 8.775zM2.652 85.125a2.3 2.3 0 0 1-1.19-.824l-1.598 1.203a4.3 4.3 0 0 0 2.224 1.54zm-1.19-.824A2.3 2.3 0 0 1 1 82.93l-2 .01a4.3 4.3 0 0 0 .864 2.564zM1 82.935V19.99h-2v62.945zM1 19.99c0-1.517 1.484-2.639 2.996-2.2l.558-1.92C1.796 15.067-1 17.106-1 19.99zm2.995-2.2 28.51 8.305.56-1.92-28.51-8.305zm29.083 8.301 14.49-4.435-.586-1.912-14.49 4.435zm14.484-4.433q.215-.064.435-.09l-.224-1.987q-.4.046-.785.16zm1.309-.915c.524-3.07 1.993-6.058 4.524-9.018l-1.52-1.3c-2.72 3.18-4.38 6.491-4.976 9.982zm4.525-9.02c2.886-3.381 8.056-5.448 13.192-5.694l-.096-1.998c-5.514.264-11.274 2.477-14.618 6.395zM66.588 6.03c5.293-.254 9.276.856 13.885 4.468l1.234-1.574c-5-3.918-9.458-5.168-15.215-4.892zM5.665 24.405V80.48h2V24.405zm.715 57.033 24.35 7.245.57-1.917-24.35-7.245zm25.635 6.287V31.49h-2v56.235zm-.72-57.195-24.35-7.085-.56 1.92 24.35 7.085zm16.123-4.012-10.03 3.065.584 1.913 10.03-3.065zM36.68 30.54v56.395h2V30.54zm1.265 57.359 25.325-6.97L62.74 79l-25.325 6.97zm26.06-7.934V63.49h-2v16.475zm0-16.475c0-1.256 1.035-2.295 2.335-2.295v-2c-2.38 0-4.335 1.91-4.335 4.295zm2.335-2.295c1.297 0 2.33 1.036 2.33 2.3h2c0-2.386-1.947-4.3-4.33-4.3zm2.33 2.3V79.38h2V63.495zm.728 16.847 23.666 6.675.543-1.925-23.665-6.675zm24.937 5.713V30.68h-2v55.375zm-.579-56.282-5.6-2.6-.842 1.814 5.6 2.6zm-7.007-1.86a14 14 0 0 1-.34 1.508l1.923.548q.24-.844.389-1.722zm-.341 1.51a29.5 29.5 0 0 1-5.194 10.209l1.572 1.236a31.5 31.5 0 0 0 5.546-10.902zm-5.189 10.202L68.834 55.09l1.562 1.25L82.78 40.875zM68.836 55.089a2.35 2.35 0 0 1-.853.666l.834 1.818a4.35 4.35 0 0 0 1.58-1.233zm-.853.666a2.35 2.35 0 0 1-1.061.212l-.07 2a4.35 4.35 0 0 0 1.965-.394zm-1.061.212a2.35 2.35 0 0 1-1.044-.285l-.958 1.756a4.35 4.35 0 0 0 1.933.528zm-1.044-.285a2.35 2.35 0 0 1-.806-.723L63.43 56.1a4.35 4.35 0 0 0 1.49 1.338zm-.804-.72L53.498 38.197l-1.646 1.136 11.575 16.765zm-11.586-16.78c-1.881-2.62-3.16-4.928-3.875-6.933l-1.884.671c.799 2.242 2.19 4.72 4.135 7.428zm-3.876-6.934a17.5 17.5 0 0 1-.908-3.888l-1.986.23c.17 1.478.51 2.931 1.011 4.332zm17.2-20.627a17.5 17.5 0 0 0-5.587 1.213c-1.701.684-3.233 1.647-4.259 2.846l1.52 1.3c.75-.876 1.97-1.681 3.485-2.29a15.5 15.5 0 0 1 4.938-1.071zm-9.846 4.06c-2.234 2.615-3.398 5.144-3.631 7.77l1.992.177c.187-2.113 1.123-4.264 3.16-6.649zm-3.631 7.772c-.258 2.942-.09 5.113.684 7.287l1.884-.67c-.646-1.816-.818-3.676-.576-6.443zm.684 7.287c.57 1.6 1.674 3.557 3.314 5.847l1.626-1.165c-1.59-2.22-2.575-4.003-3.056-5.353zm3.304 5.833 9.055 13.11 1.646-1.137-9.055-13.11zM67.981 48.74l9.55-11.925-1.562-1.25-9.55 11.925zm9.556-11.934a25 25 0 0 0 4.38-8.63l-1.924-.543a23 23 0 0 1-4.03 7.94zm4.38-8.626c.665-2.331.483-5.125-.284-7.656-.765-2.528-2.156-4.937-4.062-6.427l-1.232 1.576c1.484 1.16 2.693 3.16 3.38 5.43.686 2.267.809 4.658.275 6.527zm-4.345-14.082c-1.8-1.412-3.431-2.348-5.169-2.895-1.738-.546-3.519-.683-5.587-.582l.098 1.998c1.922-.094 3.449.039 4.889.492 1.441.454 2.86 1.247 4.535 2.56zm-10.017 2.007c4.979 0 9 3.988 9 8.885h2c0-6.024-4.939-10.885-11-10.885zm9 8.878a8.95 8.95 0 0 1-2.658 6.307l1.406 1.422a10.95 10.95 0 0 0 3.252-7.716zm-2.658 6.307a8.95 8.95 0 0 1-6.337 2.585l-.01 2a10.95 10.95 0 0 0 7.753-3.163zm-6.342 2.585c-4.979 0-9-3.989-9-8.885h-2c0 6.023 4.939 10.885 11 10.885zm-9-8.885c0-4.897 4.021-8.885 9-8.885v-2c-6.061 0-11 4.861-11 10.885zm9.006-4.295a4.3 4.3 0 0 0-1.653.318l.754 1.853c.281-.115.583-.173.887-.171zm-1.653.318a4.3 4.3 0 0 0-1.406.927l1.406 1.423c.216-.214.472-.383.754-.497zm-1.406.927a4.3 4.3 0 0 0-.944 1.394l1.843.777c.119-.28.29-.534.507-.748zm-.944 1.394a4.3 4.3 0 0 0-.338 1.65l2 .012c.002-.304.064-.605.181-.885zm-.338 1.656c0 2.384 1.954 4.295 4.335 4.295v-2c-1.3 0-2.335-1.04-2.335-2.295zm4.33 4.295a4.3 4.3 0 0 0 1.653-.321l-.757-1.851a2.3 2.3 0 0 1-.886.172zm1.653-.321a4.3 4.3 0 0 0 1.404-.93l-1.407-1.42a2.3 2.3 0 0 1-.754.499zm1.404-.93c.403-.398.723-.872.942-1.395l-1.844-.774c-.118.28-.29.535-.505.75zm.942-1.395a4.3 4.3 0 0 0 .336-1.65l-2-.009a2.3 2.3 0 0 1-.18.885zm.336-1.662a4.32 4.32 0 0 0-1.282-3.037l-1.406 1.423c.436.43.683 1.017.688 1.63zm-1.282-3.037a4.32 4.32 0 0 0-3.053-1.245l.01 2a2.32 2.32 0 0 1 1.637.668z" mask="url(#a)"/></svg>