<svg xmlns="http://www.w3.org/2000/svg" width="215" height="191" fill="none" viewBox="0 0 215 191"><path fill="#E1E3E2" stroke="#121F41" stroke-linecap="round" stroke-linejoin="round" stroke-width="1.18976" d="m98.846 179.666 5.337.085 7.307-1.059 3.516 2.139 3.749 1.017-.805 1.885-1.694.084-1.144 1.949-3.664-.974-2.309.529-1.694 1.779-.318 1.695 1.08 1.25h-.508l-5.528-5.91-5.401-4.448-3.093-4.49 1.843 2.584zM7.388 10.052l4.723-3.346 8.854.762.593 1.292 1.673-2.097 2.054 2.351 4.703-.063.338-1.123 2.224-.593-.529-1.461 5.062-1.25.318 1.017 4.617-.403.657 2.479 1.504-.212.063-2.203.89.89 1.355-.106.636 2.414 2.139-.614.974.762 1.843-.783.508-1.928 4.046-.275-.742-3.77L61.039.754l.276 1.017L67.329.86l.17.953 1.61.297 1.99 2.69-.868 1.482 1.419 1.186 1.44-.212 1.144 5.762 6.036-1.97.382 2.372 2.922-.657 1.208-1.334.847 2.52 1.8-.402-.042-.91 4.85-.912.911 4.343-1.44.571-.487 1.949 1.207-.085.275 1.525 1.06-.677.126-.975 2.88-.148-.55-4.173 1.08-.169.678.953 1.123-.572.106-2.5 3.494-.656.636 2.076 3.135-.424.741 2.754 5.189-.932.953 6.354-3.558.89-.127.995 1.504 8.663 1.821-1.567.466.423 4.3-.847.72 5.21 1.737-.36.487 5.74-1.928.106-.127 2.203.996 2.033-2.923.657.614 3.474 9.129-1.229-.127-1.334 6.608-.89.445 1.25 1.101-.085.954 2.415 1.482-.17.424 3.071 1.038-.148.677 1.038 1.144-1.483.424 1.123 4.808-.974-.53-3.326 1.271-.318-.042-2.139 4.49-1.122 4.575 3.664 4.003-1.292.487 1.334 1.123-.063 15.165-3.05 1.716-3.347-.742-.487-.317-1.716 1.461-.254-.572-3.473-1.461.127-.233-1.546 6.566-1.208-.699-2.075-2.732.55-.318-3.77 7.095-1.207.869 1.948 6.354-1.08-.424-3.643-1.143-1.334h3.367l-.106-.614 1.928-.445.741.635 2.775-1.504.889 6.503-.741 1.355.932 4.194-.995.403.868 1.863.932.445 4.427-.826.381 3.6-1.102.467.826 4.787-1.673.487.678 4.765-1.207.572.445 2.012.741.127.296 2.394-7.053 1.822 1.716 11.013-2.542 2.627 9.489-.53-.106 2.055.106 5.676 3.22-1.948.296.635.339 2.393-1.61.869.932 9.213-4.723.72-.297-6.396-1.122.445.063 1.927-1.588.508.296 6.228.36.804 5.973-.953.89 5.867-2.309 1.038.127 4.363.953-.042 1.441 1.165 3.029 3.452-3.495.53-.106 1.631.932.826-.953.635-1.186-.19-1.081-1.843-2.308.339-.043 2.054-2.097 1.335.106.953-1.546-.254-.805-1.674-.148.678h-3.219l-.615 2.669-2.944 4.067 1.779 4.913 9.722 5.952-3.262 5.105-5.146-2.839-1.441 1.292 1.335 4.3 1.948-.212.318 1.631-4.13.53.254 1.694-6.354 1.44.212 1.843.91.403 4.427-.763.339 1.822 1.821-.318.191 1.186-9.722 1.758-.084.784-2.86.339-.296 1.101-.763-.699-4.278.678-.551-4.13-7.561.55-.869-1.927-1.97.318-.19-1.314-.784.106.572 3.326-.932.211.445 2.648-4.427.572-.487-2.584-6.947 1.144.529 3.643-1.927.19-8.833-5.613 1.758 3.05-2.626 1.335.445 3.643-3.431.762-.403 1.144-3.622.614-.656-.572-3.495.869.381 1.715.953-.148.678 4.639-4.808.783.826 1.165-3.008.17-.36.995-5.507-.445-1.63 2.648-6.27 2.542-1.504-1.462-3.156-.423-4.363-1.864-4.045-.085-2.415 1.504-2.033 3.325-2.309-1.906-2.308-.784-4.681-.296-1.038.932-2.817-.318-1.186 2.33-4.406-1.229-4.003.149-3.982-1.737.847-2.097-.932-.508 1.44-.826-1.525-1.017.551-3.897-2.584-3.41 2.034-2.987-1.758-3.219.296-3.474-1.948-1.334-1.377.127-1.462-4.067-2.181-1.631-1.377-.106-1.589-6.375 5.041-1.356.064-1.037 3.262-.572.55 1.016 7.329-1.228-1.038-3.22 2.52-.571 1.886.381.105-2.288.763-.254-.657-3.389.572-.275-2.393-9.277-1.377.233-.466-.911-2.944.593-.36 1.673-6.164.043-.063-3.516.678-.127.36 1.334 2.372-.402-.784-3.876 2.14-.509-.297-4.49-10.95 2.817-.848-3.177-1.44.191.657-2.267-6.397 1.292-1.059-4.469-1.144.212-.423-1.652 2.626-1.334-.593-1.42-.995.085-.318-.91-.55-3.432 1.44-.339-.593-2.414-2.627.423-.106-2.33 1.208-.254-.911-6.036 2.181-.487-.762-3.686-2.86.466-.36-1.122-3.812.105-1.567-1.27-.233-1.038-.191-.975 2.436-.529-.36-4.067 1.355-1.461-.296-1.398-5.74 1.123.783 3.113-3.198.868H32.89l.318-3.494-3.262.91-.466-1.037-9.849 1.821-.55-2.457-3.177.572-2.288-12.56 2.5-.847-.636-2.69 1.504-.212-.043-1.228-.571-.064-.424-2.14-6.608.89-2.203-11.691.572-.657-1.737-2.393-2.626-1.546.275-1.462-1.589-3.622 2.16-1.122-1.545-3.39-1.907-1.185 1.652-.34 1.292-1.927 2.31.382.36-1.229 2.52.064-.784-.445.233-.657.953.805 1.864-.466v-1.038l-3.029-.402z"/></svg>