<svg xmlns="http://www.w3.org/2000/svg" width="224" height="317" fill="none" viewBox="0 0 224 317"><path fill="#E1E3E2" stroke="#121F41" stroke-linecap="round" stroke-linejoin="round" stroke-width="1.18976" d="m114.004 3.19.953 1.016 3.665-1.461 3.05 3.029L124.658.69l3.071 1.653 1.144-1.44 1.419 2.393-.297 2.541 1.864.064 1.674 3.092 3.685.953 1.271-1.228 3.834.063 4.617 1.525 1.694-.699 2.733.445.741 3.24 3.029.403v1.038l-1.864.466-.953-.805-.233.657.783.445-2.52-.064-.36 1.228-2.309-.38-1.292 1.927-1.652.339 1.906 1.186 1.547 3.389-2.161 1.122 1.589 3.622-.276 1.462 2.627 1.546 1.737 2.393-.572.657 2.202 11.691 6.609-.89.423 2.14.572.064.043 1.228-1.504.212.635 2.69-2.499.847 2.287 12.56 3.177-.572.551 2.457 9.849-1.821.466 1.037 3.262-.91-.318 3.494h1.144l3.198-.868-.783-3.114 5.739-1.122.297 1.398-1.356 1.461.361 4.067-2.436.53.19.974.233 1.038 1.568 1.27 3.812-.105.36 1.122 2.86-.466.762 3.686-2.181.487.91 6.036-1.207.254.106 2.33 2.626-.423.593 2.414-1.44.34.551 3.43.317.911.996-.085.593 1.42-2.626 1.334.423 1.652 1.144-.212 1.059 4.469 6.397-1.292-.657 2.267 1.44-.191.847 3.177 10.951-2.817.296 4.49-2.139.509.784 3.876-2.372.402-.361-1.334-.677.127.063 3.516 6.164-.043.36-1.673 2.944-.593.466.911 1.377-.233 2.393 9.277-.572.275.657 3.389-.763.254-.106 2.288-1.885-.381-2.52.571 1.038 3.22-7.329 1.228-.55-1.016-3.262.572-.064 1.037-5.041 1.356 1.589 6.375 1.377.106 2.181 1.631 1.462 4.067 1.376-.127 1.949 1.334-.297 3.474 1.758 3.219-2.033 2.987 2.584 3.41-.551 3.897 1.525 1.016-1.44.827.932.508-.847 2.097-11.607 2.88-12.793 4.914-3.093-.635-3.113 1.398-1.631 3.685.593 1.673 1.08.699.382-.508 1.08 4.999-1.589 6.989-2.287 1.61-2.669 3.707-4.766 9.891-4.342 7.477-3.24 3.664-2.097 4.321-7.456 7.794-11.374 14.424-36.367 29.293-5.528 6.375-.805 3.071-1.08-.296-.148.699 2.944 2.88.974-.826-.55-.868.656-.996 1.144 1.059-.021 1.335.614-1.102 2.902-.444 1.821.995.551-.72.424.445-.954 1.609.742 2.182-1.102 2.626 1.102 7.435-1.822 6.206.381 3.833-1.779.191-.233 1.461-2.16.445-.636-.614-1.207-3.77 1.292-1.97-.656-3.982-.975-2.711-4.024-5.02-3.558-2.436-5.062-1.398-3.644-2.075-5.358.635-1.8-1.186-2.712 2.182-3.558-.593-1.398 1.334-2.33.699-.614 1.356-1.927 1.164-4.85 1.525-6.863 4.109-1.631.212-1.229 1.928.318 2.139-.868 1.144-1.907-.699-2.965-3.05-2.054-.085-1.78-1.821-1.61.063-1.185 1.186 1.694 1.25-.318 1.165-3.495 1.737.848 1.8 1.99 1.271.064.995-5.274 1.779-5.634-1.906-5.507-.529-15.546-7.498-4.49-7.625-.191-4.957-4.808-1.991 2.33-4.066 4.427-4.088 5.76 2.203 2.818-.551-.382 1.377.763 3.029 5.846-1.441-1.631-7.18 4.045-.953-2.054-8.726-2.605-.043 2.393-5.125 1.927-1.97 3.58.487.339-1.229-.763-2.944 2.775.636 6.079-1.61-.657-3.664 6.058-1.737-1.949-9.425.466-1.25-.445-2.076 1.61-.36-.402-1.016 14.678-3.305 1.864-4.596-3.982-5.02 8.154-10.166-8.027-6.651 3.113-7.434-4.617-13.069 6.82-.508-.148-1.694-2.415.042-.127-.996 3.03-.338.592-1.441 1.864-.699 6.905-.296.127-2.987 5.147-1.525.275 6.058.7.042.444 1.504-2.52 2.245 1.779 4.851-2.754 3.325 2.394.826 1.927-1.822-.106-1.143 2.309-1.208.635.869 1.271-.572-1.27-3.008.995-.741-.657-1.567 1.949-.932-.318-2.288 1.08-.762 3.516 8.112-.635-2.245 4.596-4.978 3.685 3.707-1.63 2.033 1.694 1.61 4.13.741 1.144 5.761 1.546-.275.36.953 4.999-.72-.89-7.583.996-.571.826 1.503 3.367-.762.615-1.059-1.165-2.33 1.016-.551 2.542 1.716 1.038 4.215 2.351 1.8-1.017 1.207 5.507 3.347-.106-2.097 3.728-2.965 3.495 1.927.911-.783 1.715.635 2.754-1.567 2.287 1.885 4.935-3.283-.339-1.716-1.609 1.927-.636-1.525-.762-.571-.636.36-.678-1.292.106 1.44-1.08-.932-.318 1.165-1.482-.381.529-1.568-2.923.043.127-1.144-2.223-.72 2.033-.953-1.758-.212-.593-.805.784-1.737-1.017.17.042-1.589-.36 1.059-.784-.339-.72 1.123h-.656l.529-1.949-1.567 1.61.254-.868-1.08.021-.021-1.059-1.419-.17.423-.805-1.186-.614.402-.551-.931-1.397-.911.042 5.295-1.313-.953-1.017-.043-1.398 1.78-1.885-.848-4.787 1.864-4.511-.042-6.524-2.711-5.591 1.821-1.25 1.144.106-.699-1.674-1.504-.847-2.965 2.14-1.504-3.135.551-.424-.593-3.262-2.521.424-.423.89-6.439 1.313-2.266-7.308-.699.721-4.47.233-.677-3.432-4.724 1.335-1.101-1.737 2.796-.53.402-7.836 1.779-.763-1.059-5.655-4.702.402.106 1.928-1.207.317-1.08-4.109-1.335.297-.127-1.334 6.121-1.525-2.096-11.946 3.367-.869-1.864-11.903-4.871.826-1.313.847.02 1.567.7.36-.996.615.022 2.52-3.834 1.78-.445-1.674-1.822.487-1.037-4.66.995-.783-.572-2.923-3.749 1.038-1.419-8.112-3.22 1.419-1.82 2.012-.36-4.766-3.707 3.813-.72-2.69 1.122-1.313-.296-.593-1.907 1.525-.466-.551 2.097-1.78.085-4.066-.36-.508-2.33 1.059-2.669-4.914 4.956-1.843.128-1.25 2.266-2.922-.487-1.674 1.588-1.482-1.864.084 1.017-1.97-.042-2.371.762-.212-1.758-3.919.657-1.927 2.393-1.483 1.822-5.358-1.843-.784-1.927 1.525-1.483-2.118.021-1.144 1.673-2.944 3.453-2.605.381-1.229-4.342.424.042-1.017-.38 1.208h-.7l-1.927-11.48-3.431-.106.275 1.228-2.775.043-.572.55.848.445.169 1.292-1.42-.995.51 2.287-1.526.593-2.69-.318-4.448-3.664-3.07 2.16-3.136-4.299.022-1.42-2.923-2.308.868-2.774-.212-1.229-1.038-.233 1.06-.805 1.461 1.25.19-1.313 4.11-1.356 1.292-6.608 2.796 1.228.74-.699 1.208.255.89 3.473 1.08-.699-.487-1.144 1.313-1.758-.318-2.457 1.06-1.059-.276-.847.805-.296 4.554 4.3.91-.276.763.678-1.038.995 2.817-.17 1.546.806.742-.89 1.694.17 1.038-.72.656 1.863-1.334.212-.318.763-2.414.254 1.101 1.652 2.86-.91.529 1.82 1.144.615 2.224.275 2.69-.995.211.741 1.06-.614.296.466 1.059-.53-.275-.868.783-1.186 5.338-.953.72 1.61 1.652.656 4.935.466.276-.593 1.101.063-.445-1.059.996-.487.36-1.588 2.711.89-.127 1.291 1.906.382.296-.72-.847-.509.953-.296.488-4.554-1.441-3.093 1.906.678 2.839-1.63 3.579.042z"/></svg>