<svg xmlns="http://www.w3.org/2000/svg" width="246" height="204" fill="none" viewBox="0 0 246 204"><path fill="#E1E3E2" stroke="#121F41" stroke-linecap="round" stroke-linejoin="round" stroke-width="1.18976" d="m71.659 4.426 2.478.338 1.059 1.292 3.96-2.033 1.293 1.652 2.118.55 1.186-.635.296-3.261L86.633.74l1.61 1.991 1.144.339.254 1.25 3.897.084.212 2.52 2.52-.105.573 1.821.995.763.064-1.017 2.012-.783 1.059.338.402 1.314 1.25-2.203 1.694 1.885 1.059-1.059 2.372-.593 10.315 2.88 1.631 1.229 1.441-.106 2.414-2.033 3.749-1.483.403-.847-.594-.805-1.885-.233-.317-.91 4.469-1.907h1.313l1.737 1.906 2.732-3.516 5.401 4.088-.275 1.313 2.69-1.842 2.88 1.143-1.271 1.737.975.932 1.355-1.144.127-2.012 3.813-1.843 2.076.34 1.27-1.293 2.055 1.737.784 9.447 9.15 7.561-.615.974 2.245 2.33-.741 2.203.89.91 2.69 2.352 4.405.593.53 4.194.783.572.17-.848 1.398.318 1.525 2.14-.869 2.18-2.668 2.966 1.059 1.144-.509 1.715 1.144 2.436 1.927 1.44 1.165-.74 2.987 1.736 1.483-.72.635.826 1.038-1.228.614.38-.275.7 1.503.106.022-4.152 2.351-1.44 1.122.487-.508 1.292 4.109-1.017.254-.614 2.394.17.826-.742 6.671 1.335-.72 2.308.212 3.241 2.097 2.86-7.604 10.039 1.949 5.507.678.657 1.482-.403 1.928 3.876 2.033 1.673 1.25-.254 1.567 1.78 1.673-1.568 1.568.042 1.037 2.966 3.961.635 1.377-.593 5.274 3.092.36 2.838-1.461.551.698 1.716-.127 3.918 1.25 1.377 1.949.233.211 1.61-1.059.677.954.466-.932 1.695 1.821 1.016 4.554.509 1.504 1.737 5.782-.869-.593 1.589 1.44 1.927 2.944 7.562-5.337 1.165-.466.826 1.631.36.085 2.668 4.003 1.42-.233 3.261-10.464-2.012-1.44 5.062 3.326 1.144-.932 4.723 1.927.805-6.778 8.494.572 2.69-.868 1.969-2.966-1.8.826-.657-.508-.402-5.994.699-1.991-.784-2.753.17-1.144-1.801-2.732-1.376-.848.656-3.113 8.303 2.647 10.781-.571.275-.022-1.186-4.257-3.855-1.546 1.123-.869 2.817-1.355.868-2.33-1.271.212-.783 1.546.148.657-1.017-2.542-.783-.318-.699-2.69.402.339.805-.974.805-1.949-.869-1.44.721-.042 3.24-1.737-.296-2.394 1.525-1.122-.297-1.101 1.525-.975.191-.868-1.08-1.652.444-1.229 1.398-1.398-.106.106 2.055-1.207-.381-.763 1.588.53 2.097-1.546.805-2.542-1.694-1.355 1.016-1.547-1.186-.847.72-4.342-3.135.996 4.364-3.728 2.351-.784 1.948-1.885 1.695 1.885 1.821-2.838 4.406-.826 4.914.551 1.334 1.927 1.398-.063 1.716.889.127-.042 1.143-1.652.17-.106 1.122 1.652.975-3.728.317.254 3.834 1.864-.741 1.08.805-2.012 1.991.36 2.266-1.525 2.499.106-1.631-.699-.55-2.499-.043-1.483-1.461-2.224-.614-1.737-1.78-1.44.403-1.737-.72-.72-1.186.403-2.373-.466-.868-3.707-.445-2.351-1.779-1.207-2.393-2.5.042-3.876-1.588-2.647-2.5-5.613-3.812-3.961-.89-3.325.593-2.139-1.8-1.377-2.394-1.991.53-.169 1.292-2.479 2.118.848.466-1.292 1.97-1.991.233.444.678-1.736-.085-.784-1.97-4.512 1.631.212-3.94-.487-.127-2.753-.339-.487.615-.043-.678-1.27.021-.403 3.135-3.537-2.754-2.309.36-.402-.805 1.08-.402-2.118-4.617 2.266-2.457-1.08-2.372.339-1.568-1.292-1.101.254-.699-1.78-.36-1.185-1.08 1.715-.594.911-2.329-1.927-1.78-.657.297-.212-1.673-1.398-1.716-.487.085.657 2.203.042 7.116-3.198.254-1.123-1.143-1.842.339-.276-3.538-.805-1.27.615-1.441-3.05-4.787-5.465-.232-1.334-1.758-1.61-.191-.72-1.123.275-2.457-1.017-.932-3.113 1.356-2.86-.318-2.414-1.165-2.88-.296-3.813 1.948-1.334-2.012-1.928-.805-4.427 1.017-1.821-1.44-1.334.868-1.462-2.669-1.948-.762-1.144-1.483-2.923-.953-2.86-2.393.848-1.398-1.038-.064-.17-.635 1.186-1.101 2.182-5.486 2.288 2.859 4.003.466 4.172 2.372 6.143.191-.191-2.309-1.63-1.271-1.61.064-.975-1.716.275-2.69-2.096-1.397 1.525-1.25.19-5.507 2.436-.085 2.817-2.817-.106-5.125.55-.572-4.193-3.029 1.123-1.186-1.08-3.537.762-1.377-1.8-.424-1.483-2.054-6.333-2.267-.085-5.485-1.228-2.097-2.839-.403-.931-3.452-3.792.995-.995-2.922-4.448-5.72 1.207-1.122.826 1.038 2.33-1.44-1.462-1.695.34-2.457.72-.296-.848-.763.615-2.753-3.347-2.182-1.038-5.824-1.44-.233.233-1.462-1.27-1.017-.721 2.034-.762.106-3.94-4.914 1.101-1.716-1.44-1.525 3.728-.89-.403-2.71-8.81-2.563-.975-2.33-3.58-2.838.89-1.314-.572-.465-1.906-2.161L2.61 31.24l-.423-.487 3.007-2.012-.783-1.25 1.546-2.224-.509-1.292 5.19-1.165.741.869.72-.615 1.123.848.783-1.716-.74-1.229 2.647-.74.254-1.822 2.097-.953-.53-1.356.53-.89 3.113-.296.318 1.482 1.652.827.55-.509 3.008 1.44 3.432-.063-.445 3.304 2.817 2.775 2.647-1.61 4.957.36.233-1.27 2.795-.382-.106 1.462h4.85l.255.593.466-.763 1.017 1.123.444-.53 1.504.72.678-.953-.974-.614.254-1.017 3.368-.339 5.697-3.897-.254-1.715 2.012-.657-.55-.763.995-.91 1.038.17.445-1.801.783-.318-.402-1.377 2.88.106.763-3.283 1.377-.148z"/></svg>