<svg xmlns="http://www.w3.org/2000/svg" width="100" height="100" fill="none" viewBox="0 0 100 100"><mask id="a" fill="#fff"><path d="m55.062 97.329-.053.01-.34.167-.097.02-.067-.02-.341-.168q-.078-.024-.116.024l-.019.048-.082 2.056.024.097.049.062.5.356.071.019.058-.02.5-.355.057-.077.02-.082-.082-2.051q-.02-.076-.082-.087m1.273-.543-.062.01-.89.446-.047.048-.014.053.086 2.066.024.057.038.034.966.447q.091.024.14-.038l.019-.068-.164-2.95q-.024-.086-.096-.105m-3.435.01a.096.096 0 0 0-.13.028l-.029.067-.163 2.95q.004.087.082.116l.072-.01.966-.447.048-.038.019-.053.081-2.066-.014-.058-.048-.048z"/></mask><path fill="#F8F8F8" d="m55.062 97.329.304-1.977-.332-.051-.33.06zm-.053.01-.358-1.969-.275.05-.251.124zm-.34.167.391 1.961.257-.051.235-.116zm-.097.02-.55 1.922.467.134.475-.095zm-.067-.02L53.62 99.3l.162.08.173.05zm-.341-.168.884-1.794-.14-.069-.148-.046zm-.116.024-1.561-1.25-.186.232-.11.275zm-.019.048-1.857-.743-.128.32-.013.344zm-.082 2.056-1.998-.079-.011.287.07.277zm.024.097-1.94.485.101.404.254.33zm.049.062-1.586 1.219.182.237.244.174zm.5.356-1.16 1.629.294.21.35.093zm.071.019-.515 1.932.579.155.569-.19zm.058-.02.632 1.898.284-.095.243-.173zm.5-.355 1.159 1.63.254-.181.187-.249zm.057-.077 1.6 1.2.251-.335.096-.407zm.02-.082 1.946.459.063-.266-.011-.272zm-.082-2.051 1.998-.08-.008-.205-.05-.2zm1.191-.63.515-1.932-.404-.108-.415.064zm-.062.01-.304-1.977-.312.048-.282.142zm-.89.447-.897-1.787-.288.145-.228.228zm-.047.048-1.414-1.414-.376.375-.14.513zm-.014.053-1.93-.526-.082.3.013.31zm.086 2.066-1.998.083.015.357.137.329zm.024.057-1.846.77.179.429.35.307zm.038.034-1.317 1.505.217.19.26.12zm.966.447-.84 1.815.16.074.171.045zm.14-.038 1.585 1.219.233-.303.105-.367zm.019-.068 1.923.55.092-.324-.018-.336zm-.164-2.95 1.997-.11-.012-.217-.058-.208zm-3.531-.096-1.037 1.71.07.043.073.036zm-.13.029-1.663-1.11-.102.153-.073.17zm-.029.067-1.838-.788-.139.325-.02.353zm-.163 2.95-1.997-.11-.006.11.006.111zm.082.116-.702 1.872.47.176.496-.066zm.072-.01.264 1.982.3-.04.276-.127zm.966-.447.84 1.815.22-.102.189-.151zm.048-.038 1.249 1.561.438-.35.192-.528zm.019-.053 1.88.683.106-.293.012-.311zm.081-2.066 1.999.079.011-.286-.07-.278zm-.014-.058 1.94-.485-.134-.537-.392-.392zm-.048-.048 1.414-1.414-.23-.23-.29-.145zm.92-1.876-.053.01.716 3.935.053-.01zm-.58.183-.34.168 1.768 3.588.342-.168zm.152.001-.096.02.784 3.922.096-.02zm.845.057-.067-.019-1.099 3.846.068.02zm.268.11-.341-.168-1.769 3.588.341.168zm-.629-.283a2.13 2.13 0 0 0-1.072-.055 2.08 2.08 0 0 0-1.201.739l3.123 2.499c-.264.33-.648.583-1.106.678a1.9 1.9 0 0 1-.937-.043zm-2.569 1.19-.019.048 3.714 1.486.02-.048zm-.16.712-.082 2.056 3.997.159.082-2.056zm-.024 2.62.024.097 3.88-.97-.023-.097zm.38.831.047.062 3.17-2.438-.047-.063zm.473.473.5.355 2.319-3.26-.5-.355zm1.144.658.072.019 1.03-3.865-.072-.019zm1.22-.016.057-.019-1.265-3.795-.057.02zm.584-.287.5-.355-2.319-3.26-.5.356zm.94-.785.058-.077-3.2-2.4-.058.077zm.405-.819.02-.082-3.895-.916-.019.082zm.07-.62-.08-2.05-3.998.159.082 2.051zm-.139-2.456a2.13 2.13 0 0 0-.516-.948 2.1 2.1 0 0 0-1.202-.63l-.608 3.953a1.9 1.9 0 0 1-1.098-.577 1.9 1.9 0 0 1-.457-.828zm-1.053-2.121-.062.01.608 3.953.062-.01zm-.657.2-.888.446 1.796 3.574.89-.447zm-1.404.819-.048.048 2.828 2.828.048-.048zm-.564.936-.014.053 3.859 1.052.014-.053zm-.083.663.087 2.065 3.996-.167-.086-2.066zm.239 2.751.024.058 3.692-1.539-.024-.058zm.553.794.038.033 2.634-3.01-.038-.034zm.516.343.965.447 1.68-3.63-.966-.447zm1.296.566c.27.071.669.121 1.121-.004.48-.132.857-.417 1.113-.749l-3.17-2.439c.223-.29.56-.548.994-.668.406-.112.751-.063.96-.008zm2.572-1.423.019-.067-3.846-1.1-.02.068zm.093-.727-.164-2.95-3.994.22.164 2.95zm-.234-3.375a2.13 2.13 0 0 0-1.508-1.503l-1.03 3.865a1.9 1.9 0 0 1-.905-.551 1.8 1.8 0 0 1-.41-.74zm-4.421-1.271a2.1 2.1 0 0 0-1.541-.254l.867 3.905c-.478.106-.98.024-1.4-.23zm-1.541-.254a2.1 2.1 0 0 0-1.29.883l3.328 2.22a1.9 1.9 0 0 1-1.17.802zm-1.464 1.205-.029.067 3.677 1.576.029-.067zm-.187.745-.164 2.95 3.994.22.163-2.95zm-.164 3.171a2.13 2.13 0 0 0 1.376 1.877l1.405-3.745a1.88 1.88 0 0 1 1.213 1.646zm2.343 1.987.072-.01-.529-3.965-.072.01zm.648-.177.965-.447-1.68-3.63-.965.447zm1.375-.7.048-.039-2.499-3.123-.048.038zm.678-.917.02-.053-3.76-1.367-.019.053zm.138-.657.082-2.066-3.997-.158-.082 2.066zm.024-2.63-.015-.058-3.88.97.014.058zm-.54-.987-.049-.048-2.828 2.828.048.048zm-.569-.423-.883-.442-1.79 3.578.885.442z" mask="url(#a)"/><path fill="#1F74D5" stroke="#F8F8F8" stroke-width="2" d="M89.444 63.458a5.01 5.01 0 0 1 4.979 4.466l.026.563v8.385a13.414 13.414 0 0 1-12.612 13.39l-.816.023h-48.03A13.413 13.413 0 0 1 19.6 77.673l-.023-.816v-49.03H10.17a5 5 0 0 1-3.356-1.289l-.653.725.653-.725A5 5 0 0 1 5.19 23.36l-.026-.562v-8.385a13.413 13.413 0 0 1 12.612-13.39L18.592 1h52.835a13.413 13.413 0 0 1 13.39 12.612l.023.816v49.03h4.603ZM28.185 8.608h-1v68.264a5.804 5.804 0 0 0 11.61 0v-8.408a5.01 5.01 0 0 1 5.005-5.006h33.43V14.413a5.805 5.805 0 0 0-5.804-5.804zm58.654 63.46v-1H46.404v5.804c0 1.566-.268 3.073-.76 4.472l-.468 1.332h35.86a5.804 5.804 0 0 0 5.804-5.804zM19.578 9.607v-1h-1a5.804 5.804 0 0 0-5.764 5.126l-.004.029-.002.029-.033.562-.002.03v5.834h6.805V9.608Zm32.63 34.632a3.805 3.805 0 1 1 0 7.61H42.6a3.804 3.804 0 1 1 0-7.61zm9.61-19.218a3.805 3.805 0 1 1 0 7.61H42.6a3.804 3.804 0 1 1 0-7.61z"/></svg>