<svg xmlns="http://www.w3.org/2000/svg" width="192" height="223" fill="none" viewBox="0 0 192 223"><path fill="#E1E3E2" stroke="#121F41" stroke-linecap="round" stroke-linejoin="round" stroke-width="1.18976" d="m54.672 4.216 7.498 1.101 3.707-1.948 1.652-.127 2.605.826.318 1.186 3.113.53 3.347 3.897 1.143-.212.127 1.546 1.483-.297.805.657 2.245-1.144 4.935.36 1.123.953 4.342-.275 1.99-1.398.213 4.681 1.758-.254 1.525 2.33 1.821.466.233 1.588 5.105.19.889-1.8 2.415-.825.254-.996 1.588.635 5.465-.169 1.292 1.44 2.986 1.08.615.954-.403 2.075 2.5 1.229.444 1.101 3.813-1.038 2.287 1.97 2.648.148 2.224 1.42 3.304-3.834 14.996-.593.487 12.602 2.944-.318 1.716 1.462-2.055 3.706-.063 2.203 6.947-.296 1.44-1.356 2.203 1.144 2.457.296.106-.931 1.779-.932.826 1.482 1.334-.932.424.657-.699 1.63 1.8 1.039 1.653-2.33-1.06.063-.254-2.563.657-.804 1.419 1.588.911-1.588 5.083 3.6 1.779-1.25 2.5.467.783.847 2.203.042.424 1.673-.657 2.902-2.923 2.817-.169 2.245-.911.403.445 2.139-1.419-.466-1.885 2.288-3.178.487.106 5.591h1.356l1.017 3.156-2.224.021-.869-1.588-2.986-1.97.317-2.266-2.012.063-.953 8.642 1.928.91.042 2.987-1.885 2.838-3.855.805 1.61 5.19-1.059 1.08 1.694.91.17 1.144-4.109 3.982-3.008 5.338.318 1.059-1.038.53.085 5.104-3.05 2.075-.424 2.351.784 1.737-3.368.106-.36 1.017-3.834.296.191 2.521-1.928.911 2.817 6.248.043 1.038-1.229.487-.254 1.546 2.754 2.436-.699 1.271.571.466-.571 1.355.402 1.398-1.292 2.033.657 1.314-.593 3.304.656.656-.042 2.521 1.991.847-.487 1.949.826 2.732-2.245 5.274-2.373.551-.635.932.741.698-.127 1.907-1.483 1.673 2.818 2.097-.954 2.054 1.059 2.182-2.541.529-4.554.212-.021-3.007-1.059-.72-3.114 1.948-.19 2.669-3.728-.826-.657 2.245-1.482.614-.509 1.208-3.516-.932-2.245-1.547-3.262 4.109-1.461-1.546-.678.212-.529 1.97-2.436.063-.572 1.441-.657.021-.275 2.139 1.949-.614-.255.889-3.24.721.296-2.013-.72.212-.572 2.203.678 1.504-1.419-.212-.402 3.368-1.292-.339-.848 3.41-1.525-.297-.889 3.072-3.326-.361-1.059 3.135-2.414 1.059.381 1.419-1.017.021.043 1.038-1.313-.296-.276 1.461-1.101.869.466.953-1.546.106.084 1.525.805.423-7.773-.19-1.123 1.419-1.398.127-2.626 2.351-1.377 1.652-.106 1.991-1.186 1.821-4.024.805-.805-.762-2.902-1.97.869-2.097-.466-1.61 2.266.128.339-4.025-2.012.212-2.203 3.94-7.244-3.05-3.664 2.923-.487-.996-2.266-.784-.975-1.228-2.033.021-3.855 4.194-1.398 3.219-2.584 1.017-1.779-.424-2.224.742-2.669-.89-.423 1.483-2.584-.487-4.13 2.922-3.707-2.499-1.567 2.796-3.855-.678.063-.932-1.885-.233-2.012 1.716.127 2.542.487 1.08 2.012.381.297 1.334-2.584.848.254 1.355-1.313 1.186-.508 2.097-4.787.805-1.08 4.639-2.648-2.097-8.24-11.84.403-4.152.975-1.461-3.262-2.372-.17-1.864.932-.593-.339-1.165 1.017-1.504h1.038l.106-3.643-2.796-1.313-3.008.911-.91-.445-.784-1.419.614-1.229 1.292.043-.064-.911 2.818-1.313-1.25-1.716-.403-2.669 1.737-1.101.805 2.118 1.334-.254.89-1.949-1.038-1.758-1.737-.021-.17-2.542-.804-1.334-1.461.402.89-2.838-4.533-2.605 4.596.72.678-4.024-.53-1.25-2.14-1.673.149-2.224 4.702-.085.424.911 3.07.381.721.763 3.431-.36.996-2.457.995-.763-.572-1.97-1.525.678.615-2.309-1.335-3.77 1.631.022 1.229 1.503 1.8.17.318.699 3.325-.318-2.351-2.372-.233-1.271-.784.169.742-1.122.953.148 1.038-1.673-.678-2.351 1.483 2.075 4.426.869-.254-.911 3.643-1.673 5.316-1.928.911.53-.254-2.16 2.52.105 4.279-1.27.042 2.329 2.267 2.479-1.017 1.228 2.245.254 2.436-.805 1.377.953 2.075 4.745.869.318.656-.805-1.355-1.801 3.262-4.892.53-2.224-.467-3.834 1.08-2.69.043-3.495 1.567-3.749 8.027 1.271 1.25-2.478-.063-1.08-1.8-1.673-1.483-.191.804-7.858-2.817-2.266 2.415-.953 5.93-.572.255-3.326 1.525-.55-1.229-5.444-5.04-3.367-2.987.381-2.669-.784.55-2.16-.952-1.631 1.694-.826 2.457.339.021-1.907.996.106.296.932 3.05-1.334.021-1.229 1.271-.02-.572-3.241-4.447-4.914-3.919-.89-.085-1.927-.91-1.186.466-1.462-1.843-1.483-1.292-.084-.55-2.457-2.5-1.165-1.716-1.843.19-3.22-.55-.465 1.483-.636-.869-1.61-1.864 1.441-1.186-.445-.677.466-1.653-.89.276-2.096-2.33.02-.847 1.356.72.996-1.165-.381-.763.762.128-1.821-.657.063-.487-1.504-3.135-2.35.021-6.44-1.588.085.275-1.355-1.61-.043.34-1.44-3.686.402-.254-1.207 3.156-1.207-.022-1.038-1.948-.89.805-1.864 1.25-.635.508-2.563-1.525-2.5-1.377.17-.636-2.266-1.546.932v-1.78l2.669-.232-.233.784.784.19.826-2.287 1.228.38 2.605-4.49.742-3.304 1.101-1.08-.19-1.313 1.376-2.86-.72-1.884-.89.783-.72-.339.742-1.758-2.097-2.308.508-1.758.974-.678-.995-2.626 1.716-2.944 2.139-1.314.89-1.44-2.5-.91-2.817.148-2.478-1.653-.402-1.101 8.43.974 3.664-.953 1.482.297-.932-2.987.89-.254 3.135.826-.276 1.631z"/></svg>