<svg xmlns="http://www.w3.org/2000/svg" width="301" height="189" fill="none" viewBox="0 0 301 189"><path fill="#E1E3E2" stroke="#121F41" stroke-linecap="round" stroke-linejoin="round" stroke-width="1.18976" d="m299.88 87.875.148.614-1.122.656-1.589 2.754-4.194.085-3.516-1.674-1.609.89-.466 2.266 2.605 1.716-1.207 1.25-3.05.868-1.483 1.377.614 2.457.445-1.653.424 1.187-2.563 5.422 1.355 7.858 2.436 4.066-5.952 3.982-8.154.657-2.669 2.499-14.127-2.33-2.5.445-1.228 1.673-1.885.975-3.347-.614-4.935 2.075-.614-1.461-1.461-.826.021-1.843-2.648-2.902-6.015-3.96-7.583-2.351-6.121 1.292-4.236 2.351-3.855 4.32.148 2.584 2.584 1.292-4.786 2.457-.318 1.292.784 1.271 1.779.89-.381.593-4.533-2.118-4.342.466-.89 1.122.297 1.631-1.038 2.012-3.368.826-2.181 1.335-1.716 3.833-.424 3.516-3.41 3.114-2.393-.847.127-1.441-1.377-1.419-2.118-.55-.826.572-1.673-1.102-3.431 1.017-.021.868-1.653.53-1.652-.572-10.187 1.017-4.237 2.414-4.405 1.398-10.908 6.375-3.05 3.813-3.198 8.218-1.525.784-.127 3.473-2.966-.487-2.097 1.313-1.927 3.453-5.909 1.228-2.881 6.545-4.787.868-1.927 1.525-3.389.233-1.165.869-6.545-1.208.085-1.736.72-.699h1.546l1.017-1.864-5.422-8.875-.826-4.871-6.037-3.008-.614-1.144.106-3.706 2.457-1.462.296-.826-.508-2.33-3.58-2.139-5.125 2.012-1.822-1.715-.212-1.589.911-1.017 2.055.297 1.419-.72-.7-3.156-1.122-.996-4.617-.169-1.843-1.144-1.821.254.317-2.986 1.356.148 1.461-.868.954-2.161.466-4.193-.932-6.672.317-2.139-2.944-8.917-3.473-4.957-4.618-4.257-4.532-2.16-2.67 2.287-3.26.148-1.59 2.606-1.651-.043-2.246-2.647-3.07-1.038-2.585-1.907-6.121-7.455-5.528-5.041-5.719-3.622-3.643-.72-7.074.339-7.625 5.19-11.247-3.305 1.334-1.462.085-1.376-2.457-2.203 4.448-5.994 3.304-2.669 5.698-3.41 1.927-.572.953.445.276-1.356 5.634-3.389 1.037.89 1.017-.55.508.55 1.356-2.309-.424-.783-1.376.042.211-.572 6.334-5.253 13.258-7.413 3.05-.508 1.165-2.245 1.44-6.672-.529 1.8.89 1.568 2.584 1.97 1.652.275 7.943-3.431 5.274-5.126 1.694 1.08.487-.974 1.27-.36v-1.25l.87-.53.698-.063.445 1.483 2.055-.763.466 1.313.571-.02 1.695-3.432.89.148 2.478-2.35 1.715 1.757 1.313.275 1.928 2.923-.212-6.672 1.101.064 2.224-2.076 2.118.424.318-.593-1.038-2.309-6.015-.402-1.673.656-.127.678-1.398-.487 1.016-1.694-1.207-9.256 2.012-3.114-1.948-5.337 1.482-.53-1.546-8.98 2.097-.36 3.008 2.965 1.122.275.678 3.24.763-.72.677.276-.275 1.843.847 1.165 1.42.53.783-.7 1.694 2.415.466.17 2.203-3.2-1.207-.465-.487-2.288 1.228-.826 1.44 1.06 1.504 2.287v1.228l-1.864 2.288.509.91-1.568-.55-.17 1.038 2.098.212 2.605 2.181 1.038 3.664-.297.615-.868-.466-.276 1.736.699-.931.932.931.382-.338-.064-2.712.911-1.059 1.08-.423.635.487-.677.297.212 1.059.847 2.16.635.127.636-.381-1.525-2.16 3.812-.657-.974-1.017-1.61.55-2.203-1.545.869-1.25 5.485-.805 3.283 2.817 1.038.021.763 3.008 2.711.91 2.711 3.241 1.334.403-3.198 3.325-.572-.064-.317-1.376-1.991.148 1.461 2.923 2.309.106-.254 1.398 3.155-.89.615-.868.889.847.297-.699-.932-.657-.636-4.341-1.249-.954.445-1.165-1.504-.38.699 1.08-.784.232-2.16-3.198-1.292-.89-.869.488.53-2.055 2.414 1.928 1.398-.72 2.775 1.355.868-.275 1.801 1.546-.022 1.292-1.016.296 1.059 2.288.445-.445-.657-1.694 2.309-3.686 1.038.89-.805 2.224.572 1.758 2.795.741.085.826 1.08-1.059-.529-.974.445-.805-1.674-.508.106-.678 1.843-.17 1.101-.89 2.478 3.178 1.335 3.728 5.74 4.66-.805 2.965.635 2.35 2.034-1.122 1.546-3.96 2.393 1.355 1.08-.7-2.075-5.294.953-1.229-.869-.847 5.995 3.876.762 1.44-1.546 5.063-5.316 2.52-.022 2.14-2.732 2.393-.297 1.313-3.579.212.911 2.054 5.231-1.101 4.448-4.914 3.516-2.69 5.274-1.694 1.568-1.208 1.122 1.97-.784 1.335-1.736-1.42-4.321 2.33-1.144 5.74 6.778-2.372.275 2.054.805-.211 1.101 1.228-1.44 2.14-1.038.423-.275 1.716-2.669.36-2.52 2.753 1.249.403.36 1.1 3.898-1.757 1.016.212 1.716-1.292 6.481-1.78-4.045 3.284 1.059.317-.064 2.224 2.902-1.906 1.144 1.483-.89.53-.021 1.185 1.207 1.144 1.419-1.017 3.622-.677-.381 2.16 1.461 1.61 3.156.974 4.321 8.324 1.695 7.477-1.737 2.118-3.071 1.165-1.059 1.504 2.118 5.083 2.16 3.05 3.537 2.52 1.102-.106.804-.974 2.203.36 5.719 3.707 5.507 2.181.784 1.038-2.14 1.949 1.716 1.207-.085 1.186 1.377-2.541 5.359-1.165.699.656.254-3.664-3.326-.403-2.266-4.003-2.732-1.694-1.864-3.664-1.123.36-5.845-9.934-3.199-4.363-2.012-1.61-5.274-7.9-1.419-.953-1.61-3.665-1.228-1.376h-.89l-2.605-7.88-1.991-2.795 1.186-.614 7.943 15.461 16.923 23.426 7.202 7.837 3.982 2.986 4.172 2.034 6.291-3.05 8.091-2.055.508-1.715 2.287-2.182.149-.974-.869-1.102 5.274-4.32-.169-2.69 2.118-1.25 1.673.741-1.948 1.843 1.588 2.86 4.088 3.6 3.558 1.504 3.389-.276 2.457-1.737 1.292-1.821-.169-3.262.974-.91 5.401-2.013 8.959-1.292 2.479 1.102 1.525-.593 2.096.783 2.966 2.224 2.838-1.059 1.821.127 3.686 2.902 1.843.445.974-.445.445-1.27 1.567.19 1.271 1.715-.297 1.483z"/></svg>