<svg xmlns="http://www.w3.org/2000/svg" width="198" height="260" fill="none" viewBox="0 0 198 260"><path fill="#E1E3E2" stroke="#121F41" stroke-linecap="round" stroke-linejoin="round" stroke-width="1.18976" d="m64.77 2.256 1.25 3.198-.974 1.61 2.33 1.546 2.224.699.402-.826.7.423 1.82 2.69-.36 3.961 1.293.275.233 1.271 2.71.572.763 2.817 3.03.424.72 2.16-.276 1.864 4.067 2.944-.382 2.542-1.525 1.525.678 1.694-2.605 2.394 1.27.106 1.356 3.325-.466 1.673.424 2.309 2.86.932-.488 2.012.89 1.63 3.22-.105 1.249 3.262 1.419 1.377-.36 1.037 2.774 1.102-.02 2.5-.72.931 1.122.233 1.059-1.059h1.419l2.16 2.182 2.14.868.741 1.652 1.249.318 2.055 2.075-.53 4.3 2.034 2.669.296 2.52-1.334 2.457-4.088 1.186-4.024-.89-1.313 1.759-3.94.91-1.652-.614-.72.953-2.987.954-2.35-.318-3.241 2.5.55.677 1.038-.254.466 1.482 1.356.106.021.89 2.542-.276 1.143 5.36 2.182-.297.296 2.796 1.398-1.102 1.42 2.88.169 3.093 2.626.19.975 1.505-.191.868-1.292.021.212 3.474-1.589.741-1.567 1.991.508 1.927-.614 1.017-1.567.297.487 1.122-.784.297.572 2.075 1.63-.127 1.42 1.568 1.42-.212-.234 1.355 1.165-.169 2.182 1.165.317 1.355-1.821 2.521-2.182-.17.466 1.525-.445 1.292-.55-.105-.34 1.355-1.906.741.784 1.758-1.419.572-.212.953 5.698 3.093 1.546-.17 3.834-3.791 3.622 1.8.804-.423 2.881 1.864 1.779.233.678-1.017 1.377.021 2.817 1.97 1.609-2.288 4.258.805.593 5.74 3.431 2.69.932-.953 3.156.741.932-1.143 1.461 1.461 1.589.233.233-1.461 1.927-1.822 1.038.741 1.589-.508.889-1.144 1.906.233.382-1.44 2.605-1.927 2.076.211 2.033 1.42.318 1.694 1.546-1.313.72-1.716 3.664.106 1.885.826-1.376 3.453.423 2.541-.784.847.996 1.186.254 2.203 2.118 1.123-.783 1.652 1.016 1.313-.212 1.038-1.27-.233-.509.89 1.102-.085 1.779 3.516 1.737.72 2.668-2.16 1.504.868.17-.911 2.224-.826.063-.593 3.008 1.716 1.991-.276.762 1.314 1.356.529.254 2.626-1.716.763-.911 1.334-3.706-.889 2.33 4.405-1.695 3.707.403.995 2.436.318.063.763 1.546.211.699 1.017.212 1.377-1.589.783 1.187 1.716-1.059 1.123 1.546.932 1.038 1.906-.297 5.126 2.669 2.075 1.842-.042.784.656-1.186 3.58.318.868-1.546 1.229.211.868.805.17-.614 1.673.635 1.546 1.822 1.483-.551 2.436-1.779-1.187-4.596 1.61-.254 1.377 2.203 4.151-2.288 2.627 2.648 2.033.508 3.452 2.859 4.681 6.1 3.834.551-1.101 1.101 1.546-.063 7.116 2.076 1.208-.636.974 1.631 1.589 2.605.042-.381.762 1.673.424-.381 1.779-1.059.318-.297 1.228h-1.27l-1.017-.741.296-.551-2.541-.614-1.483 1.123-3.982.275 1.25 1.652-.741 1.229-1.42-.932-.677.635-2.584-2.372-1.314-.127-1.164-1.906-1.335 1.503-1.906.043.127 2.647-3.643-2.647-2.372 3.304 2.33 1.588-1.907 1.292-2.605-.127-.614 3.305-1.377-.043-.318.911-2.689-1.271-.382 1.017-2.965-1.483-2.69 2.881-3.029 1.313.106 1.61-2.033 2.795-.932-.211-.085-1.335-1.482-.423-.255.72-.466-.657-2.668-.254.783 2.859-2.202.763-6.672-1.334-.826.741-2.394-.17-.254.615-4.109 1.016.508-1.292-1.122-.487-2.351 1.44-.021 4.152-1.504-.106.275-.699-.614-.381-1.038 1.228-.635-.826-1.483.72-2.986-1.737-1.165.742-1.928-1.441-1.144-2.435.509-1.716-1.059-1.144 2.668-2.965.869-2.182-1.525-2.139-1.398-.317-.17.847-.783-.572-.53-4.194-4.405-.593-2.69-2.351-.89-.911.742-2.203-2.246-2.329.615-.975-9.15-7.561-.784-9.447-2.055-1.736-1.27 1.292-2.076-.339-3.813 1.842-.127 2.013-1.355 1.143-.975-.932 1.271-1.736-2.88-1.144-2.69 1.842.275-1.313-5.4-4.088-2.733 3.516-1.737-1.906h-1.313l-4.47 1.906.319.911 1.885.233.593.805-.403.847-3.749 1.483-2.414 2.033-1.44.106-1.632-1.228-10.314-2.881-2.373.593-1.059 1.059-1.694-1.885-1.25 2.203-.402-1.313-1.06-.339-2.011.783-.064 1.017-.995-.762-.572-1.822-2.52.106-.213-2.52-3.897-.085-.254-1.25-1.144-.339-1.61-1.991-2.584 1.589-.296 3.262-1.186.635-2.118-.551-1.292-1.652-3.96 2.034-1.06-1.292-2.478-.339-1.313-2.309 3.473-4.3.233-1.355 1.504-.403-1.313-.826 1.27-3.939-.338-1.017 2.266-1.186.212-4.257-.974-1.907 5.4-1.249 1.801-1.207-.487-.594-1.27.149-.51-1.165h-1.312l-2.52-4.935 1.037-.89-.89-3.071 2.055-2.457-1.08-.466.783-1.716-.656-2.224.868-.847 1.758.021-.762-3.388.296-4.215-2.796.148-.868.678-.741-.403-1.568-5.613-2.817 1.652-.021 1.081-2.542-1.081 1.165-3.727 1.8-1.335-1.651-1.398.72-2.202-2.267-.445-.106-1.059-5.57-1.017-.297.551-.826-.741 3.39-5.825-2.14-2.076 1.61-2.478-.593-.551 1.016-1.143 2.648-.106.953-.657-.593-2.584 2.626-2.944-.677-1.356 1.037-2.732-2.35-.529 1.313-.297-.932-.762 1.482-.466.869-1.885-1.017-2.584-1.99.042.147-2.605-1.419-3.071 2.034-1.483.656.551-1.355 1.525 1.694.91-.042 1.292 1.821.403 1.758-.276-.148-1.503-1.059-.085-.487-.996 1.694.149.424 1.08.974.063.318-1.906-1.27-.699 1.143-1.525-1.356-1.271.508-3.388.954-1.208-.318-1.8.508-1.377.848.381 3.07-1.652-.508-3.6-1.143-.636-.932-2.266.254-.89 3.325.106 1.123-1.207-2.245-.403-2.563-2.944-.19-3.664-1.716-.508 1.08-2.266-.572-6.715-2.266-2.563-.89-3.092-.826-.254.593-.89.953.106 1.525-3.325 1.652-.742-.572-1.63-.783-.34-.382-3.41 3.876-2.456.064-2.267 3.156-.254-.127-.932 1.948-.127.805-1.143 2.224.55.445-1.419 1.334-.423 1.017.868 1.758-.042 1.652-5.55-2.86-3.495-2.18-.931.868-1.886 2.774.085 2.394-2.287 1.016.042 1.695 2.711 2.965-1.313 2.266-.064.043-5.74-.636.593-2.372-.825-1.377.38.424-1.058-.636-1.483-1.736-.614.17-1.186-5.19-2.394-.974.593 1.059.509-1.462-.212.381-2.012.763-.233-1.567-2.309-.233-1.567 1.44-1.462-1.207-1.44 2.435-.953 1.314-2.372-.593-1.737.931-.127.742-1.165-.085-1.546.89-1.017-.636-.763 1.102-.402-.827-1.927 1.695-.636.995-2.647 1.377.423-.53-1.377 1.293-1.61.656 1.06 3.41.148.466 1.652-.656.974-1.335.212-.91 2.245 5.528 1.42.487-1.187-1.356-1.355L46.45 8.08l1.716-2.584 3.77-.677 1.504-1.102.254-1.016 2.267-.594 1.143.975 4.258-1.695z"/></svg>