<svg xmlns="http://www.w3.org/2000/svg" width="126" height="195" fill="none" viewBox="0 0 126 195"><path fill="#E1E3E2" stroke="#121F41" stroke-linecap="round" stroke-linejoin="round" stroke-width="1.18976" d="m46.233 30.143 1.08-4.639L52.1 24.7l.508-2.097 1.313-1.186-.254-1.355 2.584-.848-.297-1.334-2.012-.381-.487-1.08-.127-2.542 2.012-1.716 1.885.233-.063.932 3.855.678 1.567-2.796 3.706 2.5 4.13-2.923 2.585.487.423-1.483 2.67.89 2.223-.742 1.78.424 2.583-1.017 1.398-3.22 3.855-4.193 2.033-.021.975 1.228 2.266.784.487.996 3.664-2.923 7.244 3.05 2.203-3.94 2.012-.212-.339 4.025-2.266-.127.466 1.61-.869 2.096 2.902 1.97-.614.635.466 1.78-.657.614.975 1.207 1.461-.063-.614 1.27 2.796 2.14v1.228l-5.211.36.064 3.283 1.44.996.339 1.567h-.657l-.042 1.059-1.356.063-1.503 1.25 2.414.91-.741 2.648-2.266-.19-.085.995-1.419 1.102-.233 2.16 1.377 3.982-2.224 1.8v.869l1.863.932.128.72 2.901 1.504-1.694 2.35 2.711 4.067.657 3.199 1.037.656.403 3.22-2.224 1.292-1.61 2.605 3.537 2.287 2.182 2.479.233 1.334-1.102.487-.063 1.695-1.779-.127-.466 1.397-1.885 1.653 1.016 2.35-.487.89.805 3.135-1.08.381-.487-1.123-1.483.911-2.393 4.279 3.516 3.368.19 5.57 2.796 3.283-.911 2.478 1.61.974-.762 1.102.741 1.398-1.165-.17-.021 2.351 1.61 1.546-.064 1.547.89.974-.763.339.424 1.122-.953-.19 1.08 1.567-1.038.996.063 1.122-2.922-.042-.085 2.436-.869.19.339.911-.741 1.631.72 1.631-.339 1.08 1.525 1.123-1.525.233 1.017 2.88-.551.572.509 3.219-.827 2.521 1.674.423-2.139 1.928 1.63 2.16-.677 1.229 1.207 1.779-.424.762-1.249-.423-.975.741.424.869 2.033.508-2.52 1.207 2.16 2.034-.995 2.054.212 1.8h-.869l.826 1.547 1.123-.869.805.275-1.25 1.42.614 1.863-.805 2.563 1.081.572 1.228 3.389 1.694.297-.741.932-1.588-.53.677 2.499-1.44-1.27-.529.487.55 1.885 1.483.381-.445 1.631 1.08.826-.19.508-1.377-.381 1.483 1.716-.932 2.986.677 1.229-1.27 1.143.339.657 1.313-.212.084 1.673 2.076-.148-.339 2.457 2.69-.805-1.377 1.779 2.076.255.318.698-2.139.763 2.245 1.271 1.334 2.753 1.123-.169-1.568 1.97 2.034 1.122-.36 1.673.847-.021.783-2.245 1.886 2.415 1.885-.615.55.996-3.685.297-2.775 2.965-1.97-.953-1.715.826-2.394-3.347-5.104 1.589-2.076-.339-1.504-2.161-.233-5.549-1.927-2.203-1.165.699-.36 1.546 2.118 3.474.127 1.567-2.309 1.61-3.6-5.02 1.567-2.414-.445-3.686-.656-.741-1.398.508-.742 3.495-3.282-1.249-2.902 3.198-1.864.529-2.372-1.398-1.78.276.318-2.69-3.643-4.914-1.377-.805-.826.021-1.143 1.313-1.568 3.24-1.673-3.177-6.037-1.186-.614-.805 2.182-1.885.085-1.059-2.796-1.101-.254-.954 1.906-1.461.296-1.017-2.944-1.842-3.897-3.982-2.817-.36-3.622-2.754-.381-.911 1.419-1.694-1.165-1.292-1.292-.551-.53.445.784 1.927-.635.805-4.385-1.715-1.673.063.657 5.571-.805.211-1.06-1.419-.973-.148-1.483 1.567-.932 2.436-1.949-.19-1.186-1.907.318-1.715 1.44-.975 3.77-.042.805-1.483-.572-.635-1.673.233-1.038-1.949-2.457-.593-1.398 2.203h-1.27l1.461-3.749.381-5.359-1.779 1.038-1.419-.508.445 1.44-2.118 1.928.212 2.796-.805.571-1.292-.444-1.546-6.122 2.033-2.118-2.648-2.139.403-3.473-1.758 1.715-5.168-3.24-3.686 1.927.064-2.033-4.49-4.597.847-3.071 5.337 1.271-.106-1.038-1.122-.296.656-3.813-1.588-.847-4.151-.424-3.156-3.643-.043-1.821 5.168-6.079-6.079-3.029-.233-1.843-.89-.931-.19-3.389 2.309-3.432-1.63-1.122-.721-2.5-.89-.635-1.461.72-1.144-.572-1.101-5.528-2.923-6.566.36-5.655-.805-2.563 5.443-.254.382-1.419 2.202-.826.848 1.25-.17-1.907 1.737-.02.784-1.145 2.35 1.186-.423-1.1.763-.7 1.99.657-.296-.848 1.25.149 1.038-2.182 1.567-.508.826-6.248 1.546-4.258 1.716.615 1.61 2.224 3.537-3.622-2.944-3.03 1.08-1.8-.572-4.426 3.791 1.186.974-1.885 1.61.106.593-.678 3.643 1.63 1.187-.19v-1.143l.889-.233 2.033 1.122.763-2.923 5.253-1.377 1.334-3.41-1.101-1.673.783-2.288 2.733-.91-1.568-1.017.53-2.076-.7-1.779z"/></svg>