<svg xmlns="http://www.w3.org/2000/svg" width="192" height="201" fill="none" viewBox="0 0 192 201"><path fill="#E1E3E2" stroke="#121F41" stroke-linecap="round" stroke-linejoin="round" stroke-width="1.18976" d="m34.36 16.737-.02-.954 1.037.445 2.542-.572 1.186-1.313 2.16-.148 1.886-1.017 8.26.932 2.605-.19 2.966-1.864 4.85-.233.593.508 1.42-1.25.126-1.715 1.313 1.313 4.935.847 3.156 1.504 2.034-1.101 1.165-3.622h3.346l1.06 1.63 3.092-1.207 3.07 4.872 2.077-.847.148-3.008 1.504-.424 3.982 1.038 2.054-.508 1.165 1.377.741-.17 1.462-5.083 2.181.085.233-.932 4.088-1.08.974-2.86 1.059-.233 1.653.826-.149 1.546 4.194 2.923-.402 2.351.953-.106.572 1.885-1.907 2.351 1.674.742-.022 2.308 2.754 1.991-.657 2.5-3.346 3.918 1.8 1.695.678 2.16 2.097 1.101-1.483 2.372.064 1.737 1.906.678 6.248-.296 1.123 1.059 2.075-.869 4.66.36 2.034-1.588.741 1.419h1.546l.318-4.236 3.537.106.932 1.419 1.038-1.61 1.779.91 1.906-4.108 1.356.783.339-1.016 5.295 1.207 2.033 1.44-1.716 1.674-.572 2.965 2.161 4.045.805 4.067 1.991 1.843 1.122-.254-.148 1.122-2.605 1.207.254 1.292 3.092 2.479-2.52 4.278-3.834 1.864-.339 2.287 1.314 1.08.317 3.157 1.144 1.567 2.393-.106 3.389 1.949-.572 1.694.297 1.589.784.106-1.038 1.228 2.075 1.843 1.653-.297 1.694 1.25.72-2.033.996-.509.614 3.008.995.55-.677.911-1.504-.339 1.546 2.711-.911 5.995.572 1.207h.868l.085 1.25-3.728 1.1.424 2.733-2.584-.847-1.652 4.596-.911-1.461v1.08l-.635.254 2.478 4.575 3.029-1.27.063 1.99.72.445-3.134 4.808.826.847-.805 1.229 2.499 2.732 1.038-.593 2.181 1.122-1.313 1.42.763.783.699 3.304 1.779 1.144.699 6.651 7.095 2.308-.339.721 1.631 2.52-1.398.254-.783 1.737.868.657-.381.889 1.25.064 2.922 2.965 1.864.064-.148 1.715 2.182.699.233 1.589 1.143.063-.529 2.394-2.542.339-.233 1.546.763 1.313 3.346 1.017 1.102 5.845-1.991-.063.995.614-.254 1.885-2.542.636.043 1.927-1.335 2.457-6.142 2.605.424.974-5.783 4.957 1.737 2.287-.593 1.822-1.398.318-.656 2.626-.848.889-.889-.211-.043.91 1.652 1.864-.148 1.716.805 1.483-.72 2.075.614 1.483-.593.72-3.579-.042-2.839 1.631-1.906-.678 1.44 3.113-.466 4.554-.974.297.847.529-.275.699-1.906-.36.127-1.292-2.711-.889-.381 1.567-.996.508.445 1.038-1.102-.042-.275.572-4.914-.445-1.652-.657-.72-1.61-5.338.954-.783 1.186.275.868-1.059.508-.296-.466-1.059.615-.233-.72-2.69.995-2.224-.275-1.123-.615-.529-1.821-2.86.911-1.122-1.652 2.414-.255.318-.762 1.356-.212-.657-1.864-1.038.72-1.694-.169-.742.89-1.546-.805-2.817.169 1.038-.974-.763-.699-.91.275-4.554-4.321-.805.297.254.847-1.059 1.059.318 2.478-1.313 1.737.466 1.144-1.081.699-.889-3.474-1.207-.254-.742.699-2.774-1.207-1.292 6.608-4.131 1.334-.169 1.314-1.462-1.25.678-2.118-1.165-2.584-1.885.085-.55-.89-2.5.784-1.186-1.208-4.66 1.123-.677-2.139-2.245.19-.149-.72-2.584-.762-1.482-1.695-.848.593-.89-.741-2.816 2.351-1.652.254 1.059 1.398-1.25 1.059-.381 1.906-.275 3.665.55 1.101-2.52-.805-3.093-5.231 1.356-2.267-.868-3.029-3.326-.233-2.181 4.067-2.097.424-1.102-.763.148-2.372 2.902-1.906 1.314-2.436.042-2.796-1.123-1.991-2.203 1.483-1.397-.847-6.884 3.897-1.398-1.059-.021-3.919-1.631-1.016-1.462-.085-.635 1.758-1.8 1.377-1.356-.17-.784-1.715.975-4.893-1.08-2.118-1.716-.932-7.456-.741-4.045-3.326-1.695-4.723-3.621-1.567-2.585-2.966-3.05-1.143-4.447 1.8-2.796-.212-3.622-2.076.974-2.478-.593-.762-4.511 2.372-2.457-1.356-1.42-2.689.212-3.538-2.118-6.375-5.697-3.304 1.207-4.808 1.822-2.436-1.165-3.283.847-1.44-1.483-1.716-.063-1.08 1.419-.169-.17-.763 1.525-2.266-1.164-1.801.444-1.694v-1.228l-.063-4.554-1.758-2.711.17-3.749 1.567-1.525.063-1.78-1.652-2.096.424-1.186-1.335-.848 4.13-6.608 4.385-.19-1.398-1.928 1.546-1.864-.593-1.843L11 84.472l2.075.91-.19-2.011 3.177 2.096 1.483-1.461-.276-2.394 2.669-.465.593-.72 4.109 3.05 1.25-.848 1.736.763 1.335-1.356-.212-.784 1.758-1.228-.106-2.669 1.038 2.055 1.61-1.292.317.932.975-.149 1.525 1.08 2.054-.592 1.06-1.08-.446-2.5-.465-.593-1.314.148-.762-2.499 1.27-1.08-1.779-2.055.954-1.461.084-1.991-.805-1.462.488-1.842-1.208-2.436-2.012-.763-.106-1.228 1.144-.212-.021-.91-1.123-.191-.127-.89 1.546-.635 1.208-3.919-1.653.636-1.546-1.737-.89.36-1.905-.89-1.165.509-.445-1.356.868-1.207.572-1.589.974.064.445-1.102-3.325-.931.021-3.686 1.207-.678 1.356 1.695 1.27-1.165.212-2.754-2.605-2.457 1.038-2.033 1.229-.572.593-1.927.847.53.148-1.23-.063-2.138-3.156-2.33-.233-3.537 3.367-.466-.338-.869 2.181-2.245z"/></svg>