<svg xmlns="http://www.w3.org/2000/svg" width="182" height="194" fill="none" viewBox="0 0 182 194"><path fill="#E1E3E2" stroke="#121F41" stroke-linecap="round" stroke-linejoin="round" stroke-width="1.18976" d="m117.485 2.065 2.478-.89 5.465 3.728 4.723.953.614.868h4.618l.783-1.228 1.779.995 1.271-2.075 4.385 1.694.402 1.101 2.478 1.653 2.817-.149 2.499.911-.889 1.44-2.139 1.313-1.716 2.945.995 2.626-.974.678-.508 1.758 2.097 2.308-.742 1.758.721.34.889-.784.72 1.885-1.376 2.86.19 1.312-1.101 1.08-.742 3.305-2.605 4.49-1.228-.381-.826 2.287-.784-.19.233-.784-2.669.233v1.779l1.546-.932.636 2.266 1.377-.17 1.525 2.5-.509 2.563-1.249.636-.805 1.863 1.948.89.022 1.038-3.156 1.207.254 1.207 3.685-.402-.339 1.44 1.61.043-.275 1.355 1.588-.085-.021 6.44 3.135 2.35.487 1.504.657-.063-.128 1.821.763-.762 1.165.38-.72-.995.847-1.355 2.33-.021-.275 2.097 1.652.89.677-.467 1.186.445 1.864-1.44.869 1.61-1.483.635.551.466-.191 3.22 1.716 1.842 2.499 1.165.551 2.457 1.292.085 1.843 1.482-.466 1.462.91 1.186.085 1.927 3.918.89 4.448 4.914.572 3.24-1.271.022-.021 1.228-3.05 1.334-.296-.932-.996-.106-.021 1.907-2.457-.34-1.694.827.953 1.631-.551 2.16 2.669.784 2.986-.381 5.041 3.367 1.229 5.444-1.525.55-.254 3.326-5.931.572-2.415.953 2.817 2.266-.804 7.858 1.482.191 1.801 1.673.063 1.08-1.25 2.478-8.027-1.271-1.567 3.749-.043 3.495-1.08 2.69.466 3.834-.529 2.224-3.262 4.892 1.355 1.801-.656.805-.869-.318-2.075-4.744-1.377-.954-2.436.805-2.245-.254 1.017-1.228-2.267-2.478-.042-2.33-4.279 1.27-2.52-.105.254 2.16-.911-.53-5.316 1.928-3.643 1.673.254.911-4.427-.868-1.482-2.076.678 2.351-1.038 1.673-.953-.148-.742 1.122.784-.169.233 1.271 2.351 2.372-3.325.318-.318-.699-1.8-.17-1.229-1.503-1.631-.022 1.335 3.771-.615 2.308 1.525-.678.572 1.97-.995.763-.996 2.457-3.431.36-.72-.763-3.071-.381-.424-.911-4.702.085-.148 2.224 2.139 1.673.53 1.25-.678 4.024-4.596-.72 4.532 2.605-.889 2.838 1.461-.402.805 1.334.169 2.542 1.737.021 1.038 1.758-.89 1.949-1.334.254-.805-2.118-1.737 1.101.403 2.669 1.25 1.716-2.818 1.313.064.911-1.292-.043-.614 1.229.783 1.419-3.939-1.61.233-2.838-.657-1.589-2.351-.084-5.528-5.147-.826 1.207.424 3.643-3.58-.021.043-1.483-1.377-.127-.636.869-4.956.571-1.038.805-4.553-.593.593-3.622-4.85-2.923v-.762l-4.152-.36.19-4.978-.656-.465.762-.551-.699-2.881.53-.635-.741-.403-.233 1.038-1.462.36-.699-.635.127-2.944-1.97-3.664-1.228-.424-3.092 1.716-1.356-.043-2.965-2.075-.466-1.674.72-1.376-2.118-2.267-.996 1.165-2.732-.021-.995 2.563-5.02-.911-2.775-1.949-.741-1.948-1.334-.381-2.67-4.914-3.706.233-.36-1.483-1.377-.424.593-4.659-1.99.423-1.886-.847-.17-2.69.552-.466-.784-.254.805-1.334-.784-.72-2.393.465-.784-.804-.805-2.097.36-2.309 1.695-2.393 1.292-.699 2.923.148-.022.593 4.448-.551 2.394-1.885.466-1.398-2.076-.233-2.14-2.097-2.435-.296-5.952-6.735-.995-4.406-3.114-2.372 1.547-.424-.89-.212-.508-1.313 1.08-1.165-1.208-.423-.275-3.622-1.758-.932-.678.593-.402-1.97-.89-.635.233-1.42-.932-1.037.36-1.038 1.017-.042.212-2.288-1.97-1.567-1.398.212-1.144-2.542-1.61-.487-2.075-2.67-1.165-.126.212-1.462-1.144-1.207-.042-2.838-2.055-2.436-.042-.974-.297.508-2.118-.55-.402.614-.847-.572.466-.953-.848-1.102-.254-2.647 1.313-.911-.423-.424 1.08-2.584 1.42-.148-.467-1.207.657-1.06-.805-.592 1.864-.996-.043-1.101-.698-.36.762-.466-.826-.021-.953-1.377.53-1.292-2.542-.424-.17-1.44 1.949-1.44L5.8 57.07l-.72-.848-1.483.487-1.377-1.27-.148-1.716.318.868 3.071.593.826-.762-2.838-5.295 1.63-1.843.276-1.63-2.245-1.272-1.8-3.58 4.066-1.99.996-1.42 2.266.424 5.126-1.948.741.847.085 2.33 2.5-.763 6.078 1.631-2.393 2.754.211 1.927 2.944-.826 5.317 2.033 1.8-2.35 3.855-2.246 3.283-5.231 10.654-5.867 3.389-3.728-1.631-6.058 3.41-5.38-.339-1.313 3.495-2.584 6.46.064 6.735-.975 4.236-1.419 3.05 1.165 3.199-.445 1.864 1.504h1.1l4.788-3.41.847.17.53 1.673L95.33 7.74l.932 1.652h2.394l2.351-2.287 1.609-.233 5.422-3.792 3.135-.02 3.94-2.034z"/></svg>