<svg xmlns="http://www.w3.org/2000/svg" width="180" height="132" fill="none" viewBox="0 0 180 132"><path fill="#E1E3E2" stroke="#121F41" stroke-linecap="round" stroke-linejoin="round" stroke-width="1.18976" d="m38.278 6.389 2.012.974 1.292-1.25 3.728.87 1.059-1.123 3.22 3.05 1.291-.085 1.017 2.584 3.092-.636.212-1.165-1.313-1.334.466-.847 4.066 2.287-2.562 1.78 1.165 3.494-1.44.021-1.716 1.314-.064 1.8 1.483 3.558 2.732 2.31 2.415.973.572 3.368 1.058 1.334.911.34 1.25-1.632 1.588-.593 1.271.445L69.9 26.49l2.457 1.377.106 1.716 1.229.254 3.643 7.816 4.49-.17 1.504-1.377 2.88 2.33 2.627-1.715 1.08 2.88 3.283 1.546 3.41 1.038 2.648-1.504 2.965.615 3.092.804.614 1.398 1.737.043.911.805.106 1.758 4.829 4.744 5.931.318.423 4.914 3.855 3.94 4.003-.806 1.377 1.864-1.229 6.44.975 1.82 3.473.89.763-.614-.212-.996 1.504-3.43 2.732.508 2.203-1.631.784.508.974-1.462 2.203-.91.932.974-.678 1.144.106 2.605 1.08 1.228-1.144 1.674.191 2.033 1.101 1.207-.296 2.627.889.89-.19 1.418 2.16 1.462-.042.762 4.596.953.89.932 2.287-3.325-.127-1.483 3.77.784 1.229 1.08-.361 1.758 1.038 1.271 3.559 1.864 1.948 2.944 3.071 2.351.551 1.08-.508 2.881 2.944 1.228 1.398 1.631-1.758 1.885.233.678-.975.89.636 1.144-1.25 1.821 1.991 3.664 1.61.615.466 1.567 2.817 1.779 1.97 4.13-3.58 3.093-.847 5.591-.847.996-1.991-.17-1.08.996-5.401-2.034-3.008 1.758-.826 2.881-2.309 1.25-1.779-1.208-3.156 2.118-1.673-.105-2.055 1.101-2.605-2.224-5.761.339-1.228-2.394-2.351-1.609-2.119.36-1.694-1.906-1.8.847-.445-.763-1.758.382-.784 1.609-4.257.572-1.186 1.038-1.335-.847-1.736-4.025-3.177-1.758-2.14-.211-5.888 1.334-3.706-2.563-3.516.509-2.627-1.737-.529 2.541-1.907 3.008-3.156-.911-1.228-1.44-1.398.169-1.08-1.461-1.673-.191-1.864-1.8-1.292.021.254-1.885-3.114-.847-.868-.974.784-1.928-1.589-1.44-.17-1.44-.931-.128-.55.89-3.877-.551-.868-2.16-.911-.254-1.229.868-.762 1.822-1.8.805.656 1.037-1.292 1.229.445 1.334-.91 1.165.677.805-1.25 1.716.53.402-.424 1.059-4.194.212-1.292 1.483-3.092-2.267-.784.382-2.35-1.187-.615 1.356 1.334.868.72 3.368-3.727 1.186-.55-1.44-3.496-1.377-.296-.826 2.097-2.33 1.122-4.49-.932.275-.487-2.308-1.694-.975-.996-1.864.127-1.969-.677-.149-.7 1.229-.338-1.673-.72.508-1.335-.466.276.953-.615.424-.826-1.144-1.482-.042-4.745 3.028-5.74-1.779.551-1.038-.784-2.499.7-.254-1.039-1.716-.614.127-.784-2.075.509-2.055-2.796-1.334-1.207-1.843.042-1.207-1.292-.275.297-.911-1.038-.593-2.14 1.292-1.758-1.102-2.287.233-1.44 1.546-2.987-4.702-.212-2.965-1.673-1.906.403-2.902-3.665-.805-1.885-2.69 1.716-2.647-2.012-.127-2.097-1.652-4.427 2.499L1 72.832l1.589-14.127 1.63-3.918 2.33-2.034 1.102-.021 1.504-2.711 3.727-3.177 2.606-.826 1.588-5.338-.064-.868-1.27-1.017.19-1.207 2.944-4.151-.805-3.77.466-2.796 1.017-1.716 1.716-.995.762-3.834-.466-.91 3.559-5.148.317-1.715 1.652-.805 1.398.317 1.78-1.08-.593-1.567.974-.89.127-5.295 1.419-1.63 1.101-.467 2.733 1.8z"/></svg>