<svg xmlns="http://www.w3.org/2000/svg" width="225" height="219" fill="none" viewBox="0 0 225 219"><path fill="#E1E3E2" stroke="#121F41" stroke-linecap="round" stroke-linejoin="round" stroke-width="1.18976" d="m1.46 72.092 6.078-1.504 6.694-2.965 9.15-.975 11.013-3.664 4.533.318 4.914 1.948 9.997 2.309 3.347-.127 2.753-1.334.614-1.78-.55-2.033-1.674.275.826-1.037-1.758-.848.784-.338-.085-1.102.445.593.572-.995-.89-3.559-1.122.064-.699-3.813 2.351-.677-.53-3.559 1.758-.212-.127-2.795.615-.233-.445-2.817-4.575.804-.953-6.311 1.63-1.186-.275-2.288-1.99.085-.72-2.88-3.114 1.44-1.08-5.402 3.558-.508-.17-1.334 1.78-.678.444 1.186 2.563-.572-.762-5.38-2.627.191-.635-3.325-.805-.043-.508-3.77 2.541-.55-1.419-8.324 1.589-.043.148.593 2.478-.339-.021 4.279 4.956-.636.381.72 3.283-.847 1.653-2.499 3.028-1.123 5.02.149 3.516-1.42 1.927.933 3.199-1.06 3.22 2.31 13.025 3.05.276 1.927 13.047-6.693 2.753 4.617 4.575-.36.593 3.389 10.824-2.796 1.249.89.064.826-.975.614.106 1.355.572-.466.509.488-.826 1.27 5.506-1.27.932 3.706-2.266.868.508 1.335 1.568.402.572 2.944-1.483.784.106.55 1.525-.529.805 3.75 1.737-1.145.783 1.165-.762.678 1.377 2.182-.89 4.045h-3.219l.254 1.928 5.676-.043 2.838-1.207-.55 2.203.762.678 4.956.02.826 1.632 3.686-.53-.064-2.075 3.474.275.212.91 5.824.594 4.427-.551.169-.89 4.342-1.101 1.377-.318.276 1.017-.572 2.457-.869.19.064 3.305 5.93-.826 1.102 6.947 1.038.063.847 5.168 5.57-.593-1.228 2.097-1.398-.381-.169.72-2.436.381.466 2.945 2.774-.445.064 1.038-1.504.317.191 1.483 1.313.614 4.617-2.224 4.66 8.049 3.728-2.987 1.461 2.097 1.038-.741 1.546 2.478 1.462-1.567 3.855 6.46.529-.509 5.105 4.533 1.694-3.135 1.038.466-.233 1.038 3.77.17-.191 3.346-.593.042-2.753 6.715.593 1.864-2.838 1.44-1.822-4.088-2.076.53.954 3.706-2.987 1.906.148.805-3.071 1.377-.741-1.42-5.676.36-.339-.952-1.271.212 2.626 12.305-5.613-.508.297.572-2.478.148 2.478 2.902.784-.275.656 1.08.784-.89.233 1.25.889-.572.297.847.572-.233 2.499 3.686 1.334-.339.805 4.045-1.906 1.165 6.863 3.241 1.419-1.144 1.736 1.97-2.456 3.474 3.6 2.795-2.965 1.737-.445-.487-5.104 4.13 3.007 4.766-2.16 1.419-3.198.551-5.952 5.104-3.008 5.549-3.092 8.218-3.918 5.274-1.462-.063 2.118-1.462.36-1.419 2.902-2.668.593-1.525-1.462-3.22-2.732-2.711-4.003-2.266-7.371.254-2.944 1.61-11.289 3.791-2.754 1.885-5.062 6.142-7.667 13.196-1.97 2.203-1.482-.339-2.457 1.546-.636-.064.148-.953 1.144.424 1.186-.826.805-2.034 1.356-.105 3.007-2.309 3.05-5.211.064-3.198-1.864-2.711-3.325-1.97-2.457.127-3.114 1.25-6.1-1.08-6.799.826-3.833 1.588-10.464 6.1-9.594 10.379-10.294 4.977-6.65 8.79-12.921 21.541-4.109 3.24-9.425 3.453v-2.542l3.092-2.351-.17-1.355 2.182-1.144 5.55-1.038 5.443-2.605.699-3.453 4.85-6.777.593-2.944 1.42-.297 2.71-4.321-.55-.402-1.144.593-.953 2.393-1.313-2.076-2.627-.254-.826-4.596 1.313-1.927-.063-1.737-.7-1.08-3.579-1.335-1.419-2.584-.91-.317.72-2.013-2.034 1.187 1.568 4.596 1.737 1.525.127 4.405-1.504 2.627-4.342 2.774-1.822 4.215-2.054.191-1.292-18.935-2.394.317-5.485-3.389-3.813.572-.657-3.177.975-.275-.382-2.817-9.594 1.525-.572-3.283-1.885.063-.657-3.749 3.05-.868-.678-5.952-4.469.572-.212-1.398-3.388.381-.572-3.854 2.35-.339-.126-1.377 5.655-.784-.021-.932.995-.063.021-2.245 1.06-.043-.572-4.49 4.32-.657-.868-5.655-3.664.318-1.229-8.599-3.494.55-.276-2.202-4.405.55-.255-2.075-1.376-.064-.657-3.198-1.61.212-1.016-8.833-2.351.212L26.6 96.492l2.775-.509-.255-1.715-.571-1.674-2.034.318-.72-3.516 2.309-.699.317-1.737-7.243 1.42.275 2.393-1.44.296.212 1.102-1.928.402-1.207-.995-2.055.275-1.63 1.673-.954-.783-1.419-8.515-.953.043-1.313-7.71-1.229-1.356z"/></svg>