<svg xmlns="http://www.w3.org/2000/svg" width="185" height="239" fill="none" viewBox="0 0 185 239"><path fill="#E1E3E2" stroke="#121F41" stroke-linecap="round" stroke-linejoin="round" stroke-width="1.18976" d="m77.797 8.143 1.8-.254 4.47 5.634.741 4.045 2.69-1.398 5.55-4.829 3.41.276.55.89 2.182.296.02 1.165 7.287.211-1.949.932.233.509 1.356-.53-.826.847 2.944 12.137 1.313.572 2.542-2.733-.021 3.516 1.122 2.33 1.271-1.334.233-2.605.572-.255-.381-2.605-1.059-1.398 4.447-8.387 2.119-.445 3.897-2.796 4.299-.127.509 1.928 1.673-.149 2.139-1.652 5.634-7.201 4.236-.19.657.656-.911 2.203 1.462.635-.487 1.228 2.075 1.695.403 2.775 3.007.72.509 4.215-.932 3.897 1.482 2.372v1.546l2.606.826 1.44 5.91-.233 2.774 2.774-.72.022 1.06 2.52-.382.318 6.312-3.093 5.74-1.842.275.042-.699-4.469 1.44 1.949 9.659 1.673 5.994.614.17.381-3.453 1.187-.297 4.617 3.156 3.283 4.808 3.537 3.22-3.283 5.062.191 3.537.72.762-2.5-.974-1.99.127-.106 4.11 1.736.592 1.758 1.78 1.525 3.79 2.246 1.822.614 1.313-1.589 3.516 2.012 1.356.975-.445.529 1.716-2.965-.572-.932.508.212 1.61 1.546.953-.89.657.297 1.186-2.775.36 2.563.614 1.758-1.08 2.902.466.085 2.33 1.779 2.414-1.504 3.495-3.22 2.33-.063 1.525-1.695 1.017-1.207-.593-.614.402-.402.508.656.953-1.25 1.292.233.636-1.164-.212.254.636-.932.381 3.41 3.029.805 2.118-.255 2.69-.953 1.525-1.948-.17.529 1.229-.508 1.376 3.219 1.61.297 3.198-1.906 1.419-1.991-1.249-.487 1.991 3.346.402.275 1.144-2.139 2.69-1.927-.127 1.122 1.758 1.441-.339.72-1.123 4.935-.932 1.207.996 1.102 1.843.084 2.435 1.44.36.551.975 1.356-.678-1.568 3.283.72 1.25 3.305.931 1.546-.381-1.207 3.114.847 1.885-1.652.635 2.605 4.935-1.017.445-.826 2.499-2.16 2.436 3.41 3.241-2.372 2.902-.127.953 1.334.106-1.97 1.397 3.368 3.94-.17 3.156-1.228.974 1.504 3.008-.53.868 2.034 2.309-.36.678 1.567 2.817-.636 1.419-3.897 2.139 1.695.932-3.114 2.902.953.466-.974 1.059-.784-.466-1.482 1.948-1.229-.444-.402 1.249-3.559.911-.529 1.779-2.351-1.715-1.123.953.36 1.038-1.038 1.567-.889-1.271-1.462 1.271-.932-.233 1.758 4.766-1.673 3.791.636 1.716 3.367.042-.275 4.702 1.758.741-.741 1.504-5.295-1.207-.339 1.016-1.356-.783-1.906 4.109-1.779-.911-1.038 1.61-.932-1.419-3.537-.106-.318 4.236h-1.546l-.741-1.419-2.034 1.588-4.66-.36-2.075.869-1.123-1.059-6.248.296-1.906-.678-.064-1.736 1.483-2.373-2.097-1.101-.678-2.16-1.8-1.695 3.346-3.918.657-2.5-2.754-1.991.022-2.308-1.674-.742 1.907-2.351-.572-1.885-.953.106.402-2.351-4.194-2.923.149-1.546-1.653-.826-1.059.233-.974 2.859-4.088 1.081-.233.932-2.181-.085-1.462 5.083-.741.17-1.165-1.377-2.054.508-3.982-1.038-1.504.424-.149 3.008-2.075.847-3.071-4.872-3.093 1.208-1.059-1.631h-3.346l-1.165 3.622-2.034 1.101-3.156-1.504-4.935-.847-1.313-1.313-.127 1.715-1.419 1.25-.593-.508-4.85.233-2.966 1.864-2.605.19-8.26-.932-1.885 1.017-2.16.148-1.187 1.313-2.541.572-1.038-.445.02.954-1.334.275-.444 1.716-1.42.232-4.087-4.257-2.118-.423 1.821-3.559-4.278-.741-.72 1.292-2.606-4.681.276-1.313-.996-2.775.996-1.8-2.076.275-1.864-2.224-.762.847-.954-.211-.042-3.199.7-.127.126-1.292 1.144-.402-1.78-4.808-.063-2.161.784-.105.296-.869.954.064 2.456 1.609 2.203-3.6 1.885 1.249.932-1.207-.91-4.511-3.728-1.059.974-1.864-.296-1.144 1.228-.148-1.165-.911.466-2.415 3.474-1.546-1.144-1.398-.085-2.478-1.948.614.423 1.652-1.334.191-1.144-4.999-1.017.212.255-4.85-3.898 1.292-1.016 2.139-.7.043-2.054-1.483-.699-1.864-2.647-.487-.021-1.589-1.44-.127-.043.572-2.309-2.076 1.144.128-.296-.678 1.207-.445-2.52-2.584-1.25-.974-3.58-.064.17-4.172-4.914-2.966.593-3.092 2.393-4.088.53-3.834-2.288.17-.572-2.521-3.6-2.097-1.038-3.367 2.541-.53-1.059-2.181.953-2.055-2.817-2.097 1.483-1.673.127-1.906-.741-.699.635-.932 2.372-.551 2.246-5.274-.826-2.732.487-1.949L5 105.298l.042-2.52-.656-.657.593-3.304-.657-1.313 1.292-2.034-.402-1.398.571-1.355-.571-.466.699-1.271-2.754-2.436.254-1.546 1.229-.487-.043-1.038-2.817-6.248 1.928-.911-.19-2.52 3.833-.297.36-1.017 3.368-.106-.784-1.736.424-2.351 3.05-2.076-.085-5.105 1.038-.53-.318-1.058 3.008-5.338 4.109-3.982-.17-1.143-1.694-.911 1.059-1.08-1.61-5.19 3.855-.804 1.885-2.839-.042-2.986-1.928-.91.953-8.643 2.012-.063-.317 2.266 2.986 1.97.869 1.589 2.223-.022-1.016-3.155H29.23l-.106-5.592 3.177-.487 1.886-2.288 1.419.466-.445-2.139 5.295 4.511 1.63.191 2.84-6.46 2.498-.36 1.038-.869-1.673-3.918.995-3.6-1.376-1.038 2.266-1.589 4.384 1.61.742 1.355-.233 3.093 1.694-.34.89-1.545 1.482.02-2.584 4.089 6.926-.869 2.31-1.546 2.18.19 2.013-3.24 1.843-.296 1.122-1.864.297-2.52 6.079-4.131.72.699z"/></svg>