<svg width="30" height="45" viewBox="0 0 30 45" fill="none" xmlns="http://www.w3.org/2000/svg">
<path d="M24.2694 43.9467L24.2673 43.945L1.31256 24.5848C1.31224 24.5845 1.31191 24.5842 1.31158 24.584C0.939247 24.2627 0.667655 23.9325 0.488838 23.595C0.330464 23.2594 0.25 22.8913 0.25 22.4873C0.25 22.0833 0.330466 21.7152 0.488844 21.3796C0.667649 21.0421 0.939213 20.7119 1.31151 20.3907C1.31186 20.3904 1.31221 20.3901 1.31256 20.3898L24.2665 1.03023C24.2667 1.03013 24.2668 1.03003 24.2669 1.02993C24.886 0.511987 25.6332 0.25 26.5226 0.25C27.1351 0.25 27.6736 0.377728 28.1441 0.627388L28.144 0.627575L28.1533 0.632017C28.6491 0.869492 29.0373 1.19047 29.325 1.59357C29.608 1.99014 29.75 2.43872 29.75 2.94749C29.75 3.6556 29.431 4.30184 28.7475 4.89153C28.7472 4.89186 28.7468 4.8922 28.7464 4.89254L8.06106 22.296L7.83368 22.4873L8.06106 22.6786L28.7464 40.0821C28.7468 40.0824 28.7471 40.0827 28.7475 40.083C29.4295 40.6715 29.75 41.3259 29.75 42.0525C29.75 42.5426 29.609 42.9831 29.325 43.381L29.325 43.381L29.3225 43.3847C29.0344 43.8038 28.6467 44.1316 28.1533 44.368L28.1532 44.3678L28.1441 44.3726C27.6736 44.6223 27.1351 44.75 26.5226 44.75C25.635 44.75 24.8886 44.4807 24.2694 43.9467Z" fill="#0B0B0B" stroke="white" stroke-width="0.5"/>
</svg>
