<svg width="30" height="45" viewBox="0 0 30 45" fill="none" xmlns="http://www.w3.org/2000/svg">
<path d="M5.73065 1.05327L5.73273 1.05502L28.6874 20.4152C28.6878 20.4155 28.6881 20.4158 28.6884 20.416C29.0608 20.7373 29.3323 21.0675 29.5112 21.405C29.6695 21.7406 29.75 22.1087 29.75 22.5127C29.75 22.9167 29.6695 23.2848 29.5112 23.6204C29.3324 23.9579 29.0608 24.2881 28.6885 24.6093C28.6881 24.6096 28.6878 24.6099 28.6874 24.6102L5.73346 43.9698C5.73334 43.9699 5.73322 43.97 5.7331 43.9701C5.11403 44.488 4.36681 44.75 3.47741 44.75C2.86491 44.75 2.3264 44.6223 1.85588 44.3726L1.85598 44.3724L1.8467 44.368C1.35095 44.1305 0.962702 43.8095 0.674999 43.4064C0.391962 43.0099 0.25 42.5613 0.25 42.0525C0.25 41.3444 0.569027 40.6982 1.25245 40.1085C1.25284 40.1081 1.25323 40.1078 1.25362 40.1075L21.9389 22.704L22.1663 22.5127L21.9389 22.3214L1.25362 4.91795C1.25325 4.91762 1.25287 4.9173 1.2525 4.91698C0.570478 4.32851 0.25 3.67414 0.25 2.94749C0.25 2.4574 0.390968 2.01694 0.675001 1.61898L0.675032 1.619L0.677544 1.61535C0.965616 1.1962 1.35325 0.868385 1.8467 0.632019L1.8468 0.63221L1.85588 0.627388C2.3264 0.377728 2.86491 0.25 3.47741 0.25C4.36499 0.25 5.11136 0.519283 5.73065 1.05327Z" fill="#0A0A0A" stroke="white" stroke-width="0.5"/>
</svg>
